G04 #@! TF.GenerationSoftware,KiCad,Pcbnew,7.0.10-7.0.10~ubuntu22.04.1*
G04 #@! TF.CreationDate,2024-01-11T21:49:49-05:00*
G04 #@! TF.ProjectId,caravel-breakout-fpga-ICE40UP5K-TT3,63617261-7665-46c2-9d62-7265616b6f75,1.2*
G04 #@! TF.SameCoordinates,PX2dc6c00PY42c1d80*
G04 #@! TF.FileFunction,Soldermask,Top*
G04 #@! TF.FilePolarity,Negative*
%FSLAX46Y46*%
G04 Gerber Fmt 4.6, Leading zero omitted, Abs format (unit mm)*
G04 Created by KiCad (PCBNEW 7.0.10-7.0.10~ubuntu22.04.1) date 2024-01-11 21:49:49*
%MOMM*%
%LPD*%
G01*
G04 APERTURE LIST*
G04 Aperture macros list*
%AMRoundRect*
0 Rectangle with rounded corners*
0 $1 Rounding radius*
0 $2 $3 $4 $5 $6 $7 $8 $9 X,Y pos of 4 corners*
0 Add a 4 corners polygon primitive as box body*
4,1,4,$2,$3,$4,$5,$6,$7,$8,$9,$2,$3,0*
0 Add four circle primitives for the rounded corners*
1,1,$1+$1,$2,$3*
1,1,$1+$1,$4,$5*
1,1,$1+$1,$6,$7*
1,1,$1+$1,$8,$9*
0 Add four rect primitives between the rounded corners*
20,1,$1+$1,$2,$3,$4,$5,0*
20,1,$1+$1,$4,$5,$6,$7,0*
20,1,$1+$1,$6,$7,$8,$9,0*
20,1,$1+$1,$8,$9,$2,$3,0*%
G04 Aperture macros list end*
%ADD10RoundRect,0.135000X0.135000X0.185000X-0.135000X0.185000X-0.135000X-0.185000X0.135000X-0.185000X0*%
%ADD11RoundRect,0.225000X0.225000X0.250000X-0.225000X0.250000X-0.225000X-0.250000X0.225000X-0.250000X0*%
%ADD12C,1.020000*%
%ADD13C,2.000000*%
%ADD14RoundRect,0.102000X0.898000X0.408000X-0.898000X0.408000X-0.898000X-0.408000X0.898000X-0.408000X0*%
%ADD15RoundRect,0.140000X0.170000X-0.140000X0.170000X0.140000X-0.170000X0.140000X-0.170000X-0.140000X0*%
%ADD16RoundRect,0.225000X-0.250000X0.225000X-0.250000X-0.225000X0.250000X-0.225000X0.250000X0.225000X0*%
%ADD17RoundRect,0.200000X-0.275000X0.200000X-0.275000X-0.200000X0.275000X-0.200000X0.275000X0.200000X0*%
%ADD18RoundRect,0.200000X0.275000X-0.200000X0.275000X0.200000X-0.275000X0.200000X-0.275000X-0.200000X0*%
%ADD19C,1.500000*%
%ADD20RoundRect,0.200000X-0.335876X-0.053033X-0.053033X-0.335876X0.335876X0.053033X0.053033X0.335876X0*%
%ADD21RoundRect,0.200000X0.200000X0.275000X-0.200000X0.275000X-0.200000X-0.275000X0.200000X-0.275000X0*%
%ADD22RoundRect,0.150000X-0.150000X0.512500X-0.150000X-0.512500X0.150000X-0.512500X0.150000X0.512500X0*%
%ADD23RoundRect,0.135000X0.185000X-0.135000X0.185000X0.135000X-0.185000X0.135000X-0.185000X-0.135000X0*%
%ADD24RoundRect,0.225000X0.250000X-0.225000X0.250000X0.225000X-0.250000X0.225000X-0.250000X-0.225000X0*%
%ADD25RoundRect,0.200000X0.200000X0.250000X-0.200000X0.250000X-0.200000X-0.250000X0.200000X-0.250000X0*%
%ADD26RoundRect,0.135000X-0.135000X-0.185000X0.135000X-0.185000X0.135000X0.185000X-0.135000X0.185000X0*%
%ADD27RoundRect,0.200000X-0.200000X-0.275000X0.200000X-0.275000X0.200000X0.275000X-0.200000X0.275000X0*%
%ADD28RoundRect,0.140000X0.140000X0.170000X-0.140000X0.170000X-0.140000X-0.170000X0.140000X-0.170000X0*%
%ADD29RoundRect,0.218750X-0.256250X0.218750X-0.256250X-0.218750X0.256250X-0.218750X0.256250X0.218750X0*%
%ADD30RoundRect,0.225000X-0.225000X-0.250000X0.225000X-0.250000X0.225000X0.250000X-0.225000X0.250000X0*%
%ADD31RoundRect,0.150000X0.150000X-0.650000X0.150000X0.650000X-0.150000X0.650000X-0.150000X-0.650000X0*%
%ADD32RoundRect,0.102000X0.700000X-0.750000X0.700000X0.750000X-0.700000X0.750000X-0.700000X-0.750000X0*%
%ADD33RoundRect,0.243750X-0.456250X0.243750X-0.456250X-0.243750X0.456250X-0.243750X0.456250X0.243750X0*%
%ADD34RoundRect,0.140000X-0.170000X0.140000X-0.170000X-0.140000X0.170000X-0.140000X0.170000X0.140000X0*%
%ADD35RoundRect,0.140000X-0.140000X-0.170000X0.140000X-0.170000X0.140000X0.170000X-0.140000X0.170000X0*%
%ADD36RoundRect,0.102000X0.300000X0.550000X-0.300000X0.550000X-0.300000X-0.550000X0.300000X-0.550000X0*%
%ADD37RoundRect,0.102000X0.150000X0.550000X-0.150000X0.550000X-0.150000X-0.550000X0.150000X-0.550000X0*%
%ADD38O,1.250000X2.400000*%
%ADD39O,1.180000X2.080000*%
%ADD40RoundRect,0.135000X-0.185000X0.135000X-0.185000X-0.135000X0.185000X-0.135000X0.185000X0.135000X0*%
%ADD41RoundRect,0.062500X0.062500X-0.375000X0.062500X0.375000X-0.062500X0.375000X-0.062500X-0.375000X0*%
%ADD42RoundRect,0.062500X0.375000X-0.062500X0.375000X0.062500X-0.375000X0.062500X-0.375000X-0.062500X0*%
%ADD43R,5.600000X5.600000*%
%ADD44RoundRect,0.200000X-0.053033X0.335876X-0.335876X0.053033X0.053033X-0.335876X0.335876X-0.053033X0*%
%ADD45RoundRect,0.150000X-0.150000X-0.200000X0.150000X-0.200000X0.150000X0.200000X-0.150000X0.200000X0*%
G04 APERTURE END LIST*
D10*
X2010000Y26200000D03*
X990000Y26200000D03*
X2010000Y24950000D03*
X990000Y24950000D03*
X2010000Y31300000D03*
X990000Y31300000D03*
X2010000Y35200000D03*
X990000Y35200000D03*
X2010000Y30000000D03*
X990000Y30000000D03*
X2010000Y23700000D03*
X990000Y23700000D03*
X2010000Y32600000D03*
X990000Y32600000D03*
X2010000Y33900000D03*
X990000Y33900000D03*
D11*
X18775000Y19250000D03*
X17225000Y19250000D03*
D12*
X6330000Y2120000D03*
X8870000Y2120000D03*
D13*
X7600000Y3390000D03*
D12*
X6330000Y4660000D03*
X8870000Y4660000D03*
X6330000Y7200000D03*
X8870000Y7200000D03*
X6330000Y9740000D03*
X8870000Y9740000D03*
X6330000Y12280000D03*
X8870000Y12280000D03*
X6330000Y14820000D03*
X8870000Y14820000D03*
X6330000Y17360000D03*
X8870000Y17360000D03*
X6330000Y19900000D03*
X8870000Y19900000D03*
X6330000Y22440000D03*
X8870000Y22440000D03*
X6330000Y24980000D03*
X8870000Y24980000D03*
X6330000Y27520000D03*
X8870000Y27520000D03*
X6330000Y30060000D03*
X8870000Y30060000D03*
X6330000Y32600000D03*
X8870000Y32600000D03*
X6330000Y35140000D03*
X8870000Y35140000D03*
X6330000Y37680000D03*
X8870000Y37680000D03*
X6330000Y40220000D03*
X8870000Y40220000D03*
X6330000Y42760000D03*
X8870000Y42760000D03*
X6330000Y45300000D03*
X8870000Y45300000D03*
X6330000Y47840000D03*
X8870000Y47840000D03*
D13*
X7600000Y49110000D03*
D12*
X6330000Y50380000D03*
X8870000Y50380000D03*
D14*
X10450000Y2120000D03*
X4750000Y2120000D03*
X10450000Y4660000D03*
X4750000Y4660000D03*
X10450000Y7200000D03*
X4750000Y7200000D03*
X10450000Y9740000D03*
X4750000Y9740000D03*
X10450000Y12280000D03*
X4750000Y12280000D03*
X10450000Y14820000D03*
X4750000Y14820000D03*
X10450000Y17360000D03*
X4750000Y17360000D03*
X10450000Y19900000D03*
X4750000Y19900000D03*
X10450000Y22440000D03*
X4750000Y22440000D03*
X10450000Y24980000D03*
X4750000Y24980000D03*
X10450000Y27520000D03*
X4750000Y27520000D03*
X10450000Y30060000D03*
X4750000Y30060000D03*
X10450000Y32600000D03*
X4750000Y32600000D03*
X10450000Y35140000D03*
X4750000Y35140000D03*
X10450000Y37680000D03*
X4750000Y37680000D03*
X10450000Y40220000D03*
X4750000Y40220000D03*
X10450000Y42760000D03*
X4750000Y42760000D03*
X10450000Y45300000D03*
X4750000Y45300000D03*
X10450000Y47840000D03*
X4750000Y47840000D03*
X10450000Y50380000D03*
X4750000Y50380000D03*
D15*
X24250000Y32220000D03*
X24250000Y33180000D03*
D16*
X20400000Y12775000D03*
X20400000Y11225000D03*
D17*
X31500000Y47900000D03*
X31500000Y46250000D03*
D18*
X24950000Y39025000D03*
X24950000Y40675000D03*
D17*
X23450000Y40675000D03*
X23450000Y39025000D03*
D19*
X32000000Y51000000D03*
D20*
X30616637Y11983363D03*
X31783363Y10816637D03*
D15*
X43400000Y19470000D03*
X43400000Y20430000D03*
D21*
X32625000Y2100000D03*
X30975000Y2100000D03*
D16*
X15400000Y47562500D03*
X15400000Y46012500D03*
D17*
X43200000Y47825000D03*
X43200000Y46175000D03*
D22*
X28400000Y41487500D03*
X27450000Y41487500D03*
X26500000Y41487500D03*
X26500000Y39212500D03*
X28400000Y39212500D03*
D23*
X42400000Y19440000D03*
X42400000Y20460000D03*
D18*
X26900000Y1250000D03*
X26900000Y2900000D03*
D24*
X25450000Y32475000D03*
X25450000Y34025000D03*
D21*
X32625000Y32600000D03*
X30975000Y32600000D03*
D10*
X2810000Y8800000D03*
X1790000Y8800000D03*
D25*
X30700000Y19200000D03*
X30700000Y21050000D03*
X29250000Y21050000D03*
X29250000Y19200000D03*
D20*
X29516637Y10883363D03*
X30683363Y9716637D03*
D26*
X24990000Y4200000D03*
X26010000Y4200000D03*
D27*
X17475000Y9700000D03*
X19125000Y9700000D03*
D28*
X27930000Y36350000D03*
X26970000Y36350000D03*
D29*
X18100000Y7987500D03*
X18100000Y6412500D03*
D30*
X31025000Y41700000D03*
X32575000Y41700000D03*
D11*
X17675000Y37900000D03*
X16125000Y37900000D03*
D17*
X21950000Y40675000D03*
X21950000Y39025000D03*
D31*
X23495000Y6600000D03*
X24765000Y6600000D03*
X26035000Y6600000D03*
X27305000Y6600000D03*
X27305000Y13800000D03*
X26035000Y13800000D03*
X24765000Y13800000D03*
X23495000Y13800000D03*
D26*
X25490000Y17000000D03*
X26510000Y17000000D03*
D21*
X32625000Y37700000D03*
X30975000Y37700000D03*
D11*
X17675000Y43500000D03*
X16125000Y43500000D03*
D23*
X19800000Y5190000D03*
X19800000Y6210000D03*
D30*
X26475000Y43200000D03*
X28025000Y43200000D03*
D32*
X14300000Y1750000D03*
X14300000Y8250000D03*
D19*
X1000000Y47000000D03*
D23*
X23300000Y32190000D03*
X23300000Y33210000D03*
D33*
X19900000Y43537500D03*
X19900000Y41662500D03*
D34*
X19800000Y8380000D03*
X19800000Y7420000D03*
D11*
X28225000Y37550000D03*
X26675000Y37550000D03*
D24*
X22000000Y31925000D03*
X22000000Y33475000D03*
D17*
X32200000Y6825000D03*
X32200000Y5175000D03*
D34*
X19300000Y37730000D03*
X19300000Y36770000D03*
D10*
X2710000Y13100000D03*
X1690000Y13100000D03*
D21*
X32625000Y40200000D03*
X30975000Y40200000D03*
D35*
X27720000Y27800000D03*
X28680000Y27800000D03*
D17*
X13900000Y47625000D03*
X13900000Y45975000D03*
D28*
X19030000Y20700000D03*
X18070000Y20700000D03*
D10*
X18520000Y5000000D03*
X17500000Y5000000D03*
D35*
X29170000Y17600000D03*
X30130000Y17600000D03*
D11*
X22125000Y35850000D03*
X20575000Y35850000D03*
D36*
X25820000Y45450000D03*
X25020000Y45450000D03*
D37*
X23870000Y45450000D03*
X22870000Y45450000D03*
X22370000Y45450000D03*
X21370000Y45450000D03*
D36*
X19420000Y45450000D03*
X20220000Y45450000D03*
D37*
X20870000Y45450000D03*
X21870000Y45450000D03*
X23370000Y45450000D03*
X24370000Y45450000D03*
D38*
X28240000Y50900000D03*
D39*
X17000000Y46900000D03*
X28240000Y46900000D03*
D38*
X17000000Y50900000D03*
D26*
X24690000Y19200000D03*
X25710000Y19200000D03*
D40*
X21400000Y43360000D03*
X21400000Y42340000D03*
X24180000Y43360000D03*
X24180000Y42340000D03*
D41*
X19250000Y22562500D03*
X19750000Y22562500D03*
X20250000Y22562500D03*
X20750000Y22562500D03*
X21250000Y22562500D03*
X21750000Y22562500D03*
X22250000Y22562500D03*
X22750000Y22562500D03*
X23250000Y22562500D03*
X23750000Y22562500D03*
X24250000Y22562500D03*
X24750000Y22562500D03*
D42*
X25437500Y23250000D03*
X25437500Y23750000D03*
X25437500Y24250000D03*
X25437500Y24750000D03*
X25437500Y25250000D03*
X25437500Y25750000D03*
X25437500Y26250000D03*
X25437500Y26750000D03*
X25437500Y27250000D03*
X25437500Y27750000D03*
X25437500Y28250000D03*
X25437500Y28750000D03*
D41*
X24750000Y29437500D03*
X24250000Y29437500D03*
X23750000Y29437500D03*
X23250000Y29437500D03*
X22750000Y29437500D03*
X22250000Y29437500D03*
X21750000Y29437500D03*
X21250000Y29437500D03*
X20750000Y29437500D03*
X20250000Y29437500D03*
X19750000Y29437500D03*
X19250000Y29437500D03*
D42*
X18562500Y28750000D03*
X18562500Y28250000D03*
X18562500Y27750000D03*
X18562500Y27250000D03*
X18562500Y26750000D03*
X18562500Y26250000D03*
X18562500Y25750000D03*
X18562500Y25250000D03*
X18562500Y24750000D03*
X18562500Y24250000D03*
X18562500Y23750000D03*
X18562500Y23250000D03*
D43*
X22000000Y26000000D03*
D44*
X30683363Y11983363D03*
X29516637Y10816637D03*
D12*
X36130000Y2120000D03*
X38670000Y2120000D03*
D13*
X37400000Y3390000D03*
D12*
X36130000Y4660000D03*
X38670000Y4660000D03*
X36130000Y7200000D03*
X38670000Y7200000D03*
X36130000Y9740000D03*
X38670000Y9740000D03*
X36130000Y12280000D03*
X38670000Y12280000D03*
X36130000Y14820000D03*
X38670000Y14820000D03*
X36130000Y17360000D03*
X38670000Y17360000D03*
X36130000Y19900000D03*
X38670000Y19900000D03*
X36130000Y22440000D03*
X38670000Y22440000D03*
X36130000Y24980000D03*
X38670000Y24980000D03*
X36130000Y27520000D03*
X38670000Y27520000D03*
X36130000Y30060000D03*
X38670000Y30060000D03*
X36130000Y32600000D03*
X38670000Y32600000D03*
X36130000Y35140000D03*
X38670000Y35140000D03*
X36130000Y37680000D03*
X38670000Y37680000D03*
X36130000Y40220000D03*
X38670000Y40220000D03*
X36130000Y42760000D03*
X38670000Y42760000D03*
X36130000Y45300000D03*
X38670000Y45300000D03*
X36130000Y47840000D03*
X38670000Y47840000D03*
D13*
X37400000Y49110000D03*
D12*
X36130000Y50380000D03*
X38670000Y50380000D03*
D14*
X40250000Y2120000D03*
X34550000Y2120000D03*
X40250000Y4660000D03*
X34550000Y4660000D03*
X40250000Y7200000D03*
X34550000Y7200000D03*
X40250000Y9740000D03*
X34550000Y9740000D03*
X40250000Y12280000D03*
X34550000Y12280000D03*
X40250000Y14820000D03*
X34550000Y14820000D03*
X40250000Y17360000D03*
X34550000Y17360000D03*
X40250000Y19900000D03*
X34550000Y19900000D03*
X40250000Y22440000D03*
X34550000Y22440000D03*
X40250000Y24980000D03*
X34550000Y24980000D03*
X40250000Y27520000D03*
X34550000Y27520000D03*
X40250000Y30060000D03*
X34550000Y30060000D03*
X40250000Y32600000D03*
X34550000Y32600000D03*
X40250000Y35140000D03*
X34550000Y35140000D03*
X40250000Y37680000D03*
X34550000Y37680000D03*
X40250000Y40220000D03*
X34550000Y40220000D03*
X40250000Y42760000D03*
X34550000Y42760000D03*
X40250000Y45300000D03*
X34550000Y45300000D03*
X40250000Y47840000D03*
X34550000Y47840000D03*
X40250000Y50380000D03*
X34550000Y50380000D03*
D26*
X23490000Y16100000D03*
X24510000Y16100000D03*
X21990000Y4200000D03*
X23010000Y4200000D03*
D15*
X20700000Y32220000D03*
X20700000Y33180000D03*
D19*
X1000000Y6000000D03*
D45*
X21800000Y37350000D03*
X20400000Y37350000D03*
D30*
X28025000Y26600000D03*
X29575000Y26600000D03*
D44*
X31783363Y10883363D03*
X30616637Y9716637D03*
D22*
X18050000Y41837500D03*
X17100000Y41837500D03*
X16150000Y41837500D03*
X16150000Y39562500D03*
X18050000Y39562500D03*
D34*
X21750000Y13080000D03*
X21750000Y12120000D03*
M02*
