G04 #@! TF.GenerationSoftware,KiCad,Pcbnew,7.0.10-7.0.10~ubuntu22.04.1*
G04 #@! TF.CreationDate,2024-01-11T21:49:50-05:00*
G04 #@! TF.ProjectId,caravel-breakout-fpga-ICE40UP5K-TT3,63617261-7665-46c2-9d62-7265616b6f75,1.2*
G04 #@! TF.SameCoordinates,PX2dc6c00PY42c1d80*
G04 #@! TF.FileFunction,AssemblyDrawing,Top*
%FSLAX46Y46*%
G04 Gerber Fmt 4.6, Leading zero omitted, Abs format (unit mm)*
G04 Created by KiCad (PCBNEW 7.0.10-7.0.10~ubuntu22.04.1) date 2024-01-11 21:49:50*
%MOMM*%
%LPD*%
G01*
G04 APERTURE LIST*
%ADD10C,0.040000*%
%ADD11C,0.060000*%
%ADD12C,0.150000*%
%ADD13C,0.050000*%
%ADD14C,0.075000*%
%ADD15C,0.080000*%
%ADD16C,0.100000*%
%ADD17C,0.200000*%
G04 APERTURE END LIST*
D10*
X1332857Y26081800D02*
X1246190Y26205609D01*
X1184285Y26081800D02*
X1184285Y26341800D01*
X1184285Y26341800D02*
X1283333Y26341800D01*
X1283333Y26341800D02*
X1308095Y26329419D01*
X1308095Y26329419D02*
X1320476Y26317038D01*
X1320476Y26317038D02*
X1332857Y26292276D01*
X1332857Y26292276D02*
X1332857Y26255133D01*
X1332857Y26255133D02*
X1320476Y26230371D01*
X1320476Y26230371D02*
X1308095Y26217990D01*
X1308095Y26217990D02*
X1283333Y26205609D01*
X1283333Y26205609D02*
X1184285Y26205609D01*
X1419523Y26341800D02*
X1580476Y26341800D01*
X1580476Y26341800D02*
X1493809Y26242752D01*
X1493809Y26242752D02*
X1530952Y26242752D01*
X1530952Y26242752D02*
X1555714Y26230371D01*
X1555714Y26230371D02*
X1568095Y26217990D01*
X1568095Y26217990D02*
X1580476Y26193228D01*
X1580476Y26193228D02*
X1580476Y26131323D01*
X1580476Y26131323D02*
X1568095Y26106561D01*
X1568095Y26106561D02*
X1555714Y26094180D01*
X1555714Y26094180D02*
X1530952Y26081800D01*
X1530952Y26081800D02*
X1456666Y26081800D01*
X1456666Y26081800D02*
X1431904Y26094180D01*
X1431904Y26094180D02*
X1419523Y26106561D01*
X1729047Y26230371D02*
X1704285Y26242752D01*
X1704285Y26242752D02*
X1691904Y26255133D01*
X1691904Y26255133D02*
X1679523Y26279895D01*
X1679523Y26279895D02*
X1679523Y26292276D01*
X1679523Y26292276D02*
X1691904Y26317038D01*
X1691904Y26317038D02*
X1704285Y26329419D01*
X1704285Y26329419D02*
X1729047Y26341800D01*
X1729047Y26341800D02*
X1778571Y26341800D01*
X1778571Y26341800D02*
X1803333Y26329419D01*
X1803333Y26329419D02*
X1815714Y26317038D01*
X1815714Y26317038D02*
X1828095Y26292276D01*
X1828095Y26292276D02*
X1828095Y26279895D01*
X1828095Y26279895D02*
X1815714Y26255133D01*
X1815714Y26255133D02*
X1803333Y26242752D01*
X1803333Y26242752D02*
X1778571Y26230371D01*
X1778571Y26230371D02*
X1729047Y26230371D01*
X1729047Y26230371D02*
X1704285Y26217990D01*
X1704285Y26217990D02*
X1691904Y26205609D01*
X1691904Y26205609D02*
X1679523Y26180847D01*
X1679523Y26180847D02*
X1679523Y26131323D01*
X1679523Y26131323D02*
X1691904Y26106561D01*
X1691904Y26106561D02*
X1704285Y26094180D01*
X1704285Y26094180D02*
X1729047Y26081800D01*
X1729047Y26081800D02*
X1778571Y26081800D01*
X1778571Y26081800D02*
X1803333Y26094180D01*
X1803333Y26094180D02*
X1815714Y26106561D01*
X1815714Y26106561D02*
X1828095Y26131323D01*
X1828095Y26131323D02*
X1828095Y26180847D01*
X1828095Y26180847D02*
X1815714Y26205609D01*
X1815714Y26205609D02*
X1803333Y26217990D01*
X1803333Y26217990D02*
X1778571Y26230371D01*
X1332857Y24831800D02*
X1246190Y24955609D01*
X1184285Y24831800D02*
X1184285Y25091800D01*
X1184285Y25091800D02*
X1283333Y25091800D01*
X1283333Y25091800D02*
X1308095Y25079419D01*
X1308095Y25079419D02*
X1320476Y25067038D01*
X1320476Y25067038D02*
X1332857Y25042276D01*
X1332857Y25042276D02*
X1332857Y25005133D01*
X1332857Y25005133D02*
X1320476Y24980371D01*
X1320476Y24980371D02*
X1308095Y24967990D01*
X1308095Y24967990D02*
X1283333Y24955609D01*
X1283333Y24955609D02*
X1184285Y24955609D01*
X1419523Y25091800D02*
X1580476Y25091800D01*
X1580476Y25091800D02*
X1493809Y24992752D01*
X1493809Y24992752D02*
X1530952Y24992752D01*
X1530952Y24992752D02*
X1555714Y24980371D01*
X1555714Y24980371D02*
X1568095Y24967990D01*
X1568095Y24967990D02*
X1580476Y24943228D01*
X1580476Y24943228D02*
X1580476Y24881323D01*
X1580476Y24881323D02*
X1568095Y24856561D01*
X1568095Y24856561D02*
X1555714Y24844180D01*
X1555714Y24844180D02*
X1530952Y24831800D01*
X1530952Y24831800D02*
X1456666Y24831800D01*
X1456666Y24831800D02*
X1431904Y24844180D01*
X1431904Y24844180D02*
X1419523Y24856561D01*
X1667142Y25091800D02*
X1840476Y25091800D01*
X1840476Y25091800D02*
X1729047Y24831800D01*
X1332857Y31181800D02*
X1246190Y31305609D01*
X1184285Y31181800D02*
X1184285Y31441800D01*
X1184285Y31441800D02*
X1283333Y31441800D01*
X1283333Y31441800D02*
X1308095Y31429419D01*
X1308095Y31429419D02*
X1320476Y31417038D01*
X1320476Y31417038D02*
X1332857Y31392276D01*
X1332857Y31392276D02*
X1332857Y31355133D01*
X1332857Y31355133D02*
X1320476Y31330371D01*
X1320476Y31330371D02*
X1308095Y31317990D01*
X1308095Y31317990D02*
X1283333Y31305609D01*
X1283333Y31305609D02*
X1184285Y31305609D01*
X1419523Y31441800D02*
X1580476Y31441800D01*
X1580476Y31441800D02*
X1493809Y31342752D01*
X1493809Y31342752D02*
X1530952Y31342752D01*
X1530952Y31342752D02*
X1555714Y31330371D01*
X1555714Y31330371D02*
X1568095Y31317990D01*
X1568095Y31317990D02*
X1580476Y31293228D01*
X1580476Y31293228D02*
X1580476Y31231323D01*
X1580476Y31231323D02*
X1568095Y31206561D01*
X1568095Y31206561D02*
X1555714Y31194180D01*
X1555714Y31194180D02*
X1530952Y31181800D01*
X1530952Y31181800D02*
X1456666Y31181800D01*
X1456666Y31181800D02*
X1431904Y31194180D01*
X1431904Y31194180D02*
X1419523Y31206561D01*
X1803333Y31441800D02*
X1753809Y31441800D01*
X1753809Y31441800D02*
X1729047Y31429419D01*
X1729047Y31429419D02*
X1716666Y31417038D01*
X1716666Y31417038D02*
X1691904Y31379895D01*
X1691904Y31379895D02*
X1679523Y31330371D01*
X1679523Y31330371D02*
X1679523Y31231323D01*
X1679523Y31231323D02*
X1691904Y31206561D01*
X1691904Y31206561D02*
X1704285Y31194180D01*
X1704285Y31194180D02*
X1729047Y31181800D01*
X1729047Y31181800D02*
X1778571Y31181800D01*
X1778571Y31181800D02*
X1803333Y31194180D01*
X1803333Y31194180D02*
X1815714Y31206561D01*
X1815714Y31206561D02*
X1828095Y31231323D01*
X1828095Y31231323D02*
X1828095Y31293228D01*
X1828095Y31293228D02*
X1815714Y31317990D01*
X1815714Y31317990D02*
X1803333Y31330371D01*
X1803333Y31330371D02*
X1778571Y31342752D01*
X1778571Y31342752D02*
X1729047Y31342752D01*
X1729047Y31342752D02*
X1704285Y31330371D01*
X1704285Y31330371D02*
X1691904Y31317990D01*
X1691904Y31317990D02*
X1679523Y31293228D01*
X1332857Y35081800D02*
X1246190Y35205609D01*
X1184285Y35081800D02*
X1184285Y35341800D01*
X1184285Y35341800D02*
X1283333Y35341800D01*
X1283333Y35341800D02*
X1308095Y35329419D01*
X1308095Y35329419D02*
X1320476Y35317038D01*
X1320476Y35317038D02*
X1332857Y35292276D01*
X1332857Y35292276D02*
X1332857Y35255133D01*
X1332857Y35255133D02*
X1320476Y35230371D01*
X1320476Y35230371D02*
X1308095Y35217990D01*
X1308095Y35217990D02*
X1283333Y35205609D01*
X1283333Y35205609D02*
X1184285Y35205609D01*
X1419523Y35341800D02*
X1580476Y35341800D01*
X1580476Y35341800D02*
X1493809Y35242752D01*
X1493809Y35242752D02*
X1530952Y35242752D01*
X1530952Y35242752D02*
X1555714Y35230371D01*
X1555714Y35230371D02*
X1568095Y35217990D01*
X1568095Y35217990D02*
X1580476Y35193228D01*
X1580476Y35193228D02*
X1580476Y35131323D01*
X1580476Y35131323D02*
X1568095Y35106561D01*
X1568095Y35106561D02*
X1555714Y35094180D01*
X1555714Y35094180D02*
X1530952Y35081800D01*
X1530952Y35081800D02*
X1456666Y35081800D01*
X1456666Y35081800D02*
X1431904Y35094180D01*
X1431904Y35094180D02*
X1419523Y35106561D01*
X1815714Y35341800D02*
X1691904Y35341800D01*
X1691904Y35341800D02*
X1679523Y35217990D01*
X1679523Y35217990D02*
X1691904Y35230371D01*
X1691904Y35230371D02*
X1716666Y35242752D01*
X1716666Y35242752D02*
X1778571Y35242752D01*
X1778571Y35242752D02*
X1803333Y35230371D01*
X1803333Y35230371D02*
X1815714Y35217990D01*
X1815714Y35217990D02*
X1828095Y35193228D01*
X1828095Y35193228D02*
X1828095Y35131323D01*
X1828095Y35131323D02*
X1815714Y35106561D01*
X1815714Y35106561D02*
X1803333Y35094180D01*
X1803333Y35094180D02*
X1778571Y35081800D01*
X1778571Y35081800D02*
X1716666Y35081800D01*
X1716666Y35081800D02*
X1691904Y35094180D01*
X1691904Y35094180D02*
X1679523Y35106561D01*
X1332857Y29881800D02*
X1246190Y30005609D01*
X1184285Y29881800D02*
X1184285Y30141800D01*
X1184285Y30141800D02*
X1283333Y30141800D01*
X1283333Y30141800D02*
X1308095Y30129419D01*
X1308095Y30129419D02*
X1320476Y30117038D01*
X1320476Y30117038D02*
X1332857Y30092276D01*
X1332857Y30092276D02*
X1332857Y30055133D01*
X1332857Y30055133D02*
X1320476Y30030371D01*
X1320476Y30030371D02*
X1308095Y30017990D01*
X1308095Y30017990D02*
X1283333Y30005609D01*
X1283333Y30005609D02*
X1184285Y30005609D01*
X1419523Y30141800D02*
X1580476Y30141800D01*
X1580476Y30141800D02*
X1493809Y30042752D01*
X1493809Y30042752D02*
X1530952Y30042752D01*
X1530952Y30042752D02*
X1555714Y30030371D01*
X1555714Y30030371D02*
X1568095Y30017990D01*
X1568095Y30017990D02*
X1580476Y29993228D01*
X1580476Y29993228D02*
X1580476Y29931323D01*
X1580476Y29931323D02*
X1568095Y29906561D01*
X1568095Y29906561D02*
X1555714Y29894180D01*
X1555714Y29894180D02*
X1530952Y29881800D01*
X1530952Y29881800D02*
X1456666Y29881800D01*
X1456666Y29881800D02*
X1431904Y29894180D01*
X1431904Y29894180D02*
X1419523Y29906561D01*
X1803333Y30055133D02*
X1803333Y29881800D01*
X1741428Y30154180D02*
X1679523Y29968466D01*
X1679523Y29968466D02*
X1840476Y29968466D01*
X1332857Y23581800D02*
X1246190Y23705609D01*
X1184285Y23581800D02*
X1184285Y23841800D01*
X1184285Y23841800D02*
X1283333Y23841800D01*
X1283333Y23841800D02*
X1308095Y23829419D01*
X1308095Y23829419D02*
X1320476Y23817038D01*
X1320476Y23817038D02*
X1332857Y23792276D01*
X1332857Y23792276D02*
X1332857Y23755133D01*
X1332857Y23755133D02*
X1320476Y23730371D01*
X1320476Y23730371D02*
X1308095Y23717990D01*
X1308095Y23717990D02*
X1283333Y23705609D01*
X1283333Y23705609D02*
X1184285Y23705609D01*
X1419523Y23841800D02*
X1580476Y23841800D01*
X1580476Y23841800D02*
X1493809Y23742752D01*
X1493809Y23742752D02*
X1530952Y23742752D01*
X1530952Y23742752D02*
X1555714Y23730371D01*
X1555714Y23730371D02*
X1568095Y23717990D01*
X1568095Y23717990D02*
X1580476Y23693228D01*
X1580476Y23693228D02*
X1580476Y23631323D01*
X1580476Y23631323D02*
X1568095Y23606561D01*
X1568095Y23606561D02*
X1555714Y23594180D01*
X1555714Y23594180D02*
X1530952Y23581800D01*
X1530952Y23581800D02*
X1456666Y23581800D01*
X1456666Y23581800D02*
X1431904Y23594180D01*
X1431904Y23594180D02*
X1419523Y23606561D01*
X1667142Y23841800D02*
X1828095Y23841800D01*
X1828095Y23841800D02*
X1741428Y23742752D01*
X1741428Y23742752D02*
X1778571Y23742752D01*
X1778571Y23742752D02*
X1803333Y23730371D01*
X1803333Y23730371D02*
X1815714Y23717990D01*
X1815714Y23717990D02*
X1828095Y23693228D01*
X1828095Y23693228D02*
X1828095Y23631323D01*
X1828095Y23631323D02*
X1815714Y23606561D01*
X1815714Y23606561D02*
X1803333Y23594180D01*
X1803333Y23594180D02*
X1778571Y23581800D01*
X1778571Y23581800D02*
X1704285Y23581800D01*
X1704285Y23581800D02*
X1679523Y23594180D01*
X1679523Y23594180D02*
X1667142Y23606561D01*
X1332857Y32481800D02*
X1246190Y32605609D01*
X1184285Y32481800D02*
X1184285Y32741800D01*
X1184285Y32741800D02*
X1283333Y32741800D01*
X1283333Y32741800D02*
X1308095Y32729419D01*
X1308095Y32729419D02*
X1320476Y32717038D01*
X1320476Y32717038D02*
X1332857Y32692276D01*
X1332857Y32692276D02*
X1332857Y32655133D01*
X1332857Y32655133D02*
X1320476Y32630371D01*
X1320476Y32630371D02*
X1308095Y32617990D01*
X1308095Y32617990D02*
X1283333Y32605609D01*
X1283333Y32605609D02*
X1184285Y32605609D01*
X1419523Y32741800D02*
X1580476Y32741800D01*
X1580476Y32741800D02*
X1493809Y32642752D01*
X1493809Y32642752D02*
X1530952Y32642752D01*
X1530952Y32642752D02*
X1555714Y32630371D01*
X1555714Y32630371D02*
X1568095Y32617990D01*
X1568095Y32617990D02*
X1580476Y32593228D01*
X1580476Y32593228D02*
X1580476Y32531323D01*
X1580476Y32531323D02*
X1568095Y32506561D01*
X1568095Y32506561D02*
X1555714Y32494180D01*
X1555714Y32494180D02*
X1530952Y32481800D01*
X1530952Y32481800D02*
X1456666Y32481800D01*
X1456666Y32481800D02*
X1431904Y32494180D01*
X1431904Y32494180D02*
X1419523Y32506561D01*
X1679523Y32717038D02*
X1691904Y32729419D01*
X1691904Y32729419D02*
X1716666Y32741800D01*
X1716666Y32741800D02*
X1778571Y32741800D01*
X1778571Y32741800D02*
X1803333Y32729419D01*
X1803333Y32729419D02*
X1815714Y32717038D01*
X1815714Y32717038D02*
X1828095Y32692276D01*
X1828095Y32692276D02*
X1828095Y32667514D01*
X1828095Y32667514D02*
X1815714Y32630371D01*
X1815714Y32630371D02*
X1667142Y32481800D01*
X1667142Y32481800D02*
X1828095Y32481800D01*
X1332857Y33781800D02*
X1246190Y33905609D01*
X1184285Y33781800D02*
X1184285Y34041800D01*
X1184285Y34041800D02*
X1283333Y34041800D01*
X1283333Y34041800D02*
X1308095Y34029419D01*
X1308095Y34029419D02*
X1320476Y34017038D01*
X1320476Y34017038D02*
X1332857Y33992276D01*
X1332857Y33992276D02*
X1332857Y33955133D01*
X1332857Y33955133D02*
X1320476Y33930371D01*
X1320476Y33930371D02*
X1308095Y33917990D01*
X1308095Y33917990D02*
X1283333Y33905609D01*
X1283333Y33905609D02*
X1184285Y33905609D01*
X1431904Y34017038D02*
X1444285Y34029419D01*
X1444285Y34029419D02*
X1469047Y34041800D01*
X1469047Y34041800D02*
X1530952Y34041800D01*
X1530952Y34041800D02*
X1555714Y34029419D01*
X1555714Y34029419D02*
X1568095Y34017038D01*
X1568095Y34017038D02*
X1580476Y33992276D01*
X1580476Y33992276D02*
X1580476Y33967514D01*
X1580476Y33967514D02*
X1568095Y33930371D01*
X1568095Y33930371D02*
X1419523Y33781800D01*
X1419523Y33781800D02*
X1580476Y33781800D01*
X1667142Y34041800D02*
X1840476Y34041800D01*
X1840476Y34041800D02*
X1729047Y33781800D01*
D11*
X17742857Y19106168D02*
X17723809Y19087120D01*
X17723809Y19087120D02*
X17666667Y19068073D01*
X17666667Y19068073D02*
X17628571Y19068073D01*
X17628571Y19068073D02*
X17571428Y19087120D01*
X17571428Y19087120D02*
X17533333Y19125216D01*
X17533333Y19125216D02*
X17514286Y19163311D01*
X17514286Y19163311D02*
X17495238Y19239501D01*
X17495238Y19239501D02*
X17495238Y19296644D01*
X17495238Y19296644D02*
X17514286Y19372835D01*
X17514286Y19372835D02*
X17533333Y19410930D01*
X17533333Y19410930D02*
X17571428Y19449025D01*
X17571428Y19449025D02*
X17628571Y19468073D01*
X17628571Y19468073D02*
X17666667Y19468073D01*
X17666667Y19468073D02*
X17723809Y19449025D01*
X17723809Y19449025D02*
X17742857Y19429978D01*
X18123809Y19068073D02*
X17895238Y19068073D01*
X18009524Y19068073D02*
X18009524Y19468073D01*
X18009524Y19468073D02*
X17971428Y19410930D01*
X17971428Y19410930D02*
X17933333Y19372835D01*
X17933333Y19372835D02*
X17895238Y19353787D01*
X18257142Y19468073D02*
X18523809Y19468073D01*
X18523809Y19468073D02*
X18352380Y19068073D01*
D12*
X6385714Y51140420D02*
X6338095Y51092800D01*
X6338095Y51092800D02*
X6195238Y51045181D01*
X6195238Y51045181D02*
X6100000Y51045181D01*
X6100000Y51045181D02*
X5957143Y51092800D01*
X5957143Y51092800D02*
X5861905Y51188039D01*
X5861905Y51188039D02*
X5814286Y51283277D01*
X5814286Y51283277D02*
X5766667Y51473753D01*
X5766667Y51473753D02*
X5766667Y51616610D01*
X5766667Y51616610D02*
X5814286Y51807086D01*
X5814286Y51807086D02*
X5861905Y51902324D01*
X5861905Y51902324D02*
X5957143Y51997562D01*
X5957143Y51997562D02*
X6100000Y52045181D01*
X6100000Y52045181D02*
X6195238Y52045181D01*
X6195238Y52045181D02*
X6338095Y51997562D01*
X6338095Y51997562D02*
X6385714Y51949943D01*
X7004762Y52045181D02*
X7195238Y52045181D01*
X7195238Y52045181D02*
X7290476Y51997562D01*
X7290476Y51997562D02*
X7385714Y51902324D01*
X7385714Y51902324D02*
X7433333Y51711848D01*
X7433333Y51711848D02*
X7433333Y51378515D01*
X7433333Y51378515D02*
X7385714Y51188039D01*
X7385714Y51188039D02*
X7290476Y51092800D01*
X7290476Y51092800D02*
X7195238Y51045181D01*
X7195238Y51045181D02*
X7004762Y51045181D01*
X7004762Y51045181D02*
X6909524Y51092800D01*
X6909524Y51092800D02*
X6814286Y51188039D01*
X6814286Y51188039D02*
X6766667Y51378515D01*
X6766667Y51378515D02*
X6766667Y51711848D01*
X6766667Y51711848D02*
X6814286Y51902324D01*
X6814286Y51902324D02*
X6909524Y51997562D01*
X6909524Y51997562D02*
X7004762Y52045181D01*
X7861905Y51045181D02*
X7861905Y52045181D01*
X7861905Y52045181D02*
X8433333Y51045181D01*
X8433333Y51045181D02*
X8433333Y52045181D01*
X8861905Y51949943D02*
X8909524Y51997562D01*
X8909524Y51997562D02*
X9004762Y52045181D01*
X9004762Y52045181D02*
X9242857Y52045181D01*
X9242857Y52045181D02*
X9338095Y51997562D01*
X9338095Y51997562D02*
X9385714Y51949943D01*
X9385714Y51949943D02*
X9433333Y51854705D01*
X9433333Y51854705D02*
X9433333Y51759467D01*
X9433333Y51759467D02*
X9385714Y51616610D01*
X9385714Y51616610D02*
X8814286Y51045181D01*
X8814286Y51045181D02*
X9433333Y51045181D01*
D10*
X24339765Y32658334D02*
X24351670Y32646430D01*
X24351670Y32646430D02*
X24363574Y32610715D01*
X24363574Y32610715D02*
X24363574Y32586906D01*
X24363574Y32586906D02*
X24351670Y32551192D01*
X24351670Y32551192D02*
X24327860Y32527382D01*
X24327860Y32527382D02*
X24304050Y32515477D01*
X24304050Y32515477D02*
X24256431Y32503573D01*
X24256431Y32503573D02*
X24220717Y32503573D01*
X24220717Y32503573D02*
X24173098Y32515477D01*
X24173098Y32515477D02*
X24149289Y32527382D01*
X24149289Y32527382D02*
X24125479Y32551192D01*
X24125479Y32551192D02*
X24113574Y32586906D01*
X24113574Y32586906D02*
X24113574Y32610715D01*
X24113574Y32610715D02*
X24125479Y32646430D01*
X24125479Y32646430D02*
X24137384Y32658334D01*
X24196908Y32872620D02*
X24363574Y32872620D01*
X24101670Y32813096D02*
X24280241Y32753573D01*
X24280241Y32753573D02*
X24280241Y32908334D01*
D11*
X20543832Y11742858D02*
X20562880Y11723810D01*
X20562880Y11723810D02*
X20581927Y11666668D01*
X20581927Y11666668D02*
X20581927Y11628572D01*
X20581927Y11628572D02*
X20562880Y11571429D01*
X20562880Y11571429D02*
X20524784Y11533334D01*
X20524784Y11533334D02*
X20486689Y11514287D01*
X20486689Y11514287D02*
X20410499Y11495239D01*
X20410499Y11495239D02*
X20353356Y11495239D01*
X20353356Y11495239D02*
X20277165Y11514287D01*
X20277165Y11514287D02*
X20239070Y11533334D01*
X20239070Y11533334D02*
X20200975Y11571429D01*
X20200975Y11571429D02*
X20181927Y11628572D01*
X20181927Y11628572D02*
X20181927Y11666668D01*
X20181927Y11666668D02*
X20200975Y11723810D01*
X20200975Y11723810D02*
X20220022Y11742858D01*
X20581927Y12123810D02*
X20581927Y11895239D01*
X20581927Y12009525D02*
X20181927Y12009525D01*
X20181927Y12009525D02*
X20239070Y11971429D01*
X20239070Y11971429D02*
X20277165Y11933334D01*
X20277165Y11933334D02*
X20296213Y11895239D01*
X20581927Y12314286D02*
X20581927Y12390477D01*
X20581927Y12390477D02*
X20562880Y12428572D01*
X20562880Y12428572D02*
X20543832Y12447620D01*
X20543832Y12447620D02*
X20486689Y12485715D01*
X20486689Y12485715D02*
X20410499Y12504762D01*
X20410499Y12504762D02*
X20258118Y12504762D01*
X20258118Y12504762D02*
X20220022Y12485715D01*
X20220022Y12485715D02*
X20200975Y12466667D01*
X20200975Y12466667D02*
X20181927Y12428572D01*
X20181927Y12428572D02*
X20181927Y12352381D01*
X20181927Y12352381D02*
X20200975Y12314286D01*
X20200975Y12314286D02*
X20220022Y12295239D01*
X20220022Y12295239D02*
X20258118Y12276191D01*
X20258118Y12276191D02*
X20353356Y12276191D01*
X20353356Y12276191D02*
X20391451Y12295239D01*
X20391451Y12295239D02*
X20410499Y12314286D01*
X20410499Y12314286D02*
X20429546Y12352381D01*
X20429546Y12352381D02*
X20429546Y12428572D01*
X20429546Y12428572D02*
X20410499Y12466667D01*
X20410499Y12466667D02*
X20391451Y12485715D01*
X20391451Y12485715D02*
X20353356Y12504762D01*
X31681927Y46817858D02*
X31491451Y46684525D01*
X31681927Y46589287D02*
X31281927Y46589287D01*
X31281927Y46589287D02*
X31281927Y46741668D01*
X31281927Y46741668D02*
X31300975Y46779763D01*
X31300975Y46779763D02*
X31320022Y46798810D01*
X31320022Y46798810D02*
X31358118Y46817858D01*
X31358118Y46817858D02*
X31415260Y46817858D01*
X31415260Y46817858D02*
X31453356Y46798810D01*
X31453356Y46798810D02*
X31472403Y46779763D01*
X31472403Y46779763D02*
X31491451Y46741668D01*
X31491451Y46741668D02*
X31491451Y46589287D01*
X31281927Y46951191D02*
X31281927Y47198810D01*
X31281927Y47198810D02*
X31434308Y47065477D01*
X31434308Y47065477D02*
X31434308Y47122620D01*
X31434308Y47122620D02*
X31453356Y47160715D01*
X31453356Y47160715D02*
X31472403Y47179763D01*
X31472403Y47179763D02*
X31510499Y47198810D01*
X31510499Y47198810D02*
X31605737Y47198810D01*
X31605737Y47198810D02*
X31643832Y47179763D01*
X31643832Y47179763D02*
X31662880Y47160715D01*
X31662880Y47160715D02*
X31681927Y47122620D01*
X31681927Y47122620D02*
X31681927Y47008334D01*
X31681927Y47008334D02*
X31662880Y46970239D01*
X31662880Y46970239D02*
X31643832Y46951191D01*
X31681927Y47579762D02*
X31681927Y47351191D01*
X31681927Y47465477D02*
X31281927Y47465477D01*
X31281927Y47465477D02*
X31339070Y47427381D01*
X31339070Y47427381D02*
X31377165Y47389286D01*
X31377165Y47389286D02*
X31396213Y47351191D01*
X25131927Y39592858D02*
X24941451Y39459525D01*
X25131927Y39364287D02*
X24731927Y39364287D01*
X24731927Y39364287D02*
X24731927Y39516668D01*
X24731927Y39516668D02*
X24750975Y39554763D01*
X24750975Y39554763D02*
X24770022Y39573810D01*
X24770022Y39573810D02*
X24808118Y39592858D01*
X24808118Y39592858D02*
X24865260Y39592858D01*
X24865260Y39592858D02*
X24903356Y39573810D01*
X24903356Y39573810D02*
X24922403Y39554763D01*
X24922403Y39554763D02*
X24941451Y39516668D01*
X24941451Y39516668D02*
X24941451Y39364287D01*
X25131927Y39973810D02*
X25131927Y39745239D01*
X25131927Y39859525D02*
X24731927Y39859525D01*
X24731927Y39859525D02*
X24789070Y39821429D01*
X24789070Y39821429D02*
X24827165Y39783334D01*
X24827165Y39783334D02*
X24846213Y39745239D01*
X24731927Y40107143D02*
X24731927Y40373810D01*
X24731927Y40373810D02*
X25131927Y40202381D01*
X23631927Y39592858D02*
X23441451Y39459525D01*
X23631927Y39364287D02*
X23231927Y39364287D01*
X23231927Y39364287D02*
X23231927Y39516668D01*
X23231927Y39516668D02*
X23250975Y39554763D01*
X23250975Y39554763D02*
X23270022Y39573810D01*
X23270022Y39573810D02*
X23308118Y39592858D01*
X23308118Y39592858D02*
X23365260Y39592858D01*
X23365260Y39592858D02*
X23403356Y39573810D01*
X23403356Y39573810D02*
X23422403Y39554763D01*
X23422403Y39554763D02*
X23441451Y39516668D01*
X23441451Y39516668D02*
X23441451Y39364287D01*
X23631927Y39973810D02*
X23631927Y39745239D01*
X23631927Y39859525D02*
X23231927Y39859525D01*
X23231927Y39859525D02*
X23289070Y39821429D01*
X23289070Y39821429D02*
X23327165Y39783334D01*
X23327165Y39783334D02*
X23346213Y39745239D01*
X23403356Y40202381D02*
X23384308Y40164286D01*
X23384308Y40164286D02*
X23365260Y40145239D01*
X23365260Y40145239D02*
X23327165Y40126191D01*
X23327165Y40126191D02*
X23308118Y40126191D01*
X23308118Y40126191D02*
X23270022Y40145239D01*
X23270022Y40145239D02*
X23250975Y40164286D01*
X23250975Y40164286D02*
X23231927Y40202381D01*
X23231927Y40202381D02*
X23231927Y40278572D01*
X23231927Y40278572D02*
X23250975Y40316667D01*
X23250975Y40316667D02*
X23270022Y40335715D01*
X23270022Y40335715D02*
X23308118Y40354762D01*
X23308118Y40354762D02*
X23327165Y40354762D01*
X23327165Y40354762D02*
X23365260Y40335715D01*
X23365260Y40335715D02*
X23384308Y40316667D01*
X23384308Y40316667D02*
X23403356Y40278572D01*
X23403356Y40278572D02*
X23403356Y40202381D01*
X23403356Y40202381D02*
X23422403Y40164286D01*
X23422403Y40164286D02*
X23441451Y40145239D01*
X23441451Y40145239D02*
X23479546Y40126191D01*
X23479546Y40126191D02*
X23555737Y40126191D01*
X23555737Y40126191D02*
X23593832Y40145239D01*
X23593832Y40145239D02*
X23612880Y40164286D01*
X23612880Y40164286D02*
X23631927Y40202381D01*
X23631927Y40202381D02*
X23631927Y40278572D01*
X23631927Y40278572D02*
X23612880Y40316667D01*
X23612880Y40316667D02*
X23593832Y40335715D01*
X23593832Y40335715D02*
X23555737Y40354762D01*
X23555737Y40354762D02*
X23479546Y40354762D01*
X23479546Y40354762D02*
X23441451Y40335715D01*
X23441451Y40335715D02*
X23422403Y40316667D01*
X23422403Y40316667D02*
X23403356Y40278572D01*
D13*
X31678571Y51020958D02*
X31578571Y51020958D01*
X31578571Y50863815D02*
X31578571Y51163815D01*
X31578571Y51163815D02*
X31721428Y51163815D01*
X31835714Y50863815D02*
X31835714Y51163815D01*
X31978571Y50863815D02*
X31978571Y51163815D01*
X31978571Y51163815D02*
X32050000Y51163815D01*
X32050000Y51163815D02*
X32092857Y51149529D01*
X32092857Y51149529D02*
X32121428Y51120958D01*
X32121428Y51120958D02*
X32135714Y51092386D01*
X32135714Y51092386D02*
X32150000Y51035243D01*
X32150000Y51035243D02*
X32150000Y50992386D01*
X32150000Y50992386D02*
X32135714Y50935243D01*
X32135714Y50935243D02*
X32121428Y50906672D01*
X32121428Y50906672D02*
X32092857Y50878100D01*
X32092857Y50878100D02*
X32050000Y50863815D01*
X32050000Y50863815D02*
X31978571Y50863815D01*
X32250000Y51163815D02*
X32435714Y51163815D01*
X32435714Y51163815D02*
X32335714Y51049529D01*
X32335714Y51049529D02*
X32378571Y51049529D01*
X32378571Y51049529D02*
X32407143Y51035243D01*
X32407143Y51035243D02*
X32421428Y51020958D01*
X32421428Y51020958D02*
X32435714Y50992386D01*
X32435714Y50992386D02*
X32435714Y50920958D01*
X32435714Y50920958D02*
X32421428Y50892386D01*
X32421428Y50892386D02*
X32407143Y50878100D01*
X32407143Y50878100D02*
X32378571Y50863815D01*
X32378571Y50863815D02*
X32292857Y50863815D01*
X32292857Y50863815D02*
X32264285Y50878100D01*
X32264285Y50878100D02*
X32250000Y50892386D01*
D11*
X31024217Y11318499D02*
X31064623Y11547466D01*
X30862593Y11480123D02*
X31145435Y11762966D01*
X31145435Y11762966D02*
X31253185Y11655216D01*
X31253185Y11655216D02*
X31266654Y11614810D01*
X31266654Y11614810D02*
X31266654Y11587873D01*
X31266654Y11587873D02*
X31253185Y11547466D01*
X31253185Y11547466D02*
X31212779Y11507060D01*
X31212779Y11507060D02*
X31172373Y11493592D01*
X31172373Y11493592D02*
X31145435Y11493592D01*
X31145435Y11493592D02*
X31105029Y11507060D01*
X31105029Y11507060D02*
X30997280Y11614810D01*
X31401341Y11507060D02*
X31589902Y11318499D01*
X31589902Y11318499D02*
X31185841Y11156874D01*
D10*
X43489765Y19908334D02*
X43501670Y19896430D01*
X43501670Y19896430D02*
X43513574Y19860715D01*
X43513574Y19860715D02*
X43513574Y19836906D01*
X43513574Y19836906D02*
X43501670Y19801192D01*
X43501670Y19801192D02*
X43477860Y19777382D01*
X43477860Y19777382D02*
X43454050Y19765477D01*
X43454050Y19765477D02*
X43406431Y19753573D01*
X43406431Y19753573D02*
X43370717Y19753573D01*
X43370717Y19753573D02*
X43323098Y19765477D01*
X43323098Y19765477D02*
X43299289Y19777382D01*
X43299289Y19777382D02*
X43275479Y19801192D01*
X43275479Y19801192D02*
X43263574Y19836906D01*
X43263574Y19836906D02*
X43263574Y19860715D01*
X43263574Y19860715D02*
X43275479Y19896430D01*
X43275479Y19896430D02*
X43287384Y19908334D01*
X43513574Y20027382D02*
X43513574Y20075001D01*
X43513574Y20075001D02*
X43501670Y20098811D01*
X43501670Y20098811D02*
X43489765Y20110715D01*
X43489765Y20110715D02*
X43454050Y20134525D01*
X43454050Y20134525D02*
X43406431Y20146430D01*
X43406431Y20146430D02*
X43311193Y20146430D01*
X43311193Y20146430D02*
X43287384Y20134525D01*
X43287384Y20134525D02*
X43275479Y20122620D01*
X43275479Y20122620D02*
X43263574Y20098811D01*
X43263574Y20098811D02*
X43263574Y20051192D01*
X43263574Y20051192D02*
X43275479Y20027382D01*
X43275479Y20027382D02*
X43287384Y20015477D01*
X43287384Y20015477D02*
X43311193Y20003573D01*
X43311193Y20003573D02*
X43370717Y20003573D01*
X43370717Y20003573D02*
X43394527Y20015477D01*
X43394527Y20015477D02*
X43406431Y20027382D01*
X43406431Y20027382D02*
X43418336Y20051192D01*
X43418336Y20051192D02*
X43418336Y20098811D01*
X43418336Y20098811D02*
X43406431Y20122620D01*
X43406431Y20122620D02*
X43394527Y20134525D01*
X43394527Y20134525D02*
X43370717Y20146430D01*
D11*
X31733333Y1918073D02*
X31600000Y2108549D01*
X31504762Y1918073D02*
X31504762Y2318073D01*
X31504762Y2318073D02*
X31657143Y2318073D01*
X31657143Y2318073D02*
X31695238Y2299025D01*
X31695238Y2299025D02*
X31714285Y2279978D01*
X31714285Y2279978D02*
X31733333Y2241882D01*
X31733333Y2241882D02*
X31733333Y2184740D01*
X31733333Y2184740D02*
X31714285Y2146644D01*
X31714285Y2146644D02*
X31695238Y2127597D01*
X31695238Y2127597D02*
X31657143Y2108549D01*
X31657143Y2108549D02*
X31504762Y2108549D01*
X32095238Y2318073D02*
X31904762Y2318073D01*
X31904762Y2318073D02*
X31885714Y2127597D01*
X31885714Y2127597D02*
X31904762Y2146644D01*
X31904762Y2146644D02*
X31942857Y2165692D01*
X31942857Y2165692D02*
X32038095Y2165692D01*
X32038095Y2165692D02*
X32076190Y2146644D01*
X32076190Y2146644D02*
X32095238Y2127597D01*
X32095238Y2127597D02*
X32114285Y2089501D01*
X32114285Y2089501D02*
X32114285Y1994263D01*
X32114285Y1994263D02*
X32095238Y1956168D01*
X32095238Y1956168D02*
X32076190Y1937120D01*
X32076190Y1937120D02*
X32038095Y1918073D01*
X32038095Y1918073D02*
X31942857Y1918073D01*
X31942857Y1918073D02*
X31904762Y1937120D01*
X31904762Y1937120D02*
X31885714Y1956168D01*
X15543832Y46530358D02*
X15562880Y46511310D01*
X15562880Y46511310D02*
X15581927Y46454168D01*
X15581927Y46454168D02*
X15581927Y46416072D01*
X15581927Y46416072D02*
X15562880Y46358929D01*
X15562880Y46358929D02*
X15524784Y46320834D01*
X15524784Y46320834D02*
X15486689Y46301787D01*
X15486689Y46301787D02*
X15410499Y46282739D01*
X15410499Y46282739D02*
X15353356Y46282739D01*
X15353356Y46282739D02*
X15277165Y46301787D01*
X15277165Y46301787D02*
X15239070Y46320834D01*
X15239070Y46320834D02*
X15200975Y46358929D01*
X15200975Y46358929D02*
X15181927Y46416072D01*
X15181927Y46416072D02*
X15181927Y46454168D01*
X15181927Y46454168D02*
X15200975Y46511310D01*
X15200975Y46511310D02*
X15220022Y46530358D01*
X15581927Y46911310D02*
X15581927Y46682739D01*
X15581927Y46797025D02*
X15181927Y46797025D01*
X15181927Y46797025D02*
X15239070Y46758929D01*
X15239070Y46758929D02*
X15277165Y46720834D01*
X15277165Y46720834D02*
X15296213Y46682739D01*
X15353356Y47139881D02*
X15334308Y47101786D01*
X15334308Y47101786D02*
X15315260Y47082739D01*
X15315260Y47082739D02*
X15277165Y47063691D01*
X15277165Y47063691D02*
X15258118Y47063691D01*
X15258118Y47063691D02*
X15220022Y47082739D01*
X15220022Y47082739D02*
X15200975Y47101786D01*
X15200975Y47101786D02*
X15181927Y47139881D01*
X15181927Y47139881D02*
X15181927Y47216072D01*
X15181927Y47216072D02*
X15200975Y47254167D01*
X15200975Y47254167D02*
X15220022Y47273215D01*
X15220022Y47273215D02*
X15258118Y47292262D01*
X15258118Y47292262D02*
X15277165Y47292262D01*
X15277165Y47292262D02*
X15315260Y47273215D01*
X15315260Y47273215D02*
X15334308Y47254167D01*
X15334308Y47254167D02*
X15353356Y47216072D01*
X15353356Y47216072D02*
X15353356Y47139881D01*
X15353356Y47139881D02*
X15372403Y47101786D01*
X15372403Y47101786D02*
X15391451Y47082739D01*
X15391451Y47082739D02*
X15429546Y47063691D01*
X15429546Y47063691D02*
X15505737Y47063691D01*
X15505737Y47063691D02*
X15543832Y47082739D01*
X15543832Y47082739D02*
X15562880Y47101786D01*
X15562880Y47101786D02*
X15581927Y47139881D01*
X15581927Y47139881D02*
X15581927Y47216072D01*
X15581927Y47216072D02*
X15562880Y47254167D01*
X15562880Y47254167D02*
X15543832Y47273215D01*
X15543832Y47273215D02*
X15505737Y47292262D01*
X15505737Y47292262D02*
X15429546Y47292262D01*
X15429546Y47292262D02*
X15391451Y47273215D01*
X15391451Y47273215D02*
X15372403Y47254167D01*
X15372403Y47254167D02*
X15353356Y47216072D01*
X43381927Y46742858D02*
X43191451Y46609525D01*
X43381927Y46514287D02*
X42981927Y46514287D01*
X42981927Y46514287D02*
X42981927Y46666668D01*
X42981927Y46666668D02*
X43000975Y46704763D01*
X43000975Y46704763D02*
X43020022Y46723810D01*
X43020022Y46723810D02*
X43058118Y46742858D01*
X43058118Y46742858D02*
X43115260Y46742858D01*
X43115260Y46742858D02*
X43153356Y46723810D01*
X43153356Y46723810D02*
X43172403Y46704763D01*
X43172403Y46704763D02*
X43191451Y46666668D01*
X43191451Y46666668D02*
X43191451Y46514287D01*
X43020022Y46895239D02*
X43000975Y46914287D01*
X43000975Y46914287D02*
X42981927Y46952382D01*
X42981927Y46952382D02*
X42981927Y47047620D01*
X42981927Y47047620D02*
X43000975Y47085715D01*
X43000975Y47085715D02*
X43020022Y47104763D01*
X43020022Y47104763D02*
X43058118Y47123810D01*
X43058118Y47123810D02*
X43096213Y47123810D01*
X43096213Y47123810D02*
X43153356Y47104763D01*
X43153356Y47104763D02*
X43381927Y46876191D01*
X43381927Y46876191D02*
X43381927Y47123810D01*
X43020022Y47276191D02*
X43000975Y47295239D01*
X43000975Y47295239D02*
X42981927Y47333334D01*
X42981927Y47333334D02*
X42981927Y47428572D01*
X42981927Y47428572D02*
X43000975Y47466667D01*
X43000975Y47466667D02*
X43020022Y47485715D01*
X43020022Y47485715D02*
X43058118Y47504762D01*
X43058118Y47504762D02*
X43096213Y47504762D01*
X43096213Y47504762D02*
X43153356Y47485715D01*
X43153356Y47485715D02*
X43381927Y47257143D01*
X43381927Y47257143D02*
X43381927Y47504762D01*
X27231927Y40045239D02*
X27555737Y40045239D01*
X27555737Y40045239D02*
X27593832Y40064286D01*
X27593832Y40064286D02*
X27612880Y40083334D01*
X27612880Y40083334D02*
X27631927Y40121429D01*
X27631927Y40121429D02*
X27631927Y40197620D01*
X27631927Y40197620D02*
X27612880Y40235715D01*
X27612880Y40235715D02*
X27593832Y40254762D01*
X27593832Y40254762D02*
X27555737Y40273810D01*
X27555737Y40273810D02*
X27231927Y40273810D01*
X27270022Y40445239D02*
X27250975Y40464287D01*
X27250975Y40464287D02*
X27231927Y40502382D01*
X27231927Y40502382D02*
X27231927Y40597620D01*
X27231927Y40597620D02*
X27250975Y40635715D01*
X27250975Y40635715D02*
X27270022Y40654763D01*
X27270022Y40654763D02*
X27308118Y40673810D01*
X27308118Y40673810D02*
X27346213Y40673810D01*
X27346213Y40673810D02*
X27403356Y40654763D01*
X27403356Y40654763D02*
X27631927Y40426191D01*
X27631927Y40426191D02*
X27631927Y40673810D01*
D10*
X42518200Y19782858D02*
X42394391Y19696191D01*
X42518200Y19634286D02*
X42258200Y19634286D01*
X42258200Y19634286D02*
X42258200Y19733334D01*
X42258200Y19733334D02*
X42270581Y19758096D01*
X42270581Y19758096D02*
X42282962Y19770477D01*
X42282962Y19770477D02*
X42307724Y19782858D01*
X42307724Y19782858D02*
X42344867Y19782858D01*
X42344867Y19782858D02*
X42369629Y19770477D01*
X42369629Y19770477D02*
X42382010Y19758096D01*
X42382010Y19758096D02*
X42394391Y19733334D01*
X42394391Y19733334D02*
X42394391Y19634286D01*
X42518200Y20030477D02*
X42518200Y19881905D01*
X42518200Y19956191D02*
X42258200Y19956191D01*
X42258200Y19956191D02*
X42295343Y19931429D01*
X42295343Y19931429D02*
X42320105Y19906667D01*
X42320105Y19906667D02*
X42332486Y19881905D01*
X42258200Y20191429D02*
X42258200Y20216191D01*
X42258200Y20216191D02*
X42270581Y20240953D01*
X42270581Y20240953D02*
X42282962Y20253334D01*
X42282962Y20253334D02*
X42307724Y20265715D01*
X42307724Y20265715D02*
X42357248Y20278096D01*
X42357248Y20278096D02*
X42419153Y20278096D01*
X42419153Y20278096D02*
X42468677Y20265715D01*
X42468677Y20265715D02*
X42493439Y20253334D01*
X42493439Y20253334D02*
X42505820Y20240953D01*
X42505820Y20240953D02*
X42518200Y20216191D01*
X42518200Y20216191D02*
X42518200Y20191429D01*
X42518200Y20191429D02*
X42505820Y20166667D01*
X42505820Y20166667D02*
X42493439Y20154286D01*
X42493439Y20154286D02*
X42468677Y20141905D01*
X42468677Y20141905D02*
X42419153Y20129524D01*
X42419153Y20129524D02*
X42357248Y20129524D01*
X42357248Y20129524D02*
X42307724Y20141905D01*
X42307724Y20141905D02*
X42282962Y20154286D01*
X42282962Y20154286D02*
X42270581Y20166667D01*
X42270581Y20166667D02*
X42258200Y20191429D01*
D11*
X27081927Y1817858D02*
X26891451Y1684525D01*
X27081927Y1589287D02*
X26681927Y1589287D01*
X26681927Y1589287D02*
X26681927Y1741668D01*
X26681927Y1741668D02*
X26700975Y1779763D01*
X26700975Y1779763D02*
X26720022Y1798810D01*
X26720022Y1798810D02*
X26758118Y1817858D01*
X26758118Y1817858D02*
X26815260Y1817858D01*
X26815260Y1817858D02*
X26853356Y1798810D01*
X26853356Y1798810D02*
X26872403Y1779763D01*
X26872403Y1779763D02*
X26891451Y1741668D01*
X26891451Y1741668D02*
X26891451Y1589287D01*
X26720022Y1970239D02*
X26700975Y1989287D01*
X26700975Y1989287D02*
X26681927Y2027382D01*
X26681927Y2027382D02*
X26681927Y2122620D01*
X26681927Y2122620D02*
X26700975Y2160715D01*
X26700975Y2160715D02*
X26720022Y2179763D01*
X26720022Y2179763D02*
X26758118Y2198810D01*
X26758118Y2198810D02*
X26796213Y2198810D01*
X26796213Y2198810D02*
X26853356Y2179763D01*
X26853356Y2179763D02*
X27081927Y1951191D01*
X27081927Y1951191D02*
X27081927Y2198810D01*
X26815260Y2541667D02*
X27081927Y2541667D01*
X26662880Y2446429D02*
X26948594Y2351191D01*
X26948594Y2351191D02*
X26948594Y2598810D01*
X25593832Y33183334D02*
X25612880Y33164286D01*
X25612880Y33164286D02*
X25631927Y33107144D01*
X25631927Y33107144D02*
X25631927Y33069048D01*
X25631927Y33069048D02*
X25612880Y33011905D01*
X25612880Y33011905D02*
X25574784Y32973810D01*
X25574784Y32973810D02*
X25536689Y32954763D01*
X25536689Y32954763D02*
X25460499Y32935715D01*
X25460499Y32935715D02*
X25403356Y32935715D01*
X25403356Y32935715D02*
X25327165Y32954763D01*
X25327165Y32954763D02*
X25289070Y32973810D01*
X25289070Y32973810D02*
X25250975Y33011905D01*
X25250975Y33011905D02*
X25231927Y33069048D01*
X25231927Y33069048D02*
X25231927Y33107144D01*
X25231927Y33107144D02*
X25250975Y33164286D01*
X25250975Y33164286D02*
X25270022Y33183334D01*
X25231927Y33526191D02*
X25231927Y33450001D01*
X25231927Y33450001D02*
X25250975Y33411905D01*
X25250975Y33411905D02*
X25270022Y33392858D01*
X25270022Y33392858D02*
X25327165Y33354763D01*
X25327165Y33354763D02*
X25403356Y33335715D01*
X25403356Y33335715D02*
X25555737Y33335715D01*
X25555737Y33335715D02*
X25593832Y33354763D01*
X25593832Y33354763D02*
X25612880Y33373810D01*
X25612880Y33373810D02*
X25631927Y33411905D01*
X25631927Y33411905D02*
X25631927Y33488096D01*
X25631927Y33488096D02*
X25612880Y33526191D01*
X25612880Y33526191D02*
X25593832Y33545239D01*
X25593832Y33545239D02*
X25555737Y33564286D01*
X25555737Y33564286D02*
X25460499Y33564286D01*
X25460499Y33564286D02*
X25422403Y33545239D01*
X25422403Y33545239D02*
X25403356Y33526191D01*
X25403356Y33526191D02*
X25384308Y33488096D01*
X25384308Y33488096D02*
X25384308Y33411905D01*
X25384308Y33411905D02*
X25403356Y33373810D01*
X25403356Y33373810D02*
X25422403Y33354763D01*
X25422403Y33354763D02*
X25460499Y33335715D01*
X31542857Y32418073D02*
X31409524Y32608549D01*
X31314286Y32418073D02*
X31314286Y32818073D01*
X31314286Y32818073D02*
X31466667Y32818073D01*
X31466667Y32818073D02*
X31504762Y32799025D01*
X31504762Y32799025D02*
X31523809Y32779978D01*
X31523809Y32779978D02*
X31542857Y32741882D01*
X31542857Y32741882D02*
X31542857Y32684740D01*
X31542857Y32684740D02*
X31523809Y32646644D01*
X31523809Y32646644D02*
X31504762Y32627597D01*
X31504762Y32627597D02*
X31466667Y32608549D01*
X31466667Y32608549D02*
X31314286Y32608549D01*
X31695238Y32779978D02*
X31714286Y32799025D01*
X31714286Y32799025D02*
X31752381Y32818073D01*
X31752381Y32818073D02*
X31847619Y32818073D01*
X31847619Y32818073D02*
X31885714Y32799025D01*
X31885714Y32799025D02*
X31904762Y32779978D01*
X31904762Y32779978D02*
X31923809Y32741882D01*
X31923809Y32741882D02*
X31923809Y32703787D01*
X31923809Y32703787D02*
X31904762Y32646644D01*
X31904762Y32646644D02*
X31676190Y32418073D01*
X31676190Y32418073D02*
X31923809Y32418073D01*
X32057142Y32818073D02*
X32304761Y32818073D01*
X32304761Y32818073D02*
X32171428Y32665692D01*
X32171428Y32665692D02*
X32228571Y32665692D01*
X32228571Y32665692D02*
X32266666Y32646644D01*
X32266666Y32646644D02*
X32285714Y32627597D01*
X32285714Y32627597D02*
X32304761Y32589501D01*
X32304761Y32589501D02*
X32304761Y32494263D01*
X32304761Y32494263D02*
X32285714Y32456168D01*
X32285714Y32456168D02*
X32266666Y32437120D01*
X32266666Y32437120D02*
X32228571Y32418073D01*
X32228571Y32418073D02*
X32114285Y32418073D01*
X32114285Y32418073D02*
X32076190Y32437120D01*
X32076190Y32437120D02*
X32057142Y32456168D01*
D10*
X2132857Y8681800D02*
X2046190Y8805609D01*
X1984285Y8681800D02*
X1984285Y8941800D01*
X1984285Y8941800D02*
X2083333Y8941800D01*
X2083333Y8941800D02*
X2108095Y8929419D01*
X2108095Y8929419D02*
X2120476Y8917038D01*
X2120476Y8917038D02*
X2132857Y8892276D01*
X2132857Y8892276D02*
X2132857Y8855133D01*
X2132857Y8855133D02*
X2120476Y8830371D01*
X2120476Y8830371D02*
X2108095Y8817990D01*
X2108095Y8817990D02*
X2083333Y8805609D01*
X2083333Y8805609D02*
X1984285Y8805609D01*
X2231904Y8917038D02*
X2244285Y8929419D01*
X2244285Y8929419D02*
X2269047Y8941800D01*
X2269047Y8941800D02*
X2330952Y8941800D01*
X2330952Y8941800D02*
X2355714Y8929419D01*
X2355714Y8929419D02*
X2368095Y8917038D01*
X2368095Y8917038D02*
X2380476Y8892276D01*
X2380476Y8892276D02*
X2380476Y8867514D01*
X2380476Y8867514D02*
X2368095Y8830371D01*
X2368095Y8830371D02*
X2219523Y8681800D01*
X2219523Y8681800D02*
X2380476Y8681800D01*
X2603333Y8941800D02*
X2553809Y8941800D01*
X2553809Y8941800D02*
X2529047Y8929419D01*
X2529047Y8929419D02*
X2516666Y8917038D01*
X2516666Y8917038D02*
X2491904Y8879895D01*
X2491904Y8879895D02*
X2479523Y8830371D01*
X2479523Y8830371D02*
X2479523Y8731323D01*
X2479523Y8731323D02*
X2491904Y8706561D01*
X2491904Y8706561D02*
X2504285Y8694180D01*
X2504285Y8694180D02*
X2529047Y8681800D01*
X2529047Y8681800D02*
X2578571Y8681800D01*
X2578571Y8681800D02*
X2603333Y8694180D01*
X2603333Y8694180D02*
X2615714Y8706561D01*
X2615714Y8706561D02*
X2628095Y8731323D01*
X2628095Y8731323D02*
X2628095Y8793228D01*
X2628095Y8793228D02*
X2615714Y8817990D01*
X2615714Y8817990D02*
X2603333Y8830371D01*
X2603333Y8830371D02*
X2578571Y8842752D01*
X2578571Y8842752D02*
X2529047Y8842752D01*
X2529047Y8842752D02*
X2504285Y8830371D01*
X2504285Y8830371D02*
X2491904Y8817990D01*
X2491904Y8817990D02*
X2479523Y8793228D01*
D14*
X29702409Y19720239D02*
X30202409Y20053572D01*
X29702409Y20053572D02*
X30202409Y19720239D01*
X30202409Y20505953D02*
X30202409Y20220239D01*
X30202409Y20363096D02*
X29702409Y20363096D01*
X29702409Y20363096D02*
X29773838Y20315477D01*
X29773838Y20315477D02*
X29821457Y20267858D01*
X29821457Y20267858D02*
X29845266Y20220239D01*
D11*
X29924217Y10218499D02*
X29964623Y10447466D01*
X29762593Y10380123D02*
X30045435Y10662966D01*
X30045435Y10662966D02*
X30153185Y10555216D01*
X30153185Y10555216D02*
X30166654Y10514810D01*
X30166654Y10514810D02*
X30166654Y10487873D01*
X30166654Y10487873D02*
X30153185Y10447466D01*
X30153185Y10447466D02*
X30112779Y10407060D01*
X30112779Y10407060D02*
X30072373Y10393592D01*
X30072373Y10393592D02*
X30045435Y10393592D01*
X30045435Y10393592D02*
X30005029Y10407060D01*
X30005029Y10407060D02*
X29897280Y10514810D01*
X30247466Y10218499D02*
X30233997Y10258905D01*
X30233997Y10258905D02*
X30233997Y10285842D01*
X30233997Y10285842D02*
X30247466Y10326248D01*
X30247466Y10326248D02*
X30260934Y10339717D01*
X30260934Y10339717D02*
X30301341Y10353186D01*
X30301341Y10353186D02*
X30328278Y10353186D01*
X30328278Y10353186D02*
X30368684Y10339717D01*
X30368684Y10339717D02*
X30422559Y10285842D01*
X30422559Y10285842D02*
X30436028Y10245436D01*
X30436028Y10245436D02*
X30436028Y10218499D01*
X30436028Y10218499D02*
X30422559Y10178092D01*
X30422559Y10178092D02*
X30409090Y10164624D01*
X30409090Y10164624D02*
X30368684Y10151155D01*
X30368684Y10151155D02*
X30341747Y10151155D01*
X30341747Y10151155D02*
X30301341Y10164624D01*
X30301341Y10164624D02*
X30247466Y10218499D01*
X30247466Y10218499D02*
X30207060Y10231967D01*
X30207060Y10231967D02*
X30180122Y10231967D01*
X30180122Y10231967D02*
X30139716Y10218499D01*
X30139716Y10218499D02*
X30085841Y10164624D01*
X30085841Y10164624D02*
X30072373Y10124218D01*
X30072373Y10124218D02*
X30072373Y10097280D01*
X30072373Y10097280D02*
X30085841Y10056874D01*
X30085841Y10056874D02*
X30139716Y10002999D01*
X30139716Y10002999D02*
X30180122Y9989531D01*
X30180122Y9989531D02*
X30207060Y9989531D01*
X30207060Y9989531D02*
X30247466Y10002999D01*
X30247466Y10002999D02*
X30301341Y10056874D01*
X30301341Y10056874D02*
X30314809Y10097280D01*
X30314809Y10097280D02*
X30314809Y10124218D01*
X30314809Y10124218D02*
X30301341Y10164624D01*
D10*
X25332857Y4081800D02*
X25246190Y4205609D01*
X25184285Y4081800D02*
X25184285Y4341800D01*
X25184285Y4341800D02*
X25283333Y4341800D01*
X25283333Y4341800D02*
X25308095Y4329419D01*
X25308095Y4329419D02*
X25320476Y4317038D01*
X25320476Y4317038D02*
X25332857Y4292276D01*
X25332857Y4292276D02*
X25332857Y4255133D01*
X25332857Y4255133D02*
X25320476Y4230371D01*
X25320476Y4230371D02*
X25308095Y4217990D01*
X25308095Y4217990D02*
X25283333Y4205609D01*
X25283333Y4205609D02*
X25184285Y4205609D01*
X25431904Y4317038D02*
X25444285Y4329419D01*
X25444285Y4329419D02*
X25469047Y4341800D01*
X25469047Y4341800D02*
X25530952Y4341800D01*
X25530952Y4341800D02*
X25555714Y4329419D01*
X25555714Y4329419D02*
X25568095Y4317038D01*
X25568095Y4317038D02*
X25580476Y4292276D01*
X25580476Y4292276D02*
X25580476Y4267514D01*
X25580476Y4267514D02*
X25568095Y4230371D01*
X25568095Y4230371D02*
X25419523Y4081800D01*
X25419523Y4081800D02*
X25580476Y4081800D01*
X25741428Y4341800D02*
X25766190Y4341800D01*
X25766190Y4341800D02*
X25790952Y4329419D01*
X25790952Y4329419D02*
X25803333Y4317038D01*
X25803333Y4317038D02*
X25815714Y4292276D01*
X25815714Y4292276D02*
X25828095Y4242752D01*
X25828095Y4242752D02*
X25828095Y4180847D01*
X25828095Y4180847D02*
X25815714Y4131323D01*
X25815714Y4131323D02*
X25803333Y4106561D01*
X25803333Y4106561D02*
X25790952Y4094180D01*
X25790952Y4094180D02*
X25766190Y4081800D01*
X25766190Y4081800D02*
X25741428Y4081800D01*
X25741428Y4081800D02*
X25716666Y4094180D01*
X25716666Y4094180D02*
X25704285Y4106561D01*
X25704285Y4106561D02*
X25691904Y4131323D01*
X25691904Y4131323D02*
X25679523Y4180847D01*
X25679523Y4180847D02*
X25679523Y4242752D01*
X25679523Y4242752D02*
X25691904Y4292276D01*
X25691904Y4292276D02*
X25704285Y4317038D01*
X25704285Y4317038D02*
X25716666Y4329419D01*
X25716666Y4329419D02*
X25741428Y4341800D01*
D11*
X18042857Y9518073D02*
X17909524Y9708549D01*
X17814286Y9518073D02*
X17814286Y9918073D01*
X17814286Y9918073D02*
X17966667Y9918073D01*
X17966667Y9918073D02*
X18004762Y9899025D01*
X18004762Y9899025D02*
X18023809Y9879978D01*
X18023809Y9879978D02*
X18042857Y9841882D01*
X18042857Y9841882D02*
X18042857Y9784740D01*
X18042857Y9784740D02*
X18023809Y9746644D01*
X18023809Y9746644D02*
X18004762Y9727597D01*
X18004762Y9727597D02*
X17966667Y9708549D01*
X17966667Y9708549D02*
X17814286Y9708549D01*
X18195238Y9879978D02*
X18214286Y9899025D01*
X18214286Y9899025D02*
X18252381Y9918073D01*
X18252381Y9918073D02*
X18347619Y9918073D01*
X18347619Y9918073D02*
X18385714Y9899025D01*
X18385714Y9899025D02*
X18404762Y9879978D01*
X18404762Y9879978D02*
X18423809Y9841882D01*
X18423809Y9841882D02*
X18423809Y9803787D01*
X18423809Y9803787D02*
X18404762Y9746644D01*
X18404762Y9746644D02*
X18176190Y9518073D01*
X18176190Y9518073D02*
X18423809Y9518073D01*
X18614285Y9518073D02*
X18690476Y9518073D01*
X18690476Y9518073D02*
X18728571Y9537120D01*
X18728571Y9537120D02*
X18747619Y9556168D01*
X18747619Y9556168D02*
X18785714Y9613311D01*
X18785714Y9613311D02*
X18804761Y9689501D01*
X18804761Y9689501D02*
X18804761Y9841882D01*
X18804761Y9841882D02*
X18785714Y9879978D01*
X18785714Y9879978D02*
X18766666Y9899025D01*
X18766666Y9899025D02*
X18728571Y9918073D01*
X18728571Y9918073D02*
X18652380Y9918073D01*
X18652380Y9918073D02*
X18614285Y9899025D01*
X18614285Y9899025D02*
X18595238Y9879978D01*
X18595238Y9879978D02*
X18576190Y9841882D01*
X18576190Y9841882D02*
X18576190Y9746644D01*
X18576190Y9746644D02*
X18595238Y9708549D01*
X18595238Y9708549D02*
X18614285Y9689501D01*
X18614285Y9689501D02*
X18652380Y9670454D01*
X18652380Y9670454D02*
X18728571Y9670454D01*
X18728571Y9670454D02*
X18766666Y9689501D01*
X18766666Y9689501D02*
X18785714Y9708549D01*
X18785714Y9708549D02*
X18804761Y9746644D01*
D10*
X27289285Y36260235D02*
X27277381Y36248330D01*
X27277381Y36248330D02*
X27241666Y36236426D01*
X27241666Y36236426D02*
X27217857Y36236426D01*
X27217857Y36236426D02*
X27182143Y36248330D01*
X27182143Y36248330D02*
X27158333Y36272140D01*
X27158333Y36272140D02*
X27146428Y36295950D01*
X27146428Y36295950D02*
X27134524Y36343569D01*
X27134524Y36343569D02*
X27134524Y36379283D01*
X27134524Y36379283D02*
X27146428Y36426902D01*
X27146428Y36426902D02*
X27158333Y36450711D01*
X27158333Y36450711D02*
X27182143Y36474521D01*
X27182143Y36474521D02*
X27217857Y36486426D01*
X27217857Y36486426D02*
X27241666Y36486426D01*
X27241666Y36486426D02*
X27277381Y36474521D01*
X27277381Y36474521D02*
X27289285Y36462616D01*
X27527381Y36236426D02*
X27384524Y36236426D01*
X27455952Y36236426D02*
X27455952Y36486426D01*
X27455952Y36486426D02*
X27432143Y36450711D01*
X27432143Y36450711D02*
X27408333Y36426902D01*
X27408333Y36426902D02*
X27384524Y36414997D01*
X27765476Y36236426D02*
X27622619Y36236426D01*
X27694047Y36236426D02*
X27694047Y36486426D01*
X27694047Y36486426D02*
X27670238Y36450711D01*
X27670238Y36450711D02*
X27646428Y36426902D01*
X27646428Y36426902D02*
X27622619Y36414997D01*
D11*
X18281927Y6904763D02*
X17881927Y6904763D01*
X17881927Y6904763D02*
X17881927Y7000001D01*
X17881927Y7000001D02*
X17900975Y7057144D01*
X17900975Y7057144D02*
X17939070Y7095239D01*
X17939070Y7095239D02*
X17977165Y7114286D01*
X17977165Y7114286D02*
X18053356Y7133334D01*
X18053356Y7133334D02*
X18110499Y7133334D01*
X18110499Y7133334D02*
X18186689Y7114286D01*
X18186689Y7114286D02*
X18224784Y7095239D01*
X18224784Y7095239D02*
X18262880Y7057144D01*
X18262880Y7057144D02*
X18281927Y7000001D01*
X18281927Y7000001D02*
X18281927Y6904763D01*
X18015260Y7476191D02*
X18281927Y7476191D01*
X17862880Y7380953D02*
X18148594Y7285715D01*
X18148594Y7285715D02*
X18148594Y7533334D01*
X31542857Y41556168D02*
X31523809Y41537120D01*
X31523809Y41537120D02*
X31466667Y41518073D01*
X31466667Y41518073D02*
X31428571Y41518073D01*
X31428571Y41518073D02*
X31371428Y41537120D01*
X31371428Y41537120D02*
X31333333Y41575216D01*
X31333333Y41575216D02*
X31314286Y41613311D01*
X31314286Y41613311D02*
X31295238Y41689501D01*
X31295238Y41689501D02*
X31295238Y41746644D01*
X31295238Y41746644D02*
X31314286Y41822835D01*
X31314286Y41822835D02*
X31333333Y41860930D01*
X31333333Y41860930D02*
X31371428Y41899025D01*
X31371428Y41899025D02*
X31428571Y41918073D01*
X31428571Y41918073D02*
X31466667Y41918073D01*
X31466667Y41918073D02*
X31523809Y41899025D01*
X31523809Y41899025D02*
X31542857Y41879978D01*
X31695238Y41879978D02*
X31714286Y41899025D01*
X31714286Y41899025D02*
X31752381Y41918073D01*
X31752381Y41918073D02*
X31847619Y41918073D01*
X31847619Y41918073D02*
X31885714Y41899025D01*
X31885714Y41899025D02*
X31904762Y41879978D01*
X31904762Y41879978D02*
X31923809Y41841882D01*
X31923809Y41841882D02*
X31923809Y41803787D01*
X31923809Y41803787D02*
X31904762Y41746644D01*
X31904762Y41746644D02*
X31676190Y41518073D01*
X31676190Y41518073D02*
X31923809Y41518073D01*
X32171428Y41918073D02*
X32209523Y41918073D01*
X32209523Y41918073D02*
X32247619Y41899025D01*
X32247619Y41899025D02*
X32266666Y41879978D01*
X32266666Y41879978D02*
X32285714Y41841882D01*
X32285714Y41841882D02*
X32304761Y41765692D01*
X32304761Y41765692D02*
X32304761Y41670454D01*
X32304761Y41670454D02*
X32285714Y41594263D01*
X32285714Y41594263D02*
X32266666Y41556168D01*
X32266666Y41556168D02*
X32247619Y41537120D01*
X32247619Y41537120D02*
X32209523Y41518073D01*
X32209523Y41518073D02*
X32171428Y41518073D01*
X32171428Y41518073D02*
X32133333Y41537120D01*
X32133333Y41537120D02*
X32114285Y41556168D01*
X32114285Y41556168D02*
X32095238Y41594263D01*
X32095238Y41594263D02*
X32076190Y41670454D01*
X32076190Y41670454D02*
X32076190Y41765692D01*
X32076190Y41765692D02*
X32095238Y41841882D01*
X32095238Y41841882D02*
X32114285Y41879978D01*
X32114285Y41879978D02*
X32133333Y41899025D01*
X32133333Y41899025D02*
X32171428Y41918073D01*
X16833333Y37756168D02*
X16814285Y37737120D01*
X16814285Y37737120D02*
X16757143Y37718073D01*
X16757143Y37718073D02*
X16719047Y37718073D01*
X16719047Y37718073D02*
X16661904Y37737120D01*
X16661904Y37737120D02*
X16623809Y37775216D01*
X16623809Y37775216D02*
X16604762Y37813311D01*
X16604762Y37813311D02*
X16585714Y37889501D01*
X16585714Y37889501D02*
X16585714Y37946644D01*
X16585714Y37946644D02*
X16604762Y38022835D01*
X16604762Y38022835D02*
X16623809Y38060930D01*
X16623809Y38060930D02*
X16661904Y38099025D01*
X16661904Y38099025D02*
X16719047Y38118073D01*
X16719047Y38118073D02*
X16757143Y38118073D01*
X16757143Y38118073D02*
X16814285Y38099025D01*
X16814285Y38099025D02*
X16833333Y38079978D01*
X16966666Y38118073D02*
X17214285Y38118073D01*
X17214285Y38118073D02*
X17080952Y37965692D01*
X17080952Y37965692D02*
X17138095Y37965692D01*
X17138095Y37965692D02*
X17176190Y37946644D01*
X17176190Y37946644D02*
X17195238Y37927597D01*
X17195238Y37927597D02*
X17214285Y37889501D01*
X17214285Y37889501D02*
X17214285Y37794263D01*
X17214285Y37794263D02*
X17195238Y37756168D01*
X17195238Y37756168D02*
X17176190Y37737120D01*
X17176190Y37737120D02*
X17138095Y37718073D01*
X17138095Y37718073D02*
X17023809Y37718073D01*
X17023809Y37718073D02*
X16985714Y37737120D01*
X16985714Y37737120D02*
X16966666Y37756168D01*
X22131927Y39592858D02*
X21941451Y39459525D01*
X22131927Y39364287D02*
X21731927Y39364287D01*
X21731927Y39364287D02*
X21731927Y39516668D01*
X21731927Y39516668D02*
X21750975Y39554763D01*
X21750975Y39554763D02*
X21770022Y39573810D01*
X21770022Y39573810D02*
X21808118Y39592858D01*
X21808118Y39592858D02*
X21865260Y39592858D01*
X21865260Y39592858D02*
X21903356Y39573810D01*
X21903356Y39573810D02*
X21922403Y39554763D01*
X21922403Y39554763D02*
X21941451Y39516668D01*
X21941451Y39516668D02*
X21941451Y39364287D01*
X22131927Y39973810D02*
X22131927Y39745239D01*
X22131927Y39859525D02*
X21731927Y39859525D01*
X21731927Y39859525D02*
X21789070Y39821429D01*
X21789070Y39821429D02*
X21827165Y39783334D01*
X21827165Y39783334D02*
X21846213Y39745239D01*
X22131927Y40164286D02*
X22131927Y40240477D01*
X22131927Y40240477D02*
X22112880Y40278572D01*
X22112880Y40278572D02*
X22093832Y40297620D01*
X22093832Y40297620D02*
X22036689Y40335715D01*
X22036689Y40335715D02*
X21960499Y40354762D01*
X21960499Y40354762D02*
X21808118Y40354762D01*
X21808118Y40354762D02*
X21770022Y40335715D01*
X21770022Y40335715D02*
X21750975Y40316667D01*
X21750975Y40316667D02*
X21731927Y40278572D01*
X21731927Y40278572D02*
X21731927Y40202381D01*
X21731927Y40202381D02*
X21750975Y40164286D01*
X21750975Y40164286D02*
X21770022Y40145239D01*
X21770022Y40145239D02*
X21808118Y40126191D01*
X21808118Y40126191D02*
X21903356Y40126191D01*
X21903356Y40126191D02*
X21941451Y40145239D01*
X21941451Y40145239D02*
X21960499Y40164286D01*
X21960499Y40164286D02*
X21979546Y40202381D01*
X21979546Y40202381D02*
X21979546Y40278572D01*
X21979546Y40278572D02*
X21960499Y40316667D01*
X21960499Y40316667D02*
X21941451Y40335715D01*
X21941451Y40335715D02*
X21903356Y40354762D01*
D12*
X24854819Y9438096D02*
X25664342Y9438096D01*
X25664342Y9438096D02*
X25759580Y9485715D01*
X25759580Y9485715D02*
X25807200Y9533334D01*
X25807200Y9533334D02*
X25854819Y9628572D01*
X25854819Y9628572D02*
X25854819Y9819048D01*
X25854819Y9819048D02*
X25807200Y9914286D01*
X25807200Y9914286D02*
X25759580Y9961905D01*
X25759580Y9961905D02*
X25664342Y10009524D01*
X25664342Y10009524D02*
X24854819Y10009524D01*
X25188152Y10914286D02*
X25854819Y10914286D01*
X24807200Y10676191D02*
X25521485Y10438096D01*
X25521485Y10438096D02*
X25521485Y11057143D01*
D10*
X25832857Y16881800D02*
X25746190Y17005609D01*
X25684285Y16881800D02*
X25684285Y17141800D01*
X25684285Y17141800D02*
X25783333Y17141800D01*
X25783333Y17141800D02*
X25808095Y17129419D01*
X25808095Y17129419D02*
X25820476Y17117038D01*
X25820476Y17117038D02*
X25832857Y17092276D01*
X25832857Y17092276D02*
X25832857Y17055133D01*
X25832857Y17055133D02*
X25820476Y17030371D01*
X25820476Y17030371D02*
X25808095Y17017990D01*
X25808095Y17017990D02*
X25783333Y17005609D01*
X25783333Y17005609D02*
X25684285Y17005609D01*
X26080476Y16881800D02*
X25931904Y16881800D01*
X26006190Y16881800D02*
X26006190Y17141800D01*
X26006190Y17141800D02*
X25981428Y17104657D01*
X25981428Y17104657D02*
X25956666Y17079895D01*
X25956666Y17079895D02*
X25931904Y17067514D01*
X26303333Y17141800D02*
X26253809Y17141800D01*
X26253809Y17141800D02*
X26229047Y17129419D01*
X26229047Y17129419D02*
X26216666Y17117038D01*
X26216666Y17117038D02*
X26191904Y17079895D01*
X26191904Y17079895D02*
X26179523Y17030371D01*
X26179523Y17030371D02*
X26179523Y16931323D01*
X26179523Y16931323D02*
X26191904Y16906561D01*
X26191904Y16906561D02*
X26204285Y16894180D01*
X26204285Y16894180D02*
X26229047Y16881800D01*
X26229047Y16881800D02*
X26278571Y16881800D01*
X26278571Y16881800D02*
X26303333Y16894180D01*
X26303333Y16894180D02*
X26315714Y16906561D01*
X26315714Y16906561D02*
X26328095Y16931323D01*
X26328095Y16931323D02*
X26328095Y16993228D01*
X26328095Y16993228D02*
X26315714Y17017990D01*
X26315714Y17017990D02*
X26303333Y17030371D01*
X26303333Y17030371D02*
X26278571Y17042752D01*
X26278571Y17042752D02*
X26229047Y17042752D01*
X26229047Y17042752D02*
X26204285Y17030371D01*
X26204285Y17030371D02*
X26191904Y17017990D01*
X26191904Y17017990D02*
X26179523Y16993228D01*
D11*
X31733333Y37518073D02*
X31600000Y37708549D01*
X31504762Y37518073D02*
X31504762Y37918073D01*
X31504762Y37918073D02*
X31657143Y37918073D01*
X31657143Y37918073D02*
X31695238Y37899025D01*
X31695238Y37899025D02*
X31714285Y37879978D01*
X31714285Y37879978D02*
X31733333Y37841882D01*
X31733333Y37841882D02*
X31733333Y37784740D01*
X31733333Y37784740D02*
X31714285Y37746644D01*
X31714285Y37746644D02*
X31695238Y37727597D01*
X31695238Y37727597D02*
X31657143Y37708549D01*
X31657143Y37708549D02*
X31504762Y37708549D01*
X32076190Y37784740D02*
X32076190Y37518073D01*
X31980952Y37937120D02*
X31885714Y37651406D01*
X31885714Y37651406D02*
X32133333Y37651406D01*
X16833333Y43356168D02*
X16814285Y43337120D01*
X16814285Y43337120D02*
X16757143Y43318073D01*
X16757143Y43318073D02*
X16719047Y43318073D01*
X16719047Y43318073D02*
X16661904Y43337120D01*
X16661904Y43337120D02*
X16623809Y43375216D01*
X16623809Y43375216D02*
X16604762Y43413311D01*
X16604762Y43413311D02*
X16585714Y43489501D01*
X16585714Y43489501D02*
X16585714Y43546644D01*
X16585714Y43546644D02*
X16604762Y43622835D01*
X16604762Y43622835D02*
X16623809Y43660930D01*
X16623809Y43660930D02*
X16661904Y43699025D01*
X16661904Y43699025D02*
X16719047Y43718073D01*
X16719047Y43718073D02*
X16757143Y43718073D01*
X16757143Y43718073D02*
X16814285Y43699025D01*
X16814285Y43699025D02*
X16833333Y43679978D01*
X17214285Y43318073D02*
X16985714Y43318073D01*
X17100000Y43318073D02*
X17100000Y43718073D01*
X17100000Y43718073D02*
X17061904Y43660930D01*
X17061904Y43660930D02*
X17023809Y43622835D01*
X17023809Y43622835D02*
X16985714Y43603787D01*
D10*
X19918200Y5532858D02*
X19794391Y5446191D01*
X19918200Y5384286D02*
X19658200Y5384286D01*
X19658200Y5384286D02*
X19658200Y5483334D01*
X19658200Y5483334D02*
X19670581Y5508096D01*
X19670581Y5508096D02*
X19682962Y5520477D01*
X19682962Y5520477D02*
X19707724Y5532858D01*
X19707724Y5532858D02*
X19744867Y5532858D01*
X19744867Y5532858D02*
X19769629Y5520477D01*
X19769629Y5520477D02*
X19782010Y5508096D01*
X19782010Y5508096D02*
X19794391Y5483334D01*
X19794391Y5483334D02*
X19794391Y5384286D01*
X19918200Y5780477D02*
X19918200Y5631905D01*
X19918200Y5706191D02*
X19658200Y5706191D01*
X19658200Y5706191D02*
X19695343Y5681429D01*
X19695343Y5681429D02*
X19720105Y5656667D01*
X19720105Y5656667D02*
X19732486Y5631905D01*
X19918200Y6028096D02*
X19918200Y5879524D01*
X19918200Y5953810D02*
X19658200Y5953810D01*
X19658200Y5953810D02*
X19695343Y5929048D01*
X19695343Y5929048D02*
X19720105Y5904286D01*
X19720105Y5904286D02*
X19732486Y5879524D01*
D11*
X27183333Y43056168D02*
X27164285Y43037120D01*
X27164285Y43037120D02*
X27107143Y43018073D01*
X27107143Y43018073D02*
X27069047Y43018073D01*
X27069047Y43018073D02*
X27011904Y43037120D01*
X27011904Y43037120D02*
X26973809Y43075216D01*
X26973809Y43075216D02*
X26954762Y43113311D01*
X26954762Y43113311D02*
X26935714Y43189501D01*
X26935714Y43189501D02*
X26935714Y43246644D01*
X26935714Y43246644D02*
X26954762Y43322835D01*
X26954762Y43322835D02*
X26973809Y43360930D01*
X26973809Y43360930D02*
X27011904Y43399025D01*
X27011904Y43399025D02*
X27069047Y43418073D01*
X27069047Y43418073D02*
X27107143Y43418073D01*
X27107143Y43418073D02*
X27164285Y43399025D01*
X27164285Y43399025D02*
X27183333Y43379978D01*
X27411904Y43246644D02*
X27373809Y43265692D01*
X27373809Y43265692D02*
X27354762Y43284740D01*
X27354762Y43284740D02*
X27335714Y43322835D01*
X27335714Y43322835D02*
X27335714Y43341882D01*
X27335714Y43341882D02*
X27354762Y43379978D01*
X27354762Y43379978D02*
X27373809Y43399025D01*
X27373809Y43399025D02*
X27411904Y43418073D01*
X27411904Y43418073D02*
X27488095Y43418073D01*
X27488095Y43418073D02*
X27526190Y43399025D01*
X27526190Y43399025D02*
X27545238Y43379978D01*
X27545238Y43379978D02*
X27564285Y43341882D01*
X27564285Y43341882D02*
X27564285Y43322835D01*
X27564285Y43322835D02*
X27545238Y43284740D01*
X27545238Y43284740D02*
X27526190Y43265692D01*
X27526190Y43265692D02*
X27488095Y43246644D01*
X27488095Y43246644D02*
X27411904Y43246644D01*
X27411904Y43246644D02*
X27373809Y43227597D01*
X27373809Y43227597D02*
X27354762Y43208549D01*
X27354762Y43208549D02*
X27335714Y43170454D01*
X27335714Y43170454D02*
X27335714Y43094263D01*
X27335714Y43094263D02*
X27354762Y43056168D01*
X27354762Y43056168D02*
X27373809Y43037120D01*
X27373809Y43037120D02*
X27411904Y43018073D01*
X27411904Y43018073D02*
X27488095Y43018073D01*
X27488095Y43018073D02*
X27526190Y43037120D01*
X27526190Y43037120D02*
X27545238Y43056168D01*
X27545238Y43056168D02*
X27564285Y43094263D01*
X27564285Y43094263D02*
X27564285Y43170454D01*
X27564285Y43170454D02*
X27545238Y43208549D01*
X27545238Y43208549D02*
X27526190Y43227597D01*
X27526190Y43227597D02*
X27488095Y43246644D01*
D12*
X13089160Y4177800D02*
X13232017Y4130181D01*
X13232017Y4130181D02*
X13470112Y4130181D01*
X13470112Y4130181D02*
X13565350Y4177800D01*
X13565350Y4177800D02*
X13612969Y4225420D01*
X13612969Y4225420D02*
X13660588Y4320658D01*
X13660588Y4320658D02*
X13660588Y4415896D01*
X13660588Y4415896D02*
X13612969Y4511134D01*
X13612969Y4511134D02*
X13565350Y4558753D01*
X13565350Y4558753D02*
X13470112Y4606372D01*
X13470112Y4606372D02*
X13279636Y4653991D01*
X13279636Y4653991D02*
X13184398Y4701610D01*
X13184398Y4701610D02*
X13136779Y4749229D01*
X13136779Y4749229D02*
X13089160Y4844467D01*
X13089160Y4844467D02*
X13089160Y4939705D01*
X13089160Y4939705D02*
X13136779Y5034943D01*
X13136779Y5034943D02*
X13184398Y5082562D01*
X13184398Y5082562D02*
X13279636Y5130181D01*
X13279636Y5130181D02*
X13517731Y5130181D01*
X13517731Y5130181D02*
X13660588Y5082562D01*
X13993922Y5130181D02*
X14232017Y4130181D01*
X14232017Y4130181D02*
X14422493Y4844467D01*
X14422493Y4844467D02*
X14612969Y4130181D01*
X14612969Y4130181D02*
X14851065Y5130181D01*
X15755826Y4130181D02*
X15184398Y4130181D01*
X15470112Y4130181D02*
X15470112Y5130181D01*
X15470112Y5130181D02*
X15374874Y4987324D01*
X15374874Y4987324D02*
X15279636Y4892086D01*
X15279636Y4892086D02*
X15184398Y4844467D01*
D13*
X678571Y47020958D02*
X578571Y47020958D01*
X578571Y46863815D02*
X578571Y47163815D01*
X578571Y47163815D02*
X721428Y47163815D01*
X835714Y46863815D02*
X835714Y47163815D01*
X978571Y46863815D02*
X978571Y47163815D01*
X978571Y47163815D02*
X1050000Y47163815D01*
X1050000Y47163815D02*
X1092857Y47149529D01*
X1092857Y47149529D02*
X1121428Y47120958D01*
X1121428Y47120958D02*
X1135714Y47092386D01*
X1135714Y47092386D02*
X1150000Y47035243D01*
X1150000Y47035243D02*
X1150000Y46992386D01*
X1150000Y46992386D02*
X1135714Y46935243D01*
X1135714Y46935243D02*
X1121428Y46906672D01*
X1121428Y46906672D02*
X1092857Y46878100D01*
X1092857Y46878100D02*
X1050000Y46863815D01*
X1050000Y46863815D02*
X978571Y46863815D01*
X1264285Y47135243D02*
X1278571Y47149529D01*
X1278571Y47149529D02*
X1307143Y47163815D01*
X1307143Y47163815D02*
X1378571Y47163815D01*
X1378571Y47163815D02*
X1407143Y47149529D01*
X1407143Y47149529D02*
X1421428Y47135243D01*
X1421428Y47135243D02*
X1435714Y47106672D01*
X1435714Y47106672D02*
X1435714Y47078100D01*
X1435714Y47078100D02*
X1421428Y47035243D01*
X1421428Y47035243D02*
X1250000Y46863815D01*
X1250000Y46863815D02*
X1435714Y46863815D01*
D10*
X23418200Y32656668D02*
X23294391Y32570001D01*
X23418200Y32508096D02*
X23158200Y32508096D01*
X23158200Y32508096D02*
X23158200Y32607144D01*
X23158200Y32607144D02*
X23170581Y32631906D01*
X23170581Y32631906D02*
X23182962Y32644287D01*
X23182962Y32644287D02*
X23207724Y32656668D01*
X23207724Y32656668D02*
X23244867Y32656668D01*
X23244867Y32656668D02*
X23269629Y32644287D01*
X23269629Y32644287D02*
X23282010Y32631906D01*
X23282010Y32631906D02*
X23294391Y32607144D01*
X23294391Y32607144D02*
X23294391Y32508096D01*
X23418200Y32904287D02*
X23418200Y32755715D01*
X23418200Y32830001D02*
X23158200Y32830001D01*
X23158200Y32830001D02*
X23195343Y32805239D01*
X23195343Y32805239D02*
X23220105Y32780477D01*
X23220105Y32780477D02*
X23232486Y32755715D01*
D15*
X19865244Y42433335D02*
X19865244Y42266668D01*
X20127149Y42266668D02*
X19627149Y42266668D01*
X19627149Y42266668D02*
X19627149Y42504763D01*
X20127149Y42957144D02*
X20127149Y42671430D01*
X20127149Y42814287D02*
X19627149Y42814287D01*
X19627149Y42814287D02*
X19698578Y42766668D01*
X19698578Y42766668D02*
X19746197Y42719049D01*
X19746197Y42719049D02*
X19770006Y42671430D01*
D10*
X19889765Y7739286D02*
X19901670Y7727382D01*
X19901670Y7727382D02*
X19913574Y7691667D01*
X19913574Y7691667D02*
X19913574Y7667858D01*
X19913574Y7667858D02*
X19901670Y7632144D01*
X19901670Y7632144D02*
X19877860Y7608334D01*
X19877860Y7608334D02*
X19854050Y7596429D01*
X19854050Y7596429D02*
X19806431Y7584525D01*
X19806431Y7584525D02*
X19770717Y7584525D01*
X19770717Y7584525D02*
X19723098Y7596429D01*
X19723098Y7596429D02*
X19699289Y7608334D01*
X19699289Y7608334D02*
X19675479Y7632144D01*
X19675479Y7632144D02*
X19663574Y7667858D01*
X19663574Y7667858D02*
X19663574Y7691667D01*
X19663574Y7691667D02*
X19675479Y7727382D01*
X19675479Y7727382D02*
X19687384Y7739286D01*
X19687384Y7834525D02*
X19675479Y7846429D01*
X19675479Y7846429D02*
X19663574Y7870239D01*
X19663574Y7870239D02*
X19663574Y7929763D01*
X19663574Y7929763D02*
X19675479Y7953572D01*
X19675479Y7953572D02*
X19687384Y7965477D01*
X19687384Y7965477D02*
X19711193Y7977382D01*
X19711193Y7977382D02*
X19735003Y7977382D01*
X19735003Y7977382D02*
X19770717Y7965477D01*
X19770717Y7965477D02*
X19913574Y7822620D01*
X19913574Y7822620D02*
X19913574Y7977382D01*
X19913574Y8215477D02*
X19913574Y8072620D01*
X19913574Y8144048D02*
X19663574Y8144048D01*
X19663574Y8144048D02*
X19699289Y8120239D01*
X19699289Y8120239D02*
X19723098Y8096429D01*
X19723098Y8096429D02*
X19735003Y8072620D01*
D11*
X27192857Y37406168D02*
X27173809Y37387120D01*
X27173809Y37387120D02*
X27116667Y37368073D01*
X27116667Y37368073D02*
X27078571Y37368073D01*
X27078571Y37368073D02*
X27021428Y37387120D01*
X27021428Y37387120D02*
X26983333Y37425216D01*
X26983333Y37425216D02*
X26964286Y37463311D01*
X26964286Y37463311D02*
X26945238Y37539501D01*
X26945238Y37539501D02*
X26945238Y37596644D01*
X26945238Y37596644D02*
X26964286Y37672835D01*
X26964286Y37672835D02*
X26983333Y37710930D01*
X26983333Y37710930D02*
X27021428Y37749025D01*
X27021428Y37749025D02*
X27078571Y37768073D01*
X27078571Y37768073D02*
X27116667Y37768073D01*
X27116667Y37768073D02*
X27173809Y37749025D01*
X27173809Y37749025D02*
X27192857Y37729978D01*
X27573809Y37368073D02*
X27345238Y37368073D01*
X27459524Y37368073D02*
X27459524Y37768073D01*
X27459524Y37768073D02*
X27421428Y37710930D01*
X27421428Y37710930D02*
X27383333Y37672835D01*
X27383333Y37672835D02*
X27345238Y37653787D01*
X27821428Y37768073D02*
X27859523Y37768073D01*
X27859523Y37768073D02*
X27897619Y37749025D01*
X27897619Y37749025D02*
X27916666Y37729978D01*
X27916666Y37729978D02*
X27935714Y37691882D01*
X27935714Y37691882D02*
X27954761Y37615692D01*
X27954761Y37615692D02*
X27954761Y37520454D01*
X27954761Y37520454D02*
X27935714Y37444263D01*
X27935714Y37444263D02*
X27916666Y37406168D01*
X27916666Y37406168D02*
X27897619Y37387120D01*
X27897619Y37387120D02*
X27859523Y37368073D01*
X27859523Y37368073D02*
X27821428Y37368073D01*
X27821428Y37368073D02*
X27783333Y37387120D01*
X27783333Y37387120D02*
X27764285Y37406168D01*
X27764285Y37406168D02*
X27745238Y37444263D01*
X27745238Y37444263D02*
X27726190Y37520454D01*
X27726190Y37520454D02*
X27726190Y37615692D01*
X27726190Y37615692D02*
X27745238Y37691882D01*
X27745238Y37691882D02*
X27764285Y37729978D01*
X27764285Y37729978D02*
X27783333Y37749025D01*
X27783333Y37749025D02*
X27821428Y37768073D01*
X22143832Y32442858D02*
X22162880Y32423810D01*
X22162880Y32423810D02*
X22181927Y32366668D01*
X22181927Y32366668D02*
X22181927Y32328572D01*
X22181927Y32328572D02*
X22162880Y32271429D01*
X22162880Y32271429D02*
X22124784Y32233334D01*
X22124784Y32233334D02*
X22086689Y32214287D01*
X22086689Y32214287D02*
X22010499Y32195239D01*
X22010499Y32195239D02*
X21953356Y32195239D01*
X21953356Y32195239D02*
X21877165Y32214287D01*
X21877165Y32214287D02*
X21839070Y32233334D01*
X21839070Y32233334D02*
X21800975Y32271429D01*
X21800975Y32271429D02*
X21781927Y32328572D01*
X21781927Y32328572D02*
X21781927Y32366668D01*
X21781927Y32366668D02*
X21800975Y32423810D01*
X21800975Y32423810D02*
X21820022Y32442858D01*
X22181927Y32823810D02*
X22181927Y32595239D01*
X22181927Y32709525D02*
X21781927Y32709525D01*
X21781927Y32709525D02*
X21839070Y32671429D01*
X21839070Y32671429D02*
X21877165Y32633334D01*
X21877165Y32633334D02*
X21896213Y32595239D01*
X21781927Y32957143D02*
X21781927Y33204762D01*
X21781927Y33204762D02*
X21934308Y33071429D01*
X21934308Y33071429D02*
X21934308Y33128572D01*
X21934308Y33128572D02*
X21953356Y33166667D01*
X21953356Y33166667D02*
X21972403Y33185715D01*
X21972403Y33185715D02*
X22010499Y33204762D01*
X22010499Y33204762D02*
X22105737Y33204762D01*
X22105737Y33204762D02*
X22143832Y33185715D01*
X22143832Y33185715D02*
X22162880Y33166667D01*
X22162880Y33166667D02*
X22181927Y33128572D01*
X22181927Y33128572D02*
X22181927Y33014286D01*
X22181927Y33014286D02*
X22162880Y32976191D01*
X22162880Y32976191D02*
X22143832Y32957143D01*
X32381927Y5933334D02*
X32191451Y5800001D01*
X32381927Y5704763D02*
X31981927Y5704763D01*
X31981927Y5704763D02*
X31981927Y5857144D01*
X31981927Y5857144D02*
X32000975Y5895239D01*
X32000975Y5895239D02*
X32020022Y5914286D01*
X32020022Y5914286D02*
X32058118Y5933334D01*
X32058118Y5933334D02*
X32115260Y5933334D01*
X32115260Y5933334D02*
X32153356Y5914286D01*
X32153356Y5914286D02*
X32172403Y5895239D01*
X32172403Y5895239D02*
X32191451Y5857144D01*
X32191451Y5857144D02*
X32191451Y5704763D01*
X32020022Y6085715D02*
X32000975Y6104763D01*
X32000975Y6104763D02*
X31981927Y6142858D01*
X31981927Y6142858D02*
X31981927Y6238096D01*
X31981927Y6238096D02*
X32000975Y6276191D01*
X32000975Y6276191D02*
X32020022Y6295239D01*
X32020022Y6295239D02*
X32058118Y6314286D01*
X32058118Y6314286D02*
X32096213Y6314286D01*
X32096213Y6314286D02*
X32153356Y6295239D01*
X32153356Y6295239D02*
X32381927Y6066667D01*
X32381927Y6066667D02*
X32381927Y6314286D01*
D10*
X19389765Y37208334D02*
X19401670Y37196430D01*
X19401670Y37196430D02*
X19413574Y37160715D01*
X19413574Y37160715D02*
X19413574Y37136906D01*
X19413574Y37136906D02*
X19401670Y37101192D01*
X19401670Y37101192D02*
X19377860Y37077382D01*
X19377860Y37077382D02*
X19354050Y37065477D01*
X19354050Y37065477D02*
X19306431Y37053573D01*
X19306431Y37053573D02*
X19270717Y37053573D01*
X19270717Y37053573D02*
X19223098Y37065477D01*
X19223098Y37065477D02*
X19199289Y37077382D01*
X19199289Y37077382D02*
X19175479Y37101192D01*
X19175479Y37101192D02*
X19163574Y37136906D01*
X19163574Y37136906D02*
X19163574Y37160715D01*
X19163574Y37160715D02*
X19175479Y37196430D01*
X19175479Y37196430D02*
X19187384Y37208334D01*
X19187384Y37303573D02*
X19175479Y37315477D01*
X19175479Y37315477D02*
X19163574Y37339287D01*
X19163574Y37339287D02*
X19163574Y37398811D01*
X19163574Y37398811D02*
X19175479Y37422620D01*
X19175479Y37422620D02*
X19187384Y37434525D01*
X19187384Y37434525D02*
X19211193Y37446430D01*
X19211193Y37446430D02*
X19235003Y37446430D01*
X19235003Y37446430D02*
X19270717Y37434525D01*
X19270717Y37434525D02*
X19413574Y37291668D01*
X19413574Y37291668D02*
X19413574Y37446430D01*
X2032857Y12981800D02*
X1946190Y13105609D01*
X1884285Y12981800D02*
X1884285Y13241800D01*
X1884285Y13241800D02*
X1983333Y13241800D01*
X1983333Y13241800D02*
X2008095Y13229419D01*
X2008095Y13229419D02*
X2020476Y13217038D01*
X2020476Y13217038D02*
X2032857Y13192276D01*
X2032857Y13192276D02*
X2032857Y13155133D01*
X2032857Y13155133D02*
X2020476Y13130371D01*
X2020476Y13130371D02*
X2008095Y13117990D01*
X2008095Y13117990D02*
X1983333Y13105609D01*
X1983333Y13105609D02*
X1884285Y13105609D01*
X2119523Y13241800D02*
X2280476Y13241800D01*
X2280476Y13241800D02*
X2193809Y13142752D01*
X2193809Y13142752D02*
X2230952Y13142752D01*
X2230952Y13142752D02*
X2255714Y13130371D01*
X2255714Y13130371D02*
X2268095Y13117990D01*
X2268095Y13117990D02*
X2280476Y13093228D01*
X2280476Y13093228D02*
X2280476Y13031323D01*
X2280476Y13031323D02*
X2268095Y13006561D01*
X2268095Y13006561D02*
X2255714Y12994180D01*
X2255714Y12994180D02*
X2230952Y12981800D01*
X2230952Y12981800D02*
X2156666Y12981800D01*
X2156666Y12981800D02*
X2131904Y12994180D01*
X2131904Y12994180D02*
X2119523Y13006561D01*
X2441428Y13241800D02*
X2466190Y13241800D01*
X2466190Y13241800D02*
X2490952Y13229419D01*
X2490952Y13229419D02*
X2503333Y13217038D01*
X2503333Y13217038D02*
X2515714Y13192276D01*
X2515714Y13192276D02*
X2528095Y13142752D01*
X2528095Y13142752D02*
X2528095Y13080847D01*
X2528095Y13080847D02*
X2515714Y13031323D01*
X2515714Y13031323D02*
X2503333Y13006561D01*
X2503333Y13006561D02*
X2490952Y12994180D01*
X2490952Y12994180D02*
X2466190Y12981800D01*
X2466190Y12981800D02*
X2441428Y12981800D01*
X2441428Y12981800D02*
X2416666Y12994180D01*
X2416666Y12994180D02*
X2404285Y13006561D01*
X2404285Y13006561D02*
X2391904Y13031323D01*
X2391904Y13031323D02*
X2379523Y13080847D01*
X2379523Y13080847D02*
X2379523Y13142752D01*
X2379523Y13142752D02*
X2391904Y13192276D01*
X2391904Y13192276D02*
X2404285Y13217038D01*
X2404285Y13217038D02*
X2416666Y13229419D01*
X2416666Y13229419D02*
X2441428Y13241800D01*
D11*
X31733333Y40018073D02*
X31600000Y40208549D01*
X31504762Y40018073D02*
X31504762Y40418073D01*
X31504762Y40418073D02*
X31657143Y40418073D01*
X31657143Y40418073D02*
X31695238Y40399025D01*
X31695238Y40399025D02*
X31714285Y40379978D01*
X31714285Y40379978D02*
X31733333Y40341882D01*
X31733333Y40341882D02*
X31733333Y40284740D01*
X31733333Y40284740D02*
X31714285Y40246644D01*
X31714285Y40246644D02*
X31695238Y40227597D01*
X31695238Y40227597D02*
X31657143Y40208549D01*
X31657143Y40208549D02*
X31504762Y40208549D01*
X31866666Y40418073D02*
X32114285Y40418073D01*
X32114285Y40418073D02*
X31980952Y40265692D01*
X31980952Y40265692D02*
X32038095Y40265692D01*
X32038095Y40265692D02*
X32076190Y40246644D01*
X32076190Y40246644D02*
X32095238Y40227597D01*
X32095238Y40227597D02*
X32114285Y40189501D01*
X32114285Y40189501D02*
X32114285Y40094263D01*
X32114285Y40094263D02*
X32095238Y40056168D01*
X32095238Y40056168D02*
X32076190Y40037120D01*
X32076190Y40037120D02*
X32038095Y40018073D01*
X32038095Y40018073D02*
X31923809Y40018073D01*
X31923809Y40018073D02*
X31885714Y40037120D01*
X31885714Y40037120D02*
X31866666Y40056168D01*
D10*
X28039285Y27710235D02*
X28027381Y27698330D01*
X28027381Y27698330D02*
X27991666Y27686426D01*
X27991666Y27686426D02*
X27967857Y27686426D01*
X27967857Y27686426D02*
X27932143Y27698330D01*
X27932143Y27698330D02*
X27908333Y27722140D01*
X27908333Y27722140D02*
X27896428Y27745950D01*
X27896428Y27745950D02*
X27884524Y27793569D01*
X27884524Y27793569D02*
X27884524Y27829283D01*
X27884524Y27829283D02*
X27896428Y27876902D01*
X27896428Y27876902D02*
X27908333Y27900711D01*
X27908333Y27900711D02*
X27932143Y27924521D01*
X27932143Y27924521D02*
X27967857Y27936426D01*
X27967857Y27936426D02*
X27991666Y27936426D01*
X27991666Y27936426D02*
X28027381Y27924521D01*
X28027381Y27924521D02*
X28039285Y27912616D01*
X28277381Y27686426D02*
X28134524Y27686426D01*
X28205952Y27686426D02*
X28205952Y27936426D01*
X28205952Y27936426D02*
X28182143Y27900711D01*
X28182143Y27900711D02*
X28158333Y27876902D01*
X28158333Y27876902D02*
X28134524Y27864997D01*
X28491666Y27936426D02*
X28444047Y27936426D01*
X28444047Y27936426D02*
X28420238Y27924521D01*
X28420238Y27924521D02*
X28408333Y27912616D01*
X28408333Y27912616D02*
X28384523Y27876902D01*
X28384523Y27876902D02*
X28372619Y27829283D01*
X28372619Y27829283D02*
X28372619Y27734045D01*
X28372619Y27734045D02*
X28384523Y27710235D01*
X28384523Y27710235D02*
X28396428Y27698330D01*
X28396428Y27698330D02*
X28420238Y27686426D01*
X28420238Y27686426D02*
X28467857Y27686426D01*
X28467857Y27686426D02*
X28491666Y27698330D01*
X28491666Y27698330D02*
X28503571Y27710235D01*
X28503571Y27710235D02*
X28515476Y27734045D01*
X28515476Y27734045D02*
X28515476Y27793569D01*
X28515476Y27793569D02*
X28503571Y27817378D01*
X28503571Y27817378D02*
X28491666Y27829283D01*
X28491666Y27829283D02*
X28467857Y27841188D01*
X28467857Y27841188D02*
X28420238Y27841188D01*
X28420238Y27841188D02*
X28396428Y27829283D01*
X28396428Y27829283D02*
X28384523Y27817378D01*
X28384523Y27817378D02*
X28372619Y27793569D01*
D11*
X14081927Y46542858D02*
X13891451Y46409525D01*
X14081927Y46314287D02*
X13681927Y46314287D01*
X13681927Y46314287D02*
X13681927Y46466668D01*
X13681927Y46466668D02*
X13700975Y46504763D01*
X13700975Y46504763D02*
X13720022Y46523810D01*
X13720022Y46523810D02*
X13758118Y46542858D01*
X13758118Y46542858D02*
X13815260Y46542858D01*
X13815260Y46542858D02*
X13853356Y46523810D01*
X13853356Y46523810D02*
X13872403Y46504763D01*
X13872403Y46504763D02*
X13891451Y46466668D01*
X13891451Y46466668D02*
X13891451Y46314287D01*
X14081927Y46923810D02*
X14081927Y46695239D01*
X14081927Y46809525D02*
X13681927Y46809525D01*
X13681927Y46809525D02*
X13739070Y46771429D01*
X13739070Y46771429D02*
X13777165Y46733334D01*
X13777165Y46733334D02*
X13796213Y46695239D01*
X13720022Y47076191D02*
X13700975Y47095239D01*
X13700975Y47095239D02*
X13681927Y47133334D01*
X13681927Y47133334D02*
X13681927Y47228572D01*
X13681927Y47228572D02*
X13700975Y47266667D01*
X13700975Y47266667D02*
X13720022Y47285715D01*
X13720022Y47285715D02*
X13758118Y47304762D01*
X13758118Y47304762D02*
X13796213Y47304762D01*
X13796213Y47304762D02*
X13853356Y47285715D01*
X13853356Y47285715D02*
X14081927Y47057143D01*
X14081927Y47057143D02*
X14081927Y47304762D01*
D10*
X18389285Y20610235D02*
X18377381Y20598330D01*
X18377381Y20598330D02*
X18341666Y20586426D01*
X18341666Y20586426D02*
X18317857Y20586426D01*
X18317857Y20586426D02*
X18282143Y20598330D01*
X18282143Y20598330D02*
X18258333Y20622140D01*
X18258333Y20622140D02*
X18246428Y20645950D01*
X18246428Y20645950D02*
X18234524Y20693569D01*
X18234524Y20693569D02*
X18234524Y20729283D01*
X18234524Y20729283D02*
X18246428Y20776902D01*
X18246428Y20776902D02*
X18258333Y20800711D01*
X18258333Y20800711D02*
X18282143Y20824521D01*
X18282143Y20824521D02*
X18317857Y20836426D01*
X18317857Y20836426D02*
X18341666Y20836426D01*
X18341666Y20836426D02*
X18377381Y20824521D01*
X18377381Y20824521D02*
X18389285Y20812616D01*
X18627381Y20586426D02*
X18484524Y20586426D01*
X18555952Y20586426D02*
X18555952Y20836426D01*
X18555952Y20836426D02*
X18532143Y20800711D01*
X18532143Y20800711D02*
X18508333Y20776902D01*
X18508333Y20776902D02*
X18484524Y20764997D01*
X18841666Y20753092D02*
X18841666Y20586426D01*
X18782142Y20848330D02*
X18722619Y20669759D01*
X18722619Y20669759D02*
X18877380Y20669759D01*
X17842857Y4881800D02*
X17756190Y5005609D01*
X17694285Y4881800D02*
X17694285Y5141800D01*
X17694285Y5141800D02*
X17793333Y5141800D01*
X17793333Y5141800D02*
X17818095Y5129419D01*
X17818095Y5129419D02*
X17830476Y5117038D01*
X17830476Y5117038D02*
X17842857Y5092276D01*
X17842857Y5092276D02*
X17842857Y5055133D01*
X17842857Y5055133D02*
X17830476Y5030371D01*
X17830476Y5030371D02*
X17818095Y5017990D01*
X17818095Y5017990D02*
X17793333Y5005609D01*
X17793333Y5005609D02*
X17694285Y5005609D01*
X17941904Y5117038D02*
X17954285Y5129419D01*
X17954285Y5129419D02*
X17979047Y5141800D01*
X17979047Y5141800D02*
X18040952Y5141800D01*
X18040952Y5141800D02*
X18065714Y5129419D01*
X18065714Y5129419D02*
X18078095Y5117038D01*
X18078095Y5117038D02*
X18090476Y5092276D01*
X18090476Y5092276D02*
X18090476Y5067514D01*
X18090476Y5067514D02*
X18078095Y5030371D01*
X18078095Y5030371D02*
X17929523Y4881800D01*
X17929523Y4881800D02*
X18090476Y4881800D01*
X18239047Y5030371D02*
X18214285Y5042752D01*
X18214285Y5042752D02*
X18201904Y5055133D01*
X18201904Y5055133D02*
X18189523Y5079895D01*
X18189523Y5079895D02*
X18189523Y5092276D01*
X18189523Y5092276D02*
X18201904Y5117038D01*
X18201904Y5117038D02*
X18214285Y5129419D01*
X18214285Y5129419D02*
X18239047Y5141800D01*
X18239047Y5141800D02*
X18288571Y5141800D01*
X18288571Y5141800D02*
X18313333Y5129419D01*
X18313333Y5129419D02*
X18325714Y5117038D01*
X18325714Y5117038D02*
X18338095Y5092276D01*
X18338095Y5092276D02*
X18338095Y5079895D01*
X18338095Y5079895D02*
X18325714Y5055133D01*
X18325714Y5055133D02*
X18313333Y5042752D01*
X18313333Y5042752D02*
X18288571Y5030371D01*
X18288571Y5030371D02*
X18239047Y5030371D01*
X18239047Y5030371D02*
X18214285Y5017990D01*
X18214285Y5017990D02*
X18201904Y5005609D01*
X18201904Y5005609D02*
X18189523Y4980847D01*
X18189523Y4980847D02*
X18189523Y4931323D01*
X18189523Y4931323D02*
X18201904Y4906561D01*
X18201904Y4906561D02*
X18214285Y4894180D01*
X18214285Y4894180D02*
X18239047Y4881800D01*
X18239047Y4881800D02*
X18288571Y4881800D01*
X18288571Y4881800D02*
X18313333Y4894180D01*
X18313333Y4894180D02*
X18325714Y4906561D01*
X18325714Y4906561D02*
X18338095Y4931323D01*
X18338095Y4931323D02*
X18338095Y4980847D01*
X18338095Y4980847D02*
X18325714Y5005609D01*
X18325714Y5005609D02*
X18313333Y5017990D01*
X18313333Y5017990D02*
X18288571Y5030371D01*
X29608333Y17510235D02*
X29596429Y17498330D01*
X29596429Y17498330D02*
X29560714Y17486426D01*
X29560714Y17486426D02*
X29536905Y17486426D01*
X29536905Y17486426D02*
X29501191Y17498330D01*
X29501191Y17498330D02*
X29477381Y17522140D01*
X29477381Y17522140D02*
X29465476Y17545950D01*
X29465476Y17545950D02*
X29453572Y17593569D01*
X29453572Y17593569D02*
X29453572Y17629283D01*
X29453572Y17629283D02*
X29465476Y17676902D01*
X29465476Y17676902D02*
X29477381Y17700711D01*
X29477381Y17700711D02*
X29501191Y17724521D01*
X29501191Y17724521D02*
X29536905Y17736426D01*
X29536905Y17736426D02*
X29560714Y17736426D01*
X29560714Y17736426D02*
X29596429Y17724521D01*
X29596429Y17724521D02*
X29608333Y17712616D01*
X29691667Y17736426D02*
X29858333Y17736426D01*
X29858333Y17736426D02*
X29751191Y17486426D01*
D11*
X21283333Y35706168D02*
X21264285Y35687120D01*
X21264285Y35687120D02*
X21207143Y35668073D01*
X21207143Y35668073D02*
X21169047Y35668073D01*
X21169047Y35668073D02*
X21111904Y35687120D01*
X21111904Y35687120D02*
X21073809Y35725216D01*
X21073809Y35725216D02*
X21054762Y35763311D01*
X21054762Y35763311D02*
X21035714Y35839501D01*
X21035714Y35839501D02*
X21035714Y35896644D01*
X21035714Y35896644D02*
X21054762Y35972835D01*
X21054762Y35972835D02*
X21073809Y36010930D01*
X21073809Y36010930D02*
X21111904Y36049025D01*
X21111904Y36049025D02*
X21169047Y36068073D01*
X21169047Y36068073D02*
X21207143Y36068073D01*
X21207143Y36068073D02*
X21264285Y36049025D01*
X21264285Y36049025D02*
X21283333Y36029978D01*
X21645238Y36068073D02*
X21454762Y36068073D01*
X21454762Y36068073D02*
X21435714Y35877597D01*
X21435714Y35877597D02*
X21454762Y35896644D01*
X21454762Y35896644D02*
X21492857Y35915692D01*
X21492857Y35915692D02*
X21588095Y35915692D01*
X21588095Y35915692D02*
X21626190Y35896644D01*
X21626190Y35896644D02*
X21645238Y35877597D01*
X21645238Y35877597D02*
X21664285Y35839501D01*
X21664285Y35839501D02*
X21664285Y35744263D01*
X21664285Y35744263D02*
X21645238Y35706168D01*
X21645238Y35706168D02*
X21626190Y35687120D01*
X21626190Y35687120D02*
X21588095Y35668073D01*
X21588095Y35668073D02*
X21492857Y35668073D01*
X21492857Y35668073D02*
X21454762Y35687120D01*
X21454762Y35687120D02*
X21435714Y35706168D01*
D12*
X22222493Y50530181D02*
X22222493Y49815896D01*
X22222493Y49815896D02*
X22174874Y49673039D01*
X22174874Y49673039D02*
X22079636Y49577800D01*
X22079636Y49577800D02*
X21936779Y49530181D01*
X21936779Y49530181D02*
X21841541Y49530181D01*
X22603446Y50530181D02*
X23222493Y50530181D01*
X23222493Y50530181D02*
X22889160Y50149229D01*
X22889160Y50149229D02*
X23032017Y50149229D01*
X23032017Y50149229D02*
X23127255Y50101610D01*
X23127255Y50101610D02*
X23174874Y50053991D01*
X23174874Y50053991D02*
X23222493Y49958753D01*
X23222493Y49958753D02*
X23222493Y49720658D01*
X23222493Y49720658D02*
X23174874Y49625420D01*
X23174874Y49625420D02*
X23127255Y49577800D01*
X23127255Y49577800D02*
X23032017Y49530181D01*
X23032017Y49530181D02*
X22746303Y49530181D01*
X22746303Y49530181D02*
X22651065Y49577800D01*
X22651065Y49577800D02*
X22603446Y49625420D01*
X20425713Y52211724D02*
X20425713Y52851724D01*
X20425713Y52851724D02*
X20669523Y52851724D01*
X20669523Y52851724D02*
X20730475Y52821248D01*
X20730475Y52821248D02*
X20760952Y52790772D01*
X20760952Y52790772D02*
X20791428Y52729820D01*
X20791428Y52729820D02*
X20791428Y52638391D01*
X20791428Y52638391D02*
X20760952Y52577439D01*
X20760952Y52577439D02*
X20730475Y52546962D01*
X20730475Y52546962D02*
X20669523Y52516486D01*
X20669523Y52516486D02*
X20425713Y52516486D01*
X21431428Y52272677D02*
X21400952Y52242200D01*
X21400952Y52242200D02*
X21309523Y52211724D01*
X21309523Y52211724D02*
X21248571Y52211724D01*
X21248571Y52211724D02*
X21157142Y52242200D01*
X21157142Y52242200D02*
X21096190Y52303153D01*
X21096190Y52303153D02*
X21065713Y52364105D01*
X21065713Y52364105D02*
X21035237Y52486010D01*
X21035237Y52486010D02*
X21035237Y52577439D01*
X21035237Y52577439D02*
X21065713Y52699343D01*
X21065713Y52699343D02*
X21096190Y52760296D01*
X21096190Y52760296D02*
X21157142Y52821248D01*
X21157142Y52821248D02*
X21248571Y52851724D01*
X21248571Y52851724D02*
X21309523Y52851724D01*
X21309523Y52851724D02*
X21400952Y52821248D01*
X21400952Y52821248D02*
X21431428Y52790772D01*
X21919047Y52546962D02*
X22010475Y52516486D01*
X22010475Y52516486D02*
X22040952Y52486010D01*
X22040952Y52486010D02*
X22071428Y52425058D01*
X22071428Y52425058D02*
X22071428Y52333629D01*
X22071428Y52333629D02*
X22040952Y52272677D01*
X22040952Y52272677D02*
X22010475Y52242200D01*
X22010475Y52242200D02*
X21949523Y52211724D01*
X21949523Y52211724D02*
X21705713Y52211724D01*
X21705713Y52211724D02*
X21705713Y52851724D01*
X21705713Y52851724D02*
X21919047Y52851724D01*
X21919047Y52851724D02*
X21979999Y52821248D01*
X21979999Y52821248D02*
X22010475Y52790772D01*
X22010475Y52790772D02*
X22040952Y52729820D01*
X22040952Y52729820D02*
X22040952Y52668867D01*
X22040952Y52668867D02*
X22010475Y52607915D01*
X22010475Y52607915D02*
X21979999Y52577439D01*
X21979999Y52577439D02*
X21919047Y52546962D01*
X21919047Y52546962D02*
X21705713Y52546962D01*
X22833332Y52546962D02*
X23046666Y52546962D01*
X23138094Y52211724D02*
X22833332Y52211724D01*
X22833332Y52211724D02*
X22833332Y52851724D01*
X22833332Y52851724D02*
X23138094Y52851724D01*
X23686666Y52211724D02*
X23686666Y52851724D01*
X23686666Y52242200D02*
X23625714Y52211724D01*
X23625714Y52211724D02*
X23503809Y52211724D01*
X23503809Y52211724D02*
X23442857Y52242200D01*
X23442857Y52242200D02*
X23412380Y52272677D01*
X23412380Y52272677D02*
X23381904Y52333629D01*
X23381904Y52333629D02*
X23381904Y52516486D01*
X23381904Y52516486D02*
X23412380Y52577439D01*
X23412380Y52577439D02*
X23442857Y52607915D01*
X23442857Y52607915D02*
X23503809Y52638391D01*
X23503809Y52638391D02*
X23625714Y52638391D01*
X23625714Y52638391D02*
X23686666Y52607915D01*
X24265714Y52638391D02*
X24265714Y52120296D01*
X24265714Y52120296D02*
X24235238Y52059343D01*
X24235238Y52059343D02*
X24204762Y52028867D01*
X24204762Y52028867D02*
X24143809Y51998391D01*
X24143809Y51998391D02*
X24052381Y51998391D01*
X24052381Y51998391D02*
X23991428Y52028867D01*
X24265714Y52242200D02*
X24204762Y52211724D01*
X24204762Y52211724D02*
X24082857Y52211724D01*
X24082857Y52211724D02*
X24021905Y52242200D01*
X24021905Y52242200D02*
X23991428Y52272677D01*
X23991428Y52272677D02*
X23960952Y52333629D01*
X23960952Y52333629D02*
X23960952Y52516486D01*
X23960952Y52516486D02*
X23991428Y52577439D01*
X23991428Y52577439D02*
X24021905Y52607915D01*
X24021905Y52607915D02*
X24082857Y52638391D01*
X24082857Y52638391D02*
X24204762Y52638391D01*
X24204762Y52638391D02*
X24265714Y52607915D01*
X24814286Y52242200D02*
X24753334Y52211724D01*
X24753334Y52211724D02*
X24631429Y52211724D01*
X24631429Y52211724D02*
X24570476Y52242200D01*
X24570476Y52242200D02*
X24540000Y52303153D01*
X24540000Y52303153D02*
X24540000Y52546962D01*
X24540000Y52546962D02*
X24570476Y52607915D01*
X24570476Y52607915D02*
X24631429Y52638391D01*
X24631429Y52638391D02*
X24753334Y52638391D01*
X24753334Y52638391D02*
X24814286Y52607915D01*
X24814286Y52607915D02*
X24844762Y52546962D01*
X24844762Y52546962D02*
X24844762Y52486010D01*
X24844762Y52486010D02*
X24540000Y52425058D01*
D10*
X25032857Y19081800D02*
X24946190Y19205609D01*
X24884285Y19081800D02*
X24884285Y19341800D01*
X24884285Y19341800D02*
X24983333Y19341800D01*
X24983333Y19341800D02*
X25008095Y19329419D01*
X25008095Y19329419D02*
X25020476Y19317038D01*
X25020476Y19317038D02*
X25032857Y19292276D01*
X25032857Y19292276D02*
X25032857Y19255133D01*
X25032857Y19255133D02*
X25020476Y19230371D01*
X25020476Y19230371D02*
X25008095Y19217990D01*
X25008095Y19217990D02*
X24983333Y19205609D01*
X24983333Y19205609D02*
X24884285Y19205609D01*
X25131904Y19317038D02*
X25144285Y19329419D01*
X25144285Y19329419D02*
X25169047Y19341800D01*
X25169047Y19341800D02*
X25230952Y19341800D01*
X25230952Y19341800D02*
X25255714Y19329419D01*
X25255714Y19329419D02*
X25268095Y19317038D01*
X25268095Y19317038D02*
X25280476Y19292276D01*
X25280476Y19292276D02*
X25280476Y19267514D01*
X25280476Y19267514D02*
X25268095Y19230371D01*
X25268095Y19230371D02*
X25119523Y19081800D01*
X25119523Y19081800D02*
X25280476Y19081800D01*
X25515714Y19341800D02*
X25391904Y19341800D01*
X25391904Y19341800D02*
X25379523Y19217990D01*
X25379523Y19217990D02*
X25391904Y19230371D01*
X25391904Y19230371D02*
X25416666Y19242752D01*
X25416666Y19242752D02*
X25478571Y19242752D01*
X25478571Y19242752D02*
X25503333Y19230371D01*
X25503333Y19230371D02*
X25515714Y19217990D01*
X25515714Y19217990D02*
X25528095Y19193228D01*
X25528095Y19193228D02*
X25528095Y19131323D01*
X25528095Y19131323D02*
X25515714Y19106561D01*
X25515714Y19106561D02*
X25503333Y19094180D01*
X25503333Y19094180D02*
X25478571Y19081800D01*
X25478571Y19081800D02*
X25416666Y19081800D01*
X25416666Y19081800D02*
X25391904Y19094180D01*
X25391904Y19094180D02*
X25379523Y19106561D01*
X21518200Y42682858D02*
X21394391Y42596191D01*
X21518200Y42534286D02*
X21258200Y42534286D01*
X21258200Y42534286D02*
X21258200Y42633334D01*
X21258200Y42633334D02*
X21270581Y42658096D01*
X21270581Y42658096D02*
X21282962Y42670477D01*
X21282962Y42670477D02*
X21307724Y42682858D01*
X21307724Y42682858D02*
X21344867Y42682858D01*
X21344867Y42682858D02*
X21369629Y42670477D01*
X21369629Y42670477D02*
X21382010Y42658096D01*
X21382010Y42658096D02*
X21394391Y42633334D01*
X21394391Y42633334D02*
X21394391Y42534286D01*
X21518200Y42930477D02*
X21518200Y42781905D01*
X21518200Y42856191D02*
X21258200Y42856191D01*
X21258200Y42856191D02*
X21295343Y42831429D01*
X21295343Y42831429D02*
X21320105Y42806667D01*
X21320105Y42806667D02*
X21332486Y42781905D01*
X21258200Y43017143D02*
X21258200Y43178096D01*
X21258200Y43178096D02*
X21357248Y43091429D01*
X21357248Y43091429D02*
X21357248Y43128572D01*
X21357248Y43128572D02*
X21369629Y43153334D01*
X21369629Y43153334D02*
X21382010Y43165715D01*
X21382010Y43165715D02*
X21406772Y43178096D01*
X21406772Y43178096D02*
X21468677Y43178096D01*
X21468677Y43178096D02*
X21493439Y43165715D01*
X21493439Y43165715D02*
X21505820Y43153334D01*
X21505820Y43153334D02*
X21518200Y43128572D01*
X21518200Y43128572D02*
X21518200Y43054286D01*
X21518200Y43054286D02*
X21505820Y43029524D01*
X21505820Y43029524D02*
X21493439Y43017143D01*
X24298200Y42682858D02*
X24174391Y42596191D01*
X24298200Y42534286D02*
X24038200Y42534286D01*
X24038200Y42534286D02*
X24038200Y42633334D01*
X24038200Y42633334D02*
X24050581Y42658096D01*
X24050581Y42658096D02*
X24062962Y42670477D01*
X24062962Y42670477D02*
X24087724Y42682858D01*
X24087724Y42682858D02*
X24124867Y42682858D01*
X24124867Y42682858D02*
X24149629Y42670477D01*
X24149629Y42670477D02*
X24162010Y42658096D01*
X24162010Y42658096D02*
X24174391Y42633334D01*
X24174391Y42633334D02*
X24174391Y42534286D01*
X24298200Y42930477D02*
X24298200Y42781905D01*
X24298200Y42856191D02*
X24038200Y42856191D01*
X24038200Y42856191D02*
X24075343Y42831429D01*
X24075343Y42831429D02*
X24100105Y42806667D01*
X24100105Y42806667D02*
X24112486Y42781905D01*
X24124867Y43153334D02*
X24298200Y43153334D01*
X24025820Y43091429D02*
X24211534Y43029524D01*
X24211534Y43029524D02*
X24211534Y43190477D01*
D12*
X21454819Y25238096D02*
X22264342Y25238096D01*
X22264342Y25238096D02*
X22359580Y25285715D01*
X22359580Y25285715D02*
X22407200Y25333334D01*
X22407200Y25333334D02*
X22454819Y25428572D01*
X22454819Y25428572D02*
X22454819Y25619048D01*
X22454819Y25619048D02*
X22407200Y25714286D01*
X22407200Y25714286D02*
X22359580Y25761905D01*
X22359580Y25761905D02*
X22264342Y25809524D01*
X22264342Y25809524D02*
X21454819Y25809524D01*
X21454819Y26190477D02*
X21454819Y26809524D01*
X21454819Y26809524D02*
X21835771Y26476191D01*
X21835771Y26476191D02*
X21835771Y26619048D01*
X21835771Y26619048D02*
X21883390Y26714286D01*
X21883390Y26714286D02*
X21931009Y26761905D01*
X21931009Y26761905D02*
X22026247Y26809524D01*
X22026247Y26809524D02*
X22264342Y26809524D01*
X22264342Y26809524D02*
X22359580Y26761905D01*
X22359580Y26761905D02*
X22407200Y26714286D01*
X22407200Y26714286D02*
X22454819Y26619048D01*
X22454819Y26619048D02*
X22454819Y26333334D01*
X22454819Y26333334D02*
X22407200Y26238096D01*
X22407200Y26238096D02*
X22359580Y26190477D01*
D11*
X30181501Y11224218D02*
X29952534Y11264624D01*
X30019877Y11062594D02*
X29737034Y11345436D01*
X29737034Y11345436D02*
X29844784Y11453186D01*
X29844784Y11453186D02*
X29885190Y11466655D01*
X29885190Y11466655D02*
X29912127Y11466655D01*
X29912127Y11466655D02*
X29952534Y11453186D01*
X29952534Y11453186D02*
X29992940Y11412780D01*
X29992940Y11412780D02*
X30006408Y11372374D01*
X30006408Y11372374D02*
X30006408Y11345436D01*
X30006408Y11345436D02*
X29992940Y11305030D01*
X29992940Y11305030D02*
X29885190Y11197281D01*
X30141095Y11749497D02*
X30087221Y11695622D01*
X30087221Y11695622D02*
X30073752Y11655216D01*
X30073752Y11655216D02*
X30073752Y11628279D01*
X30073752Y11628279D02*
X30087221Y11560935D01*
X30087221Y11560935D02*
X30127627Y11493592D01*
X30127627Y11493592D02*
X30235376Y11385842D01*
X30235376Y11385842D02*
X30275782Y11372374D01*
X30275782Y11372374D02*
X30302720Y11372374D01*
X30302720Y11372374D02*
X30343126Y11385842D01*
X30343126Y11385842D02*
X30397001Y11439717D01*
X30397001Y11439717D02*
X30410469Y11480123D01*
X30410469Y11480123D02*
X30410469Y11507061D01*
X30410469Y11507061D02*
X30397001Y11547467D01*
X30397001Y11547467D02*
X30329657Y11614810D01*
X30329657Y11614810D02*
X30289251Y11628279D01*
X30289251Y11628279D02*
X30262314Y11628279D01*
X30262314Y11628279D02*
X30221908Y11614810D01*
X30221908Y11614810D02*
X30168033Y11560935D01*
X30168033Y11560935D02*
X30154564Y11520529D01*
X30154564Y11520529D02*
X30154564Y11493592D01*
X30154564Y11493592D02*
X30168033Y11453186D01*
D12*
X36285714Y51140420D02*
X36238095Y51092800D01*
X36238095Y51092800D02*
X36095238Y51045181D01*
X36095238Y51045181D02*
X36000000Y51045181D01*
X36000000Y51045181D02*
X35857143Y51092800D01*
X35857143Y51092800D02*
X35761905Y51188039D01*
X35761905Y51188039D02*
X35714286Y51283277D01*
X35714286Y51283277D02*
X35666667Y51473753D01*
X35666667Y51473753D02*
X35666667Y51616610D01*
X35666667Y51616610D02*
X35714286Y51807086D01*
X35714286Y51807086D02*
X35761905Y51902324D01*
X35761905Y51902324D02*
X35857143Y51997562D01*
X35857143Y51997562D02*
X36000000Y52045181D01*
X36000000Y52045181D02*
X36095238Y52045181D01*
X36095238Y52045181D02*
X36238095Y51997562D01*
X36238095Y51997562D02*
X36285714Y51949943D01*
X36904762Y52045181D02*
X37095238Y52045181D01*
X37095238Y52045181D02*
X37190476Y51997562D01*
X37190476Y51997562D02*
X37285714Y51902324D01*
X37285714Y51902324D02*
X37333333Y51711848D01*
X37333333Y51711848D02*
X37333333Y51378515D01*
X37333333Y51378515D02*
X37285714Y51188039D01*
X37285714Y51188039D02*
X37190476Y51092800D01*
X37190476Y51092800D02*
X37095238Y51045181D01*
X37095238Y51045181D02*
X36904762Y51045181D01*
X36904762Y51045181D02*
X36809524Y51092800D01*
X36809524Y51092800D02*
X36714286Y51188039D01*
X36714286Y51188039D02*
X36666667Y51378515D01*
X36666667Y51378515D02*
X36666667Y51711848D01*
X36666667Y51711848D02*
X36714286Y51902324D01*
X36714286Y51902324D02*
X36809524Y51997562D01*
X36809524Y51997562D02*
X36904762Y52045181D01*
X37761905Y51045181D02*
X37761905Y52045181D01*
X37761905Y52045181D02*
X38333333Y51045181D01*
X38333333Y51045181D02*
X38333333Y52045181D01*
X39333333Y51045181D02*
X38761905Y51045181D01*
X39047619Y51045181D02*
X39047619Y52045181D01*
X39047619Y52045181D02*
X38952381Y51902324D01*
X38952381Y51902324D02*
X38857143Y51807086D01*
X38857143Y51807086D02*
X38761905Y51759467D01*
D10*
X23832857Y15981800D02*
X23746190Y16105609D01*
X23684285Y15981800D02*
X23684285Y16241800D01*
X23684285Y16241800D02*
X23783333Y16241800D01*
X23783333Y16241800D02*
X23808095Y16229419D01*
X23808095Y16229419D02*
X23820476Y16217038D01*
X23820476Y16217038D02*
X23832857Y16192276D01*
X23832857Y16192276D02*
X23832857Y16155133D01*
X23832857Y16155133D02*
X23820476Y16130371D01*
X23820476Y16130371D02*
X23808095Y16117990D01*
X23808095Y16117990D02*
X23783333Y16105609D01*
X23783333Y16105609D02*
X23684285Y16105609D01*
X23931904Y16217038D02*
X23944285Y16229419D01*
X23944285Y16229419D02*
X23969047Y16241800D01*
X23969047Y16241800D02*
X24030952Y16241800D01*
X24030952Y16241800D02*
X24055714Y16229419D01*
X24055714Y16229419D02*
X24068095Y16217038D01*
X24068095Y16217038D02*
X24080476Y16192276D01*
X24080476Y16192276D02*
X24080476Y16167514D01*
X24080476Y16167514D02*
X24068095Y16130371D01*
X24068095Y16130371D02*
X23919523Y15981800D01*
X23919523Y15981800D02*
X24080476Y15981800D01*
X24328095Y15981800D02*
X24179523Y15981800D01*
X24253809Y15981800D02*
X24253809Y16241800D01*
X24253809Y16241800D02*
X24229047Y16204657D01*
X24229047Y16204657D02*
X24204285Y16179895D01*
X24204285Y16179895D02*
X24179523Y16167514D01*
X22332857Y4081800D02*
X22246190Y4205609D01*
X22184285Y4081800D02*
X22184285Y4341800D01*
X22184285Y4341800D02*
X22283333Y4341800D01*
X22283333Y4341800D02*
X22308095Y4329419D01*
X22308095Y4329419D02*
X22320476Y4317038D01*
X22320476Y4317038D02*
X22332857Y4292276D01*
X22332857Y4292276D02*
X22332857Y4255133D01*
X22332857Y4255133D02*
X22320476Y4230371D01*
X22320476Y4230371D02*
X22308095Y4217990D01*
X22308095Y4217990D02*
X22283333Y4205609D01*
X22283333Y4205609D02*
X22184285Y4205609D01*
X22580476Y4081800D02*
X22431904Y4081800D01*
X22506190Y4081800D02*
X22506190Y4341800D01*
X22506190Y4341800D02*
X22481428Y4304657D01*
X22481428Y4304657D02*
X22456666Y4279895D01*
X22456666Y4279895D02*
X22431904Y4267514D01*
X22815714Y4341800D02*
X22691904Y4341800D01*
X22691904Y4341800D02*
X22679523Y4217990D01*
X22679523Y4217990D02*
X22691904Y4230371D01*
X22691904Y4230371D02*
X22716666Y4242752D01*
X22716666Y4242752D02*
X22778571Y4242752D01*
X22778571Y4242752D02*
X22803333Y4230371D01*
X22803333Y4230371D02*
X22815714Y4217990D01*
X22815714Y4217990D02*
X22828095Y4193228D01*
X22828095Y4193228D02*
X22828095Y4131323D01*
X22828095Y4131323D02*
X22815714Y4106561D01*
X22815714Y4106561D02*
X22803333Y4094180D01*
X22803333Y4094180D02*
X22778571Y4081800D01*
X22778571Y4081800D02*
X22716666Y4081800D01*
X22716666Y4081800D02*
X22691904Y4094180D01*
X22691904Y4094180D02*
X22679523Y4106561D01*
X20789765Y32539286D02*
X20801670Y32527382D01*
X20801670Y32527382D02*
X20813574Y32491667D01*
X20813574Y32491667D02*
X20813574Y32467858D01*
X20813574Y32467858D02*
X20801670Y32432144D01*
X20801670Y32432144D02*
X20777860Y32408334D01*
X20777860Y32408334D02*
X20754050Y32396429D01*
X20754050Y32396429D02*
X20706431Y32384525D01*
X20706431Y32384525D02*
X20670717Y32384525D01*
X20670717Y32384525D02*
X20623098Y32396429D01*
X20623098Y32396429D02*
X20599289Y32408334D01*
X20599289Y32408334D02*
X20575479Y32432144D01*
X20575479Y32432144D02*
X20563574Y32467858D01*
X20563574Y32467858D02*
X20563574Y32491667D01*
X20563574Y32491667D02*
X20575479Y32527382D01*
X20575479Y32527382D02*
X20587384Y32539286D01*
X20813574Y32777382D02*
X20813574Y32634525D01*
X20813574Y32705953D02*
X20563574Y32705953D01*
X20563574Y32705953D02*
X20599289Y32682144D01*
X20599289Y32682144D02*
X20623098Y32658334D01*
X20623098Y32658334D02*
X20635003Y32634525D01*
X20587384Y32872620D02*
X20575479Y32884524D01*
X20575479Y32884524D02*
X20563574Y32908334D01*
X20563574Y32908334D02*
X20563574Y32967858D01*
X20563574Y32967858D02*
X20575479Y32991667D01*
X20575479Y32991667D02*
X20587384Y33003572D01*
X20587384Y33003572D02*
X20611193Y33015477D01*
X20611193Y33015477D02*
X20635003Y33015477D01*
X20635003Y33015477D02*
X20670717Y33003572D01*
X20670717Y33003572D02*
X20813574Y32860715D01*
X20813574Y32860715D02*
X20813574Y33015477D01*
D13*
X678571Y6020958D02*
X578571Y6020958D01*
X578571Y5863815D02*
X578571Y6163815D01*
X578571Y6163815D02*
X721428Y6163815D01*
X835714Y5863815D02*
X835714Y6163815D01*
X978571Y5863815D02*
X978571Y6163815D01*
X978571Y6163815D02*
X1050000Y6163815D01*
X1050000Y6163815D02*
X1092857Y6149529D01*
X1092857Y6149529D02*
X1121428Y6120958D01*
X1121428Y6120958D02*
X1135714Y6092386D01*
X1135714Y6092386D02*
X1150000Y6035243D01*
X1150000Y6035243D02*
X1150000Y5992386D01*
X1150000Y5992386D02*
X1135714Y5935243D01*
X1135714Y5935243D02*
X1121428Y5906672D01*
X1121428Y5906672D02*
X1092857Y5878100D01*
X1092857Y5878100D02*
X1050000Y5863815D01*
X1050000Y5863815D02*
X978571Y5863815D01*
X1435714Y5863815D02*
X1264285Y5863815D01*
X1350000Y5863815D02*
X1350000Y6163815D01*
X1350000Y6163815D02*
X1321428Y6120958D01*
X1321428Y6120958D02*
X1292857Y6092386D01*
X1292857Y6092386D02*
X1264285Y6078100D01*
D12*
X22109524Y36937705D02*
X22109524Y37737705D01*
X22109524Y37737705D02*
X22300000Y37737705D01*
X22300000Y37737705D02*
X22414286Y37699610D01*
X22414286Y37699610D02*
X22490476Y37623420D01*
X22490476Y37623420D02*
X22528571Y37547229D01*
X22528571Y37547229D02*
X22566667Y37394848D01*
X22566667Y37394848D02*
X22566667Y37280562D01*
X22566667Y37280562D02*
X22528571Y37128181D01*
X22528571Y37128181D02*
X22490476Y37051991D01*
X22490476Y37051991D02*
X22414286Y36975800D01*
X22414286Y36975800D02*
X22300000Y36937705D01*
X22300000Y36937705D02*
X22109524Y36937705D01*
X23328571Y36937705D02*
X22871428Y36937705D01*
X23100000Y36937705D02*
X23100000Y37737705D01*
X23100000Y37737705D02*
X23023809Y37623420D01*
X23023809Y37623420D02*
X22947619Y37547229D01*
X22947619Y37547229D02*
X22871428Y37509134D01*
D11*
X28542857Y26456168D02*
X28523809Y26437120D01*
X28523809Y26437120D02*
X28466667Y26418073D01*
X28466667Y26418073D02*
X28428571Y26418073D01*
X28428571Y26418073D02*
X28371428Y26437120D01*
X28371428Y26437120D02*
X28333333Y26475216D01*
X28333333Y26475216D02*
X28314286Y26513311D01*
X28314286Y26513311D02*
X28295238Y26589501D01*
X28295238Y26589501D02*
X28295238Y26646644D01*
X28295238Y26646644D02*
X28314286Y26722835D01*
X28314286Y26722835D02*
X28333333Y26760930D01*
X28333333Y26760930D02*
X28371428Y26799025D01*
X28371428Y26799025D02*
X28428571Y26818073D01*
X28428571Y26818073D02*
X28466667Y26818073D01*
X28466667Y26818073D02*
X28523809Y26799025D01*
X28523809Y26799025D02*
X28542857Y26779978D01*
X28923809Y26418073D02*
X28695238Y26418073D01*
X28809524Y26418073D02*
X28809524Y26818073D01*
X28809524Y26818073D02*
X28771428Y26760930D01*
X28771428Y26760930D02*
X28733333Y26722835D01*
X28733333Y26722835D02*
X28695238Y26703787D01*
X29285714Y26818073D02*
X29095238Y26818073D01*
X29095238Y26818073D02*
X29076190Y26627597D01*
X29076190Y26627597D02*
X29095238Y26646644D01*
X29095238Y26646644D02*
X29133333Y26665692D01*
X29133333Y26665692D02*
X29228571Y26665692D01*
X29228571Y26665692D02*
X29266666Y26646644D01*
X29266666Y26646644D02*
X29285714Y26627597D01*
X29285714Y26627597D02*
X29304761Y26589501D01*
X29304761Y26589501D02*
X29304761Y26494263D01*
X29304761Y26494263D02*
X29285714Y26456168D01*
X29285714Y26456168D02*
X29266666Y26437120D01*
X29266666Y26437120D02*
X29228571Y26418073D01*
X29228571Y26418073D02*
X29133333Y26418073D01*
X29133333Y26418073D02*
X29095238Y26437120D01*
X29095238Y26437120D02*
X29076190Y26456168D01*
X31281501Y10124218D02*
X31052534Y10164624D01*
X31119877Y9962594D02*
X30837034Y10245436D01*
X30837034Y10245436D02*
X30944784Y10353186D01*
X30944784Y10353186D02*
X30985190Y10366655D01*
X30985190Y10366655D02*
X31012127Y10366655D01*
X31012127Y10366655D02*
X31052534Y10353186D01*
X31052534Y10353186D02*
X31092940Y10312780D01*
X31092940Y10312780D02*
X31106408Y10272374D01*
X31106408Y10272374D02*
X31106408Y10245436D01*
X31106408Y10245436D02*
X31092940Y10205030D01*
X31092940Y10205030D02*
X30985190Y10097281D01*
X31416188Y10258905D02*
X31470063Y10312780D01*
X31470063Y10312780D02*
X31483532Y10353186D01*
X31483532Y10353186D02*
X31483532Y10380123D01*
X31483532Y10380123D02*
X31470063Y10447467D01*
X31470063Y10447467D02*
X31429657Y10514810D01*
X31429657Y10514810D02*
X31321908Y10622560D01*
X31321908Y10622560D02*
X31281501Y10636029D01*
X31281501Y10636029D02*
X31254564Y10636029D01*
X31254564Y10636029D02*
X31214158Y10622560D01*
X31214158Y10622560D02*
X31160283Y10568685D01*
X31160283Y10568685D02*
X31146814Y10528279D01*
X31146814Y10528279D02*
X31146814Y10501342D01*
X31146814Y10501342D02*
X31160283Y10460935D01*
X31160283Y10460935D02*
X31227627Y10393592D01*
X31227627Y10393592D02*
X31268033Y10380123D01*
X31268033Y10380123D02*
X31294970Y10380123D01*
X31294970Y10380123D02*
X31335376Y10393592D01*
X31335376Y10393592D02*
X31389251Y10447467D01*
X31389251Y10447467D02*
X31402720Y10487873D01*
X31402720Y10487873D02*
X31402720Y10514810D01*
X31402720Y10514810D02*
X31389251Y10555216D01*
X16881927Y40395239D02*
X17205737Y40395239D01*
X17205737Y40395239D02*
X17243832Y40414286D01*
X17243832Y40414286D02*
X17262880Y40433334D01*
X17262880Y40433334D02*
X17281927Y40471429D01*
X17281927Y40471429D02*
X17281927Y40547620D01*
X17281927Y40547620D02*
X17262880Y40585715D01*
X17262880Y40585715D02*
X17243832Y40604762D01*
X17243832Y40604762D02*
X17205737Y40623810D01*
X17205737Y40623810D02*
X16881927Y40623810D01*
X17281927Y41023810D02*
X17281927Y40795239D01*
X17281927Y40909525D02*
X16881927Y40909525D01*
X16881927Y40909525D02*
X16939070Y40871429D01*
X16939070Y40871429D02*
X16977165Y40833334D01*
X16977165Y40833334D02*
X16996213Y40795239D01*
D10*
X21839765Y12439286D02*
X21851670Y12427382D01*
X21851670Y12427382D02*
X21863574Y12391667D01*
X21863574Y12391667D02*
X21863574Y12367858D01*
X21863574Y12367858D02*
X21851670Y12332144D01*
X21851670Y12332144D02*
X21827860Y12308334D01*
X21827860Y12308334D02*
X21804050Y12296429D01*
X21804050Y12296429D02*
X21756431Y12284525D01*
X21756431Y12284525D02*
X21720717Y12284525D01*
X21720717Y12284525D02*
X21673098Y12296429D01*
X21673098Y12296429D02*
X21649289Y12308334D01*
X21649289Y12308334D02*
X21625479Y12332144D01*
X21625479Y12332144D02*
X21613574Y12367858D01*
X21613574Y12367858D02*
X21613574Y12391667D01*
X21613574Y12391667D02*
X21625479Y12427382D01*
X21625479Y12427382D02*
X21637384Y12439286D01*
X21637384Y12534525D02*
X21625479Y12546429D01*
X21625479Y12546429D02*
X21613574Y12570239D01*
X21613574Y12570239D02*
X21613574Y12629763D01*
X21613574Y12629763D02*
X21625479Y12653572D01*
X21625479Y12653572D02*
X21637384Y12665477D01*
X21637384Y12665477D02*
X21661193Y12677382D01*
X21661193Y12677382D02*
X21685003Y12677382D01*
X21685003Y12677382D02*
X21720717Y12665477D01*
X21720717Y12665477D02*
X21863574Y12522620D01*
X21863574Y12522620D02*
X21863574Y12677382D01*
X21637384Y12772620D02*
X21625479Y12784524D01*
X21625479Y12784524D02*
X21613574Y12808334D01*
X21613574Y12808334D02*
X21613574Y12867858D01*
X21613574Y12867858D02*
X21625479Y12891667D01*
X21625479Y12891667D02*
X21637384Y12903572D01*
X21637384Y12903572D02*
X21661193Y12915477D01*
X21661193Y12915477D02*
X21685003Y12915477D01*
X21685003Y12915477D02*
X21720717Y12903572D01*
X21720717Y12903572D02*
X21863574Y12760715D01*
X21863574Y12760715D02*
X21863574Y12915477D01*
D16*
X2025000Y26470000D02*
X2025000Y25930000D01*
X2025000Y25930000D02*
X975000Y25930000D01*
X975000Y26470000D02*
X2025000Y26470000D01*
X975000Y25930000D02*
X975000Y26470000D01*
X2025000Y25220000D02*
X2025000Y24680000D01*
X2025000Y24680000D02*
X975000Y24680000D01*
X975000Y25220000D02*
X2025000Y25220000D01*
X975000Y24680000D02*
X975000Y25220000D01*
X2025000Y31570000D02*
X2025000Y31030000D01*
X2025000Y31030000D02*
X975000Y31030000D01*
X975000Y31570000D02*
X2025000Y31570000D01*
X975000Y31030000D02*
X975000Y31570000D01*
X2025000Y35470000D02*
X2025000Y34930000D01*
X2025000Y34930000D02*
X975000Y34930000D01*
X975000Y35470000D02*
X2025000Y35470000D01*
X975000Y34930000D02*
X975000Y35470000D01*
X2025000Y30270000D02*
X2025000Y29730000D01*
X2025000Y29730000D02*
X975000Y29730000D01*
X975000Y30270000D02*
X2025000Y30270000D01*
X975000Y29730000D02*
X975000Y30270000D01*
X2025000Y23970000D02*
X2025000Y23430000D01*
X2025000Y23430000D02*
X975000Y23430000D01*
X975000Y23970000D02*
X2025000Y23970000D01*
X975000Y23430000D02*
X975000Y23970000D01*
X2025000Y32870000D02*
X2025000Y32330000D01*
X2025000Y32330000D02*
X975000Y32330000D01*
X975000Y32870000D02*
X2025000Y32870000D01*
X975000Y32330000D02*
X975000Y32870000D01*
X2025000Y34170000D02*
X2025000Y33630000D01*
X2025000Y33630000D02*
X975000Y33630000D01*
X975000Y34170000D02*
X2025000Y34170000D01*
X975000Y33630000D02*
X975000Y34170000D01*
X18800000Y18850000D02*
X17200000Y18850000D01*
X18800000Y19650000D02*
X18800000Y18850000D01*
X17200000Y18850000D02*
X17200000Y19650000D01*
X17200000Y19650000D02*
X18800000Y19650000D01*
X24000000Y32200000D02*
X24000000Y33200000D01*
X24500000Y32200000D02*
X24000000Y32200000D01*
X24000000Y33200000D02*
X24500000Y33200000D01*
X24500000Y33200000D02*
X24500000Y32200000D01*
X20800000Y12800000D02*
X20800000Y11200000D01*
X20000000Y12800000D02*
X20800000Y12800000D01*
X20800000Y11200000D02*
X20000000Y11200000D01*
X20000000Y11200000D02*
X20000000Y12800000D01*
X31912500Y47875000D02*
X31912500Y46275000D01*
X31087500Y47875000D02*
X31912500Y47875000D01*
X31912500Y46275000D02*
X31087500Y46275000D01*
X31087500Y46275000D02*
X31087500Y47875000D01*
X24537500Y39050000D02*
X24537500Y40650000D01*
X25362500Y39050000D02*
X24537500Y39050000D01*
X24537500Y40650000D02*
X25362500Y40650000D01*
X25362500Y40650000D02*
X25362500Y39050000D01*
X23862500Y40650000D02*
X23862500Y39050000D01*
X23037500Y40650000D02*
X23862500Y40650000D01*
X23862500Y39050000D02*
X23037500Y39050000D01*
X23037500Y39050000D02*
X23037500Y40650000D01*
X32750000Y51000000D02*
G75*
G03*
X31250000Y51000000I-750000J0D01*
G01*
X31250000Y51000000D02*
G75*
G03*
X32750000Y51000000I750000J0D01*
G01*
X30925996Y12257367D02*
X32057367Y11125996D01*
X30342633Y11674004D02*
X30925996Y12257367D01*
X32057367Y11125996D02*
X31474004Y10542633D01*
X31474004Y10542633D02*
X30342633Y11674004D01*
X43150000Y19450000D02*
X43150000Y20450000D01*
X43650000Y19450000D02*
X43150000Y19450000D01*
X43150000Y20450000D02*
X43650000Y20450000D01*
X43650000Y20450000D02*
X43650000Y19450000D01*
X32600000Y1687500D02*
X31000000Y1687500D01*
X32600000Y2512500D02*
X32600000Y1687500D01*
X31000000Y1687500D02*
X31000000Y2512500D01*
X31000000Y2512500D02*
X32600000Y2512500D01*
X15800000Y47587500D02*
X15800000Y45987500D01*
X15000000Y47587500D02*
X15800000Y47587500D01*
X15800000Y45987500D02*
X15000000Y45987500D01*
X15000000Y45987500D02*
X15000000Y47587500D01*
X43612500Y47800000D02*
X43612500Y46200000D01*
X42787500Y47800000D02*
X43612500Y47800000D01*
X43612500Y46200000D02*
X42787500Y46200000D01*
X42787500Y46200000D02*
X42787500Y47800000D01*
X28500000Y41150000D02*
X28900000Y40750000D01*
X26000000Y41150000D02*
X28500000Y41150000D01*
X28900000Y40750000D02*
X28900000Y39550000D01*
X28900000Y39550000D02*
X26000000Y39550000D01*
X26000000Y39550000D02*
X26000000Y41150000D01*
X42130000Y19425000D02*
X42130000Y20475000D01*
X42670000Y19425000D02*
X42130000Y19425000D01*
X42130000Y20475000D02*
X42670000Y20475000D01*
X42670000Y20475000D02*
X42670000Y19425000D01*
X26487500Y1275000D02*
X26487500Y2875000D01*
X27312500Y1275000D02*
X26487500Y1275000D01*
X26487500Y2875000D02*
X27312500Y2875000D01*
X27312500Y2875000D02*
X27312500Y1275000D01*
X25050000Y32450000D02*
X25050000Y34050000D01*
X25850000Y32450000D02*
X25050000Y32450000D01*
X25050000Y34050000D02*
X25850000Y34050000D01*
X25850000Y34050000D02*
X25850000Y32450000D01*
X32600000Y32187500D02*
X31000000Y32187500D01*
X32600000Y33012500D02*
X32600000Y32187500D01*
X31000000Y32187500D02*
X31000000Y33012500D01*
X31000000Y33012500D02*
X32600000Y33012500D01*
X2825000Y8530000D02*
X1775000Y8530000D01*
X2825000Y9070000D02*
X2825000Y8530000D01*
X1775000Y8530000D02*
X1775000Y9070000D01*
X1775000Y9070000D02*
X2825000Y9070000D01*
X30975000Y19375000D02*
X30975000Y21375000D01*
X30975000Y19375000D02*
X30475000Y18875000D01*
X30975000Y21375000D02*
X28975000Y21375000D01*
X30475000Y18875000D02*
X28975000Y18875000D01*
X28975000Y18875000D02*
X28975000Y21375000D01*
X29825996Y11157367D02*
X30957367Y10025996D01*
X29242633Y10574004D02*
X29825996Y11157367D01*
X30957367Y10025996D02*
X30374004Y9442633D01*
X30374004Y9442633D02*
X29242633Y10574004D01*
X24975000Y4470000D02*
X26025000Y4470000D01*
X24975000Y3930000D02*
X24975000Y4470000D01*
X26025000Y4470000D02*
X26025000Y3930000D01*
X26025000Y3930000D02*
X24975000Y3930000D01*
X17500000Y10112500D02*
X19100000Y10112500D01*
X17500000Y9287500D02*
X17500000Y10112500D01*
X19100000Y10112500D02*
X19100000Y9287500D01*
X19100000Y9287500D02*
X17500000Y9287500D01*
X27950000Y36100000D02*
X26950000Y36100000D01*
X27950000Y36600000D02*
X27950000Y36100000D01*
X26950000Y36100000D02*
X26950000Y36600000D01*
X26950000Y36600000D02*
X27950000Y36600000D01*
X18200000Y8000000D02*
X17700000Y8000000D01*
X17700000Y8000000D02*
X17700000Y6400000D01*
X18500000Y7700000D02*
X18200000Y8000000D01*
X18500000Y6400000D02*
X18500000Y7700000D01*
X17700000Y6400000D02*
X18500000Y6400000D01*
X31000000Y42100000D02*
X32600000Y42100000D01*
X31000000Y41300000D02*
X31000000Y42100000D01*
X32600000Y42100000D02*
X32600000Y41300000D01*
X32600000Y41300000D02*
X31000000Y41300000D01*
X17700000Y37500000D02*
X16100000Y37500000D01*
X17700000Y38300000D02*
X17700000Y37500000D01*
X16100000Y37500000D02*
X16100000Y38300000D01*
X16100000Y38300000D02*
X17700000Y38300000D01*
X22362500Y40650000D02*
X22362500Y39050000D01*
X21537500Y40650000D02*
X22362500Y40650000D01*
X22362500Y39050000D02*
X21537500Y39050000D01*
X21537500Y39050000D02*
X21537500Y40650000D01*
X23785000Y7585000D02*
X22785000Y8585000D01*
X28015000Y7585000D02*
X23785000Y7585000D01*
X22785000Y8585000D02*
X22785000Y12815000D01*
X22785000Y12815000D02*
X28015000Y12815000D01*
X28015000Y12815000D02*
X28015000Y7585000D01*
X25475000Y17270000D02*
X26525000Y17270000D01*
X25475000Y16730000D02*
X25475000Y17270000D01*
X26525000Y17270000D02*
X26525000Y16730000D01*
X26525000Y16730000D02*
X25475000Y16730000D01*
X32600000Y37287500D02*
X31000000Y37287500D01*
X32600000Y38112500D02*
X32600000Y37287500D01*
X31000000Y37287500D02*
X31000000Y38112500D01*
X31000000Y38112500D02*
X32600000Y38112500D01*
X17700000Y43100000D02*
X16100000Y43100000D01*
X17700000Y43900000D02*
X17700000Y43100000D01*
X16100000Y43100000D02*
X16100000Y43900000D01*
X16100000Y43900000D02*
X17700000Y43900000D01*
X19530000Y5175000D02*
X19530000Y6225000D01*
X20070000Y5175000D02*
X19530000Y5175000D01*
X19530000Y6225000D02*
X20070000Y6225000D01*
X20070000Y6225000D02*
X20070000Y5175000D01*
X26450000Y43600000D02*
X28050000Y43600000D01*
X26450000Y42800000D02*
X26450000Y43600000D01*
X28050000Y43600000D02*
X28050000Y42800000D01*
X28050000Y42800000D02*
X26450000Y42800000D01*
X12350000Y2000000D02*
X16250000Y2000000D01*
X16250000Y2000000D02*
X16250000Y8000000D01*
X12350000Y8000000D02*
X12350000Y2000000D01*
X16250000Y8000000D02*
X12350000Y8000000D01*
X1750000Y47000000D02*
G75*
G03*
X250000Y47000000I-750000J0D01*
G01*
X250000Y47000000D02*
G75*
G03*
X1750000Y47000000I750000J0D01*
G01*
X23030000Y32175000D02*
X23030000Y33225000D01*
X23570000Y32175000D02*
X23030000Y32175000D01*
X23030000Y33225000D02*
X23570000Y33225000D01*
X23570000Y33225000D02*
X23570000Y32175000D01*
X20500000Y43600000D02*
X20500000Y41600000D01*
X19300000Y43600000D02*
X20500000Y43600000D01*
X20500000Y41600000D02*
X19300000Y41600000D01*
X19300000Y41600000D02*
X19300000Y43600000D01*
X20050000Y8400000D02*
X20050000Y7400000D01*
X19550000Y8400000D02*
X20050000Y8400000D01*
X20050000Y7400000D02*
X19550000Y7400000D01*
X19550000Y7400000D02*
X19550000Y8400000D01*
X28250000Y37150000D02*
X26650000Y37150000D01*
X28250000Y37950000D02*
X28250000Y37150000D01*
X26650000Y37150000D02*
X26650000Y37950000D01*
X26650000Y37950000D02*
X28250000Y37950000D01*
X21600000Y31900000D02*
X21600000Y33500000D01*
X22400000Y31900000D02*
X21600000Y31900000D01*
X21600000Y33500000D02*
X22400000Y33500000D01*
X22400000Y33500000D02*
X22400000Y31900000D01*
X32612500Y6800000D02*
X32612500Y5200000D01*
X31787500Y6800000D02*
X32612500Y6800000D01*
X32612500Y5200000D02*
X31787500Y5200000D01*
X31787500Y5200000D02*
X31787500Y6800000D01*
X19550000Y37750000D02*
X19550000Y36750000D01*
X19050000Y37750000D02*
X19550000Y37750000D01*
X19550000Y36750000D02*
X19050000Y36750000D01*
X19050000Y36750000D02*
X19050000Y37750000D01*
X2725000Y12830000D02*
X1675000Y12830000D01*
X2725000Y13370000D02*
X2725000Y12830000D01*
X1675000Y12830000D02*
X1675000Y13370000D01*
X1675000Y13370000D02*
X2725000Y13370000D01*
X32600000Y39787500D02*
X31000000Y39787500D01*
X32600000Y40612500D02*
X32600000Y39787500D01*
X31000000Y39787500D02*
X31000000Y40612500D01*
X31000000Y40612500D02*
X32600000Y40612500D01*
X27700000Y28050000D02*
X28700000Y28050000D01*
X27700000Y27550000D02*
X27700000Y28050000D01*
X28700000Y28050000D02*
X28700000Y27550000D01*
X28700000Y27550000D02*
X27700000Y27550000D01*
X14312500Y47600000D02*
X14312500Y46000000D01*
X13487500Y47600000D02*
X14312500Y47600000D01*
X14312500Y46000000D02*
X13487500Y46000000D01*
X13487500Y46000000D02*
X13487500Y47600000D01*
X19050000Y20450000D02*
X18050000Y20450000D01*
X19050000Y20950000D02*
X19050000Y20450000D01*
X18050000Y20450000D02*
X18050000Y20950000D01*
X18050000Y20950000D02*
X19050000Y20950000D01*
X18535000Y4730000D02*
X17485000Y4730000D01*
X18535000Y5270000D02*
X18535000Y4730000D01*
X17485000Y4730000D02*
X17485000Y5270000D01*
X17485000Y5270000D02*
X18535000Y5270000D01*
X29150000Y17850000D02*
X30150000Y17850000D01*
X29150000Y17350000D02*
X29150000Y17850000D01*
X30150000Y17850000D02*
X30150000Y17350000D01*
X30150000Y17350000D02*
X29150000Y17350000D01*
X22150000Y35450000D02*
X20550000Y35450000D01*
X22150000Y36250000D02*
X22150000Y35450000D01*
X20550000Y35450000D02*
X20550000Y36250000D01*
X20550000Y36250000D02*
X22150000Y36250000D01*
X28620000Y52500000D02*
X16620000Y52500000D01*
X27090000Y46500000D02*
X18150000Y46500000D01*
X27090000Y53000000D02*
X27090000Y46500000D01*
X27090000Y53000000D02*
X18150000Y53000000D01*
X18150000Y53000000D02*
X18150000Y46500000D01*
D17*
X25990000Y44550000D02*
G75*
G03*
X25790000Y44550000I-100000J0D01*
G01*
X25790000Y44550000D02*
G75*
G03*
X25990000Y44550000I100000J0D01*
G01*
D16*
X24675000Y19470000D02*
X25725000Y19470000D01*
X24675000Y18930000D02*
X24675000Y19470000D01*
X25725000Y19470000D02*
X25725000Y18930000D01*
X25725000Y18930000D02*
X24675000Y18930000D01*
X21670000Y43375000D02*
X21670000Y42325000D01*
X21130000Y43375000D02*
X21670000Y43375000D01*
X21670000Y42325000D02*
X21130000Y42325000D01*
X21130000Y42325000D02*
X21130000Y43375000D01*
X24450000Y43375000D02*
X24450000Y42325000D01*
X23910000Y43375000D02*
X24450000Y43375000D01*
X24450000Y42325000D02*
X23910000Y42325000D01*
X23910000Y42325000D02*
X23910000Y43375000D01*
X19500000Y22500000D02*
X18500000Y23500000D01*
X25500000Y22500000D02*
X19500000Y22500000D01*
X18500000Y23500000D02*
X18500000Y29500000D01*
X18500000Y29500000D02*
X25500000Y29500000D01*
X25500000Y29500000D02*
X25500000Y22500000D01*
X30957367Y11674004D02*
X29825996Y10542633D01*
X30374004Y12257367D02*
X30957367Y11674004D01*
X29825996Y10542633D02*
X29242633Y11125996D01*
X29242633Y11125996D02*
X30374004Y12257367D01*
X23475000Y16370000D02*
X24525000Y16370000D01*
X23475000Y15830000D02*
X23475000Y16370000D01*
X24525000Y16370000D02*
X24525000Y15830000D01*
X24525000Y15830000D02*
X23475000Y15830000D01*
X21975000Y4470000D02*
X23025000Y4470000D01*
X21975000Y3930000D02*
X21975000Y4470000D01*
X23025000Y4470000D02*
X23025000Y3930000D01*
X23025000Y3930000D02*
X21975000Y3930000D01*
X20450000Y32200000D02*
X20450000Y33200000D01*
X20950000Y32200000D02*
X20450000Y32200000D01*
X20450000Y33200000D02*
X20950000Y33200000D01*
X20950000Y33200000D02*
X20950000Y32200000D01*
X1750000Y6000000D02*
G75*
G03*
X250000Y6000000I-750000J0D01*
G01*
X250000Y6000000D02*
G75*
G03*
X1750000Y6000000I750000J0D01*
G01*
X21750000Y36900000D02*
X20450000Y36900000D01*
X21750000Y37800000D02*
X21750000Y36900000D01*
X21300000Y37350000D02*
X21450000Y37350000D01*
X21300000Y37350000D02*
X21000000Y37550000D01*
X21300000Y37550000D02*
X21300000Y37150000D01*
X21000000Y37150000D02*
X21300000Y37350000D01*
X21000000Y37350000D02*
X20850000Y37350000D01*
X21000000Y37550000D02*
X21000000Y37150000D01*
X20450000Y36900000D02*
X20450000Y37800000D01*
X20450000Y37800000D02*
X21750000Y37800000D01*
X28000000Y27000000D02*
X29600000Y27000000D01*
X28000000Y26200000D02*
X28000000Y27000000D01*
X29600000Y27000000D02*
X29600000Y26200000D01*
X29600000Y26200000D02*
X28000000Y26200000D01*
X32057367Y10574004D02*
X30925996Y9442633D01*
X31474004Y11157367D02*
X32057367Y10574004D01*
X30925996Y9442633D02*
X30342633Y10025996D01*
X30342633Y10025996D02*
X31474004Y11157367D01*
X18150000Y41500000D02*
X18550000Y41100000D01*
X15650000Y41500000D02*
X18150000Y41500000D01*
X18550000Y41100000D02*
X18550000Y39900000D01*
X18550000Y39900000D02*
X15650000Y39900000D01*
X15650000Y39900000D02*
X15650000Y41500000D01*
X22000000Y13100000D02*
X22000000Y12100000D01*
X21500000Y13100000D02*
X22000000Y13100000D01*
X22000000Y12100000D02*
X21500000Y12100000D01*
X21500000Y12100000D02*
X21500000Y13100000D01*
M02*
