M48
; DRILL file {KiCad 7.0.10-7.0.10~ubuntu22.04.1} date Thu 11 Jan 2024 09:49:56 PM
; FORMAT={-:-/ absolute / metric / decimal}
; #@! TF.CreationDate,2024-01-11T21:49:56-05:00
; #@! TF.GenerationSoftware,Kicad,Pcbnew,7.0.10-7.0.10~ubuntu22.04.1
; #@! TF.FileFunction,Plated,1,2,PTH
FMAT,2
METRIC
; #@! TA.AperFunction,Plated,PTH,ViaDrill
T1C0.300
; #@! TA.AperFunction,Plated,PTH,ComponentDrill
T2C0.300
; #@! TA.AperFunction,Plated,PTH,ComponentDrill
T3C0.600
%
G90
G05
T1
X4.7Y3.2
X4.7Y28.6
X4.8Y49.2
X4.8Y38.8
X4.8Y16.0
X5.6Y24.0
X6.833Y13.82
X10.3Y41.4
X10.3Y15.8
X10.4Y49.0
X10.4Y3.1
X10.6Y30.8
X11.999Y14.673
X12.8Y24.8
X13.4Y14.4
X14.5Y5.0
X14.6Y7.2
X15.0Y43.4
X15.0Y38.4
X16.1Y44.55
X16.15Y36.8
X16.6Y6.8
X16.95Y20.65
X16.973Y13.4
X17.0Y44.6
X17.2Y25.8
X17.2Y22.4
X17.2Y17.9
X18.2Y18.2
X18.4Y45.2
X18.4Y36.8
X19.15Y35.8
X19.4Y4.2
X19.63Y12.77
X19.7Y33.3
X19.8Y38.2
X20.1Y15.7
X20.1Y9.2
X20.22Y44.6
X20.3Y40.3
X20.6Y34.0
X20.79Y9.941
X21.06Y20.611
X21.4Y41.6
X21.478Y30.63
X21.645Y44.359
X21.8Y11.4
X21.999Y34.846
X22.4Y30.4
X22.474Y32.506
X22.798Y39.85
X22.8Y34.2
X22.8Y21.2
X23.0Y8.6
X23.11Y40.944
X23.425Y44.145
X23.5Y15.2
X24.0Y38.09
X24.8Y4.8
X25.0Y37.8
X25.0Y21.2
X25.1Y2.9
X25.2Y44.4
X25.2Y42.2
X25.4Y22.0
X25.546Y29.258
X25.583Y35.527
X25.691Y39.893
X25.8Y37.2
X25.8Y36.4
X26.6Y27.0
X26.6Y23.1
X26.7Y45.1
X26.735Y15.8
X27.3Y9.0
X27.4Y34.0
X27.636Y25.163
X28.0Y3.8
X28.05Y44.25
X28.338Y24.2
X28.6Y32.6
X28.872Y16.8
X29.05Y43.2
X29.065Y25.6
X29.35Y40.35
X29.4Y5.4
X29.599Y12.2
X29.65Y7.6
X29.8Y30.2
X29.8Y2.2
X30.35Y25.65
X30.4Y41.8
X30.4Y40.2
X30.4Y37.6
X30.4Y27.6
X31.4Y17.4
X31.6Y29.8
X31.659Y19.252
X32.218Y28.152
X32.289Y9.689
X32.522Y22.151
X32.6Y46.1
X32.919Y17.4
X33.18Y10.654
X33.23Y43.66
X33.468Y3.555
X34.2Y18.86
X34.5Y46.6
X34.6Y1.065
X34.8Y41.6
X34.84Y13.103
X37.8Y30.8
X38.4Y21.2
X40.2Y13.2
X40.2Y10.8
X40.4Y5.8
X40.4Y3.0
X40.6Y31.4
X40.6Y23.2
X42.0Y26.2
X42.0Y15.6
X42.0Y7.2
X42.6Y21.2
X42.8Y8.0
X43.0Y45.2
X43.5Y32.5
X43.6Y13.8
T2
X1.0Y49.2
X1.0Y44.12
X1.0Y40.2
X1.0Y36.2
X1.0Y28.08
X1.0Y22.4
X1.0Y18.72
X1.0Y13.64
X1.0Y8.56
X1.0Y3.48
X3.1Y51.7
X3.1Y0.7
X7.2Y24.0
X7.6Y29.0
X7.6Y9.2
X7.6Y5.2
X8.0Y38.6
X8.18Y51.7
X8.18Y0.7
X8.2Y18.7
X10.3Y43.8
X10.35Y36.2
X10.4Y46.35
X10.4Y39.2
X10.4Y33.65
X11.2Y29.0
X12.0Y26.2
X12.2Y11.4
X12.6Y46.0
X13.2Y42.35
X13.26Y51.7
X13.26Y0.7
X13.7Y6.2
X14.1Y16.0
X14.4Y31.0
X15.5Y34.35
X15.7Y23.1
X15.8Y8.1
X15.9Y12.4
X16.2Y49.0
X17.1Y28.3
X18.34Y0.7
X18.4Y29.8
X18.4Y22.3
X18.5Y4.0
X18.7Y14.4
X18.7Y11.9
X19.3Y39.4
X20.6Y27.4
X20.6Y24.6
X20.9Y7.4
X21.3Y14.2
X22.2Y5.2
X23.1Y37.0
X23.5Y12.3
X26.0Y21.1
X26.7Y9.9
X27.3Y4.6
X27.5Y29.1
X28.5Y0.7
X28.9Y48.8
X29.1Y36.4
X29.5Y51.7
X29.55Y15.2
X29.7Y6.4
X29.8Y3.9
X30.5Y22.9
X31.4Y12.9
X31.5Y8.9
X31.8Y38.7
X31.8Y33.9
X31.9Y45.0
X32.6Y3.3
X33.58Y51.7
X33.58Y0.7
X34.4Y5.9
X34.5Y28.8
X34.5Y26.3
X34.5Y23.6
X34.5Y21.1
X35.0Y49.0
X37.4Y19.25
X37.4Y16.5
X37.4Y11.1
X37.4Y8.9
X38.66Y51.7
X38.66Y0.7
X39.5Y28.8
X39.5Y26.3
X41.6Y28.8
X43.74Y51.6
X43.74Y0.9
X44.2Y49.0
X44.2Y43.44
X44.2Y38.36
X44.2Y33.8
X44.2Y12.96
X44.2Y7.88
X44.2Y3.7
X44.3Y27.7
X44.3Y23.5
T3
G00X17.0Y50.3
M15
G01X17.0Y51.5
M16
G05
G00X17.0Y46.5
M15
G01X17.0Y47.3
M16
G05
G00X28.24Y50.3
M15
G01X28.24Y51.5
M16
G05
G00X28.24Y46.5
M15
G01X28.24Y47.3
M16
G05
M30
