M48
; DRILL file {KiCad 7.0.9-7.0.9~ubuntu22.04.1} date Wed 06 Dec 2023 03:49:40 AM
; FORMAT={-:-/ absolute / metric / decimal}
; #@! TF.CreationDate,2023-12-06T03:49:40-05:00
; #@! TF.GenerationSoftware,Kicad,Pcbnew,7.0.9-7.0.9~ubuntu22.04.1
; #@! TF.FileFunction,NonPlated,1,2,NPTH
FMAT,2
METRIC
; #@! TA.AperFunction,NonPlated,NPTH,ComponentDrill
T1C1.020
; #@! TA.AperFunction,NonPlated,NPTH,ComponentDrill
T2C2.000
%
G90
G05
T1
X6.33Y50.38
X6.33Y47.84
X6.33Y45.3
X6.33Y42.76
X6.33Y40.22
X6.33Y37.68
X6.33Y35.14
X6.33Y32.6
X6.33Y30.06
X6.33Y27.52
X6.33Y24.98
X6.33Y22.44
X6.33Y19.9
X6.33Y17.36
X6.33Y14.82
X6.33Y12.28
X6.33Y9.74
X6.33Y7.2
X6.33Y4.66
X6.33Y2.12
X8.87Y50.38
X8.87Y47.84
X8.87Y45.3
X8.87Y42.76
X8.87Y40.22
X8.87Y37.68
X8.87Y35.14
X8.87Y32.6
X8.87Y30.06
X8.87Y27.52
X8.87Y24.98
X8.87Y22.44
X8.87Y19.9
X8.87Y17.36
X8.87Y14.82
X8.87Y12.28
X8.87Y9.74
X8.87Y7.2
X8.87Y4.66
X8.87Y2.12
X36.13Y50.38
X36.13Y47.84
X36.13Y45.3
X36.13Y42.76
X36.13Y40.22
X36.13Y37.68
X36.13Y35.14
X36.13Y32.6
X36.13Y30.06
X36.13Y27.52
X36.13Y24.98
X36.13Y22.44
X36.13Y19.9
X36.13Y17.36
X36.13Y14.82
X36.13Y12.28
X36.13Y9.74
X36.13Y7.2
X36.13Y4.66
X36.13Y2.12
X38.67Y50.38
X38.67Y47.84
X38.67Y45.3
X38.67Y42.76
X38.67Y40.22
X38.67Y37.68
X38.67Y35.14
X38.67Y32.6
X38.67Y30.06
X38.67Y27.52
X38.67Y24.98
X38.67Y22.44
X38.67Y19.9
X38.67Y17.36
X38.67Y14.82
X38.67Y12.28
X38.67Y9.74
X38.67Y7.2
X38.67Y4.66
X38.67Y2.12
T2
X7.6Y49.11
X7.6Y3.39
X37.4Y49.11
X37.4Y3.39
T0
M30
