G04 #@! TF.GenerationSoftware,KiCad,Pcbnew,7.0.9-7.0.9~ubuntu22.04.1*
G04 #@! TF.CreationDate,2023-12-06T03:49:37-05:00*
G04 #@! TF.ProjectId,caravel-breakout-fpga-ICE40UP5K-TT3,63617261-7665-46c2-9d62-7265616b6f75,1.0*
G04 #@! TF.SameCoordinates,PX2dc6c00PY42c1d80*
G04 #@! TF.FileFunction,Profile,NP*
%FSLAX46Y46*%
G04 Gerber Fmt 4.6, Leading zero omitted, Abs format (unit mm)*
G04 Created by KiCad (PCBNEW 7.0.9-7.0.9~ubuntu22.04.1) date 2023-12-06 03:49:37*
%MOMM*%
%LPD*%
G01*
G04 APERTURE LIST*
G04 #@! TA.AperFunction,Profile*
%ADD10C,0.050000*%
G04 #@! TD*
G04 #@! TA.AperFunction,Profile*
%ADD11C,0.080000*%
G04 #@! TD*
G04 APERTURE END LIST*
D10*
X25000000Y1000000D02*
G75*
G03*
X26000000Y0I1000000J0D01*
G01*
X25000000Y1000000D02*
X25000000Y1500000D01*
X18000000Y52500000D02*
X2000000Y52500000D01*
X2000000Y52500000D02*
G75*
G03*
X0Y50500000I0J-2000000D01*
G01*
X43000000Y0D02*
G75*
G03*
X45000000Y2000000I0J2000000D01*
G01*
X20000000Y1500000D02*
X20000000Y1000000D01*
X19000000Y0D02*
G75*
G03*
X20000000Y1000000I0J1000000D01*
G01*
X24000000Y2500000D02*
X21000000Y2500000D01*
X45000000Y50500000D02*
G75*
G03*
X43000000Y52500000I-2000000J0D01*
G01*
X25000000Y1500000D02*
G75*
G03*
X24000000Y2500000I-1000000J0D01*
G01*
X0Y2000000D02*
G75*
G03*
X2000000Y0I2000000J0D01*
G01*
X45000000Y2000000D02*
X45000000Y50500000D01*
X27240000Y52500000D02*
X43000000Y52500000D01*
X2000000Y0D02*
X19000000Y0D01*
X0Y2000000D02*
X0Y50500000D01*
X21000000Y2500000D02*
G75*
G03*
X20000000Y1500000I0J-1000000D01*
G01*
X43000000Y0D02*
X26000000Y0D01*
D11*
X27240000Y52500000D02*
X27240000Y46300000D01*
X26440000Y46300000D02*
X18800000Y46300000D01*
X18000000Y46300000D02*
X18000000Y52500000D01*
X26915000Y45900001D02*
G75*
G03*
X27239999Y46300000I-37502J362500D01*
G01*
X26590001Y46180000D02*
G75*
G03*
X26915000Y45900001I302498J22499D01*
G01*
X26589999Y46180000D02*
G75*
G03*
X26440001Y46299998I-134999J-15001D01*
G01*
X18800000Y46299998D02*
G75*
G03*
X18650002Y46179999I-15000J-134998D01*
G01*
X18325000Y45900003D02*
G75*
G03*
X18649997Y46179999I22500J302497D01*
G01*
X18000000Y46300000D02*
G75*
G03*
X18325000Y45900000I362500J-37500D01*
G01*
M02*
