G04 #@! TF.GenerationSoftware,KiCad,Pcbnew,7.0.9-7.0.9~ubuntu22.04.1*
G04 #@! TF.CreationDate,2023-12-06T03:49:37-05:00*
G04 #@! TF.ProjectId,caravel-breakout-fpga-ICE40UP5K-TT3,63617261-7665-46c2-9d62-7265616b6f75,1.0*
G04 #@! TF.SameCoordinates,PX2dc6c00PY42c1d80*
G04 #@! TF.FileFunction,Copper,L2,Bot*
G04 #@! TF.FilePolarity,Positive*
%FSLAX46Y46*%
G04 Gerber Fmt 4.6, Leading zero omitted, Abs format (unit mm)*
G04 Created by KiCad (PCBNEW 7.0.9-7.0.9~ubuntu22.04.1) date 2023-12-06 03:49:37*
%MOMM*%
%LPD*%
G01*
G04 APERTURE LIST*
G04 #@! TA.AperFunction,ComponentPad*
%ADD10C,0.620000*%
G04 #@! TD*
G04 #@! TA.AperFunction,ComponentPad*
%ADD11O,0.950000X2.100000*%
G04 #@! TD*
G04 #@! TA.AperFunction,ComponentPad*
%ADD12O,0.900000X1.800000*%
G04 #@! TD*
G04 #@! TA.AperFunction,ViaPad*
%ADD13C,0.700000*%
G04 #@! TD*
G04 #@! TA.AperFunction,Conductor*
%ADD14C,0.200000*%
G04 #@! TD*
G04 #@! TA.AperFunction,Conductor*
%ADD15C,0.180000*%
G04 #@! TD*
G04 #@! TA.AperFunction,Conductor*
%ADD16C,0.254000*%
G04 #@! TD*
G04 APERTURE END LIST*
D10*
X44200000Y3700000D03*
X8180000Y700000D03*
X44200000Y43440000D03*
X1000000Y33960000D03*
X8180000Y51700000D03*
X38660000Y700000D03*
X44200000Y12960000D03*
X12600000Y46000000D03*
X17100000Y28300000D03*
X44200000Y7880000D03*
X20600000Y27400000D03*
X31800000Y33900000D03*
X43740000Y51600000D03*
X38660000Y51700000D03*
X15600000Y34400000D03*
X1000000Y44120000D03*
X29800000Y3900000D03*
X3100000Y700000D03*
X35000000Y49000000D03*
X31800000Y38700000D03*
X28500000Y700000D03*
X33580000Y700000D03*
X43740000Y900000D03*
X44200000Y33800000D03*
X23100000Y37000000D03*
X44200000Y38360000D03*
X44200000Y49000000D03*
X30700000Y13600000D03*
X33580000Y51700000D03*
X13260000Y51700000D03*
X12000000Y26200000D03*
X29100000Y49000000D03*
X1000000Y3480000D03*
X29500000Y51700000D03*
X18500000Y11300000D03*
X1000000Y8560000D03*
X29100000Y36400000D03*
X20600000Y24600000D03*
X15700000Y23100000D03*
X1000000Y23800000D03*
X25200000Y19900000D03*
X19300000Y39400000D03*
X1000000Y39040000D03*
X14400000Y31000000D03*
D11*
X28240000Y50900000D03*
D12*
X17000000Y46900000D03*
X28240000Y46900000D03*
D11*
X17000000Y50900000D03*
D10*
X1000000Y49200000D03*
X3100000Y51700000D03*
X14100000Y16000000D03*
X18340000Y700000D03*
X13260000Y700000D03*
X27500000Y29100000D03*
X1000000Y18720000D03*
X1000000Y28880000D03*
X18400000Y30800000D03*
X25400000Y12300000D03*
X16000000Y49000000D03*
X12200000Y11400000D03*
X1000000Y13640000D03*
D13*
X15000000Y38400000D03*
X18400000Y36800000D03*
X4800000Y16000000D03*
X4800000Y49200000D03*
X40400000Y3000000D03*
X42000000Y7200000D03*
X4800000Y26300000D03*
X15000000Y43400000D03*
X10300000Y41400000D03*
X17000000Y44600000D03*
X29000000Y43200000D03*
X25200000Y42200000D03*
X25800000Y37200000D03*
X34600000Y13200000D03*
X40400000Y5800000D03*
X27400000Y34000000D03*
X21400000Y41600000D03*
X31400000Y17400000D03*
X26700000Y45100000D03*
X10300000Y15800000D03*
X18400000Y45200000D03*
X34800000Y41600000D03*
X30400000Y27600000D03*
X4800000Y38800000D03*
X10400000Y3100000D03*
X21800000Y11400000D03*
X20400000Y10200000D03*
X22800000Y34200000D03*
X10400000Y49000000D03*
X30400000Y26600000D03*
X20600000Y34000000D03*
X19200000Y35800000D03*
X4700000Y3200000D03*
X40200000Y10800000D03*
X40200000Y13200000D03*
X10600000Y30800000D03*
X11999500Y14672567D03*
X13400000Y14400000D03*
X12800000Y24800000D03*
X6833056Y13820000D03*
X5600000Y24000000D03*
X17200000Y22400000D03*
X17200000Y25800000D03*
X32800000Y17400000D03*
X32218282Y28151594D03*
X37800000Y30800000D03*
X38400000Y21200000D03*
X29800000Y30200000D03*
X31658886Y19252168D03*
X40600000Y31400000D03*
X40600000Y23200000D03*
X32521851Y22151423D03*
X33400000Y47200000D03*
X20400000Y40200000D03*
X21478363Y30630409D03*
X30400000Y37600000D03*
X29065103Y25600000D03*
X30400000Y40200000D03*
X19400000Y13000000D03*
X23500000Y15200000D03*
X18200000Y18200000D03*
X23365682Y17021248D03*
X29400000Y5400000D03*
X19800000Y38200000D03*
X19700000Y33300000D03*
X28871922Y16800000D03*
X24800000Y4800000D03*
X25100000Y2900000D03*
X22474114Y32505983D03*
X19400000Y4200000D03*
X30400000Y41800000D03*
X29800000Y2200000D03*
X25546404Y29258096D03*
X25600000Y35600000D03*
X33500000Y3600000D03*
X33239639Y10654146D03*
X33221851Y43659605D03*
X21999172Y34845500D03*
X21060000Y20611415D03*
X22400000Y30400000D03*
X16973234Y13400000D03*
X16600000Y6800000D03*
X20220000Y44600000D03*
X25200000Y44400000D03*
X26600000Y23100000D03*
X26735000Y15800000D03*
X29600000Y7400000D03*
X43600000Y13800000D03*
X43800000Y29200000D03*
X29598922Y12200420D03*
X31200000Y29090000D03*
X32288886Y9688886D03*
X27000000Y9000000D03*
X27638103Y25164879D03*
X42800000Y8000000D03*
X43000000Y45200000D03*
X22800000Y21200000D03*
X23000000Y8600000D03*
X42600000Y21200000D03*
X28000000Y3800000D03*
X28338103Y24200000D03*
X28600000Y32600000D03*
X42000000Y15600000D03*
X42000000Y26200000D03*
X24000000Y38090000D03*
X25000000Y21200000D03*
X21645025Y44359386D03*
X23095101Y40956728D03*
X26600000Y27000000D03*
X25690631Y39892947D03*
X22797541Y39849847D03*
X23425025Y44145025D03*
X25000000Y37800000D03*
X25400000Y22000000D03*
X24600000Y15000000D03*
X24268153Y17108727D03*
D14*
X25800000Y38000000D02*
X25800000Y37200000D01*
X25040631Y38759369D02*
X25800000Y38000000D01*
X25200000Y42200000D02*
X25040631Y42040631D01*
X25040631Y42040631D02*
X25040631Y38759369D01*
D15*
X11999500Y14672567D02*
X11999500Y15076308D01*
X11999500Y15076308D02*
X10600000Y16475808D01*
X10600000Y16475808D02*
X10600000Y30800000D01*
X12800000Y15000000D02*
X13400000Y14400000D01*
X12800000Y24800000D02*
X12800000Y15000000D01*
X7400000Y14386944D02*
X6833056Y13820000D01*
X5972082Y24000000D02*
X7400000Y22572082D01*
X5600000Y24000000D02*
X5972082Y24000000D01*
X7400000Y22572082D02*
X7400000Y14386944D01*
X17200000Y25800000D02*
X17200000Y22400000D01*
X31831851Y27765163D02*
X31831851Y21891409D01*
X31831851Y21891409D02*
X32800000Y20923260D01*
X32218282Y28151594D02*
X31831851Y27765163D01*
X32800000Y20923260D02*
X32800000Y17400000D01*
X37800000Y30800000D02*
X37800000Y21800000D01*
X37800000Y21800000D02*
X38400000Y21200000D01*
X29710000Y30110000D02*
X29710000Y21201054D01*
X29800000Y30200000D02*
X29710000Y30110000D01*
X29710000Y21201054D02*
X31658886Y19252168D01*
X40600000Y31400000D02*
X40600000Y23200000D01*
X33400000Y47200000D02*
X32600000Y46400000D01*
X32600000Y46400000D02*
X32600000Y28676740D01*
X32851851Y28424889D02*
X32851851Y22481423D01*
X32851851Y22481423D02*
X32521851Y22151423D01*
X32600000Y28676740D02*
X32851851Y28424889D01*
X21478363Y30630409D02*
X21309172Y30799600D01*
X21309172Y39290828D02*
X20400000Y40200000D01*
X21309172Y30799600D02*
X21309172Y39290828D01*
D16*
X23500000Y15200000D02*
X23500000Y16886930D01*
X29065103Y32036969D02*
X29065103Y25600000D01*
X23527000Y31073000D02*
X23527000Y17182566D01*
D14*
X24800000Y3200000D02*
X25100000Y2900000D01*
D16*
X28871922Y16800000D02*
X28871922Y5400000D01*
D15*
X19800000Y38200000D02*
X19840501Y38159499D01*
D16*
X19400000Y13000000D02*
X19400000Y4200000D01*
X28871922Y23705685D02*
X28871922Y16800000D01*
X30400000Y33371866D02*
X29065103Y32036969D01*
X28871922Y5400000D02*
X28871922Y3128078D01*
X22474114Y32505983D02*
X22474114Y32125886D01*
X22474114Y32125886D02*
X23527000Y31073000D01*
X23500000Y16886930D02*
X23365682Y17021248D01*
D14*
X24800000Y4800000D02*
X24800000Y3200000D01*
D15*
X19840501Y38159499D02*
X19840501Y33440501D01*
D16*
X30400000Y37600000D02*
X30400000Y33371866D01*
X18400000Y18200000D02*
X18200000Y18200000D01*
X30400000Y41800000D02*
X30400000Y40200000D01*
D15*
X19840501Y33440501D02*
X19700000Y33300000D01*
D16*
X29400000Y5400000D02*
X28871922Y5400000D01*
X23527000Y17182566D02*
X23365682Y17021248D01*
X19400000Y17200000D02*
X18400000Y18200000D01*
X29065103Y25600000D02*
X29065103Y23898866D01*
X28871922Y3128078D02*
X29800000Y2200000D01*
X30400000Y40200000D02*
X30400000Y37600000D01*
X29065103Y23898866D02*
X28871922Y23705685D01*
X19400000Y13000000D02*
X19400000Y17200000D01*
D15*
X25546404Y29258096D02*
X25546404Y35546404D01*
X25546404Y35546404D02*
X25600000Y35600000D01*
D14*
X33500000Y43381456D02*
X33500000Y10914507D01*
X33221851Y43659605D02*
X33500000Y43381456D01*
X33500000Y3600000D02*
X33500000Y10393785D01*
X33500000Y10393785D02*
X33239639Y10654146D01*
X33500000Y10914507D02*
X33239639Y10654146D01*
D15*
X21800000Y31400000D02*
X21800000Y34646328D01*
X22400000Y30400000D02*
X22400000Y30800000D01*
X22400000Y30800000D02*
X21800000Y31400000D01*
X22400000Y30400000D02*
X22400000Y21951415D01*
X22400000Y21951415D02*
X21060000Y20611415D01*
X21800000Y34646328D02*
X21999172Y34845500D01*
X16600000Y6800000D02*
X16600000Y13026766D01*
X16600000Y13026766D02*
X16973234Y13400000D01*
D14*
X25200000Y44400000D02*
X24400000Y45200000D01*
X20820000Y45200000D02*
X20220000Y44600000D01*
X24400000Y45200000D02*
X20820000Y45200000D01*
X26800000Y15865000D02*
X26800000Y22900000D01*
X26800000Y22900000D02*
X26600000Y23100000D01*
X26735000Y15800000D02*
X26800000Y15865000D01*
X43500000Y13900000D02*
X43600000Y13800000D01*
X29600000Y12199342D02*
X29600000Y7400000D01*
X29598922Y12200420D02*
X29600000Y12199342D01*
X43800000Y29200000D02*
X43500000Y28900000D01*
X43500000Y28900000D02*
X43500000Y13900000D01*
X32288886Y17878836D02*
X32288886Y19612118D01*
X32100000Y9877772D02*
X32100000Y17689950D01*
X32288886Y19612118D02*
X31200000Y20701004D01*
X32288886Y9688886D02*
X32100000Y9877772D01*
X32100000Y17689950D02*
X32288886Y17878836D01*
X31200000Y20701004D02*
X31200000Y29090000D01*
D15*
X27425000Y9425000D02*
X27425000Y24951776D01*
X27425000Y24951776D02*
X27638103Y25164879D01*
X27000000Y9000000D02*
X27425000Y9425000D01*
D14*
X43000000Y45200000D02*
X42800000Y45000000D01*
X42800000Y8000000D02*
X42800000Y21000000D01*
X22800000Y21200000D02*
X22665682Y21065682D01*
X42800000Y21000000D02*
X42600000Y21200000D01*
X22665682Y21065682D02*
X22665682Y8934318D01*
X22665682Y8934318D02*
X23000000Y8600000D01*
X42800000Y21400000D02*
X42600000Y21200000D01*
X42800000Y45000000D02*
X42800000Y21400000D01*
X28338103Y24200000D02*
X28000000Y23861897D01*
X28338103Y32338103D02*
X28338103Y24200000D01*
X28000000Y23861897D02*
X28000000Y3800000D01*
X28600000Y32600000D02*
X28338103Y32338103D01*
D15*
X42000000Y26200000D02*
X41910000Y26110000D01*
X41910000Y26110000D02*
X41910000Y15690000D01*
X41910000Y15690000D02*
X42000000Y15600000D01*
X25000000Y21200000D02*
X24100000Y22100000D01*
X24100000Y22100000D02*
X24100000Y37990000D01*
X24100000Y37990000D02*
X24000000Y38090000D01*
D14*
X23095101Y40956728D02*
X22400000Y41651829D01*
X22400000Y41651829D02*
X22400000Y43604411D01*
X22400000Y43604411D02*
X21645025Y44359386D01*
D15*
X26600000Y27000000D02*
X26600000Y39200000D01*
X26600000Y39200000D02*
X25907053Y39892947D01*
X25907053Y39892947D02*
X25690631Y39892947D01*
D14*
X22797541Y39849847D02*
X22950153Y39849847D01*
X22950153Y39849847D02*
X23795101Y40694795D01*
X23795101Y43774949D02*
X23425025Y44145025D01*
X23795101Y40694795D02*
X23795101Y43774949D01*
D15*
X25000000Y37800000D02*
X24600000Y37400000D01*
X24600000Y22800000D02*
X25400000Y22000000D01*
X24600000Y37400000D02*
X24600000Y22800000D01*
D14*
X24268153Y15331847D02*
X24268153Y17108727D01*
X24600000Y15000000D02*
X24268153Y15331847D01*
G04 #@! TA.AperFunction,Conductor*
G36*
X16456754Y52179815D02*
G01*
X16502509Y52127011D01*
X16512453Y52057853D01*
X16484704Y51995794D01*
X16386363Y51878597D01*
X16386362Y51878595D01*
X16309829Y51726207D01*
X16309828Y51726202D01*
X16270500Y51560266D01*
X16270500Y50282514D01*
X16284773Y50160404D01*
X16285332Y50155620D01*
X16285333Y50155617D01*
X16343655Y49995375D01*
X16437366Y49852894D01*
X16561405Y49735869D01*
X16561407Y49735868D01*
X16709093Y49650601D01*
X16872461Y49601692D01*
X16985957Y49595082D01*
X17042703Y49591777D01*
X17042703Y49591778D01*
X17042705Y49591777D01*
X17210647Y49621389D01*
X17367233Y49688934D01*
X17501453Y49788858D01*
X17566981Y49813101D01*
X17635214Y49798069D01*
X17684489Y49748533D01*
X17699500Y49689394D01*
X17699500Y47947016D01*
X17679815Y47879977D01*
X17627011Y47834222D01*
X17557853Y47824278D01*
X17494297Y47853303D01*
X17493273Y47854200D01*
X17403141Y47934050D01*
X17251654Y48013557D01*
X17251653Y48013558D01*
X17251650Y48013559D01*
X17085543Y48054500D01*
X17085542Y48054500D01*
X16914458Y48054500D01*
X16914457Y48054500D01*
X16748349Y48013559D01*
X16596859Y47934050D01*
X16468800Y47820601D01*
X16371616Y47679804D01*
X16371615Y47679803D01*
X16310948Y47519840D01*
X16310947Y47519835D01*
X16295500Y47392614D01*
X16295500Y46407387D01*
X16310947Y46280166D01*
X16310948Y46280161D01*
X16371615Y46120198D01*
X16412821Y46060500D01*
X16468799Y45979401D01*
X16468801Y45979399D01*
X16596859Y45865950D01*
X16748346Y45786443D01*
X16748348Y45786443D01*
X16748349Y45786442D01*
X16914457Y45745500D01*
X16914458Y45745500D01*
X17085543Y45745500D01*
X17251650Y45786442D01*
X17251650Y45786443D01*
X17251654Y45786443D01*
X17403141Y45865950D01*
X17531199Y45979399D01*
X17543053Y45996574D01*
X17597335Y46040564D01*
X17666783Y46048225D01*
X17729349Y46017123D01*
X17758754Y45972706D01*
X17759217Y45972934D01*
X17761005Y45969306D01*
X17761767Y45968155D01*
X17762294Y45966690D01*
X17781047Y45937441D01*
X17843170Y45840545D01*
X17950085Y45735562D01*
X18077680Y45657003D01*
X18219557Y45608805D01*
X18241801Y45606505D01*
X18249642Y45605181D01*
X18255238Y45603863D01*
X18255247Y45603859D01*
X18292187Y45601112D01*
X18298343Y45600654D01*
X18307575Y45599699D01*
X18341421Y45596197D01*
X18341429Y45596199D01*
X18347199Y45596511D01*
X18355147Y45596431D01*
X18370558Y45595284D01*
X18505098Y45615639D01*
X18631736Y45665421D01*
X18744120Y45742135D01*
X18836617Y45841934D01*
X18891688Y45937441D01*
X18942228Y45985684D01*
X18999109Y45999500D01*
X26240889Y45999500D01*
X26307928Y45979815D01*
X26348310Y45937441D01*
X26403378Y45841938D01*
X26403380Y45841936D01*
X26403381Y45841934D01*
X26495877Y45742135D01*
X26608263Y45665420D01*
X26695480Y45631134D01*
X26734895Y45615639D01*
X26734901Y45615637D01*
X26869441Y45595282D01*
X26884860Y45596430D01*
X26892810Y45596510D01*
X26898570Y45596199D01*
X26898579Y45596197D01*
X26941620Y45600651D01*
X26984753Y45603858D01*
X26984762Y45603863D01*
X26990377Y45605184D01*
X26998207Y45606506D01*
X27020443Y45608806D01*
X27162320Y45657004D01*
X27289915Y45735563D01*
X27396829Y45840545D01*
X27477702Y45966686D01*
X27478229Y45968151D01*
X27478824Y45968965D01*
X27480781Y45972934D01*
X27481475Y45972592D01*
X27519460Y46024553D01*
X27584643Y46049713D01*
X27653080Y46035637D01*
X27696944Y45996577D01*
X27708799Y45979401D01*
X27708801Y45979399D01*
X27836859Y45865950D01*
X27988346Y45786443D01*
X27988348Y45786443D01*
X27988349Y45786442D01*
X28154457Y45745500D01*
X28154458Y45745500D01*
X28325543Y45745500D01*
X28491650Y45786442D01*
X28491650Y45786443D01*
X28491654Y45786443D01*
X28643141Y45865950D01*
X28771199Y45979399D01*
X28868385Y46120198D01*
X28929052Y46280164D01*
X28944500Y46407389D01*
X28944500Y47392611D01*
X28929052Y47519836D01*
X28929051Y47519838D01*
X28929051Y47519840D01*
X28890913Y47620401D01*
X28868385Y47679802D01*
X28771199Y47820601D01*
X28643141Y47934050D01*
X28491654Y48013557D01*
X28491653Y48013558D01*
X28491650Y48013559D01*
X28325543Y48054500D01*
X28325542Y48054500D01*
X28154458Y48054500D01*
X28154457Y48054500D01*
X27988349Y48013559D01*
X27861563Y47947016D01*
X27836859Y47934050D01*
X27752711Y47859501D01*
X27746727Y47854200D01*
X27683494Y47824479D01*
X27614230Y47833663D01*
X27560927Y47878835D01*
X27540507Y47945654D01*
X27540500Y47947016D01*
X27540500Y49694557D01*
X27560185Y49761596D01*
X27612989Y49807351D01*
X27682147Y49817295D01*
X27745703Y49788270D01*
X27749565Y49784778D01*
X27801407Y49735868D01*
X27949093Y49650601D01*
X28112461Y49601692D01*
X28225957Y49595082D01*
X28282703Y49591777D01*
X28282703Y49591778D01*
X28282705Y49591777D01*
X28450647Y49621389D01*
X28607233Y49688934D01*
X28744021Y49790769D01*
X28853637Y49921404D01*
X28930172Y50073798D01*
X28969500Y50239734D01*
X28969500Y51517486D01*
X28954668Y51644380D01*
X28896343Y51804628D01*
X28802634Y51947106D01*
X28762142Y51985308D01*
X28726890Y52045629D01*
X28729845Y52115436D01*
X28770072Y52172564D01*
X28834798Y52198874D01*
X28847238Y52199500D01*
X42952405Y52199500D01*
X42997786Y52199500D01*
X43002208Y52199343D01*
X43233020Y52182835D01*
X43250529Y52180317D01*
X43470144Y52132542D01*
X43487103Y52127563D01*
X43697694Y52049017D01*
X43713777Y52041673D01*
X43886961Y51947106D01*
X43911036Y51933960D01*
X43925919Y51924395D01*
X44105836Y51789711D01*
X44119207Y51778125D01*
X44278124Y51619208D01*
X44289710Y51605837D01*
X44424394Y51425920D01*
X44433959Y51411037D01*
X44541669Y51213783D01*
X44549019Y51197689D01*
X44627559Y50987113D01*
X44632543Y50970138D01*
X44680316Y50750530D01*
X44682834Y50733018D01*
X44699342Y50502211D01*
X44699500Y50497787D01*
X44699500Y2002214D01*
X44699342Y1997790D01*
X44682834Y1766983D01*
X44680316Y1749471D01*
X44632543Y1529863D01*
X44627559Y1512888D01*
X44549019Y1302312D01*
X44541669Y1286218D01*
X44433959Y1088964D01*
X44424394Y1074081D01*
X44289710Y894164D01*
X44278124Y880793D01*
X44119207Y721876D01*
X44105836Y710290D01*
X43925919Y575606D01*
X43911036Y566041D01*
X43713782Y458331D01*
X43697688Y450981D01*
X43487112Y372441D01*
X43470137Y367457D01*
X43250529Y319684D01*
X43233017Y317166D01*
X43019172Y301872D01*
X43002208Y300658D01*
X42997786Y300500D01*
X26003049Y300500D01*
X25996968Y300799D01*
X25875688Y312744D01*
X25851848Y317486D01*
X25743997Y350202D01*
X25721541Y359504D01*
X25622150Y412630D01*
X25601940Y426134D01*
X25514820Y497631D01*
X25497630Y514821D01*
X25426133Y601941D01*
X25412629Y622151D01*
X25373441Y695466D01*
X25359501Y721547D01*
X25350201Y743998D01*
X25330881Y807689D01*
X25317483Y851855D01*
X25312744Y875683D01*
X25300799Y996969D01*
X25300500Y1003049D01*
X25300500Y1602352D01*
X25268477Y1804535D01*
X25237327Y1900404D01*
X25205220Y1999219D01*
X25205218Y1999222D01*
X25205218Y1999224D01*
X25139278Y2128637D01*
X25126382Y2197306D01*
X25152658Y2262047D01*
X25209765Y2302304D01*
X25233575Y2307870D01*
X25257806Y2311060D01*
X25404858Y2371970D01*
X25531134Y2468866D01*
X25628030Y2595142D01*
X25688940Y2742194D01*
X25709716Y2900000D01*
X25709277Y2903331D01*
X25707298Y2918360D01*
X25688940Y3057806D01*
X25628030Y3204858D01*
X25531134Y3331134D01*
X25404858Y3428030D01*
X25404857Y3428031D01*
X25404855Y3428032D01*
X25257809Y3488939D01*
X25257807Y3488940D01*
X25257806Y3488940D01*
X25257804Y3488941D01*
X25249956Y3491043D01*
X25250618Y3493516D01*
X25198398Y3516630D01*
X25159939Y3574963D01*
X25154500Y3611286D01*
X25154500Y4248914D01*
X25174185Y4315953D01*
X25203010Y4347287D01*
X25231134Y4368866D01*
X25328030Y4495142D01*
X25388940Y4642194D01*
X25409716Y4800000D01*
X25408454Y4809582D01*
X25400241Y4871969D01*
X25388940Y4957806D01*
X25348333Y5055841D01*
X25328031Y5104856D01*
X25328030Y5104857D01*
X25328030Y5104858D01*
X25231134Y5231134D01*
X25104858Y5328030D01*
X25104857Y5328031D01*
X25104855Y5328032D01*
X24957809Y5388939D01*
X24957807Y5388940D01*
X24957806Y5388940D01*
X24835540Y5405037D01*
X24800001Y5409716D01*
X24799999Y5409716D01*
X24642194Y5388940D01*
X24642190Y5388939D01*
X24495144Y5328032D01*
X24368866Y5231134D01*
X24271968Y5104856D01*
X24211061Y4957810D01*
X24211060Y4957806D01*
X24191546Y4809582D01*
X24190284Y4800000D01*
X24202854Y4704520D01*
X24211060Y4642195D01*
X24211061Y4642191D01*
X24271968Y4495145D01*
X24271969Y4495143D01*
X24271970Y4495142D01*
X24368866Y4368866D01*
X24396987Y4347288D01*
X24438188Y4290864D01*
X24445500Y4248914D01*
X24445500Y3249627D01*
X24442861Y3224183D01*
X24440905Y3214855D01*
X24440905Y3214851D01*
X24445023Y3181811D01*
X24445500Y3174135D01*
X24445500Y3170623D01*
X24445997Y3167645D01*
X24449128Y3148878D01*
X24455539Y3097445D01*
X24457655Y3090338D01*
X24460069Y3083305D01*
X24466204Y3071969D01*
X24484739Y3037719D01*
X24486979Y3033138D01*
X24498731Y2964264D01*
X24498512Y2962504D01*
X24490284Y2900003D01*
X24490284Y2900000D01*
X24491022Y2894392D01*
X24480253Y2825357D01*
X24433872Y2773103D01*
X24366602Y2754220D01*
X24329764Y2760280D01*
X24304537Y2768477D01*
X24152897Y2792495D01*
X24102352Y2800500D01*
X24056173Y2800500D01*
X21047595Y2800500D01*
X21000000Y2800500D01*
X20897648Y2800500D01*
X20873329Y2796649D01*
X20695465Y2768478D01*
X20500776Y2705219D01*
X20318386Y2612285D01*
X20152786Y2491972D01*
X20008028Y2347214D01*
X19887715Y2181614D01*
X19794781Y1999224D01*
X19731522Y1804535D01*
X19699500Y1602352D01*
X19699500Y1003049D01*
X19699201Y996968D01*
X19687256Y875689D01*
X19682514Y851849D01*
X19649798Y743998D01*
X19640495Y721539D01*
X19587370Y622151D01*
X19573866Y601941D01*
X19502369Y514821D01*
X19485179Y497631D01*
X19398059Y426134D01*
X19377849Y412630D01*
X19278461Y359505D01*
X19256002Y350202D01*
X19148151Y317486D01*
X19124311Y312744D01*
X19003032Y300799D01*
X18996951Y300500D01*
X2002214Y300500D01*
X1997791Y300658D01*
X1979142Y301992D01*
X1766982Y317166D01*
X1749470Y319684D01*
X1529862Y367457D01*
X1512887Y372441D01*
X1302311Y450981D01*
X1286217Y458331D01*
X1088963Y566041D01*
X1074080Y575606D01*
X894163Y710290D01*
X880792Y721876D01*
X721875Y880793D01*
X710289Y894164D01*
X575605Y1074081D01*
X566040Y1088964D01*
X458330Y1286218D01*
X450983Y1302306D01*
X372437Y1512897D01*
X367458Y1529856D01*
X319683Y1749471D01*
X317165Y1766983D01*
X317030Y1768866D01*
X300657Y1997792D01*
X300500Y2002214D01*
X300500Y2075480D01*
X5565618Y2075480D01*
X5579875Y1994621D01*
X5596489Y1900401D01*
X5613552Y1860845D01*
X5666904Y1737161D01*
X5741870Y1636466D01*
X5773067Y1594561D01*
X5909254Y1480286D01*
X5987990Y1440743D01*
X6068118Y1400501D01*
X6068119Y1400501D01*
X6068123Y1400499D01*
X6241110Y1359500D01*
X6241113Y1359500D01*
X6374285Y1359500D01*
X6374292Y1359500D01*
X6506577Y1374962D01*
X6673635Y1435766D01*
X6822168Y1533457D01*
X6944167Y1662769D01*
X7033057Y1816731D01*
X7084045Y1987042D01*
X7089131Y2074372D01*
X7112680Y2140151D01*
X7168055Y2182759D01*
X7237674Y2188664D01*
X7256491Y2183253D01*
X7265976Y2179693D01*
X7321345Y2169645D01*
X7487450Y2139500D01*
X7487453Y2139500D01*
X7656148Y2139500D01*
X7656155Y2139500D01*
X7824188Y2154623D01*
X7948770Y2189006D01*
X8018627Y2187867D01*
X8076782Y2149139D01*
X8104766Y2085118D01*
X8105546Y2076698D01*
X8105616Y2075489D01*
X8121211Y1987042D01*
X8136489Y1900401D01*
X8153552Y1860845D01*
X8206904Y1737161D01*
X8281870Y1636466D01*
X8313067Y1594561D01*
X8449254Y1480286D01*
X8527990Y1440743D01*
X8608118Y1400501D01*
X8608119Y1400501D01*
X8608123Y1400499D01*
X8781110Y1359500D01*
X8781113Y1359500D01*
X8914285Y1359500D01*
X8914292Y1359500D01*
X9046577Y1374962D01*
X9213635Y1435766D01*
X9362168Y1533457D01*
X9484167Y1662769D01*
X9573057Y1816731D01*
X9624045Y1987042D01*
X9634382Y2164520D01*
X9603511Y2339599D01*
X9533096Y2502838D01*
X9531592Y2504858D01*
X9426932Y2645440D01*
X9290746Y2759714D01*
X9290744Y2759715D01*
X9131881Y2839500D01*
X9109561Y2844790D01*
X8958890Y2880500D01*
X8921860Y2880500D01*
X8854821Y2900185D01*
X8809066Y2952989D01*
X8799122Y3022147D01*
X8800969Y3032092D01*
X8817470Y3104391D01*
X8844191Y3221463D01*
X8854290Y3446330D01*
X8824075Y3669387D01*
X8802007Y3737303D01*
X8800013Y3807141D01*
X8836093Y3866974D01*
X8898793Y3897803D01*
X8912725Y3899409D01*
X8914284Y3899500D01*
X8914292Y3899500D01*
X9046577Y3914962D01*
X9213635Y3975766D01*
X9362168Y4073457D01*
X9484167Y4202769D01*
X9573057Y4356731D01*
X9624045Y4527042D01*
X9634382Y4704520D01*
X9603511Y4879599D01*
X9533096Y5042838D01*
X9426933Y5185439D01*
X9354112Y5246543D01*
X9290746Y5299714D01*
X9290744Y5299715D01*
X9131881Y5379500D01*
X9131877Y5379501D01*
X8958890Y5420500D01*
X8825708Y5420500D01*
X8709958Y5406971D01*
X8693422Y5405038D01*
X8693419Y5405037D01*
X8526367Y5344236D01*
X8458675Y5299714D01*
X8377832Y5246543D01*
X8377831Y5246543D01*
X8377831Y5246542D01*
X8255833Y5117233D01*
X8166944Y4963272D01*
X8166943Y4963270D01*
X8166943Y4963269D01*
X8154000Y4920038D01*
X8115955Y4792959D01*
X8115954Y4792954D01*
X8110868Y4705630D01*
X8087318Y4639849D01*
X8031943Y4597242D01*
X7962323Y4591337D01*
X7943507Y4596748D01*
X7934022Y4600308D01*
X7712550Y4640500D01*
X7712547Y4640500D01*
X7543845Y4640500D01*
X7510434Y4637493D01*
X7375813Y4625378D01*
X7375807Y4625377D01*
X7251231Y4590995D01*
X7181370Y4592135D01*
X7123217Y4630863D01*
X7095233Y4694884D01*
X7094452Y4703317D01*
X7094381Y4704512D01*
X7094382Y4704520D01*
X7063511Y4879599D01*
X6993096Y5042838D01*
X6886933Y5185439D01*
X6814112Y5246543D01*
X6750746Y5299714D01*
X6750744Y5299715D01*
X6591881Y5379500D01*
X6591877Y5379501D01*
X6418890Y5420500D01*
X6285708Y5420500D01*
X6169958Y5406971D01*
X6153422Y5405038D01*
X6153419Y5405037D01*
X5986367Y5344236D01*
X5918675Y5299714D01*
X5837832Y5246543D01*
X5837831Y5246543D01*
X5837831Y5246542D01*
X5715833Y5117233D01*
X5626944Y4963272D01*
X5626943Y4963270D01*
X5626943Y4963269D01*
X5614000Y4920038D01*
X5575955Y4792959D01*
X5575954Y4792954D01*
X5565618Y4615481D01*
X5565618Y4615480D01*
X5596488Y4440404D01*
X5666904Y4277161D01*
X5724349Y4200000D01*
X5773067Y4134561D01*
X5909254Y4020286D01*
X5987990Y3980743D01*
X6068118Y3940501D01*
X6068119Y3940501D01*
X6068123Y3940499D01*
X6241110Y3899500D01*
X6241113Y3899500D01*
X6278140Y3899500D01*
X6345179Y3879815D01*
X6390934Y3827011D01*
X6400878Y3757853D01*
X6399031Y3747908D01*
X6355810Y3558543D01*
X6355808Y3558532D01*
X6345880Y3337463D01*
X6345710Y3333670D01*
X6375925Y3110613D01*
X6375926Y3110609D01*
X6397991Y3042700D01*
X6399986Y2972859D01*
X6363906Y2913026D01*
X6301205Y2882198D01*
X6287299Y2880594D01*
X6285737Y2880503D01*
X6285711Y2880500D01*
X6285708Y2880500D01*
X6197775Y2870222D01*
X6153422Y2865038D01*
X6153419Y2865037D01*
X5986367Y2804236D01*
X5887343Y2739107D01*
X5837832Y2706543D01*
X5837831Y2706543D01*
X5837831Y2706542D01*
X5715833Y2577233D01*
X5626944Y2423272D01*
X5575955Y2252959D01*
X5575954Y2252954D01*
X5565618Y2075481D01*
X5565618Y2075480D01*
X300500Y2075480D01*
X300500Y7155480D01*
X5565618Y7155480D01*
X5576256Y7095145D01*
X5596489Y6980401D01*
X5601465Y6968866D01*
X5666904Y6817161D01*
X5751394Y6703673D01*
X5773067Y6674561D01*
X5909254Y6560286D01*
X5987990Y6520743D01*
X6068118Y6480501D01*
X6068119Y6480501D01*
X6068123Y6480499D01*
X6241110Y6439500D01*
X6241113Y6439500D01*
X6374285Y6439500D01*
X6374292Y6439500D01*
X6506577Y6454962D01*
X6673635Y6515766D01*
X6822168Y6613457D01*
X6944167Y6742769D01*
X7033057Y6896731D01*
X7084045Y7067042D01*
X7089196Y7155480D01*
X8105618Y7155480D01*
X8116256Y7095145D01*
X8136489Y6980401D01*
X8141465Y6968866D01*
X8206904Y6817161D01*
X8291394Y6703673D01*
X8313067Y6674561D01*
X8449254Y6560286D01*
X8527990Y6520743D01*
X8608118Y6480501D01*
X8608119Y6480501D01*
X8608123Y6480499D01*
X8781110Y6439500D01*
X8781113Y6439500D01*
X8914285Y6439500D01*
X8914292Y6439500D01*
X9046577Y6454962D01*
X9213635Y6515766D01*
X9362168Y6613457D01*
X9484167Y6742769D01*
X9517209Y6800000D01*
X15990284Y6800000D01*
X16011060Y6642195D01*
X16011061Y6642191D01*
X16071968Y6495145D01*
X16071969Y6495143D01*
X16071970Y6495142D01*
X16168866Y6368866D01*
X16295142Y6271970D01*
X16442194Y6211060D01*
X16581640Y6192702D01*
X16599999Y6190284D01*
X16600000Y6190284D01*
X16600001Y6190284D01*
X16616446Y6192450D01*
X16757806Y6211060D01*
X16904858Y6271970D01*
X17031134Y6368866D01*
X17128030Y6495142D01*
X17188940Y6642194D01*
X17209716Y6800000D01*
X17188940Y6957806D01*
X17128030Y7104858D01*
X17128029Y7104859D01*
X17128029Y7104860D01*
X17031133Y7231135D01*
X16993012Y7260387D01*
X16951810Y7316816D01*
X16944500Y7358762D01*
X16944500Y12677757D01*
X16964185Y12744796D01*
X17016989Y12790551D01*
X17052311Y12800695D01*
X17131040Y12811060D01*
X17278092Y12871970D01*
X17404368Y12968866D01*
X17501264Y13095142D01*
X17562174Y13242194D01*
X17582950Y13400000D01*
X17562174Y13557806D01*
X17501264Y13704858D01*
X17404368Y13831134D01*
X17278092Y13928030D01*
X17278091Y13928031D01*
X17278089Y13928032D01*
X17131043Y13988939D01*
X17131041Y13988940D01*
X17131040Y13988940D01*
X17052137Y13999328D01*
X16973235Y14009716D01*
X16973233Y14009716D01*
X16815428Y13988940D01*
X16815424Y13988939D01*
X16668378Y13928032D01*
X16542100Y13831134D01*
X16445202Y13704856D01*
X16384295Y13557810D01*
X16384294Y13557806D01*
X16363518Y13400001D01*
X16363518Y13399998D01*
X16369096Y13357624D01*
X16358330Y13288589D01*
X16337334Y13261329D01*
X16339000Y13259931D01*
X16332025Y13251620D01*
X16310533Y13214394D01*
X16307627Y13209832D01*
X16282960Y13174603D01*
X16281794Y13172103D01*
X16272233Y13149023D01*
X16271281Y13146406D01*
X16263814Y13104062D01*
X16262643Y13098781D01*
X16251516Y13057255D01*
X16255264Y13014427D01*
X16255500Y13009020D01*
X16255500Y7358762D01*
X16235815Y7291723D01*
X16206988Y7260387D01*
X16168866Y7231135D01*
X16071970Y7104860D01*
X16071969Y7104857D01*
X16011061Y6957810D01*
X16011060Y6957806D01*
X15990284Y6800001D01*
X15990284Y6800000D01*
X9517209Y6800000D01*
X9573057Y6896731D01*
X9624045Y7067042D01*
X9634382Y7244520D01*
X9603511Y7419599D01*
X9533096Y7582838D01*
X9426933Y7725439D01*
X9354112Y7786543D01*
X9290746Y7839714D01*
X9290744Y7839715D01*
X9131881Y7919500D01*
X9131877Y7919501D01*
X8958890Y7960500D01*
X8825708Y7960500D01*
X8709958Y7946971D01*
X8693422Y7945038D01*
X8693419Y7945037D01*
X8526367Y7884236D01*
X8458675Y7839714D01*
X8377832Y7786543D01*
X8377831Y7786543D01*
X8377831Y7786542D01*
X8255833Y7657233D01*
X8166944Y7503272D01*
X8115955Y7332959D01*
X8115954Y7332954D01*
X8105618Y7155481D01*
X8105618Y7155480D01*
X7089196Y7155480D01*
X7094382Y7244520D01*
X7063511Y7419599D01*
X6993096Y7582838D01*
X6886933Y7725439D01*
X6814112Y7786543D01*
X6750746Y7839714D01*
X6750744Y7839715D01*
X6591881Y7919500D01*
X6591877Y7919501D01*
X6418890Y7960500D01*
X6285708Y7960500D01*
X6169958Y7946971D01*
X6153422Y7945038D01*
X6153419Y7945037D01*
X5986367Y7884236D01*
X5918675Y7839714D01*
X5837832Y7786543D01*
X5837831Y7786543D01*
X5837831Y7786542D01*
X5715833Y7657233D01*
X5626944Y7503272D01*
X5575955Y7332959D01*
X5575954Y7332954D01*
X5565618Y7155481D01*
X5565618Y7155480D01*
X300500Y7155480D01*
X300500Y9695480D01*
X5565618Y9695480D01*
X5596488Y9520404D01*
X5666904Y9357161D01*
X5740912Y9257752D01*
X5773067Y9214561D01*
X5909254Y9100286D01*
X5987990Y9060743D01*
X6068118Y9020501D01*
X6068119Y9020501D01*
X6068123Y9020499D01*
X6241110Y8979500D01*
X6241113Y8979500D01*
X6374285Y8979500D01*
X6374292Y8979500D01*
X6506577Y8994962D01*
X6673635Y9055766D01*
X6822168Y9153457D01*
X6944167Y9282769D01*
X7033057Y9436731D01*
X7084045Y9607042D01*
X7089196Y9695480D01*
X8105618Y9695480D01*
X8136488Y9520404D01*
X8206904Y9357161D01*
X8280912Y9257752D01*
X8313067Y9214561D01*
X8449254Y9100286D01*
X8527990Y9060743D01*
X8608118Y9020501D01*
X8608119Y9020501D01*
X8608123Y9020499D01*
X8781110Y8979500D01*
X8781113Y8979500D01*
X8914285Y8979500D01*
X8914292Y8979500D01*
X9046577Y8994962D01*
X9213635Y9055766D01*
X9362168Y9153457D01*
X9484167Y9282769D01*
X9573057Y9436731D01*
X9624045Y9607042D01*
X9634382Y9784520D01*
X9603511Y9959599D01*
X9533096Y10122838D01*
X9426933Y10265439D01*
X9354112Y10326543D01*
X9290746Y10379714D01*
X9290744Y10379715D01*
X9131881Y10459500D01*
X9131877Y10459501D01*
X8958890Y10500500D01*
X8825708Y10500500D01*
X8709958Y10486971D01*
X8693422Y10485038D01*
X8693419Y10485037D01*
X8526367Y10424236D01*
X8427343Y10359107D01*
X8377832Y10326543D01*
X8377831Y10326543D01*
X8377831Y10326542D01*
X8255833Y10197233D01*
X8166944Y10043272D01*
X8115955Y9872959D01*
X8115954Y9872954D01*
X8105618Y9695481D01*
X8105618Y9695480D01*
X7089196Y9695480D01*
X7094382Y9784520D01*
X7063511Y9959599D01*
X6993096Y10122838D01*
X6886933Y10265439D01*
X6814112Y10326543D01*
X6750746Y10379714D01*
X6750744Y10379715D01*
X6591881Y10459500D01*
X6591877Y10459501D01*
X6418890Y10500500D01*
X6285708Y10500500D01*
X6169958Y10486971D01*
X6153422Y10485038D01*
X6153419Y10485037D01*
X5986367Y10424236D01*
X5887343Y10359107D01*
X5837832Y10326543D01*
X5837831Y10326543D01*
X5837831Y10326542D01*
X5715833Y10197233D01*
X5626944Y10043272D01*
X5575955Y9872959D01*
X5575954Y9872954D01*
X5565618Y9695481D01*
X5565618Y9695480D01*
X300500Y9695480D01*
X300500Y12235480D01*
X5565618Y12235480D01*
X5596488Y12060404D01*
X5666904Y11897161D01*
X5762103Y11769288D01*
X5773067Y11754561D01*
X5909254Y11640286D01*
X5987990Y11600743D01*
X6068118Y11560501D01*
X6068119Y11560501D01*
X6068123Y11560499D01*
X6241110Y11519500D01*
X6241113Y11519500D01*
X6374285Y11519500D01*
X6374292Y11519500D01*
X6506577Y11534962D01*
X6673635Y11595766D01*
X6822168Y11693457D01*
X6944167Y11822769D01*
X7033057Y11976731D01*
X7084045Y12147042D01*
X7089196Y12235480D01*
X8105618Y12235480D01*
X8136488Y12060404D01*
X8206904Y11897161D01*
X8302103Y11769288D01*
X8313067Y11754561D01*
X8449254Y11640286D01*
X8527990Y11600743D01*
X8608118Y11560501D01*
X8608119Y11560501D01*
X8608123Y11560499D01*
X8781110Y11519500D01*
X8781113Y11519500D01*
X8914285Y11519500D01*
X8914292Y11519500D01*
X9046577Y11534962D01*
X9213635Y11595766D01*
X9362168Y11693457D01*
X9484167Y11822769D01*
X9573057Y11976731D01*
X9624045Y12147042D01*
X9634382Y12324520D01*
X9603511Y12499599D01*
X9533096Y12662838D01*
X9521989Y12677757D01*
X9438903Y12789360D01*
X9426933Y12805439D01*
X9421335Y12810136D01*
X9290746Y12919714D01*
X9290744Y12919715D01*
X9131881Y12999500D01*
X9131877Y12999501D01*
X8958890Y13040500D01*
X8825708Y13040500D01*
X8709958Y13026971D01*
X8693422Y13025038D01*
X8693419Y13025037D01*
X8526367Y12964236D01*
X8458675Y12919714D01*
X8377832Y12866543D01*
X8377831Y12866543D01*
X8377831Y12866542D01*
X8255833Y12737233D01*
X8166944Y12583272D01*
X8115955Y12412959D01*
X8115954Y12412954D01*
X8105618Y12235481D01*
X8105618Y12235480D01*
X7089196Y12235480D01*
X7094382Y12324520D01*
X7063511Y12499599D01*
X6993096Y12662838D01*
X6981989Y12677757D01*
X6898903Y12789360D01*
X6886933Y12805439D01*
X6881335Y12810136D01*
X6750746Y12919714D01*
X6750744Y12919715D01*
X6592719Y12999079D01*
X6592051Y12999703D01*
X6588345Y13000338D01*
X6418890Y13040500D01*
X6285708Y13040500D01*
X6169958Y13026971D01*
X6153422Y13025038D01*
X6153419Y13025037D01*
X5986367Y12964236D01*
X5918675Y12919714D01*
X5837832Y12866543D01*
X5837831Y12866543D01*
X5837831Y12866542D01*
X5715833Y12737233D01*
X5626944Y12583272D01*
X5575955Y12412959D01*
X5575954Y12412954D01*
X5565618Y12235481D01*
X5565618Y12235480D01*
X300500Y12235480D01*
X300500Y24000000D01*
X4990284Y24000000D01*
X5011060Y23842195D01*
X5011061Y23842191D01*
X5071968Y23695145D01*
X5071969Y23695143D01*
X5071970Y23695142D01*
X5168866Y23568866D01*
X5295142Y23471970D01*
X5295143Y23471970D01*
X5295144Y23471969D01*
X5344159Y23451667D01*
X5442194Y23411060D01*
X5581640Y23392702D01*
X5599999Y23390284D01*
X5600000Y23390284D01*
X5600001Y23390284D01*
X5616446Y23392450D01*
X5757806Y23411060D01*
X5904721Y23471914D01*
X5974188Y23479382D01*
X6036667Y23448107D01*
X6039852Y23445033D01*
X6123142Y23361743D01*
X6156627Y23300420D01*
X6151643Y23230728D01*
X6109771Y23174795D01*
X6077872Y23157540D01*
X5986366Y23124235D01*
X5918677Y23079715D01*
X5837832Y23026543D01*
X5837831Y23026543D01*
X5837831Y23026542D01*
X5715833Y22897233D01*
X5626944Y22743272D01*
X5575955Y22572959D01*
X5575954Y22572954D01*
X5565618Y22395481D01*
X5565618Y22395480D01*
X5596488Y22220404D01*
X5666904Y22057161D01*
X5768328Y21920927D01*
X5773067Y21914561D01*
X5909254Y21800286D01*
X5961522Y21774036D01*
X6068118Y21720501D01*
X6068119Y21720501D01*
X6068123Y21720499D01*
X6241110Y21679500D01*
X6241113Y21679500D01*
X6374285Y21679500D01*
X6374292Y21679500D01*
X6506577Y21694962D01*
X6673635Y21755766D01*
X6822168Y21853457D01*
X6841305Y21873743D01*
X6901627Y21908997D01*
X6971434Y21906043D01*
X7028563Y21865817D01*
X7054874Y21801091D01*
X7055500Y21788649D01*
X7055500Y20549914D01*
X7035815Y20482875D01*
X6983011Y20437120D01*
X6913853Y20427176D01*
X6851794Y20454924D01*
X6750746Y20539714D01*
X6722422Y20553939D01*
X6591881Y20619500D01*
X6581455Y20621971D01*
X6418890Y20660500D01*
X6285708Y20660500D01*
X6169958Y20646971D01*
X6153422Y20645038D01*
X6153419Y20645037D01*
X5986367Y20584236D01*
X5918675Y20539714D01*
X5837832Y20486543D01*
X5837831Y20486543D01*
X5837831Y20486542D01*
X5715833Y20357233D01*
X5626944Y20203272D01*
X5575955Y20032959D01*
X5575954Y20032954D01*
X5565618Y19855481D01*
X5565618Y19855480D01*
X5596488Y19680404D01*
X5666904Y19517161D01*
X5751393Y19403674D01*
X5773067Y19374561D01*
X5909254Y19260286D01*
X5987990Y19220743D01*
X6068118Y19180501D01*
X6068119Y19180501D01*
X6068123Y19180499D01*
X6241110Y19139500D01*
X6241113Y19139500D01*
X6374285Y19139500D01*
X6374292Y19139500D01*
X6506577Y19154962D01*
X6673635Y19215766D01*
X6822168Y19313457D01*
X6841305Y19333743D01*
X6901627Y19368997D01*
X6971434Y19366043D01*
X7028563Y19325817D01*
X7054874Y19261091D01*
X7055500Y19248649D01*
X7055500Y18009914D01*
X7035815Y17942875D01*
X6983011Y17897120D01*
X6913853Y17887176D01*
X6851794Y17914924D01*
X6845927Y17919847D01*
X6750746Y17999714D01*
X6730267Y18009999D01*
X6591881Y18079500D01*
X6591877Y18079501D01*
X6418890Y18120500D01*
X6285708Y18120500D01*
X6169958Y18106971D01*
X6153422Y18105038D01*
X6153419Y18105037D01*
X5986367Y18044236D01*
X5918675Y17999714D01*
X5837832Y17946543D01*
X5837831Y17946543D01*
X5837831Y17946542D01*
X5715833Y17817233D01*
X5626944Y17663272D01*
X5575955Y17492959D01*
X5575954Y17492954D01*
X5565618Y17315481D01*
X5565618Y17315480D01*
X5595224Y17147572D01*
X5596489Y17140401D01*
X5610152Y17108728D01*
X5666904Y16977161D01*
X5745217Y16871970D01*
X5773067Y16834561D01*
X5909254Y16720286D01*
X5987990Y16680743D01*
X6068118Y16640501D01*
X6068119Y16640501D01*
X6068123Y16640499D01*
X6241110Y16599500D01*
X6241113Y16599500D01*
X6374285Y16599500D01*
X6374292Y16599500D01*
X6506577Y16614962D01*
X6673635Y16675766D01*
X6822168Y16773457D01*
X6841305Y16793743D01*
X6901627Y16828997D01*
X6971434Y16826043D01*
X7028563Y16785817D01*
X7054874Y16721091D01*
X7055500Y16708649D01*
X7055500Y15469914D01*
X7035815Y15402875D01*
X6983011Y15357120D01*
X6913853Y15347176D01*
X6851794Y15374924D01*
X6750746Y15459714D01*
X6730436Y15469914D01*
X6591881Y15539500D01*
X6591877Y15539501D01*
X6418890Y15580500D01*
X6285708Y15580500D01*
X6176104Y15567689D01*
X6153422Y15565038D01*
X6153419Y15565037D01*
X5986367Y15504236D01*
X5887343Y15439107D01*
X5837832Y15406543D01*
X5837831Y15406543D01*
X5837831Y15406542D01*
X5715833Y15277233D01*
X5626944Y15123272D01*
X5575955Y14952959D01*
X5575954Y14952954D01*
X5565618Y14775481D01*
X5565618Y14775480D01*
X5596488Y14600404D01*
X5666904Y14437161D01*
X5732621Y14348889D01*
X5773067Y14294561D01*
X5909254Y14180286D01*
X6068123Y14100499D01*
X6145496Y14082161D01*
X6206188Y14047547D01*
X6238532Y13985615D01*
X6239838Y13945319D01*
X6223340Y13820003D01*
X6223340Y13820000D01*
X6244116Y13662195D01*
X6244117Y13662191D01*
X6305024Y13515145D01*
X6305025Y13515143D01*
X6305026Y13515142D01*
X6401922Y13388866D01*
X6528198Y13291970D01*
X6528199Y13291970D01*
X6528200Y13291969D01*
X6664393Y13235557D01*
X6668942Y13231891D01*
X6669662Y13231796D01*
X6670548Y13231890D01*
X6672814Y13231381D01*
X6675249Y13231061D01*
X6675250Y13231060D01*
X6782739Y13216909D01*
X6833055Y13210284D01*
X6833056Y13210284D01*
X6833057Y13210284D01*
X6849502Y13212450D01*
X6990862Y13231060D01*
X7137914Y13291970D01*
X7264190Y13388866D01*
X7361086Y13515142D01*
X7421996Y13662194D01*
X7442772Y13820000D01*
X7436500Y13867640D01*
X7447265Y13936676D01*
X7471752Y13971501D01*
X7631068Y14130817D01*
X7635016Y14134435D01*
X7667973Y14162088D01*
X7689484Y14199348D01*
X7692371Y14203878D01*
X7717039Y14239106D01*
X7717040Y14239109D01*
X7718233Y14241667D01*
X7727754Y14264651D01*
X7728717Y14267299D01*
X7728717Y14267300D01*
X7728718Y14267301D01*
X7736188Y14309675D01*
X7737344Y14314888D01*
X7748483Y14356456D01*
X7744735Y14399289D01*
X7744500Y14404692D01*
X7744500Y14775480D01*
X8105618Y14775480D01*
X8136488Y14600404D01*
X8206904Y14437161D01*
X8272621Y14348889D01*
X8313067Y14294561D01*
X8449254Y14180286D01*
X8520436Y14144537D01*
X8608118Y14100501D01*
X8608119Y14100501D01*
X8608123Y14100499D01*
X8781110Y14059500D01*
X8781113Y14059500D01*
X8914285Y14059500D01*
X8914292Y14059500D01*
X9046577Y14074962D01*
X9213635Y14135766D01*
X9362168Y14233457D01*
X9484167Y14362769D01*
X9573057Y14516731D01*
X9624045Y14687042D01*
X9634382Y14864520D01*
X9603511Y15039599D01*
X9533096Y15202838D01*
X9528299Y15209281D01*
X9426932Y15345440D01*
X9290746Y15459714D01*
X9290744Y15459715D01*
X9131881Y15539500D01*
X9131877Y15539501D01*
X8958890Y15580500D01*
X8825708Y15580500D01*
X8716104Y15567689D01*
X8693422Y15565038D01*
X8693419Y15565037D01*
X8526367Y15504236D01*
X8427343Y15439107D01*
X8377832Y15406543D01*
X8377831Y15406543D01*
X8377831Y15406542D01*
X8255833Y15277233D01*
X8166944Y15123272D01*
X8115955Y14952959D01*
X8115954Y14952954D01*
X8105618Y14775481D01*
X8105618Y14775480D01*
X7744500Y14775480D01*
X7744500Y17315480D01*
X8105618Y17315480D01*
X8135224Y17147572D01*
X8136489Y17140401D01*
X8150152Y17108728D01*
X8206904Y16977161D01*
X8285217Y16871970D01*
X8313067Y16834561D01*
X8449254Y16720286D01*
X8527990Y16680743D01*
X8608118Y16640501D01*
X8608119Y16640501D01*
X8608123Y16640499D01*
X8781110Y16599500D01*
X8781113Y16599500D01*
X8914285Y16599500D01*
X8914292Y16599500D01*
X9046577Y16614962D01*
X9213635Y16675766D01*
X9362168Y16773457D01*
X9484167Y16902769D01*
X9573057Y17056731D01*
X9624045Y17227042D01*
X9634382Y17404520D01*
X9603511Y17579599D01*
X9533096Y17742838D01*
X9426933Y17885439D01*
X9415369Y17895142D01*
X9290746Y17999714D01*
X9290744Y17999715D01*
X9131881Y18079500D01*
X9131877Y18079501D01*
X8958890Y18120500D01*
X8825708Y18120500D01*
X8709958Y18106971D01*
X8693422Y18105038D01*
X8693419Y18105037D01*
X8526367Y18044236D01*
X8458675Y17999714D01*
X8377832Y17946543D01*
X8377831Y17946543D01*
X8377831Y17946542D01*
X8255833Y17817233D01*
X8166944Y17663272D01*
X8115955Y17492959D01*
X8115954Y17492954D01*
X8105618Y17315481D01*
X8105618Y17315480D01*
X7744500Y17315480D01*
X7744500Y19855480D01*
X8105618Y19855480D01*
X8136488Y19680404D01*
X8206904Y19517161D01*
X8291393Y19403674D01*
X8313067Y19374561D01*
X8449254Y19260286D01*
X8527990Y19220743D01*
X8608118Y19180501D01*
X8608119Y19180501D01*
X8608123Y19180499D01*
X8781110Y19139500D01*
X8781113Y19139500D01*
X8914285Y19139500D01*
X8914292Y19139500D01*
X9046577Y19154962D01*
X9213635Y19215766D01*
X9362168Y19313457D01*
X9484167Y19442769D01*
X9573057Y19596731D01*
X9624045Y19767042D01*
X9634382Y19944520D01*
X9603511Y20119599D01*
X9533096Y20282838D01*
X9426933Y20425439D01*
X9393361Y20453609D01*
X9290746Y20539714D01*
X9290744Y20539715D01*
X9131881Y20619500D01*
X9121455Y20621971D01*
X8958890Y20660500D01*
X8825708Y20660500D01*
X8709958Y20646971D01*
X8693422Y20645038D01*
X8693419Y20645037D01*
X8526367Y20584236D01*
X8458675Y20539714D01*
X8377832Y20486543D01*
X8377831Y20486543D01*
X8377831Y20486542D01*
X8255833Y20357233D01*
X8166944Y20203272D01*
X8115955Y20032959D01*
X8115954Y20032954D01*
X8105618Y19855481D01*
X8105618Y19855480D01*
X7744500Y19855480D01*
X7744500Y22395480D01*
X8105618Y22395480D01*
X8136488Y22220404D01*
X8206904Y22057161D01*
X8308328Y21920927D01*
X8313067Y21914561D01*
X8449254Y21800286D01*
X8501522Y21774036D01*
X8608118Y21720501D01*
X8608119Y21720501D01*
X8608123Y21720499D01*
X8781110Y21679500D01*
X8781113Y21679500D01*
X8914285Y21679500D01*
X8914292Y21679500D01*
X9046577Y21694962D01*
X9213635Y21755766D01*
X9362168Y21853457D01*
X9484167Y21982769D01*
X9573057Y22136731D01*
X9624045Y22307042D01*
X9634382Y22484520D01*
X9603511Y22659599D01*
X9533096Y22822838D01*
X9530511Y22826310D01*
X9463132Y22916816D01*
X9426933Y22965439D01*
X9354112Y23026543D01*
X9290746Y23079714D01*
X9290744Y23079715D01*
X9131881Y23159500D01*
X9131877Y23159501D01*
X8958890Y23200500D01*
X8825708Y23200500D01*
X8709958Y23186971D01*
X8693422Y23185038D01*
X8693419Y23185037D01*
X8526367Y23124236D01*
X8458675Y23079714D01*
X8377832Y23026543D01*
X8377831Y23026543D01*
X8377831Y23026542D01*
X8255833Y22897233D01*
X8166944Y22743272D01*
X8115955Y22572959D01*
X8115954Y22572954D01*
X8105618Y22395481D01*
X8105618Y22395480D01*
X7744500Y22395480D01*
X7744500Y22554336D01*
X7744736Y22559742D01*
X7747290Y22588939D01*
X7748483Y22602570D01*
X7737351Y22644111D01*
X7736184Y22649380D01*
X7728718Y22691725D01*
X7728715Y22691730D01*
X7727759Y22694359D01*
X7718223Y22717379D01*
X7717038Y22719922D01*
X7692375Y22755145D01*
X7689467Y22759708D01*
X7684180Y22768866D01*
X7667973Y22796938D01*
X7635035Y22824577D01*
X7631063Y22828216D01*
X6434963Y24024316D01*
X6401478Y24085639D01*
X6406462Y24155331D01*
X6448334Y24211264D01*
X6499899Y24231823D01*
X6499550Y24233297D01*
X6506566Y24234961D01*
X6506577Y24234962D01*
X6673635Y24295766D01*
X6822168Y24393457D01*
X6944167Y24522769D01*
X7033057Y24676731D01*
X7084045Y24847042D01*
X7089196Y24935480D01*
X8105618Y24935480D01*
X8136488Y24760404D01*
X8206904Y24597161D01*
X8275622Y24504858D01*
X8313067Y24454561D01*
X8449254Y24340286D01*
X8500401Y24314599D01*
X8608118Y24260501D01*
X8608119Y24260501D01*
X8608123Y24260499D01*
X8781110Y24219500D01*
X8781113Y24219500D01*
X8914285Y24219500D01*
X8914292Y24219500D01*
X9046577Y24234962D01*
X9213635Y24295766D01*
X9362168Y24393457D01*
X9484167Y24522769D01*
X9573057Y24676731D01*
X9624045Y24847042D01*
X9634382Y25024520D01*
X9603511Y25199599D01*
X9533096Y25362838D01*
X9528608Y25368866D01*
X9434599Y25495142D01*
X9426933Y25505439D01*
X9354112Y25566543D01*
X9290746Y25619714D01*
X9290744Y25619715D01*
X9131881Y25699500D01*
X9131877Y25699501D01*
X8958890Y25740500D01*
X8825708Y25740500D01*
X8709958Y25726971D01*
X8693422Y25725038D01*
X8693419Y25725037D01*
X8526367Y25664236D01*
X8458675Y25619714D01*
X8377832Y25566543D01*
X8377831Y25566543D01*
X8377831Y25566542D01*
X8255833Y25437233D01*
X8166944Y25283272D01*
X8115955Y25112959D01*
X8115954Y25112954D01*
X8105618Y24935481D01*
X8105618Y24935480D01*
X7089196Y24935480D01*
X7094382Y25024520D01*
X7063511Y25199599D01*
X6993096Y25362838D01*
X6988608Y25368866D01*
X6894599Y25495142D01*
X6886933Y25505439D01*
X6814112Y25566543D01*
X6750746Y25619714D01*
X6750744Y25619715D01*
X6591881Y25699500D01*
X6591877Y25699501D01*
X6418890Y25740500D01*
X6285708Y25740500D01*
X6169958Y25726971D01*
X6153422Y25725038D01*
X6153419Y25725037D01*
X5986367Y25664236D01*
X5918675Y25619714D01*
X5837832Y25566543D01*
X5837831Y25566543D01*
X5837831Y25566542D01*
X5715833Y25437233D01*
X5626944Y25283272D01*
X5575955Y25112959D01*
X5575954Y25112954D01*
X5565618Y24935481D01*
X5565618Y24935480D01*
X5596488Y24760402D01*
X5598260Y24754486D01*
X5598633Y24684618D01*
X5561172Y24625639D01*
X5497772Y24596276D01*
X5495658Y24595979D01*
X5442194Y24588940D01*
X5442190Y24588939D01*
X5295144Y24528032D01*
X5168866Y24431134D01*
X5071968Y24304856D01*
X5011061Y24157810D01*
X5011060Y24157806D01*
X4990284Y24000001D01*
X4990284Y24000000D01*
X300500Y24000000D01*
X300500Y27475480D01*
X5565618Y27475480D01*
X5596488Y27300404D01*
X5666904Y27137161D01*
X5769017Y27000001D01*
X5773067Y26994561D01*
X5909254Y26880286D01*
X5958900Y26855353D01*
X6068118Y26800501D01*
X6068119Y26800501D01*
X6068123Y26800499D01*
X6241110Y26759500D01*
X6241113Y26759500D01*
X6374285Y26759500D01*
X6374292Y26759500D01*
X6506577Y26774962D01*
X6673635Y26835766D01*
X6822168Y26933457D01*
X6944167Y27062769D01*
X7033057Y27216731D01*
X7084045Y27387042D01*
X7089196Y27475480D01*
X8105618Y27475480D01*
X8136488Y27300404D01*
X8206904Y27137161D01*
X8309017Y27000001D01*
X8313067Y26994561D01*
X8449254Y26880286D01*
X8498900Y26855353D01*
X8608118Y26800501D01*
X8608119Y26800501D01*
X8608123Y26800499D01*
X8781110Y26759500D01*
X8781113Y26759500D01*
X8914285Y26759500D01*
X8914292Y26759500D01*
X9046577Y26774962D01*
X9213635Y26835766D01*
X9362168Y26933457D01*
X9484167Y27062769D01*
X9573057Y27216731D01*
X9624045Y27387042D01*
X9634382Y27564520D01*
X9603511Y27739599D01*
X9533096Y27902838D01*
X9426933Y28045439D01*
X9354112Y28106543D01*
X9290746Y28159714D01*
X9290744Y28159715D01*
X9131881Y28239500D01*
X9131877Y28239501D01*
X8958890Y28280500D01*
X8825708Y28280500D01*
X8709958Y28266971D01*
X8693422Y28265038D01*
X8693419Y28265037D01*
X8526367Y28204236D01*
X8458675Y28159714D01*
X8377832Y28106543D01*
X8377831Y28106543D01*
X8377831Y28106542D01*
X8255833Y27977233D01*
X8166944Y27823272D01*
X8115955Y27652959D01*
X8115954Y27652954D01*
X8105618Y27475481D01*
X8105618Y27475480D01*
X7089196Y27475480D01*
X7094382Y27564520D01*
X7063511Y27739599D01*
X6993096Y27902838D01*
X6886933Y28045439D01*
X6814112Y28106543D01*
X6750746Y28159714D01*
X6750744Y28159715D01*
X6591881Y28239500D01*
X6591877Y28239501D01*
X6418890Y28280500D01*
X6285708Y28280500D01*
X6169958Y28266971D01*
X6153422Y28265038D01*
X6153419Y28265037D01*
X5986367Y28204236D01*
X5918675Y28159714D01*
X5837832Y28106543D01*
X5837831Y28106543D01*
X5837831Y28106542D01*
X5715833Y27977233D01*
X5626944Y27823272D01*
X5575955Y27652959D01*
X5575954Y27652954D01*
X5565618Y27475481D01*
X5565618Y27475480D01*
X300500Y27475480D01*
X300500Y30015480D01*
X5565618Y30015480D01*
X5596488Y29840404D01*
X5666904Y29677161D01*
X5739624Y29579482D01*
X5773067Y29534561D01*
X5909254Y29420286D01*
X5960401Y29394599D01*
X6068118Y29340501D01*
X6068119Y29340501D01*
X6068123Y29340499D01*
X6241110Y29299500D01*
X6241113Y29299500D01*
X6374285Y29299500D01*
X6374292Y29299500D01*
X6506577Y29314962D01*
X6673635Y29375766D01*
X6822168Y29473457D01*
X6944167Y29602769D01*
X7033057Y29756731D01*
X7084045Y29927042D01*
X7089196Y30015480D01*
X8105618Y30015480D01*
X8136488Y29840404D01*
X8206904Y29677161D01*
X8279624Y29579482D01*
X8313067Y29534561D01*
X8449254Y29420286D01*
X8500401Y29394599D01*
X8608118Y29340501D01*
X8608119Y29340501D01*
X8608123Y29340499D01*
X8781110Y29299500D01*
X8781113Y29299500D01*
X8914285Y29299500D01*
X8914292Y29299500D01*
X9046577Y29314962D01*
X9213635Y29375766D01*
X9362168Y29473457D01*
X9484167Y29602769D01*
X9573057Y29756731D01*
X9624045Y29927042D01*
X9634382Y30104520D01*
X9603511Y30279599D01*
X9533096Y30442838D01*
X9426933Y30585439D01*
X9354112Y30646543D01*
X9290746Y30699714D01*
X9290744Y30699715D01*
X9131881Y30779500D01*
X9131877Y30779501D01*
X9045386Y30800000D01*
X9990284Y30800000D01*
X10010487Y30646543D01*
X10011060Y30642195D01*
X10011061Y30642191D01*
X10071968Y30495145D01*
X10071969Y30495143D01*
X10071970Y30495142D01*
X10168866Y30368866D01*
X10206987Y30339615D01*
X10248189Y30283188D01*
X10255500Y30241240D01*
X10255500Y16493556D01*
X10255264Y16488150D01*
X10251516Y16445321D01*
X10262644Y16403791D01*
X10263815Y16398509D01*
X10271282Y16356163D01*
X10272227Y16353566D01*
X10281795Y16330469D01*
X10282960Y16327970D01*
X10307622Y16292750D01*
X10310529Y16288187D01*
X10332027Y16250952D01*
X10332029Y16250951D01*
X10332030Y16250949D01*
X10364963Y16223314D01*
X10368952Y16219659D01*
X10946420Y15642191D01*
X11455329Y15133283D01*
X11488814Y15071960D01*
X11483830Y15002268D01*
X11475040Y14983610D01*
X11471469Y14977426D01*
X11410561Y14830377D01*
X11410560Y14830373D01*
X11392757Y14695145D01*
X11389784Y14672567D01*
X11397881Y14611062D01*
X11410560Y14514762D01*
X11410561Y14514758D01*
X11471468Y14367712D01*
X11471469Y14367711D01*
X11471470Y14367709D01*
X11568366Y14241433D01*
X11694642Y14144537D01*
X11694643Y14144537D01*
X11694644Y14144536D01*
X11743659Y14124234D01*
X11841694Y14083627D01*
X11981140Y14065269D01*
X11999499Y14062851D01*
X11999500Y14062851D01*
X11999501Y14062851D01*
X12015946Y14065017D01*
X12157306Y14083627D01*
X12304358Y14144537D01*
X12430634Y14241433D01*
X12527530Y14367709D01*
X12553042Y14429304D01*
X12596882Y14483705D01*
X12663176Y14505771D01*
X12730875Y14488493D01*
X12778486Y14437356D01*
X12790542Y14398036D01*
X12802180Y14309643D01*
X12809509Y14253972D01*
X12811060Y14242196D01*
X12811061Y14242191D01*
X12871968Y14095145D01*
X12871969Y14095143D01*
X12871970Y14095142D01*
X12968866Y13968866D01*
X13095142Y13871970D01*
X13095143Y13871970D01*
X13095144Y13871969D01*
X13144159Y13851667D01*
X13242194Y13811060D01*
X13381640Y13792702D01*
X13399999Y13790284D01*
X13400000Y13790284D01*
X13400001Y13790284D01*
X13416446Y13792450D01*
X13557806Y13811060D01*
X13704858Y13871970D01*
X13831134Y13968866D01*
X13928030Y14095142D01*
X13988940Y14242194D01*
X14009716Y14400000D01*
X13988940Y14557806D01*
X13941783Y14671656D01*
X13928031Y14704856D01*
X13928030Y14704857D01*
X13928030Y14704858D01*
X13831134Y14831134D01*
X13704858Y14928030D01*
X13704857Y14928031D01*
X13704855Y14928032D01*
X13557809Y14988939D01*
X13557807Y14988940D01*
X13557806Y14988940D01*
X13447632Y15003445D01*
X13400001Y15009716D01*
X13399997Y15009716D01*
X13352359Y15003445D01*
X13283323Y15014211D01*
X13248494Y15038703D01*
X13180819Y15106378D01*
X13147334Y15167701D01*
X13144500Y15194059D01*
X13144500Y18200000D01*
X17590284Y18200000D01*
X17610791Y18044234D01*
X17611060Y18042195D01*
X17611061Y18042191D01*
X17671968Y17895145D01*
X17671969Y17895143D01*
X17671970Y17895142D01*
X17768866Y17768866D01*
X17895142Y17671970D01*
X18042194Y17611060D01*
X18181640Y17592702D01*
X18199999Y17590284D01*
X18200000Y17590284D01*
X18200001Y17590284D01*
X18218359Y17592702D01*
X18357806Y17611060D01*
X18357812Y17611063D01*
X18360907Y17611891D01*
X18363625Y17611827D01*
X18365864Y17612121D01*
X18365909Y17611772D01*
X18430757Y17610228D01*
X18480681Y17579797D01*
X18982181Y17078297D01*
X19015666Y17016974D01*
X19018500Y16990616D01*
X19018500Y13530370D01*
X18998815Y13463331D01*
X18974544Y13436949D01*
X18974612Y13436881D01*
X18972987Y13435257D01*
X18969987Y13431995D01*
X18968868Y13431137D01*
X18871968Y13304856D01*
X18811061Y13157810D01*
X18811060Y13157806D01*
X18791472Y13009020D01*
X18790284Y13000000D01*
X18807854Y12866542D01*
X18811060Y12842195D01*
X18811061Y12842191D01*
X18871968Y12695145D01*
X18871969Y12695143D01*
X18871970Y12695142D01*
X18968866Y12568866D01*
X18969977Y12568013D01*
X18970681Y12567050D01*
X18974613Y12563118D01*
X18974000Y12562506D01*
X19011185Y12511590D01*
X19018500Y12469631D01*
X19018500Y4730370D01*
X18998815Y4663331D01*
X18974544Y4636949D01*
X18974612Y4636881D01*
X18972987Y4635257D01*
X18969987Y4631995D01*
X18968868Y4631137D01*
X18871968Y4504856D01*
X18811061Y4357810D01*
X18811060Y4357806D01*
X18790284Y4200001D01*
X18790284Y4200000D01*
X18811060Y4042195D01*
X18811061Y4042191D01*
X18871968Y3895145D01*
X18871969Y3895143D01*
X18871970Y3895142D01*
X18968866Y3768866D01*
X19095142Y3671970D01*
X19095143Y3671970D01*
X19095144Y3671969D01*
X19101378Y3669387D01*
X19242194Y3611060D01*
X19381640Y3592702D01*
X19399999Y3590284D01*
X19400000Y3590284D01*
X19400001Y3590284D01*
X19416446Y3592450D01*
X19557806Y3611060D01*
X19704858Y3671970D01*
X19831134Y3768866D01*
X19928030Y3895142D01*
X19988940Y4042194D01*
X20009716Y4200000D01*
X20009351Y4202769D01*
X19999557Y4277162D01*
X19988940Y4357806D01*
X19948333Y4455841D01*
X19928031Y4504856D01*
X19928030Y4504857D01*
X19928030Y4504858D01*
X19831134Y4631134D01*
X19831132Y4631136D01*
X19831131Y4631137D01*
X19830013Y4631995D01*
X19829306Y4632963D01*
X19825388Y4636881D01*
X19825999Y4637493D01*
X19788810Y4688423D01*
X19781500Y4730370D01*
X19781500Y12469631D01*
X19801185Y12536670D01*
X19825455Y12563050D01*
X19825387Y12563118D01*
X19827031Y12564763D01*
X19830021Y12568013D01*
X19831134Y12568866D01*
X19928030Y12695142D01*
X19988940Y12842194D01*
X20009716Y13000000D01*
X20008528Y13009020D01*
X20002178Y13057255D01*
X19988940Y13157806D01*
X19941653Y13271969D01*
X19928031Y13304856D01*
X19928030Y13304857D01*
X19928030Y13304858D01*
X19831134Y13431134D01*
X19831132Y13431136D01*
X19831131Y13431137D01*
X19830013Y13431995D01*
X19829306Y13432963D01*
X19825388Y13436881D01*
X19825999Y13437493D01*
X19788810Y13488423D01*
X19781500Y13530370D01*
X19781500Y17147572D01*
X19784139Y17173017D01*
X19784810Y17176220D01*
X19786445Y17184016D01*
X19784353Y17200799D01*
X19781977Y17219866D01*
X19781500Y17227542D01*
X19781500Y17231609D01*
X19781499Y17231618D01*
X19777595Y17255007D01*
X19776158Y17266537D01*
X19770696Y17310360D01*
X19770693Y17310366D01*
X19768418Y17318008D01*
X19765819Y17325579D01*
X19765818Y17325586D01*
X19739276Y17374632D01*
X19714777Y17424746D01*
X19714776Y17424747D01*
X19714775Y17424750D01*
X19710151Y17431226D01*
X19705218Y17437564D01*
X19664192Y17475331D01*
X18811489Y18328034D01*
X18784609Y18368263D01*
X18728031Y18504856D01*
X18728030Y18504857D01*
X18728030Y18504858D01*
X18631134Y18631134D01*
X18504858Y18728030D01*
X18504857Y18728031D01*
X18504855Y18728032D01*
X18357809Y18788939D01*
X18357807Y18788940D01*
X18357806Y18788940D01*
X18278903Y18799328D01*
X18200001Y18809716D01*
X18199999Y18809716D01*
X18042194Y18788940D01*
X18042190Y18788939D01*
X17895144Y18728032D01*
X17768866Y18631134D01*
X17671968Y18504856D01*
X17611061Y18357810D01*
X17611060Y18357806D01*
X17590284Y18200000D01*
X13144500Y18200000D01*
X13144500Y22400000D01*
X16590284Y22400000D01*
X16611060Y22242195D01*
X16611061Y22242191D01*
X16671968Y22095145D01*
X16671969Y22095143D01*
X16671970Y22095142D01*
X16768866Y21968866D01*
X16895142Y21871970D01*
X17042194Y21811060D01*
X17181640Y21792702D01*
X17199999Y21790284D01*
X17200000Y21790284D01*
X17200001Y21790284D01*
X17216446Y21792450D01*
X17357806Y21811060D01*
X17504858Y21871970D01*
X17631134Y21968866D01*
X17728030Y22095142D01*
X17788940Y22242194D01*
X17809716Y22400000D01*
X17788940Y22557806D01*
X17728030Y22704858D01*
X17728029Y22704859D01*
X17728029Y22704860D01*
X17654306Y22800936D01*
X17631134Y22831134D01*
X17593012Y22860387D01*
X17551810Y22916816D01*
X17544500Y22958762D01*
X17544500Y25241240D01*
X17564185Y25308279D01*
X17593011Y25339614D01*
X17631134Y25368866D01*
X17728030Y25495142D01*
X17788940Y25642194D01*
X17809716Y25800000D01*
X17788940Y25957806D01*
X17728030Y26104858D01*
X17631134Y26231134D01*
X17504858Y26328030D01*
X17504857Y26328031D01*
X17504855Y26328032D01*
X17357809Y26388939D01*
X17357807Y26388940D01*
X17357806Y26388940D01*
X17278903Y26399328D01*
X17200001Y26409716D01*
X17199999Y26409716D01*
X17042194Y26388940D01*
X17042190Y26388939D01*
X16895144Y26328032D01*
X16768866Y26231134D01*
X16671968Y26104856D01*
X16611061Y25957810D01*
X16611060Y25957806D01*
X16590284Y25800000D01*
X16608418Y25662258D01*
X16611060Y25642195D01*
X16611061Y25642191D01*
X16671968Y25495145D01*
X16671969Y25495143D01*
X16671970Y25495142D01*
X16768866Y25368866D01*
X16806987Y25339615D01*
X16848189Y25283188D01*
X16855500Y25241240D01*
X16855500Y22958762D01*
X16835815Y22891723D01*
X16806988Y22860387D01*
X16768866Y22831135D01*
X16671970Y22704860D01*
X16671969Y22704857D01*
X16611061Y22557810D01*
X16611060Y22557806D01*
X16590284Y22400001D01*
X16590284Y22400000D01*
X13144500Y22400000D01*
X13144500Y24241240D01*
X13164185Y24308279D01*
X13193011Y24339614D01*
X13231134Y24368866D01*
X13328030Y24495142D01*
X13388940Y24642194D01*
X13409716Y24800000D01*
X13388940Y24957806D01*
X13328030Y25104858D01*
X13231134Y25231134D01*
X13104858Y25328030D01*
X13104857Y25328031D01*
X13104855Y25328032D01*
X12957809Y25388939D01*
X12957807Y25388940D01*
X12957806Y25388940D01*
X12878903Y25399328D01*
X12800001Y25409716D01*
X12799999Y25409716D01*
X12642194Y25388940D01*
X12642190Y25388939D01*
X12495144Y25328032D01*
X12368866Y25231134D01*
X12271968Y25104856D01*
X12211061Y24957810D01*
X12211060Y24957806D01*
X12190284Y24800001D01*
X12190284Y24800000D01*
X12211060Y24642195D01*
X12211061Y24642191D01*
X12271968Y24495145D01*
X12271969Y24495143D01*
X12271970Y24495142D01*
X12368866Y24368866D01*
X12406987Y24339615D01*
X12448189Y24283188D01*
X12455500Y24241240D01*
X12455500Y15409310D01*
X12435815Y15342271D01*
X12383011Y15296516D01*
X12313853Y15286572D01*
X12251796Y15314319D01*
X12245719Y15319418D01*
X12234527Y15328809D01*
X12230557Y15332447D01*
X10980819Y16582186D01*
X10947334Y16643509D01*
X10944500Y16669867D01*
X10944500Y30241240D01*
X10964185Y30308279D01*
X10993011Y30339614D01*
X11031134Y30368866D01*
X11128030Y30495142D01*
X11188940Y30642194D01*
X11209716Y30800000D01*
X11188940Y30957806D01*
X11148208Y31056144D01*
X11128031Y31104856D01*
X11128030Y31104857D01*
X11128030Y31104858D01*
X11031134Y31231134D01*
X10904858Y31328030D01*
X10904857Y31328031D01*
X10904855Y31328032D01*
X10757809Y31388939D01*
X10757807Y31388940D01*
X10757806Y31388940D01*
X10673791Y31400001D01*
X10600001Y31409716D01*
X10599999Y31409716D01*
X10442194Y31388940D01*
X10442190Y31388939D01*
X10295144Y31328032D01*
X10168866Y31231134D01*
X10071968Y31104856D01*
X10011061Y30957810D01*
X10011060Y30957806D01*
X10002130Y30889974D01*
X9990284Y30800000D01*
X9045386Y30800000D01*
X8958890Y30820500D01*
X8825708Y30820500D01*
X8709958Y30806971D01*
X8693422Y30805038D01*
X8693419Y30805037D01*
X8526367Y30744236D01*
X8458675Y30699714D01*
X8377832Y30646543D01*
X8377831Y30646543D01*
X8377831Y30646542D01*
X8255833Y30517233D01*
X8166944Y30363272D01*
X8166943Y30363270D01*
X8166943Y30363269D01*
X8159862Y30339616D01*
X8115955Y30192959D01*
X8115954Y30192954D01*
X8105618Y30015481D01*
X8105618Y30015480D01*
X7089196Y30015480D01*
X7094382Y30104520D01*
X7063511Y30279599D01*
X6993096Y30442838D01*
X6886933Y30585439D01*
X6814112Y30646543D01*
X6750746Y30699714D01*
X6750744Y30699715D01*
X6591881Y30779500D01*
X6591877Y30779501D01*
X6418890Y30820500D01*
X6285708Y30820500D01*
X6169958Y30806971D01*
X6153422Y30805038D01*
X6153419Y30805037D01*
X5986367Y30744236D01*
X5918675Y30699714D01*
X5837832Y30646543D01*
X5837831Y30646543D01*
X5837831Y30646542D01*
X5715833Y30517233D01*
X5626944Y30363272D01*
X5626943Y30363270D01*
X5626943Y30363269D01*
X5619862Y30339616D01*
X5575955Y30192959D01*
X5575954Y30192954D01*
X5565618Y30015481D01*
X5565618Y30015480D01*
X300500Y30015480D01*
X300500Y32555480D01*
X5565618Y32555480D01*
X5594839Y32389754D01*
X5596489Y32380401D01*
X5617894Y32330779D01*
X5666904Y32217161D01*
X5756017Y32097463D01*
X5773067Y32074561D01*
X5909254Y31960286D01*
X5966588Y31931492D01*
X6068118Y31880501D01*
X6068119Y31880501D01*
X6068123Y31880499D01*
X6241110Y31839500D01*
X6241113Y31839500D01*
X6374285Y31839500D01*
X6374292Y31839500D01*
X6506577Y31854962D01*
X6673635Y31915766D01*
X6822168Y32013457D01*
X6944167Y32142769D01*
X7033057Y32296731D01*
X7084045Y32467042D01*
X7089196Y32555480D01*
X8105618Y32555480D01*
X8134839Y32389754D01*
X8136489Y32380401D01*
X8157894Y32330779D01*
X8206904Y32217161D01*
X8296017Y32097463D01*
X8313067Y32074561D01*
X8449254Y31960286D01*
X8506588Y31931492D01*
X8608118Y31880501D01*
X8608119Y31880501D01*
X8608123Y31880499D01*
X8781110Y31839500D01*
X8781113Y31839500D01*
X8914285Y31839500D01*
X8914292Y31839500D01*
X9046577Y31854962D01*
X9213635Y31915766D01*
X9362168Y32013457D01*
X9484167Y32142769D01*
X9573057Y32296731D01*
X9624045Y32467042D01*
X9634382Y32644520D01*
X9603511Y32819599D01*
X9533096Y32982838D01*
X9494997Y33034013D01*
X9434184Y33115699D01*
X9426933Y33125439D01*
X9354112Y33186543D01*
X9290746Y33239714D01*
X9290744Y33239715D01*
X9170708Y33300000D01*
X19090284Y33300000D01*
X19103186Y33201998D01*
X19111060Y33142195D01*
X19111061Y33142191D01*
X19171968Y32995145D01*
X19171969Y32995143D01*
X19171970Y32995142D01*
X19268866Y32868866D01*
X19395142Y32771970D01*
X19542194Y32711060D01*
X19681640Y32692702D01*
X19699999Y32690284D01*
X19700000Y32690284D01*
X19700001Y32690284D01*
X19716446Y32692450D01*
X19857806Y32711060D01*
X20004858Y32771970D01*
X20131134Y32868866D01*
X20228030Y32995142D01*
X20288940Y33142194D01*
X20309716Y33300000D01*
X20288940Y33457806D01*
X20228030Y33604858D01*
X20210625Y33627541D01*
X20185431Y33692710D01*
X20185001Y33703027D01*
X20185001Y37672318D01*
X20204686Y37739357D01*
X20225995Y37762518D01*
X20225391Y37763123D01*
X20231131Y37768863D01*
X20231132Y37768865D01*
X20231134Y37768866D01*
X20328030Y37895142D01*
X20388940Y38042194D01*
X20409716Y38200000D01*
X20388940Y38357806D01*
X20328030Y38504858D01*
X20231134Y38631134D01*
X20104858Y38728030D01*
X20104857Y38728031D01*
X20104855Y38728032D01*
X19957809Y38788939D01*
X19957807Y38788940D01*
X19957806Y38788940D01*
X19878903Y38799328D01*
X19800001Y38809716D01*
X19799999Y38809716D01*
X19642194Y38788940D01*
X19642190Y38788939D01*
X19495144Y38728032D01*
X19368866Y38631134D01*
X19271968Y38504856D01*
X19211061Y38357810D01*
X19211060Y38357806D01*
X19190284Y38200001D01*
X19190284Y38200000D01*
X19211060Y38042195D01*
X19211061Y38042191D01*
X19271968Y37895145D01*
X19368867Y37768865D01*
X19389626Y37752936D01*
X19447488Y37708537D01*
X19488690Y37652110D01*
X19496001Y37610162D01*
X19496001Y33952662D01*
X19476316Y33885623D01*
X19423512Y33839868D01*
X19419455Y33838101D01*
X19395144Y33828031D01*
X19395142Y33828030D01*
X19268866Y33731134D01*
X19171968Y33604856D01*
X19111061Y33457810D01*
X19111060Y33457806D01*
X19092428Y33316282D01*
X19090284Y33300000D01*
X9170708Y33300000D01*
X9131881Y33319500D01*
X9112793Y33324024D01*
X8958890Y33360500D01*
X8825708Y33360500D01*
X8709958Y33346971D01*
X8693422Y33345038D01*
X8693419Y33345037D01*
X8526367Y33284236D01*
X8458675Y33239714D01*
X8377832Y33186543D01*
X8377831Y33186543D01*
X8377831Y33186542D01*
X8255833Y33057233D01*
X8166944Y32903272D01*
X8115955Y32732959D01*
X8115954Y32732954D01*
X8105618Y32555481D01*
X8105618Y32555480D01*
X7089196Y32555480D01*
X7094382Y32644520D01*
X7063511Y32819599D01*
X6993096Y32982838D01*
X6954997Y33034013D01*
X6894184Y33115699D01*
X6886933Y33125439D01*
X6814112Y33186543D01*
X6750746Y33239714D01*
X6750744Y33239715D01*
X6591881Y33319500D01*
X6572793Y33324024D01*
X6418890Y33360500D01*
X6285708Y33360500D01*
X6169958Y33346971D01*
X6153422Y33345038D01*
X6153419Y33345037D01*
X5986367Y33284236D01*
X5918675Y33239714D01*
X5837832Y33186543D01*
X5837831Y33186543D01*
X5837831Y33186542D01*
X5715833Y33057233D01*
X5626944Y32903272D01*
X5575955Y32732959D01*
X5575954Y32732954D01*
X5565618Y32555481D01*
X5565618Y32555480D01*
X300500Y32555480D01*
X300500Y35095480D01*
X5565618Y35095480D01*
X5596488Y34920404D01*
X5666904Y34757161D01*
X5773067Y34614561D01*
X5909254Y34500286D01*
X5987990Y34460743D01*
X6068118Y34420501D01*
X6068119Y34420501D01*
X6068123Y34420499D01*
X6241110Y34379500D01*
X6241113Y34379500D01*
X6374285Y34379500D01*
X6374292Y34379500D01*
X6506577Y34394962D01*
X6673635Y34455766D01*
X6822168Y34553457D01*
X6944167Y34682769D01*
X7033057Y34836731D01*
X7084045Y35007042D01*
X7089196Y35095480D01*
X8105618Y35095480D01*
X8136488Y34920404D01*
X8206904Y34757161D01*
X8313067Y34614561D01*
X8449254Y34500286D01*
X8527990Y34460743D01*
X8608118Y34420501D01*
X8608119Y34420501D01*
X8608123Y34420499D01*
X8781110Y34379500D01*
X8781113Y34379500D01*
X8914285Y34379500D01*
X8914292Y34379500D01*
X9046577Y34394962D01*
X9213635Y34455766D01*
X9362168Y34553457D01*
X9484167Y34682769D01*
X9573057Y34836731D01*
X9624045Y35007042D01*
X9634382Y35184520D01*
X9603511Y35359599D01*
X9533096Y35522838D01*
X9518626Y35542274D01*
X9426932Y35665440D01*
X9290746Y35779714D01*
X9290744Y35779715D01*
X9131881Y35859500D01*
X9131877Y35859501D01*
X8958890Y35900500D01*
X8825708Y35900500D01*
X8709958Y35886971D01*
X8693422Y35885038D01*
X8693419Y35885037D01*
X8526367Y35824236D01*
X8458675Y35779714D01*
X8377832Y35726543D01*
X8377831Y35726543D01*
X8377831Y35726542D01*
X8255833Y35597233D01*
X8166944Y35443272D01*
X8166943Y35443270D01*
X8166943Y35443269D01*
X8162286Y35427712D01*
X8115955Y35272959D01*
X8115954Y35272954D01*
X8105618Y35095481D01*
X8105618Y35095480D01*
X7089196Y35095480D01*
X7094382Y35184520D01*
X7063511Y35359599D01*
X6993096Y35522838D01*
X6978626Y35542274D01*
X6886932Y35665440D01*
X6750746Y35779714D01*
X6750744Y35779715D01*
X6591881Y35859500D01*
X6591877Y35859501D01*
X6418890Y35900500D01*
X6285708Y35900500D01*
X6169958Y35886971D01*
X6153422Y35885038D01*
X6153419Y35885037D01*
X5986367Y35824236D01*
X5918675Y35779714D01*
X5837832Y35726543D01*
X5837831Y35726543D01*
X5837831Y35726542D01*
X5715833Y35597233D01*
X5626944Y35443272D01*
X5626943Y35443270D01*
X5626943Y35443269D01*
X5622286Y35427712D01*
X5575955Y35272959D01*
X5575954Y35272954D01*
X5565618Y35095481D01*
X5565618Y35095480D01*
X300500Y35095480D01*
X300500Y37635480D01*
X5565618Y37635480D01*
X5590362Y37495145D01*
X5596489Y37460401D01*
X5604343Y37442194D01*
X5666904Y37297161D01*
X5766747Y37163050D01*
X5773067Y37154561D01*
X5909254Y37040286D01*
X5987990Y37000743D01*
X6068118Y36960501D01*
X6068119Y36960501D01*
X6068123Y36960499D01*
X6241110Y36919500D01*
X6241113Y36919500D01*
X6374285Y36919500D01*
X6374292Y36919500D01*
X6506577Y36934962D01*
X6673635Y36995766D01*
X6822168Y37093457D01*
X6944167Y37222769D01*
X7033057Y37376731D01*
X7084045Y37547042D01*
X7089196Y37635480D01*
X8105618Y37635480D01*
X8130362Y37495145D01*
X8136489Y37460401D01*
X8144343Y37442194D01*
X8206904Y37297161D01*
X8306747Y37163050D01*
X8313067Y37154561D01*
X8449254Y37040286D01*
X8527990Y37000743D01*
X8608118Y36960501D01*
X8608119Y36960501D01*
X8608123Y36960499D01*
X8781110Y36919500D01*
X8781113Y36919500D01*
X8914285Y36919500D01*
X8914292Y36919500D01*
X9046577Y36934962D01*
X9213635Y36995766D01*
X9362168Y37093457D01*
X9484167Y37222769D01*
X9573057Y37376731D01*
X9624045Y37547042D01*
X9634382Y37724520D01*
X9603511Y37899599D01*
X9533096Y38062838D01*
X9426933Y38205439D01*
X9376437Y38247810D01*
X9290746Y38319714D01*
X9290744Y38319715D01*
X9131881Y38399500D01*
X9131877Y38399501D01*
X8958890Y38440500D01*
X8825708Y38440500D01*
X8709958Y38426971D01*
X8693422Y38425038D01*
X8693419Y38425037D01*
X8526367Y38364236D01*
X8427343Y38299107D01*
X8377832Y38266543D01*
X8377831Y38266543D01*
X8377831Y38266542D01*
X8255833Y38137233D01*
X8166944Y37983272D01*
X8115955Y37812959D01*
X8115954Y37812954D01*
X8105618Y37635481D01*
X8105618Y37635480D01*
X7089196Y37635480D01*
X7094382Y37724520D01*
X7063511Y37899599D01*
X6993096Y38062838D01*
X6886933Y38205439D01*
X6836437Y38247810D01*
X6750746Y38319714D01*
X6750744Y38319715D01*
X6591881Y38399500D01*
X6591877Y38399501D01*
X6418890Y38440500D01*
X6285708Y38440500D01*
X6169958Y38426971D01*
X6153422Y38425038D01*
X6153419Y38425037D01*
X5986367Y38364236D01*
X5887343Y38299107D01*
X5837832Y38266543D01*
X5837831Y38266543D01*
X5837831Y38266542D01*
X5715833Y38137233D01*
X5626944Y37983272D01*
X5575955Y37812959D01*
X5575954Y37812954D01*
X5565618Y37635481D01*
X5565618Y37635480D01*
X300500Y37635480D01*
X300500Y40175480D01*
X5565618Y40175480D01*
X5596488Y40000404D01*
X5666904Y39837161D01*
X5726454Y39757173D01*
X5773067Y39694561D01*
X5909254Y39580286D01*
X5975588Y39546972D01*
X6068118Y39500501D01*
X6068119Y39500501D01*
X6068123Y39500499D01*
X6241110Y39459500D01*
X6241113Y39459500D01*
X6374285Y39459500D01*
X6374292Y39459500D01*
X6506577Y39474962D01*
X6673635Y39535766D01*
X6822168Y39633457D01*
X6944167Y39762769D01*
X7033057Y39916731D01*
X7084045Y40087042D01*
X7089196Y40175480D01*
X8105618Y40175480D01*
X8136488Y40000404D01*
X8206904Y39837161D01*
X8266454Y39757173D01*
X8313067Y39694561D01*
X8449254Y39580286D01*
X8515588Y39546972D01*
X8608118Y39500501D01*
X8608119Y39500501D01*
X8608123Y39500499D01*
X8781110Y39459500D01*
X8781113Y39459500D01*
X8914285Y39459500D01*
X8914292Y39459500D01*
X9046577Y39474962D01*
X9213635Y39535766D01*
X9362168Y39633457D01*
X9484167Y39762769D01*
X9573057Y39916731D01*
X9624045Y40087042D01*
X9630624Y40200000D01*
X19790284Y40200000D01*
X19810230Y40048495D01*
X19811060Y40042195D01*
X19811061Y40042191D01*
X19871968Y39895145D01*
X19871969Y39895143D01*
X19871970Y39895142D01*
X19968866Y39768866D01*
X20095142Y39671970D01*
X20242194Y39611060D01*
X20400000Y39590284D01*
X20400001Y39590284D01*
X20447638Y39596556D01*
X20516673Y39585791D01*
X20551505Y39561298D01*
X20928353Y39184450D01*
X20961838Y39123127D01*
X20964672Y39096769D01*
X20964672Y30993329D01*
X20951360Y30943639D01*
X20953443Y30942776D01*
X20889424Y30788219D01*
X20889423Y30788215D01*
X20870199Y30642194D01*
X20868647Y30630409D01*
X20885176Y30504858D01*
X20889423Y30472604D01*
X20889424Y30472600D01*
X20950331Y30325554D01*
X20950332Y30325552D01*
X20950333Y30325551D01*
X21047229Y30199275D01*
X21173505Y30102379D01*
X21320557Y30041469D01*
X21460003Y30023111D01*
X21478362Y30020693D01*
X21478363Y30020693D01*
X21478364Y30020693D01*
X21494809Y30022859D01*
X21636169Y30041469D01*
X21758446Y30092117D01*
X21827915Y30099586D01*
X21890394Y30068311D01*
X21904273Y30053043D01*
X21968863Y29968869D01*
X21968864Y29968868D01*
X21968866Y29968866D01*
X22006987Y29939615D01*
X22048189Y29883188D01*
X22055500Y29841240D01*
X22055500Y22145475D01*
X22035815Y22078436D01*
X22019181Y22057794D01*
X21211504Y21250118D01*
X21150181Y21216633D01*
X21107639Y21214860D01*
X21060003Y21221131D01*
X21059999Y21221131D01*
X20902194Y21200355D01*
X20902190Y21200354D01*
X20755144Y21139447D01*
X20628866Y21042549D01*
X20531968Y20916271D01*
X20471061Y20769225D01*
X20471060Y20769221D01*
X20451349Y20619501D01*
X20450284Y20611415D01*
X20467088Y20483775D01*
X20471060Y20453610D01*
X20471061Y20453606D01*
X20531968Y20306560D01*
X20531969Y20306558D01*
X20531970Y20306557D01*
X20628866Y20180281D01*
X20755142Y20083385D01*
X20902194Y20022475D01*
X21041640Y20004117D01*
X21059999Y20001699D01*
X21060000Y20001699D01*
X21060001Y20001699D01*
X21076446Y20003865D01*
X21217806Y20022475D01*
X21364858Y20083385D01*
X21491134Y20180281D01*
X21588030Y20306557D01*
X21648940Y20453609D01*
X21669716Y20611415D01*
X21668652Y20619500D01*
X21663444Y20659055D01*
X21674209Y20728091D01*
X21698699Y20762919D01*
X22011568Y21075788D01*
X22072889Y21109271D01*
X22142581Y21104287D01*
X22198514Y21062415D01*
X22213808Y21035558D01*
X22270287Y20899205D01*
X22271970Y20895142D01*
X22285556Y20877436D01*
X22310752Y20812269D01*
X22311182Y20801949D01*
X22311182Y8983945D01*
X22308543Y8958501D01*
X22306587Y8949173D01*
X22306587Y8949169D01*
X22310705Y8916129D01*
X22311182Y8908453D01*
X22311182Y8904941D01*
X22314810Y8883196D01*
X22321221Y8831763D01*
X22323337Y8824656D01*
X22325752Y8817623D01*
X22325753Y8817620D01*
X22350421Y8772037D01*
X22373183Y8725478D01*
X22373184Y8725477D01*
X22377696Y8716248D01*
X22376573Y8715700D01*
X22396102Y8659503D01*
X22395189Y8637263D01*
X22390284Y8600003D01*
X22390284Y8600000D01*
X22411060Y8442195D01*
X22411061Y8442191D01*
X22471968Y8295145D01*
X22471969Y8295143D01*
X22471970Y8295142D01*
X22568866Y8168866D01*
X22695142Y8071970D01*
X22842194Y8011060D01*
X22981640Y7992702D01*
X22999999Y7990284D01*
X23000000Y7990284D01*
X23000001Y7990284D01*
X23016446Y7992450D01*
X23157806Y8011060D01*
X23304858Y8071970D01*
X23431134Y8168866D01*
X23528030Y8295142D01*
X23588940Y8442194D01*
X23609716Y8600000D01*
X23588940Y8757806D01*
X23528030Y8904858D01*
X23431134Y9031134D01*
X23304858Y9128030D01*
X23304857Y9128031D01*
X23304855Y9128032D01*
X23157809Y9188939D01*
X23157806Y9188940D01*
X23127994Y9192865D01*
X23064098Y9221133D01*
X23025628Y9279458D01*
X23020182Y9315804D01*
X23020182Y14558862D01*
X23039867Y14625901D01*
X23092671Y14671656D01*
X23161829Y14681600D01*
X23191634Y14673423D01*
X23195142Y14671970D01*
X23342194Y14611060D01*
X23481640Y14592702D01*
X23499999Y14590284D01*
X23500000Y14590284D01*
X23500001Y14590284D01*
X23516446Y14592450D01*
X23657806Y14611060D01*
X23804858Y14671970D01*
X23887059Y14735047D01*
X23952228Y14760241D01*
X24020673Y14746203D01*
X24066958Y14701541D01*
X24067023Y14701590D01*
X24067354Y14701159D01*
X24069935Y14698668D01*
X24071968Y14695146D01*
X24071970Y14695142D01*
X24168866Y14568866D01*
X24295142Y14471970D01*
X24442194Y14411060D01*
X24581640Y14392702D01*
X24599999Y14390284D01*
X24600000Y14390284D01*
X24600001Y14390284D01*
X24616446Y14392450D01*
X24757806Y14411060D01*
X24904858Y14471970D01*
X25031134Y14568866D01*
X25128030Y14695142D01*
X25188940Y14842194D01*
X25209716Y15000000D01*
X25209417Y15002268D01*
X25205055Y15035403D01*
X25188940Y15157806D01*
X25141653Y15271969D01*
X25128031Y15304856D01*
X25128030Y15304857D01*
X25128030Y15304858D01*
X25031134Y15431134D01*
X24904858Y15528030D01*
X24904857Y15528031D01*
X24904855Y15528032D01*
X24757809Y15588939D01*
X24757806Y15588940D01*
X24730464Y15592540D01*
X24666568Y15620809D01*
X24628099Y15679134D01*
X24622653Y15715479D01*
X24622653Y16557641D01*
X24642338Y16624680D01*
X24671163Y16656014D01*
X24699287Y16677593D01*
X24796183Y16803869D01*
X24857093Y16950921D01*
X24877869Y17108727D01*
X24857093Y17266533D01*
X24799938Y17404520D01*
X24796184Y17413583D01*
X24796183Y17413584D01*
X24796183Y17413585D01*
X24699287Y17539861D01*
X24573011Y17636757D01*
X24573010Y17636758D01*
X24573008Y17636759D01*
X24425962Y17697666D01*
X24425960Y17697667D01*
X24425959Y17697667D01*
X24340744Y17708886D01*
X24268154Y17718443D01*
X24268152Y17718443D01*
X24110347Y17697667D01*
X24110343Y17697666D01*
X24079950Y17685077D01*
X24010481Y17677610D01*
X23948002Y17708886D01*
X23912351Y17768976D01*
X23908500Y17799639D01*
X23908500Y21504941D01*
X23928185Y21571980D01*
X23980989Y21617735D01*
X24050147Y21627679D01*
X24113703Y21598654D01*
X24120181Y21592622D01*
X24361297Y21351506D01*
X24394782Y21290183D01*
X24396555Y21247641D01*
X24390284Y21200003D01*
X24390284Y21200000D01*
X24406637Y21075786D01*
X24411060Y21042195D01*
X24411061Y21042191D01*
X24471968Y20895145D01*
X24471969Y20895144D01*
X24471970Y20895142D01*
X24568866Y20768866D01*
X24695142Y20671970D01*
X24695143Y20671970D01*
X24695144Y20671969D01*
X24722833Y20660500D01*
X24842194Y20611060D01*
X24981640Y20592702D01*
X24999999Y20590284D01*
X25000000Y20590284D01*
X25000001Y20590284D01*
X25016446Y20592450D01*
X25157806Y20611060D01*
X25304858Y20671970D01*
X25431134Y20768866D01*
X25528030Y20895142D01*
X25588940Y21042194D01*
X25609716Y21200000D01*
X25593100Y21326204D01*
X25603865Y21395235D01*
X25650244Y21447491D01*
X25668581Y21456945D01*
X25704858Y21471970D01*
X25831134Y21568866D01*
X25928030Y21695142D01*
X25988940Y21842194D01*
X26009716Y22000000D01*
X25988940Y22157806D01*
X25928030Y22304858D01*
X25831134Y22431134D01*
X25704858Y22528030D01*
X25704857Y22528031D01*
X25704855Y22528032D01*
X25557809Y22588939D01*
X25557807Y22588940D01*
X25557806Y22588940D01*
X25454278Y22602570D01*
X25400001Y22609716D01*
X25399997Y22609716D01*
X25352359Y22603445D01*
X25283323Y22614211D01*
X25248494Y22638703D01*
X24980819Y22906378D01*
X24947334Y22967701D01*
X24944500Y22994059D01*
X24944500Y23100000D01*
X25990284Y23100000D01*
X25997894Y23042194D01*
X26011060Y22942195D01*
X26011061Y22942191D01*
X26071968Y22795145D01*
X26071969Y22795143D01*
X26071970Y22795142D01*
X26168866Y22668866D01*
X26295142Y22571970D01*
X26368954Y22541397D01*
X26423355Y22497559D01*
X26445421Y22431265D01*
X26445500Y22426837D01*
X26445500Y16400965D01*
X26425815Y16333926D01*
X26396987Y16302590D01*
X26303868Y16231137D01*
X26206968Y16104856D01*
X26146061Y15957810D01*
X26146060Y15957806D01*
X26125284Y15800001D01*
X26125284Y15800000D01*
X26146060Y15642195D01*
X26146061Y15642191D01*
X26206968Y15495145D01*
X26206969Y15495143D01*
X26206970Y15495142D01*
X26303866Y15368866D01*
X26430142Y15271970D01*
X26577194Y15211060D01*
X26706327Y15194059D01*
X26734999Y15190284D01*
X26735000Y15190284D01*
X26735001Y15190284D01*
X26751446Y15192450D01*
X26892806Y15211060D01*
X26909047Y15217788D01*
X26978515Y15225257D01*
X27040994Y15193983D01*
X27076648Y15133895D01*
X27080500Y15103227D01*
X27080500Y9729060D01*
X27060815Y9662021D01*
X27008011Y9616266D01*
X26972687Y9606121D01*
X26842194Y9588940D01*
X26842190Y9588939D01*
X26695144Y9528032D01*
X26568866Y9431134D01*
X26471968Y9304856D01*
X26411061Y9157810D01*
X26411060Y9157806D01*
X26390284Y9000001D01*
X26390284Y9000000D01*
X26411060Y8842195D01*
X26411061Y8842191D01*
X26471968Y8695145D01*
X26471969Y8695143D01*
X26471970Y8695142D01*
X26568866Y8568866D01*
X26695142Y8471970D01*
X26842194Y8411060D01*
X26981640Y8392702D01*
X26999999Y8390284D01*
X27000000Y8390284D01*
X27000001Y8390284D01*
X27016446Y8392450D01*
X27157806Y8411060D01*
X27304858Y8471970D01*
X27431134Y8568866D01*
X27431136Y8568869D01*
X27431139Y8568871D01*
X27433819Y8571550D01*
X27436636Y8573089D01*
X27437582Y8573814D01*
X27437695Y8573667D01*
X27495142Y8605035D01*
X27564834Y8600051D01*
X27620767Y8558179D01*
X27645184Y8492715D01*
X27645500Y8483869D01*
X27645500Y4351088D01*
X27625815Y4284049D01*
X27596987Y4252713D01*
X27568868Y4231137D01*
X27471968Y4104856D01*
X27411061Y3957810D01*
X27411060Y3957806D01*
X27390284Y3800001D01*
X27390284Y3800000D01*
X27411060Y3642195D01*
X27411061Y3642191D01*
X27471968Y3495145D01*
X27471969Y3495143D01*
X27471970Y3495142D01*
X27568866Y3368866D01*
X27695142Y3271970D01*
X27695143Y3271970D01*
X27695144Y3271969D01*
X27744159Y3251667D01*
X27842194Y3211060D01*
X27981640Y3192702D01*
X27999999Y3190284D01*
X28000000Y3190284D01*
X28000001Y3190284D01*
X28016446Y3192450D01*
X28157806Y3211060D01*
X28270431Y3257711D01*
X28312367Y3275080D01*
X28313394Y3272600D01*
X28368438Y3285965D01*
X28434469Y3263126D01*
X28477671Y3208214D01*
X28482815Y3154456D01*
X28485901Y3154328D01*
X28485476Y3144064D01*
X28489945Y3108213D01*
X28490422Y3100537D01*
X28490422Y3096467D01*
X28491445Y3090338D01*
X28494325Y3073073D01*
X28501226Y3017717D01*
X28503502Y3010069D01*
X28506103Y3002493D01*
X28532651Y2953437D01*
X28557146Y2903331D01*
X28561791Y2896825D01*
X28566703Y2890514D01*
X28607741Y2852737D01*
X29155210Y2305268D01*
X29188695Y2243945D01*
X29190189Y2208127D01*
X29190284Y2208127D01*
X29190284Y2205844D01*
X29190469Y2201407D01*
X29190284Y2200002D01*
X29190284Y2200000D01*
X29211060Y2042195D01*
X29211061Y2042191D01*
X29271968Y1895145D01*
X29271969Y1895143D01*
X29271970Y1895142D01*
X29368866Y1768866D01*
X29495142Y1671970D01*
X29495143Y1671970D01*
X29495144Y1671969D01*
X29517358Y1662768D01*
X29642194Y1611060D01*
X29767514Y1594561D01*
X29799999Y1590284D01*
X29800000Y1590284D01*
X29800001Y1590284D01*
X29816446Y1592450D01*
X29957806Y1611060D01*
X30104858Y1671970D01*
X30231134Y1768866D01*
X30328030Y1895142D01*
X30388940Y2042194D01*
X30393322Y2075480D01*
X35365618Y2075480D01*
X35379875Y1994621D01*
X35396489Y1900401D01*
X35413552Y1860845D01*
X35466904Y1737161D01*
X35541870Y1636466D01*
X35573067Y1594561D01*
X35709254Y1480286D01*
X35787990Y1440743D01*
X35868118Y1400501D01*
X35868119Y1400501D01*
X35868123Y1400499D01*
X36041110Y1359500D01*
X36041113Y1359500D01*
X36174285Y1359500D01*
X36174292Y1359500D01*
X36306577Y1374962D01*
X36473635Y1435766D01*
X36622168Y1533457D01*
X36744167Y1662769D01*
X36833057Y1816731D01*
X36884045Y1987042D01*
X36889131Y2074372D01*
X36912680Y2140151D01*
X36968055Y2182759D01*
X37037674Y2188664D01*
X37056491Y2183253D01*
X37065976Y2179693D01*
X37121345Y2169645D01*
X37287450Y2139500D01*
X37287453Y2139500D01*
X37456148Y2139500D01*
X37456155Y2139500D01*
X37624188Y2154623D01*
X37748770Y2189006D01*
X37818627Y2187867D01*
X37876782Y2149139D01*
X37904766Y2085118D01*
X37905546Y2076698D01*
X37905616Y2075489D01*
X37921211Y1987042D01*
X37936489Y1900401D01*
X37953552Y1860845D01*
X38006904Y1737161D01*
X38081870Y1636466D01*
X38113067Y1594561D01*
X38249254Y1480286D01*
X38327990Y1440743D01*
X38408118Y1400501D01*
X38408119Y1400501D01*
X38408123Y1400499D01*
X38581110Y1359500D01*
X38581113Y1359500D01*
X38714285Y1359500D01*
X38714292Y1359500D01*
X38846577Y1374962D01*
X39013635Y1435766D01*
X39162168Y1533457D01*
X39284167Y1662769D01*
X39373057Y1816731D01*
X39424045Y1987042D01*
X39434382Y2164520D01*
X39403511Y2339599D01*
X39333096Y2502838D01*
X39331592Y2504858D01*
X39226932Y2645440D01*
X39090746Y2759714D01*
X39090744Y2759715D01*
X38931881Y2839500D01*
X38909561Y2844790D01*
X38758890Y2880500D01*
X38721860Y2880500D01*
X38654821Y2900185D01*
X38609066Y2952989D01*
X38599122Y3022147D01*
X38600969Y3032092D01*
X38617470Y3104391D01*
X38644191Y3221463D01*
X38654290Y3446330D01*
X38624075Y3669387D01*
X38602007Y3737303D01*
X38600013Y3807141D01*
X38636093Y3866974D01*
X38698793Y3897803D01*
X38712725Y3899409D01*
X38714284Y3899500D01*
X38714292Y3899500D01*
X38846577Y3914962D01*
X39013635Y3975766D01*
X39162168Y4073457D01*
X39284167Y4202769D01*
X39373057Y4356731D01*
X39424045Y4527042D01*
X39434382Y4704520D01*
X39403511Y4879599D01*
X39333096Y5042838D01*
X39226933Y5185439D01*
X39154112Y5246543D01*
X39090746Y5299714D01*
X39090744Y5299715D01*
X38931881Y5379500D01*
X38931877Y5379501D01*
X38758890Y5420500D01*
X38625708Y5420500D01*
X38509958Y5406971D01*
X38493422Y5405038D01*
X38493419Y5405037D01*
X38326367Y5344236D01*
X38258675Y5299714D01*
X38177832Y5246543D01*
X38177831Y5246543D01*
X38177831Y5246542D01*
X38055833Y5117233D01*
X37966944Y4963272D01*
X37966943Y4963270D01*
X37966943Y4963269D01*
X37954000Y4920038D01*
X37915955Y4792959D01*
X37915954Y4792954D01*
X37910868Y4705630D01*
X37887318Y4639849D01*
X37831943Y4597242D01*
X37762323Y4591337D01*
X37743507Y4596748D01*
X37734022Y4600308D01*
X37512550Y4640500D01*
X37512547Y4640500D01*
X37343845Y4640500D01*
X37310434Y4637493D01*
X37175813Y4625378D01*
X37175807Y4625377D01*
X37051231Y4590995D01*
X36981370Y4592135D01*
X36923217Y4630863D01*
X36895233Y4694884D01*
X36894452Y4703317D01*
X36894381Y4704512D01*
X36894382Y4704520D01*
X36863511Y4879599D01*
X36793096Y5042838D01*
X36686933Y5185439D01*
X36614112Y5246543D01*
X36550746Y5299714D01*
X36550744Y5299715D01*
X36391881Y5379500D01*
X36391877Y5379501D01*
X36218890Y5420500D01*
X36085708Y5420500D01*
X35969958Y5406971D01*
X35953422Y5405038D01*
X35953419Y5405037D01*
X35786367Y5344236D01*
X35718675Y5299714D01*
X35637832Y5246543D01*
X35637831Y5246543D01*
X35637831Y5246542D01*
X35515833Y5117233D01*
X35426944Y4963272D01*
X35426943Y4963270D01*
X35426943Y4963269D01*
X35414000Y4920038D01*
X35375955Y4792959D01*
X35375954Y4792954D01*
X35365618Y4615481D01*
X35365618Y4615480D01*
X35396488Y4440404D01*
X35466904Y4277161D01*
X35524349Y4200000D01*
X35573067Y4134561D01*
X35709254Y4020286D01*
X35787990Y3980743D01*
X35868118Y3940501D01*
X35868119Y3940501D01*
X35868123Y3940499D01*
X36041110Y3899500D01*
X36041113Y3899500D01*
X36078140Y3899500D01*
X36145179Y3879815D01*
X36190934Y3827011D01*
X36200878Y3757853D01*
X36199031Y3747908D01*
X36155810Y3558543D01*
X36155808Y3558532D01*
X36145880Y3337463D01*
X36145710Y3333670D01*
X36175925Y3110613D01*
X36175926Y3110609D01*
X36197991Y3042700D01*
X36199986Y2972859D01*
X36163906Y2913026D01*
X36101205Y2882198D01*
X36087299Y2880594D01*
X36085737Y2880503D01*
X36085711Y2880500D01*
X36085708Y2880500D01*
X35997775Y2870222D01*
X35953422Y2865038D01*
X35953419Y2865037D01*
X35786367Y2804236D01*
X35687343Y2739107D01*
X35637832Y2706543D01*
X35637831Y2706543D01*
X35637831Y2706542D01*
X35515833Y2577233D01*
X35426944Y2423272D01*
X35375955Y2252959D01*
X35375954Y2252954D01*
X35365618Y2075481D01*
X35365618Y2075480D01*
X30393322Y2075480D01*
X30409716Y2200000D01*
X30388940Y2357806D01*
X30333370Y2491966D01*
X30328031Y2504856D01*
X30328030Y2504857D01*
X30328030Y2504858D01*
X30231134Y2631134D01*
X30104858Y2728030D01*
X30104857Y2728031D01*
X30104855Y2728032D01*
X29957809Y2788939D01*
X29957807Y2788940D01*
X29957806Y2788940D01*
X29862026Y2801550D01*
X29800001Y2809716D01*
X29799999Y2809716D01*
X29798593Y2809531D01*
X29797407Y2809716D01*
X29791873Y2809716D01*
X29791873Y2810580D01*
X29729558Y2820300D01*
X29694732Y2844790D01*
X29289741Y3249782D01*
X29256256Y3311105D01*
X29253422Y3337463D01*
X29253422Y4668187D01*
X29273107Y4735226D01*
X29325911Y4780981D01*
X29393612Y4791125D01*
X29399998Y4790284D01*
X29400000Y4790284D01*
X29400001Y4790284D01*
X29420280Y4792954D01*
X29557806Y4811060D01*
X29704858Y4871970D01*
X29831134Y4968866D01*
X29928030Y5095142D01*
X29988940Y5242194D01*
X30009716Y5400000D01*
X29988940Y5557806D01*
X29928030Y5704858D01*
X29831134Y5831134D01*
X29704858Y5928030D01*
X29704857Y5928031D01*
X29704855Y5928032D01*
X29557809Y5988939D01*
X29557807Y5988940D01*
X29557806Y5988940D01*
X29478903Y5999328D01*
X29400001Y6009716D01*
X29400000Y6009716D01*
X29393603Y6008874D01*
X29324568Y6019642D01*
X29272314Y6066024D01*
X29253422Y6131814D01*
X29253422Y6703673D01*
X29273107Y6770712D01*
X29325911Y6816467D01*
X29395069Y6826411D01*
X29424874Y6818234D01*
X29442194Y6811060D01*
X29581640Y6792702D01*
X29599999Y6790284D01*
X29600000Y6790284D01*
X29600001Y6790284D01*
X29616446Y6792450D01*
X29757806Y6811060D01*
X29904858Y6871970D01*
X30031134Y6968866D01*
X30128030Y7095142D01*
X30188940Y7242194D01*
X30209716Y7400000D01*
X30188940Y7557806D01*
X30147757Y7657233D01*
X30128031Y7704856D01*
X30128030Y7704857D01*
X30128030Y7704858D01*
X30031134Y7831134D01*
X30031132Y7831136D01*
X30031131Y7831137D01*
X30003013Y7852713D01*
X29961811Y7909141D01*
X29954500Y7951088D01*
X29954500Y11650161D01*
X29974185Y11717200D01*
X30003011Y11748534D01*
X30030056Y11769286D01*
X30126952Y11895562D01*
X30187862Y12042614D01*
X30208638Y12200420D01*
X30187862Y12358226D01*
X30126952Y12505278D01*
X30030056Y12631554D01*
X29903780Y12728450D01*
X29903779Y12728451D01*
X29903777Y12728452D01*
X29756731Y12789359D01*
X29756729Y12789360D01*
X29756728Y12789360D01*
X29670624Y12800696D01*
X29598923Y12810136D01*
X29598921Y12810136D01*
X29441116Y12789360D01*
X29441112Y12789359D01*
X29424872Y12782632D01*
X29355403Y12775165D01*
X29292924Y12806441D01*
X29257273Y12866530D01*
X29253422Y12897194D01*
X29253422Y16269631D01*
X29273107Y16336670D01*
X29297377Y16363050D01*
X29297309Y16363118D01*
X29298953Y16364763D01*
X29301943Y16368013D01*
X29303056Y16368866D01*
X29399952Y16495142D01*
X29460862Y16642194D01*
X29481638Y16800000D01*
X29460862Y16957806D01*
X29399952Y17104858D01*
X29303056Y17231134D01*
X29303054Y17231136D01*
X29303053Y17231137D01*
X29301935Y17231995D01*
X29301228Y17232963D01*
X29297310Y17236881D01*
X29297921Y17237493D01*
X29260732Y17288423D01*
X29253422Y17330370D01*
X29253422Y20868538D01*
X29273107Y20935577D01*
X29325911Y20981332D01*
X29395069Y20991276D01*
X29457130Y20963525D01*
X29465099Y20956838D01*
X29474965Y20948559D01*
X29478941Y20944916D01*
X30265333Y20158524D01*
X31020183Y19403674D01*
X31053668Y19342351D01*
X31055441Y19299809D01*
X31049170Y19252171D01*
X31049170Y19252168D01*
X31061967Y19154964D01*
X31069946Y19094363D01*
X31069947Y19094359D01*
X31130854Y18947313D01*
X31130855Y18947311D01*
X31130856Y18947310D01*
X31227752Y18821034D01*
X31354028Y18724138D01*
X31501080Y18663228D01*
X31640526Y18644870D01*
X31658885Y18642452D01*
X31658886Y18642452D01*
X31658887Y18642452D01*
X31714007Y18649710D01*
X31794200Y18660267D01*
X31863235Y18649502D01*
X31915491Y18603122D01*
X31934386Y18537328D01*
X31934386Y18077038D01*
X31914701Y18009999D01*
X31898064Y17989354D01*
X31884417Y17975708D01*
X31864568Y17959588D01*
X31856584Y17954372D01*
X31836134Y17928098D01*
X31831050Y17922341D01*
X31828569Y17919860D01*
X31828553Y17919841D01*
X31815742Y17901899D01*
X31783914Y17861007D01*
X31780364Y17854446D01*
X31777117Y17847804D01*
X31762325Y17798119D01*
X31745499Y17749106D01*
X31744278Y17741788D01*
X31743357Y17734406D01*
X31745500Y17682626D01*
X31745500Y9981335D01*
X31736061Y9933883D01*
X31699947Y9846696D01*
X31699946Y9846692D01*
X31679961Y9694891D01*
X31679170Y9688886D01*
X31692328Y9588940D01*
X31699946Y9531081D01*
X31699947Y9531077D01*
X31760854Y9384031D01*
X31760855Y9384029D01*
X31760856Y9384028D01*
X31857752Y9257752D01*
X31984028Y9160856D01*
X31984029Y9160856D01*
X31984030Y9160855D01*
X31991391Y9157806D01*
X32131080Y9099946D01*
X32270526Y9081588D01*
X32288885Y9079170D01*
X32288886Y9079170D01*
X32288887Y9079170D01*
X32305332Y9081336D01*
X32446692Y9099946D01*
X32593744Y9160856D01*
X32720020Y9257752D01*
X32816916Y9384028D01*
X32877826Y9531080D01*
X32898561Y9688574D01*
X32898650Y9688777D01*
X32898561Y9689199D01*
X32886011Y9784521D01*
X32877826Y9846692D01*
X32840878Y9935892D01*
X32833410Y10005360D01*
X32864685Y10067839D01*
X32924774Y10103491D01*
X32994600Y10100997D01*
X33002875Y10097911D01*
X33068954Y10070541D01*
X33123355Y10026702D01*
X33145421Y9960408D01*
X33145500Y9955981D01*
X33145500Y9705385D01*
X33142418Y9694891D01*
X33144019Y9691494D01*
X33145500Y9672388D01*
X33145500Y4151088D01*
X33125815Y4084049D01*
X33096987Y4052713D01*
X33068868Y4031137D01*
X32971968Y3904856D01*
X32911061Y3757810D01*
X32911060Y3757806D01*
X32899420Y3669390D01*
X32890284Y3600000D01*
X32910515Y3446330D01*
X32911060Y3442195D01*
X32911061Y3442191D01*
X32971968Y3295145D01*
X32971969Y3295143D01*
X32971970Y3295142D01*
X33068866Y3168866D01*
X33195142Y3071970D01*
X33342194Y3011060D01*
X33481640Y2992702D01*
X33499999Y2990284D01*
X33500000Y2990284D01*
X33500001Y2990284D01*
X33516446Y2992450D01*
X33657806Y3011060D01*
X33804858Y3071970D01*
X33931134Y3168866D01*
X34028030Y3295142D01*
X34088940Y3442194D01*
X34109716Y3600000D01*
X34088940Y3757806D01*
X34036892Y3883464D01*
X34028031Y3904856D01*
X34028030Y3904857D01*
X34028030Y3904858D01*
X33931134Y4031134D01*
X33931132Y4031136D01*
X33931131Y4031137D01*
X33903013Y4052713D01*
X33861811Y4109141D01*
X33854500Y4151088D01*
X33854500Y7155480D01*
X35365618Y7155480D01*
X35376256Y7095145D01*
X35396489Y6980401D01*
X35401465Y6968866D01*
X35466904Y6817161D01*
X35551394Y6703673D01*
X35573067Y6674561D01*
X35709254Y6560286D01*
X35787990Y6520743D01*
X35868118Y6480501D01*
X35868119Y6480501D01*
X35868123Y6480499D01*
X36041110Y6439500D01*
X36041113Y6439500D01*
X36174285Y6439500D01*
X36174292Y6439500D01*
X36306577Y6454962D01*
X36473635Y6515766D01*
X36622168Y6613457D01*
X36744167Y6742769D01*
X36833057Y6896731D01*
X36884045Y7067042D01*
X36889196Y7155480D01*
X37905618Y7155480D01*
X37916256Y7095145D01*
X37936489Y6980401D01*
X37941465Y6968866D01*
X38006904Y6817161D01*
X38091394Y6703673D01*
X38113067Y6674561D01*
X38249254Y6560286D01*
X38327990Y6520743D01*
X38408118Y6480501D01*
X38408119Y6480501D01*
X38408123Y6480499D01*
X38581110Y6439500D01*
X38581113Y6439500D01*
X38714285Y6439500D01*
X38714292Y6439500D01*
X38846577Y6454962D01*
X39013635Y6515766D01*
X39162168Y6613457D01*
X39284167Y6742769D01*
X39373057Y6896731D01*
X39424045Y7067042D01*
X39434382Y7244520D01*
X39403511Y7419599D01*
X39333096Y7582838D01*
X39226933Y7725439D01*
X39154112Y7786543D01*
X39090746Y7839714D01*
X39090744Y7839715D01*
X38931881Y7919500D01*
X38931877Y7919501D01*
X38758890Y7960500D01*
X38625708Y7960500D01*
X38509958Y7946971D01*
X38493422Y7945038D01*
X38493419Y7945037D01*
X38326367Y7884236D01*
X38258675Y7839714D01*
X38177832Y7786543D01*
X38177831Y7786543D01*
X38177831Y7786542D01*
X38055833Y7657233D01*
X37966944Y7503272D01*
X37915955Y7332959D01*
X37915954Y7332954D01*
X37905618Y7155481D01*
X37905618Y7155480D01*
X36889196Y7155480D01*
X36894382Y7244520D01*
X36863511Y7419599D01*
X36793096Y7582838D01*
X36686933Y7725439D01*
X36614112Y7786543D01*
X36550746Y7839714D01*
X36550744Y7839715D01*
X36391881Y7919500D01*
X36391877Y7919501D01*
X36218890Y7960500D01*
X36085708Y7960500D01*
X35969958Y7946971D01*
X35953422Y7945038D01*
X35953419Y7945037D01*
X35786367Y7884236D01*
X35718675Y7839714D01*
X35637832Y7786543D01*
X35637831Y7786543D01*
X35637831Y7786542D01*
X35515833Y7657233D01*
X35426944Y7503272D01*
X35375955Y7332959D01*
X35375954Y7332954D01*
X35365618Y7155481D01*
X35365618Y7155480D01*
X33854500Y7155480D01*
X33854500Y9695480D01*
X35365618Y9695480D01*
X35396488Y9520404D01*
X35466904Y9357161D01*
X35540912Y9257752D01*
X35573067Y9214561D01*
X35709254Y9100286D01*
X35787990Y9060743D01*
X35868118Y9020501D01*
X35868119Y9020501D01*
X35868123Y9020499D01*
X36041110Y8979500D01*
X36041113Y8979500D01*
X36174285Y8979500D01*
X36174292Y8979500D01*
X36306577Y8994962D01*
X36473635Y9055766D01*
X36622168Y9153457D01*
X36744167Y9282769D01*
X36833057Y9436731D01*
X36884045Y9607042D01*
X36889196Y9695480D01*
X37905618Y9695480D01*
X37936488Y9520404D01*
X38006904Y9357161D01*
X38080912Y9257752D01*
X38113067Y9214561D01*
X38249254Y9100286D01*
X38327990Y9060743D01*
X38408118Y9020501D01*
X38408119Y9020501D01*
X38408123Y9020499D01*
X38581110Y8979500D01*
X38581113Y8979500D01*
X38714285Y8979500D01*
X38714292Y8979500D01*
X38846577Y8994962D01*
X39013635Y9055766D01*
X39162168Y9153457D01*
X39284167Y9282769D01*
X39373057Y9436731D01*
X39424045Y9607042D01*
X39434382Y9784520D01*
X39403511Y9959599D01*
X39333096Y10122838D01*
X39226933Y10265439D01*
X39154112Y10326543D01*
X39090746Y10379714D01*
X39090744Y10379715D01*
X38931881Y10459500D01*
X38931877Y10459501D01*
X38758890Y10500500D01*
X38625708Y10500500D01*
X38509958Y10486971D01*
X38493422Y10485038D01*
X38493419Y10485037D01*
X38326367Y10424236D01*
X38227343Y10359107D01*
X38177832Y10326543D01*
X38177831Y10326543D01*
X38177831Y10326542D01*
X38055833Y10197233D01*
X37966944Y10043272D01*
X37915955Y9872959D01*
X37915954Y9872954D01*
X37905618Y9695481D01*
X37905618Y9695480D01*
X36889196Y9695480D01*
X36894382Y9784520D01*
X36863511Y9959599D01*
X36793096Y10122838D01*
X36686933Y10265439D01*
X36614112Y10326543D01*
X36550746Y10379714D01*
X36550744Y10379715D01*
X36391881Y10459500D01*
X36391877Y10459501D01*
X36218890Y10500500D01*
X36085708Y10500500D01*
X35969958Y10486971D01*
X35953422Y10485038D01*
X35953419Y10485037D01*
X35786367Y10424236D01*
X35687343Y10359107D01*
X35637832Y10326543D01*
X35637831Y10326543D01*
X35637831Y10326542D01*
X35515833Y10197233D01*
X35426944Y10043272D01*
X35375955Y9872959D01*
X35375954Y9872954D01*
X35365618Y9695481D01*
X35365618Y9695480D01*
X33854500Y9695480D01*
X33854500Y10344158D01*
X33857139Y10369604D01*
X33859095Y10378932D01*
X33857200Y10394129D01*
X33854977Y10411976D01*
X33854500Y10419652D01*
X33854500Y10423158D01*
X33854499Y10423167D01*
X33850871Y10444909D01*
X33845869Y10485038D01*
X33844461Y10496336D01*
X33844459Y10496340D01*
X33841979Y10504671D01*
X33841931Y10504823D01*
X33841456Y10506431D01*
X33840620Y10509238D01*
X33838884Y10516743D01*
X33838235Y10520639D01*
X33840707Y10521052D01*
X33836874Y10559352D01*
X33849355Y10654146D01*
X33835437Y10759860D01*
X33841095Y10816306D01*
X33854500Y10855351D01*
X33854500Y10855354D01*
X33855723Y10862685D01*
X33856642Y10870053D01*
X33854500Y10921832D01*
X33854500Y12235480D01*
X35365618Y12235480D01*
X35396488Y12060404D01*
X35466904Y11897161D01*
X35562103Y11769288D01*
X35573067Y11754561D01*
X35709254Y11640286D01*
X35787990Y11600743D01*
X35868118Y11560501D01*
X35868119Y11560501D01*
X35868123Y11560499D01*
X36041110Y11519500D01*
X36041113Y11519500D01*
X36174285Y11519500D01*
X36174292Y11519500D01*
X36306577Y11534962D01*
X36473635Y11595766D01*
X36622168Y11693457D01*
X36744167Y11822769D01*
X36833057Y11976731D01*
X36884045Y12147042D01*
X36889196Y12235480D01*
X37905618Y12235480D01*
X37936488Y12060404D01*
X38006904Y11897161D01*
X38102103Y11769288D01*
X38113067Y11754561D01*
X38249254Y11640286D01*
X38327990Y11600743D01*
X38408118Y11560501D01*
X38408119Y11560501D01*
X38408123Y11560499D01*
X38581110Y11519500D01*
X38581113Y11519500D01*
X38714285Y11519500D01*
X38714292Y11519500D01*
X38846577Y11534962D01*
X39013635Y11595766D01*
X39162168Y11693457D01*
X39284167Y11822769D01*
X39373057Y11976731D01*
X39424045Y12147042D01*
X39434382Y12324520D01*
X39403511Y12499599D01*
X39333096Y12662838D01*
X39321989Y12677757D01*
X39238903Y12789360D01*
X39226933Y12805439D01*
X39221335Y12810136D01*
X39090746Y12919714D01*
X39090744Y12919715D01*
X38931881Y12999500D01*
X38931877Y12999501D01*
X38758890Y13040500D01*
X38625708Y13040500D01*
X38509958Y13026971D01*
X38493422Y13025038D01*
X38493419Y13025037D01*
X38326367Y12964236D01*
X38258675Y12919714D01*
X38177832Y12866543D01*
X38177831Y12866543D01*
X38177831Y12866542D01*
X38055833Y12737233D01*
X37966944Y12583272D01*
X37915955Y12412959D01*
X37915954Y12412954D01*
X37905618Y12235481D01*
X37905618Y12235480D01*
X36889196Y12235480D01*
X36894382Y12324520D01*
X36863511Y12499599D01*
X36793096Y12662838D01*
X36781989Y12677757D01*
X36698903Y12789360D01*
X36686933Y12805439D01*
X36681335Y12810136D01*
X36550746Y12919714D01*
X36550744Y12919715D01*
X36391881Y12999500D01*
X36391877Y12999501D01*
X36218890Y13040500D01*
X36085708Y13040500D01*
X35969958Y13026971D01*
X35953422Y13025038D01*
X35953419Y13025037D01*
X35786367Y12964236D01*
X35718675Y12919714D01*
X35637832Y12866543D01*
X35637831Y12866543D01*
X35637831Y12866542D01*
X35515833Y12737233D01*
X35426944Y12583272D01*
X35375955Y12412959D01*
X35375954Y12412954D01*
X35365618Y12235481D01*
X35365618Y12235480D01*
X33854500Y12235480D01*
X33854500Y14775480D01*
X35365618Y14775480D01*
X35396488Y14600404D01*
X35466904Y14437161D01*
X35532621Y14348889D01*
X35573067Y14294561D01*
X35709254Y14180286D01*
X35780436Y14144537D01*
X35868118Y14100501D01*
X35868119Y14100501D01*
X35868123Y14100499D01*
X36041110Y14059500D01*
X36041113Y14059500D01*
X36174285Y14059500D01*
X36174292Y14059500D01*
X36306577Y14074962D01*
X36473635Y14135766D01*
X36622168Y14233457D01*
X36744167Y14362769D01*
X36833057Y14516731D01*
X36884045Y14687042D01*
X36889196Y14775480D01*
X37905618Y14775480D01*
X37936488Y14600404D01*
X38006904Y14437161D01*
X38072621Y14348889D01*
X38113067Y14294561D01*
X38249254Y14180286D01*
X38320436Y14144537D01*
X38408118Y14100501D01*
X38408119Y14100501D01*
X38408123Y14100499D01*
X38581110Y14059500D01*
X38581113Y14059500D01*
X38714285Y14059500D01*
X38714292Y14059500D01*
X38846577Y14074962D01*
X39013635Y14135766D01*
X39162168Y14233457D01*
X39284167Y14362769D01*
X39373057Y14516731D01*
X39424045Y14687042D01*
X39434382Y14864520D01*
X39403511Y15039599D01*
X39333096Y15202838D01*
X39328299Y15209281D01*
X39226932Y15345440D01*
X39090746Y15459714D01*
X39090744Y15459715D01*
X38931881Y15539500D01*
X38931877Y15539501D01*
X38758890Y15580500D01*
X38625708Y15580500D01*
X38516104Y15567689D01*
X38493422Y15565038D01*
X38493419Y15565037D01*
X38326367Y15504236D01*
X38227343Y15439107D01*
X38177832Y15406543D01*
X38177831Y15406543D01*
X38177831Y15406542D01*
X38055833Y15277233D01*
X37966944Y15123272D01*
X37915955Y14952959D01*
X37915954Y14952954D01*
X37905618Y14775481D01*
X37905618Y14775480D01*
X36889196Y14775480D01*
X36894382Y14864520D01*
X36863511Y15039599D01*
X36793096Y15202838D01*
X36788299Y15209281D01*
X36686932Y15345440D01*
X36550746Y15459714D01*
X36550744Y15459715D01*
X36391881Y15539500D01*
X36391877Y15539501D01*
X36218890Y15580500D01*
X36085708Y15580500D01*
X35976104Y15567689D01*
X35953422Y15565038D01*
X35953419Y15565037D01*
X35786367Y15504236D01*
X35687343Y15439107D01*
X35637832Y15406543D01*
X35637831Y15406543D01*
X35637831Y15406542D01*
X35515833Y15277233D01*
X35426944Y15123272D01*
X35375955Y14952959D01*
X35375954Y14952954D01*
X35365618Y14775481D01*
X35365618Y14775480D01*
X33854500Y14775480D01*
X33854500Y15600000D01*
X41390284Y15600000D01*
X41408753Y15459714D01*
X41411060Y15442195D01*
X41411061Y15442191D01*
X41471968Y15295145D01*
X41471969Y15295143D01*
X41471970Y15295142D01*
X41568866Y15168866D01*
X41695142Y15071970D01*
X41842194Y15011060D01*
X41981640Y14992702D01*
X41999999Y14990284D01*
X42000000Y14990284D01*
X42000001Y14990284D01*
X42016446Y14992450D01*
X42157806Y15011060D01*
X42274050Y15059210D01*
X42343517Y15066678D01*
X42405996Y15035403D01*
X42441648Y14975314D01*
X42445500Y14944648D01*
X42445500Y8551088D01*
X42425815Y8484049D01*
X42396987Y8452713D01*
X42368868Y8431137D01*
X42271968Y8304856D01*
X42211061Y8157810D01*
X42211060Y8157806D01*
X42190284Y8000001D01*
X42190284Y8000000D01*
X42211060Y7842195D01*
X42211061Y7842191D01*
X42271968Y7695145D01*
X42271969Y7695143D01*
X42271970Y7695142D01*
X42368866Y7568866D01*
X42495142Y7471970D01*
X42642194Y7411060D01*
X42781640Y7392702D01*
X42799999Y7390284D01*
X42800000Y7390284D01*
X42800001Y7390284D01*
X42816446Y7392450D01*
X42957806Y7411060D01*
X43104858Y7471970D01*
X43231134Y7568866D01*
X43328030Y7695142D01*
X43388940Y7842194D01*
X43409716Y8000000D01*
X43388940Y8157806D01*
X43348333Y8255841D01*
X43328031Y8304856D01*
X43328030Y8304857D01*
X43328030Y8304858D01*
X43231134Y8431134D01*
X43231132Y8431136D01*
X43231131Y8431137D01*
X43203013Y8452713D01*
X43161811Y8509141D01*
X43154500Y8551088D01*
X43154500Y13144648D01*
X43174185Y13211687D01*
X43226989Y13257442D01*
X43296147Y13267386D01*
X43325944Y13259212D01*
X43442194Y13211060D01*
X43581640Y13192702D01*
X43599999Y13190284D01*
X43600000Y13190284D01*
X43600001Y13190284D01*
X43616446Y13192450D01*
X43757806Y13211060D01*
X43904858Y13271970D01*
X44031134Y13368866D01*
X44128030Y13495142D01*
X44188940Y13642194D01*
X44209716Y13800000D01*
X44188940Y13957806D01*
X44136823Y14083629D01*
X44128031Y14104856D01*
X44128030Y14104857D01*
X44128030Y14104858D01*
X44031134Y14231134D01*
X43904858Y14328030D01*
X43904855Y14328031D01*
X43903013Y14329445D01*
X43861811Y14385873D01*
X43854500Y14427821D01*
X43854500Y28488715D01*
X43874185Y28555754D01*
X43926989Y28601509D01*
X43950166Y28608165D01*
X43949954Y28608956D01*
X43957802Y28611060D01*
X43957806Y28611060D01*
X44104858Y28671970D01*
X44231134Y28768866D01*
X44328030Y28895142D01*
X44388940Y29042194D01*
X44409716Y29200000D01*
X44388940Y29357806D01*
X44328030Y29504858D01*
X44231134Y29631134D01*
X44104858Y29728030D01*
X44104857Y29728031D01*
X44104855Y29728032D01*
X43957809Y29788939D01*
X43957807Y29788940D01*
X43957806Y29788940D01*
X43878903Y29799328D01*
X43800001Y29809716D01*
X43799999Y29809716D01*
X43642194Y29788940D01*
X43642190Y29788939D01*
X43495144Y29728032D01*
X43368860Y29631130D01*
X43366181Y29628450D01*
X43363363Y29626912D01*
X43362418Y29626186D01*
X43362304Y29626334D01*
X43304858Y29594965D01*
X43235166Y29599949D01*
X43179233Y29641821D01*
X43154816Y29707285D01*
X43154500Y29716131D01*
X43154500Y44526837D01*
X43174185Y44593876D01*
X43226989Y44639631D01*
X43230991Y44641374D01*
X43304858Y44671970D01*
X43431134Y44768866D01*
X43528030Y44895142D01*
X43588940Y45042194D01*
X43609716Y45200000D01*
X43608812Y45206863D01*
X43604404Y45240348D01*
X43588940Y45357806D01*
X43528030Y45504858D01*
X43431134Y45631134D01*
X43304858Y45728030D01*
X43304857Y45728031D01*
X43304855Y45728032D01*
X43157809Y45788939D01*
X43157807Y45788940D01*
X43157806Y45788940D01*
X43078903Y45799328D01*
X43000001Y45809716D01*
X42999999Y45809716D01*
X42842194Y45788940D01*
X42842190Y45788939D01*
X42695144Y45728032D01*
X42568866Y45631134D01*
X42471968Y45504856D01*
X42411061Y45357810D01*
X42411060Y45357806D01*
X42391188Y45206863D01*
X42390284Y45200000D01*
X42411060Y45042194D01*
X42433118Y44988940D01*
X42436061Y44981837D01*
X42445500Y44934384D01*
X42445500Y26855353D01*
X42425815Y26788314D01*
X42373011Y26742559D01*
X42303853Y26732615D01*
X42274048Y26740792D01*
X42157809Y26788939D01*
X42157807Y26788940D01*
X42157806Y26788940D01*
X42069993Y26800501D01*
X42000001Y26809716D01*
X41999999Y26809716D01*
X41842194Y26788940D01*
X41842190Y26788939D01*
X41695144Y26728032D01*
X41568866Y26631134D01*
X41471968Y26504856D01*
X41411061Y26357810D01*
X41411060Y26357806D01*
X41390284Y26200001D01*
X41390284Y26200000D01*
X41411060Y26042195D01*
X41411061Y26042191D01*
X41471969Y25895144D01*
X41471970Y25895142D01*
X41539875Y25806648D01*
X41565070Y25741479D01*
X41565500Y25731161D01*
X41565500Y16068842D01*
X41545815Y16001803D01*
X41539876Y15993356D01*
X41471970Y15904859D01*
X41471969Y15904857D01*
X41411061Y15757810D01*
X41411060Y15757806D01*
X41391171Y15606734D01*
X41390284Y15600000D01*
X33854500Y15600000D01*
X33854500Y17315480D01*
X35365618Y17315480D01*
X35395224Y17147572D01*
X35396489Y17140401D01*
X35410152Y17108728D01*
X35466904Y16977161D01*
X35545217Y16871970D01*
X35573067Y16834561D01*
X35709254Y16720286D01*
X35787990Y16680743D01*
X35868118Y16640501D01*
X35868119Y16640501D01*
X35868123Y16640499D01*
X36041110Y16599500D01*
X36041113Y16599500D01*
X36174285Y16599500D01*
X36174292Y16599500D01*
X36306577Y16614962D01*
X36473635Y16675766D01*
X36622168Y16773457D01*
X36744167Y16902769D01*
X36833057Y17056731D01*
X36884045Y17227042D01*
X36889196Y17315480D01*
X37905618Y17315480D01*
X37935224Y17147572D01*
X37936489Y17140401D01*
X37950152Y17108728D01*
X38006904Y16977161D01*
X38085217Y16871970D01*
X38113067Y16834561D01*
X38249254Y16720286D01*
X38327990Y16680743D01*
X38408118Y16640501D01*
X38408119Y16640501D01*
X38408123Y16640499D01*
X38581110Y16599500D01*
X38581113Y16599500D01*
X38714285Y16599500D01*
X38714292Y16599500D01*
X38846577Y16614962D01*
X39013635Y16675766D01*
X39162168Y16773457D01*
X39284167Y16902769D01*
X39373057Y17056731D01*
X39424045Y17227042D01*
X39434382Y17404520D01*
X39403511Y17579599D01*
X39333096Y17742838D01*
X39226933Y17885439D01*
X39215369Y17895142D01*
X39090746Y17999714D01*
X39090744Y17999715D01*
X38931881Y18079500D01*
X38931877Y18079501D01*
X38758890Y18120500D01*
X38625708Y18120500D01*
X38509958Y18106971D01*
X38493422Y18105038D01*
X38493419Y18105037D01*
X38326367Y18044236D01*
X38258675Y17999714D01*
X38177832Y17946543D01*
X38177831Y17946543D01*
X38177831Y17946542D01*
X38055833Y17817233D01*
X37966944Y17663272D01*
X37915955Y17492959D01*
X37915954Y17492954D01*
X37905618Y17315481D01*
X37905618Y17315480D01*
X36889196Y17315480D01*
X36894382Y17404520D01*
X36863511Y17579599D01*
X36793096Y17742838D01*
X36686933Y17885439D01*
X36675369Y17895142D01*
X36550746Y17999714D01*
X36550744Y17999715D01*
X36391881Y18079500D01*
X36391877Y18079501D01*
X36218890Y18120500D01*
X36085708Y18120500D01*
X35969958Y18106971D01*
X35953422Y18105038D01*
X35953419Y18105037D01*
X35786367Y18044236D01*
X35718675Y17999714D01*
X35637832Y17946543D01*
X35637831Y17946543D01*
X35637831Y17946542D01*
X35515833Y17817233D01*
X35426944Y17663272D01*
X35375955Y17492959D01*
X35375954Y17492954D01*
X35365618Y17315481D01*
X35365618Y17315480D01*
X33854500Y17315480D01*
X33854500Y19855480D01*
X35365618Y19855480D01*
X35396488Y19680404D01*
X35466904Y19517161D01*
X35551393Y19403674D01*
X35573067Y19374561D01*
X35709254Y19260286D01*
X35787990Y19220743D01*
X35868118Y19180501D01*
X35868119Y19180501D01*
X35868123Y19180499D01*
X36041110Y19139500D01*
X36041113Y19139500D01*
X36174285Y19139500D01*
X36174292Y19139500D01*
X36306577Y19154962D01*
X36473635Y19215766D01*
X36622168Y19313457D01*
X36744167Y19442769D01*
X36833057Y19596731D01*
X36884045Y19767042D01*
X36894382Y19944520D01*
X36863511Y20119599D01*
X36793096Y20282838D01*
X36686933Y20425439D01*
X36653361Y20453609D01*
X36550746Y20539714D01*
X36550744Y20539715D01*
X36391881Y20619500D01*
X36381455Y20621971D01*
X36218890Y20660500D01*
X36085708Y20660500D01*
X35969958Y20646971D01*
X35953422Y20645038D01*
X35953419Y20645037D01*
X35786367Y20584236D01*
X35718675Y20539714D01*
X35637832Y20486543D01*
X35637831Y20486543D01*
X35637831Y20486542D01*
X35515833Y20357233D01*
X35426944Y20203272D01*
X35375955Y20032959D01*
X35375954Y20032954D01*
X35365618Y19855481D01*
X35365618Y19855480D01*
X33854500Y19855480D01*
X33854500Y22395480D01*
X35365618Y22395480D01*
X35396488Y22220404D01*
X35466904Y22057161D01*
X35568328Y21920927D01*
X35573067Y21914561D01*
X35709254Y21800286D01*
X35761522Y21774036D01*
X35868118Y21720501D01*
X35868119Y21720501D01*
X35868123Y21720499D01*
X36041110Y21679500D01*
X36041113Y21679500D01*
X36174285Y21679500D01*
X36174292Y21679500D01*
X36306577Y21694962D01*
X36473635Y21755766D01*
X36622168Y21853457D01*
X36744167Y21982769D01*
X36833057Y22136731D01*
X36884045Y22307042D01*
X36894382Y22484520D01*
X36863511Y22659599D01*
X36793096Y22822838D01*
X36790511Y22826310D01*
X36723132Y22916816D01*
X36686933Y22965439D01*
X36614112Y23026543D01*
X36550746Y23079714D01*
X36550744Y23079715D01*
X36391881Y23159500D01*
X36391877Y23159501D01*
X36218890Y23200500D01*
X36085708Y23200500D01*
X35969958Y23186971D01*
X35953422Y23185038D01*
X35953419Y23185037D01*
X35786367Y23124236D01*
X35718675Y23079714D01*
X35637832Y23026543D01*
X35637831Y23026543D01*
X35637831Y23026542D01*
X35515833Y22897233D01*
X35426944Y22743272D01*
X35375955Y22572959D01*
X35375954Y22572954D01*
X35365618Y22395481D01*
X35365618Y22395480D01*
X33854500Y22395480D01*
X33854500Y24935480D01*
X35365618Y24935480D01*
X35396488Y24760404D01*
X35466904Y24597161D01*
X35535622Y24504858D01*
X35573067Y24454561D01*
X35709254Y24340286D01*
X35760401Y24314599D01*
X35868118Y24260501D01*
X35868119Y24260501D01*
X35868123Y24260499D01*
X36041110Y24219500D01*
X36041113Y24219500D01*
X36174285Y24219500D01*
X36174292Y24219500D01*
X36306577Y24234962D01*
X36473635Y24295766D01*
X36622168Y24393457D01*
X36744167Y24522769D01*
X36833057Y24676731D01*
X36884045Y24847042D01*
X36894382Y25024520D01*
X36863511Y25199599D01*
X36793096Y25362838D01*
X36788608Y25368866D01*
X36694599Y25495142D01*
X36686933Y25505439D01*
X36614112Y25566543D01*
X36550746Y25619714D01*
X36550744Y25619715D01*
X36391881Y25699500D01*
X36391877Y25699501D01*
X36218890Y25740500D01*
X36085708Y25740500D01*
X35969958Y25726971D01*
X35953422Y25725038D01*
X35953419Y25725037D01*
X35786367Y25664236D01*
X35718675Y25619714D01*
X35637832Y25566543D01*
X35637831Y25566543D01*
X35637831Y25566542D01*
X35515833Y25437233D01*
X35426944Y25283272D01*
X35375955Y25112959D01*
X35375954Y25112954D01*
X35365618Y24935481D01*
X35365618Y24935480D01*
X33854500Y24935480D01*
X33854500Y27475480D01*
X35365618Y27475480D01*
X35396488Y27300404D01*
X35466904Y27137161D01*
X35569017Y27000001D01*
X35573067Y26994561D01*
X35709254Y26880286D01*
X35758900Y26855353D01*
X35868118Y26800501D01*
X35868119Y26800501D01*
X35868123Y26800499D01*
X36041110Y26759500D01*
X36041113Y26759500D01*
X36174285Y26759500D01*
X36174292Y26759500D01*
X36306577Y26774962D01*
X36473635Y26835766D01*
X36622168Y26933457D01*
X36744167Y27062769D01*
X36833057Y27216731D01*
X36884045Y27387042D01*
X36894382Y27564520D01*
X36863511Y27739599D01*
X36793096Y27902838D01*
X36686933Y28045439D01*
X36614112Y28106543D01*
X36550746Y28159714D01*
X36550744Y28159715D01*
X36391881Y28239500D01*
X36391877Y28239501D01*
X36218890Y28280500D01*
X36085708Y28280500D01*
X35969958Y28266971D01*
X35953422Y28265038D01*
X35953419Y28265037D01*
X35786367Y28204236D01*
X35718675Y28159714D01*
X35637832Y28106543D01*
X35637831Y28106543D01*
X35637831Y28106542D01*
X35515833Y27977233D01*
X35426944Y27823272D01*
X35375955Y27652959D01*
X35375954Y27652954D01*
X35365618Y27475481D01*
X35365618Y27475480D01*
X33854500Y27475480D01*
X33854500Y30015480D01*
X35365618Y30015480D01*
X35396488Y29840404D01*
X35466904Y29677161D01*
X35539624Y29579482D01*
X35573067Y29534561D01*
X35709254Y29420286D01*
X35760401Y29394599D01*
X35868118Y29340501D01*
X35868119Y29340501D01*
X35868123Y29340499D01*
X36041110Y29299500D01*
X36041113Y29299500D01*
X36174285Y29299500D01*
X36174292Y29299500D01*
X36306577Y29314962D01*
X36473635Y29375766D01*
X36622168Y29473457D01*
X36744167Y29602769D01*
X36833057Y29756731D01*
X36884045Y29927042D01*
X36894382Y30104520D01*
X36863511Y30279599D01*
X36793096Y30442838D01*
X36686933Y30585439D01*
X36614112Y30646543D01*
X36550746Y30699714D01*
X36550744Y30699715D01*
X36391881Y30779500D01*
X36391877Y30779501D01*
X36305386Y30800000D01*
X37190284Y30800000D01*
X37210487Y30646543D01*
X37211060Y30642195D01*
X37211061Y30642191D01*
X37271968Y30495145D01*
X37271969Y30495143D01*
X37271970Y30495142D01*
X37368866Y30368866D01*
X37406987Y30339615D01*
X37448189Y30283188D01*
X37455500Y30241240D01*
X37455500Y21817748D01*
X37455264Y21812342D01*
X37451516Y21769513D01*
X37462644Y21727983D01*
X37463815Y21722701D01*
X37471282Y21680355D01*
X37472227Y21677758D01*
X37481795Y21654661D01*
X37482960Y21652162D01*
X37507622Y21616942D01*
X37510529Y21612379D01*
X37532027Y21575144D01*
X37532029Y21575143D01*
X37532030Y21575141D01*
X37564963Y21547506D01*
X37568952Y21543851D01*
X37761297Y21351506D01*
X37794782Y21290183D01*
X37796555Y21247641D01*
X37790284Y21200003D01*
X37790284Y21200000D01*
X37806637Y21075786D01*
X37811060Y21042195D01*
X37811061Y21042191D01*
X37871968Y20895145D01*
X37871969Y20895144D01*
X37871970Y20895142D01*
X37968866Y20768866D01*
X38095142Y20671970D01*
X38114212Y20664071D01*
X38168615Y20620233D01*
X38190682Y20553939D01*
X38173404Y20486239D01*
X38156956Y20464416D01*
X38055832Y20357231D01*
X37966944Y20203272D01*
X37915955Y20032959D01*
X37915954Y20032954D01*
X37905618Y19855481D01*
X37905618Y19855480D01*
X37936488Y19680404D01*
X38006904Y19517161D01*
X38091393Y19403674D01*
X38113067Y19374561D01*
X38249254Y19260286D01*
X38327990Y19220743D01*
X38408118Y19180501D01*
X38408119Y19180501D01*
X38408123Y19180499D01*
X38581110Y19139500D01*
X38581113Y19139500D01*
X38714285Y19139500D01*
X38714292Y19139500D01*
X38846577Y19154962D01*
X39013635Y19215766D01*
X39162168Y19313457D01*
X39284167Y19442769D01*
X39373057Y19596731D01*
X39424045Y19767042D01*
X39434382Y19944520D01*
X39403511Y20119599D01*
X39333096Y20282838D01*
X39226933Y20425439D01*
X39193361Y20453609D01*
X39090746Y20539714D01*
X39090744Y20539715D01*
X38931877Y20619502D01*
X38925092Y20621971D01*
X38925932Y20624280D01*
X38875347Y20653137D01*
X38843010Y20715073D01*
X38849292Y20784660D01*
X38866271Y20814657D01*
X38928029Y20895141D01*
X38928028Y20895141D01*
X38928030Y20895142D01*
X38988940Y21042194D01*
X39009716Y21200000D01*
X39009669Y21200354D01*
X39006934Y21221131D01*
X38988940Y21357806D01*
X38928030Y21504858D01*
X38899171Y21542467D01*
X38873977Y21607635D01*
X38888015Y21676080D01*
X38936828Y21726070D01*
X38955138Y21734475D01*
X39013630Y21755764D01*
X39013630Y21755765D01*
X39013635Y21755766D01*
X39162168Y21853457D01*
X39284167Y21982769D01*
X39373057Y22136731D01*
X39424045Y22307042D01*
X39434382Y22484520D01*
X39403511Y22659599D01*
X39333096Y22822838D01*
X39330511Y22826310D01*
X39263132Y22916816D01*
X39226933Y22965439D01*
X39154112Y23026543D01*
X39090746Y23079714D01*
X39090744Y23079715D01*
X38931881Y23159500D01*
X38931877Y23159501D01*
X38761000Y23200000D01*
X39990284Y23200000D01*
X40011060Y23042195D01*
X40011061Y23042191D01*
X40071968Y22895145D01*
X40071969Y22895143D01*
X40071970Y22895142D01*
X40168866Y22768866D01*
X40295142Y22671970D01*
X40295143Y22671970D01*
X40295144Y22671969D01*
X40344159Y22651667D01*
X40442194Y22611060D01*
X40581640Y22592702D01*
X40599999Y22590284D01*
X40600000Y22590284D01*
X40600001Y22590284D01*
X40616446Y22592450D01*
X40757806Y22611060D01*
X40904858Y22671970D01*
X41031134Y22768866D01*
X41128030Y22895142D01*
X41188940Y23042194D01*
X41209716Y23200000D01*
X41188940Y23357806D01*
X41128030Y23504858D01*
X41128029Y23504859D01*
X41128029Y23504860D01*
X41044047Y23614306D01*
X41031134Y23631134D01*
X41011947Y23645857D01*
X40993012Y23660387D01*
X40951810Y23716816D01*
X40944500Y23758762D01*
X40944500Y30841240D01*
X40964185Y30908279D01*
X40993011Y30939614D01*
X41031134Y30968866D01*
X41128030Y31095142D01*
X41188940Y31242194D01*
X41209716Y31400000D01*
X41188940Y31557806D01*
X41136924Y31683385D01*
X41128031Y31704856D01*
X41128030Y31704857D01*
X41128030Y31704858D01*
X41031134Y31831134D01*
X40904858Y31928030D01*
X40904857Y31928031D01*
X40904855Y31928032D01*
X40757809Y31988939D01*
X40757807Y31988940D01*
X40757806Y31988940D01*
X40678903Y31999328D01*
X40600001Y32009716D01*
X40599999Y32009716D01*
X40442194Y31988940D01*
X40442190Y31988939D01*
X40295144Y31928032D01*
X40168866Y31831134D01*
X40071968Y31704856D01*
X40011061Y31557810D01*
X40011060Y31557806D01*
X39990284Y31400001D01*
X39990284Y31400000D01*
X40011060Y31242195D01*
X40011061Y31242191D01*
X40071968Y31095145D01*
X40071969Y31095143D01*
X40071970Y31095142D01*
X40168866Y30968866D01*
X40206987Y30939615D01*
X40248189Y30883188D01*
X40255500Y30841240D01*
X40255500Y23758762D01*
X40235815Y23691723D01*
X40206988Y23660387D01*
X40168866Y23631135D01*
X40071970Y23504860D01*
X40071969Y23504857D01*
X40011061Y23357810D01*
X40011060Y23357806D01*
X39990284Y23200001D01*
X39990284Y23200000D01*
X38761000Y23200000D01*
X38758890Y23200500D01*
X38625708Y23200500D01*
X38509958Y23186971D01*
X38493422Y23185038D01*
X38493419Y23185037D01*
X38326367Y23124236D01*
X38324149Y23123121D01*
X38322465Y23122816D01*
X38319578Y23121764D01*
X38319398Y23122258D01*
X38255405Y23110626D01*
X38190819Y23137280D01*
X38150897Y23194621D01*
X38144500Y23233933D01*
X38144500Y24191861D01*
X38164185Y24258900D01*
X38216989Y24304655D01*
X38286147Y24314599D01*
X38324151Y24302671D01*
X38408118Y24260501D01*
X38408119Y24260501D01*
X38408123Y24260499D01*
X38581110Y24219500D01*
X38581113Y24219500D01*
X38714285Y24219500D01*
X38714292Y24219500D01*
X38846577Y24234962D01*
X39013635Y24295766D01*
X39162168Y24393457D01*
X39284167Y24522769D01*
X39373057Y24676731D01*
X39424045Y24847042D01*
X39434382Y25024520D01*
X39403511Y25199599D01*
X39333096Y25362838D01*
X39328608Y25368866D01*
X39234599Y25495142D01*
X39226933Y25505439D01*
X39154112Y25566543D01*
X39090746Y25619714D01*
X39090744Y25619715D01*
X38931881Y25699500D01*
X38931877Y25699501D01*
X38758890Y25740500D01*
X38625708Y25740500D01*
X38509958Y25726971D01*
X38493422Y25725038D01*
X38493419Y25725037D01*
X38326367Y25664236D01*
X38324149Y25663121D01*
X38322465Y25662816D01*
X38319578Y25661764D01*
X38319398Y25662258D01*
X38255405Y25650626D01*
X38190819Y25677280D01*
X38150897Y25734621D01*
X38144500Y25773933D01*
X38144500Y26731861D01*
X38164185Y26798900D01*
X38216989Y26844655D01*
X38286147Y26854599D01*
X38324151Y26842671D01*
X38408118Y26800501D01*
X38408119Y26800501D01*
X38408123Y26800499D01*
X38581110Y26759500D01*
X38581113Y26759500D01*
X38714285Y26759500D01*
X38714292Y26759500D01*
X38846577Y26774962D01*
X39013635Y26835766D01*
X39162168Y26933457D01*
X39284167Y27062769D01*
X39373057Y27216731D01*
X39424045Y27387042D01*
X39434382Y27564520D01*
X39403511Y27739599D01*
X39333096Y27902838D01*
X39226933Y28045439D01*
X39154112Y28106543D01*
X39090746Y28159714D01*
X39090744Y28159715D01*
X38931881Y28239500D01*
X38931877Y28239501D01*
X38758890Y28280500D01*
X38625708Y28280500D01*
X38509958Y28266971D01*
X38493422Y28265038D01*
X38493419Y28265037D01*
X38326367Y28204236D01*
X38324149Y28203121D01*
X38322465Y28202816D01*
X38319578Y28201764D01*
X38319398Y28202258D01*
X38255405Y28190626D01*
X38190819Y28217280D01*
X38150897Y28274621D01*
X38144500Y28313933D01*
X38144500Y29271861D01*
X38164185Y29338900D01*
X38216989Y29384655D01*
X38286147Y29394599D01*
X38324151Y29382671D01*
X38408118Y29340501D01*
X38408119Y29340501D01*
X38408123Y29340499D01*
X38581110Y29299500D01*
X38581113Y29299500D01*
X38714285Y29299500D01*
X38714292Y29299500D01*
X38846577Y29314962D01*
X39013635Y29375766D01*
X39162168Y29473457D01*
X39284167Y29602769D01*
X39373057Y29756731D01*
X39424045Y29927042D01*
X39434382Y30104520D01*
X39403511Y30279599D01*
X39333096Y30442838D01*
X39226933Y30585439D01*
X39154112Y30646543D01*
X39090746Y30699714D01*
X39090744Y30699715D01*
X38931881Y30779500D01*
X38931877Y30779501D01*
X38758890Y30820500D01*
X38625708Y30820500D01*
X38531711Y30809514D01*
X38462842Y30821282D01*
X38411266Y30868417D01*
X38394379Y30916490D01*
X38391028Y30941941D01*
X38388940Y30957806D01*
X38348208Y31056144D01*
X38328031Y31104856D01*
X38328030Y31104857D01*
X38328030Y31104858D01*
X38231134Y31231134D01*
X38104858Y31328030D01*
X38104857Y31328031D01*
X38104855Y31328032D01*
X37957809Y31388939D01*
X37957807Y31388940D01*
X37957806Y31388940D01*
X37873791Y31400001D01*
X37800001Y31409716D01*
X37799999Y31409716D01*
X37642194Y31388940D01*
X37642190Y31388939D01*
X37495144Y31328032D01*
X37368866Y31231134D01*
X37271968Y31104856D01*
X37211061Y30957810D01*
X37211060Y30957806D01*
X37202130Y30889974D01*
X37190284Y30800000D01*
X36305386Y30800000D01*
X36218890Y30820500D01*
X36085708Y30820500D01*
X35969958Y30806971D01*
X35953422Y30805038D01*
X35953419Y30805037D01*
X35786367Y30744236D01*
X35718675Y30699714D01*
X35637832Y30646543D01*
X35637831Y30646543D01*
X35637831Y30646542D01*
X35515833Y30517233D01*
X35426944Y30363272D01*
X35426943Y30363270D01*
X35426943Y30363269D01*
X35419862Y30339616D01*
X35375955Y30192959D01*
X35375954Y30192954D01*
X35365618Y30015481D01*
X35365618Y30015480D01*
X33854500Y30015480D01*
X33854500Y32555480D01*
X35365618Y32555480D01*
X35394839Y32389754D01*
X35396489Y32380401D01*
X35417894Y32330779D01*
X35466904Y32217161D01*
X35556017Y32097463D01*
X35573067Y32074561D01*
X35709254Y31960286D01*
X35766588Y31931492D01*
X35868118Y31880501D01*
X35868119Y31880501D01*
X35868123Y31880499D01*
X36041110Y31839500D01*
X36041113Y31839500D01*
X36174285Y31839500D01*
X36174292Y31839500D01*
X36306577Y31854962D01*
X36473635Y31915766D01*
X36622168Y32013457D01*
X36744167Y32142769D01*
X36833057Y32296731D01*
X36884045Y32467042D01*
X36889196Y32555480D01*
X37905618Y32555480D01*
X37934839Y32389754D01*
X37936489Y32380401D01*
X37957894Y32330779D01*
X38006904Y32217161D01*
X38096017Y32097463D01*
X38113067Y32074561D01*
X38249254Y31960286D01*
X38306588Y31931492D01*
X38408118Y31880501D01*
X38408119Y31880501D01*
X38408123Y31880499D01*
X38581110Y31839500D01*
X38581113Y31839500D01*
X38714285Y31839500D01*
X38714292Y31839500D01*
X38846577Y31854962D01*
X39013635Y31915766D01*
X39162168Y32013457D01*
X39284167Y32142769D01*
X39373057Y32296731D01*
X39424045Y32467042D01*
X39434382Y32644520D01*
X39403511Y32819599D01*
X39333096Y32982838D01*
X39294997Y33034013D01*
X39234184Y33115699D01*
X39226933Y33125439D01*
X39154112Y33186543D01*
X39090746Y33239714D01*
X39090744Y33239715D01*
X38931881Y33319500D01*
X38912793Y33324024D01*
X38758890Y33360500D01*
X38625708Y33360500D01*
X38509958Y33346971D01*
X38493422Y33345038D01*
X38493419Y33345037D01*
X38326367Y33284236D01*
X38258675Y33239714D01*
X38177832Y33186543D01*
X38177831Y33186543D01*
X38177831Y33186542D01*
X38055833Y33057233D01*
X37966944Y32903272D01*
X37915955Y32732959D01*
X37915954Y32732954D01*
X37905618Y32555481D01*
X37905618Y32555480D01*
X36889196Y32555480D01*
X36894382Y32644520D01*
X36863511Y32819599D01*
X36793096Y32982838D01*
X36754997Y33034013D01*
X36694184Y33115699D01*
X36686933Y33125439D01*
X36614112Y33186543D01*
X36550746Y33239714D01*
X36550744Y33239715D01*
X36391881Y33319500D01*
X36372793Y33324024D01*
X36218890Y33360500D01*
X36085708Y33360500D01*
X35969958Y33346971D01*
X35953422Y33345038D01*
X35953419Y33345037D01*
X35786367Y33284236D01*
X35718675Y33239714D01*
X35637832Y33186543D01*
X35637831Y33186543D01*
X35637831Y33186542D01*
X35515833Y33057233D01*
X35426944Y32903272D01*
X35375955Y32732959D01*
X35375954Y32732954D01*
X35365618Y32555481D01*
X35365618Y32555480D01*
X33854500Y32555480D01*
X33854500Y35095480D01*
X35365618Y35095480D01*
X35396488Y34920404D01*
X35466904Y34757161D01*
X35573067Y34614561D01*
X35709254Y34500286D01*
X35787990Y34460743D01*
X35868118Y34420501D01*
X35868119Y34420501D01*
X35868123Y34420499D01*
X36041110Y34379500D01*
X36041113Y34379500D01*
X36174285Y34379500D01*
X36174292Y34379500D01*
X36306577Y34394962D01*
X36473635Y34455766D01*
X36622168Y34553457D01*
X36744167Y34682769D01*
X36833057Y34836731D01*
X36884045Y35007042D01*
X36889196Y35095480D01*
X37905618Y35095480D01*
X37936488Y34920404D01*
X38006904Y34757161D01*
X38113067Y34614561D01*
X38249254Y34500286D01*
X38327990Y34460743D01*
X38408118Y34420501D01*
X38408119Y34420501D01*
X38408123Y34420499D01*
X38581110Y34379500D01*
X38581113Y34379500D01*
X38714285Y34379500D01*
X38714292Y34379500D01*
X38846577Y34394962D01*
X39013635Y34455766D01*
X39162168Y34553457D01*
X39284167Y34682769D01*
X39373057Y34836731D01*
X39424045Y35007042D01*
X39434382Y35184520D01*
X39403511Y35359599D01*
X39333096Y35522838D01*
X39318626Y35542274D01*
X39226932Y35665440D01*
X39090746Y35779714D01*
X39090744Y35779715D01*
X38931881Y35859500D01*
X38931877Y35859501D01*
X38758890Y35900500D01*
X38625708Y35900500D01*
X38509958Y35886971D01*
X38493422Y35885038D01*
X38493419Y35885037D01*
X38326367Y35824236D01*
X38258675Y35779714D01*
X38177832Y35726543D01*
X38177831Y35726543D01*
X38177831Y35726542D01*
X38055833Y35597233D01*
X37966944Y35443272D01*
X37966943Y35443270D01*
X37966943Y35443269D01*
X37962286Y35427712D01*
X37915955Y35272959D01*
X37915954Y35272954D01*
X37905618Y35095481D01*
X37905618Y35095480D01*
X36889196Y35095480D01*
X36894382Y35184520D01*
X36863511Y35359599D01*
X36793096Y35522838D01*
X36778626Y35542274D01*
X36686932Y35665440D01*
X36550746Y35779714D01*
X36550744Y35779715D01*
X36391881Y35859500D01*
X36391877Y35859501D01*
X36218890Y35900500D01*
X36085708Y35900500D01*
X35969958Y35886971D01*
X35953422Y35885038D01*
X35953419Y35885037D01*
X35786367Y35824236D01*
X35718675Y35779714D01*
X35637832Y35726543D01*
X35637831Y35726543D01*
X35637831Y35726542D01*
X35515833Y35597233D01*
X35426944Y35443272D01*
X35426943Y35443270D01*
X35426943Y35443269D01*
X35422286Y35427712D01*
X35375955Y35272959D01*
X35375954Y35272954D01*
X35365618Y35095481D01*
X35365618Y35095480D01*
X33854500Y35095480D01*
X33854500Y37635480D01*
X35365618Y37635480D01*
X35390362Y37495145D01*
X35396489Y37460401D01*
X35404343Y37442194D01*
X35466904Y37297161D01*
X35566747Y37163050D01*
X35573067Y37154561D01*
X35709254Y37040286D01*
X35787990Y37000743D01*
X35868118Y36960501D01*
X35868119Y36960501D01*
X35868123Y36960499D01*
X36041110Y36919500D01*
X36041113Y36919500D01*
X36174285Y36919500D01*
X36174292Y36919500D01*
X36306577Y36934962D01*
X36473635Y36995766D01*
X36622168Y37093457D01*
X36744167Y37222769D01*
X36833057Y37376731D01*
X36884045Y37547042D01*
X36889196Y37635480D01*
X37905618Y37635480D01*
X37930362Y37495145D01*
X37936489Y37460401D01*
X37944343Y37442194D01*
X38006904Y37297161D01*
X38106747Y37163050D01*
X38113067Y37154561D01*
X38249254Y37040286D01*
X38327990Y37000743D01*
X38408118Y36960501D01*
X38408119Y36960501D01*
X38408123Y36960499D01*
X38581110Y36919500D01*
X38581113Y36919500D01*
X38714285Y36919500D01*
X38714292Y36919500D01*
X38846577Y36934962D01*
X39013635Y36995766D01*
X39162168Y37093457D01*
X39284167Y37222769D01*
X39373057Y37376731D01*
X39424045Y37547042D01*
X39434382Y37724520D01*
X39403511Y37899599D01*
X39333096Y38062838D01*
X39226933Y38205439D01*
X39176437Y38247810D01*
X39090746Y38319714D01*
X39090744Y38319715D01*
X38931881Y38399500D01*
X38931877Y38399501D01*
X38758890Y38440500D01*
X38625708Y38440500D01*
X38509958Y38426971D01*
X38493422Y38425038D01*
X38493419Y38425037D01*
X38326367Y38364236D01*
X38227343Y38299107D01*
X38177832Y38266543D01*
X38177831Y38266543D01*
X38177831Y38266542D01*
X38055833Y38137233D01*
X37966944Y37983272D01*
X37915955Y37812959D01*
X37915954Y37812954D01*
X37905618Y37635481D01*
X37905618Y37635480D01*
X36889196Y37635480D01*
X36894382Y37724520D01*
X36863511Y37899599D01*
X36793096Y38062838D01*
X36686933Y38205439D01*
X36636437Y38247810D01*
X36550746Y38319714D01*
X36550744Y38319715D01*
X36391881Y38399500D01*
X36391877Y38399501D01*
X36218890Y38440500D01*
X36085708Y38440500D01*
X35969958Y38426971D01*
X35953422Y38425038D01*
X35953419Y38425037D01*
X35786367Y38364236D01*
X35687343Y38299107D01*
X35637832Y38266543D01*
X35637831Y38266543D01*
X35637831Y38266542D01*
X35515833Y38137233D01*
X35426944Y37983272D01*
X35375955Y37812959D01*
X35375954Y37812954D01*
X35365618Y37635481D01*
X35365618Y37635480D01*
X33854500Y37635480D01*
X33854500Y40175480D01*
X35365618Y40175480D01*
X35396488Y40000404D01*
X35466904Y39837161D01*
X35526454Y39757173D01*
X35573067Y39694561D01*
X35709254Y39580286D01*
X35775588Y39546972D01*
X35868118Y39500501D01*
X35868119Y39500501D01*
X35868123Y39500499D01*
X36041110Y39459500D01*
X36041113Y39459500D01*
X36174285Y39459500D01*
X36174292Y39459500D01*
X36306577Y39474962D01*
X36473635Y39535766D01*
X36622168Y39633457D01*
X36744167Y39762769D01*
X36833057Y39916731D01*
X36884045Y40087042D01*
X36889196Y40175480D01*
X37905618Y40175480D01*
X37936488Y40000404D01*
X38006904Y39837161D01*
X38066454Y39757173D01*
X38113067Y39694561D01*
X38249254Y39580286D01*
X38315588Y39546972D01*
X38408118Y39500501D01*
X38408119Y39500501D01*
X38408123Y39500499D01*
X38581110Y39459500D01*
X38581113Y39459500D01*
X38714285Y39459500D01*
X38714292Y39459500D01*
X38846577Y39474962D01*
X39013635Y39535766D01*
X39162168Y39633457D01*
X39284167Y39762769D01*
X39373057Y39916731D01*
X39424045Y40087042D01*
X39434382Y40264520D01*
X39403511Y40439599D01*
X39333096Y40602838D01*
X39312030Y40631134D01*
X39259183Y40702120D01*
X39226933Y40745439D01*
X39154112Y40806543D01*
X39090746Y40859714D01*
X39090744Y40859715D01*
X38931881Y40939500D01*
X38931877Y40939501D01*
X38758890Y40980500D01*
X38625708Y40980500D01*
X38509958Y40966971D01*
X38493422Y40965038D01*
X38493419Y40965037D01*
X38326367Y40904236D01*
X38258675Y40859714D01*
X38177832Y40806543D01*
X38177831Y40806543D01*
X38177831Y40806542D01*
X38055833Y40677233D01*
X37966944Y40523272D01*
X37966943Y40523270D01*
X37966943Y40523269D01*
X37960774Y40502663D01*
X37915955Y40352959D01*
X37915954Y40352954D01*
X37905618Y40175481D01*
X37905618Y40175480D01*
X36889196Y40175480D01*
X36894382Y40264520D01*
X36863511Y40439599D01*
X36793096Y40602838D01*
X36772030Y40631134D01*
X36719183Y40702120D01*
X36686933Y40745439D01*
X36614112Y40806543D01*
X36550746Y40859714D01*
X36550744Y40859715D01*
X36391881Y40939500D01*
X36391877Y40939501D01*
X36218890Y40980500D01*
X36085708Y40980500D01*
X35969958Y40966971D01*
X35953422Y40965038D01*
X35953419Y40965037D01*
X35786367Y40904236D01*
X35718675Y40859714D01*
X35637832Y40806543D01*
X35637831Y40806543D01*
X35637831Y40806542D01*
X35515833Y40677233D01*
X35426944Y40523272D01*
X35426943Y40523270D01*
X35426943Y40523269D01*
X35420774Y40502663D01*
X35375955Y40352959D01*
X35375954Y40352954D01*
X35365618Y40175481D01*
X35365618Y40175480D01*
X33854500Y40175480D01*
X33854500Y42715480D01*
X35365618Y42715480D01*
X35396488Y42540404D01*
X35466904Y42377161D01*
X35573067Y42234561D01*
X35709254Y42120286D01*
X35739974Y42104858D01*
X35868118Y42040501D01*
X35868119Y42040501D01*
X35868123Y42040499D01*
X36041110Y41999500D01*
X36041113Y41999500D01*
X36174285Y41999500D01*
X36174292Y41999500D01*
X36306577Y42014962D01*
X36473635Y42075766D01*
X36622168Y42173457D01*
X36744167Y42302769D01*
X36833057Y42456731D01*
X36884045Y42627042D01*
X36889196Y42715480D01*
X37905618Y42715480D01*
X37936488Y42540404D01*
X38006904Y42377161D01*
X38113067Y42234561D01*
X38249254Y42120286D01*
X38279974Y42104858D01*
X38408118Y42040501D01*
X38408119Y42040501D01*
X38408123Y42040499D01*
X38581110Y41999500D01*
X38581113Y41999500D01*
X38714285Y41999500D01*
X38714292Y41999500D01*
X38846577Y42014962D01*
X39013635Y42075766D01*
X39162168Y42173457D01*
X39284167Y42302769D01*
X39373057Y42456731D01*
X39424045Y42627042D01*
X39434382Y42804520D01*
X39403511Y42979599D01*
X39333096Y43142838D01*
X39226933Y43285439D01*
X39154112Y43346543D01*
X39090746Y43399714D01*
X39090744Y43399715D01*
X38931881Y43479500D01*
X38931877Y43479501D01*
X38758890Y43520500D01*
X38625708Y43520500D01*
X38509958Y43506971D01*
X38493422Y43505038D01*
X38493419Y43505037D01*
X38326367Y43444236D01*
X38258675Y43399714D01*
X38177832Y43346543D01*
X38177831Y43346543D01*
X38177831Y43346542D01*
X38055833Y43217233D01*
X37966944Y43063272D01*
X37915955Y42892959D01*
X37915954Y42892954D01*
X37905618Y42715481D01*
X37905618Y42715480D01*
X36889196Y42715480D01*
X36894382Y42804520D01*
X36863511Y42979599D01*
X36793096Y43142838D01*
X36686933Y43285439D01*
X36614112Y43346543D01*
X36550746Y43399714D01*
X36550744Y43399715D01*
X36391881Y43479500D01*
X36391877Y43479501D01*
X36218890Y43520500D01*
X36085708Y43520500D01*
X35969958Y43506971D01*
X35953422Y43505038D01*
X35953419Y43505037D01*
X35786367Y43444236D01*
X35718675Y43399714D01*
X35637832Y43346543D01*
X35637831Y43346543D01*
X35637831Y43346542D01*
X35515833Y43217233D01*
X35426944Y43063272D01*
X35375955Y42892959D01*
X35375954Y42892954D01*
X35365618Y42715481D01*
X35365618Y42715480D01*
X33854500Y42715480D01*
X33854500Y43331829D01*
X33857139Y43357275D01*
X33859095Y43366603D01*
X33857200Y43381800D01*
X33854977Y43399647D01*
X33854500Y43407323D01*
X33854500Y43410829D01*
X33854499Y43410838D01*
X33850871Y43432580D01*
X33847756Y43457572D01*
X33844461Y43484007D01*
X33844459Y43484010D01*
X33842346Y43491112D01*
X33839929Y43498149D01*
X33839929Y43498154D01*
X33835237Y43506824D01*
X33820642Y43575152D01*
X33821353Y43582027D01*
X33831567Y43659605D01*
X33824420Y43713891D01*
X33810791Y43817411D01*
X33749881Y43964463D01*
X33652985Y44090739D01*
X33526709Y44187635D01*
X33526708Y44187636D01*
X33526706Y44187637D01*
X33379660Y44248544D01*
X33379658Y44248545D01*
X33379657Y44248545D01*
X33265169Y44263618D01*
X33221852Y44269321D01*
X33221849Y44269321D01*
X33084685Y44251263D01*
X33015650Y44262029D01*
X32963394Y44308409D01*
X32944500Y44374202D01*
X32944500Y45255480D01*
X35365618Y45255480D01*
X35396488Y45080404D01*
X35466904Y44917161D01*
X35546520Y44810219D01*
X35573067Y44774561D01*
X35709254Y44660286D01*
X35783250Y44623124D01*
X35868118Y44580501D01*
X35868119Y44580501D01*
X35868123Y44580499D01*
X36041110Y44539500D01*
X36041113Y44539500D01*
X36174285Y44539500D01*
X36174292Y44539500D01*
X36306577Y44554962D01*
X36473635Y44615766D01*
X36622168Y44713457D01*
X36744167Y44842769D01*
X36833057Y44996731D01*
X36884045Y45167042D01*
X36889196Y45255480D01*
X37905618Y45255480D01*
X37936488Y45080404D01*
X38006904Y44917161D01*
X38086520Y44810219D01*
X38113067Y44774561D01*
X38249254Y44660286D01*
X38323250Y44623124D01*
X38408118Y44580501D01*
X38408119Y44580501D01*
X38408123Y44580499D01*
X38581110Y44539500D01*
X38581113Y44539500D01*
X38714285Y44539500D01*
X38714292Y44539500D01*
X38846577Y44554962D01*
X39013635Y44615766D01*
X39162168Y44713457D01*
X39284167Y44842769D01*
X39373057Y44996731D01*
X39424045Y45167042D01*
X39434382Y45344520D01*
X39403511Y45519599D01*
X39333096Y45682838D01*
X39288949Y45742137D01*
X39226932Y45825440D01*
X39090746Y45939714D01*
X39090744Y45939715D01*
X38931881Y46019500D01*
X38910561Y46024553D01*
X38758890Y46060500D01*
X38625708Y46060500D01*
X38509958Y46046971D01*
X38493422Y46045038D01*
X38493419Y46045037D01*
X38326367Y45984236D01*
X38258675Y45939714D01*
X38177832Y45886543D01*
X38177831Y45886543D01*
X38177831Y45886542D01*
X38055833Y45757233D01*
X37966944Y45603272D01*
X37966943Y45603270D01*
X37966943Y45603269D01*
X37964552Y45595283D01*
X37915955Y45432959D01*
X37915954Y45432954D01*
X37905618Y45255481D01*
X37905618Y45255480D01*
X36889196Y45255480D01*
X36894382Y45344520D01*
X36863511Y45519599D01*
X36793096Y45682838D01*
X36748949Y45742137D01*
X36686932Y45825440D01*
X36550746Y45939714D01*
X36550744Y45939715D01*
X36391881Y46019500D01*
X36370561Y46024553D01*
X36218890Y46060500D01*
X36085708Y46060500D01*
X35969958Y46046971D01*
X35953422Y46045038D01*
X35953419Y46045037D01*
X35786367Y45984236D01*
X35718675Y45939714D01*
X35637832Y45886543D01*
X35637831Y45886543D01*
X35637831Y45886542D01*
X35515833Y45757233D01*
X35426944Y45603272D01*
X35426943Y45603270D01*
X35426943Y45603269D01*
X35424552Y45595283D01*
X35375955Y45432959D01*
X35375954Y45432954D01*
X35365618Y45255481D01*
X35365618Y45255480D01*
X32944500Y45255480D01*
X32944500Y46205942D01*
X32964185Y46272981D01*
X32980819Y46293623D01*
X33094585Y46407389D01*
X33248495Y46561300D01*
X33309816Y46594783D01*
X33352360Y46596556D01*
X33399999Y46590284D01*
X33400000Y46590284D01*
X33400001Y46590284D01*
X33416446Y46592450D01*
X33557806Y46611060D01*
X33704858Y46671970D01*
X33831134Y46768866D01*
X33928030Y46895142D01*
X33988940Y47042194D01*
X34009716Y47200000D01*
X33988940Y47357806D01*
X33928030Y47504858D01*
X33831134Y47631134D01*
X33704858Y47728030D01*
X33704857Y47728031D01*
X33704855Y47728032D01*
X33557809Y47788939D01*
X33557807Y47788940D01*
X33557806Y47788940D01*
X33508131Y47795480D01*
X35365618Y47795480D01*
X35396488Y47620404D01*
X35466904Y47457161D01*
X35540869Y47357810D01*
X35573067Y47314561D01*
X35709254Y47200286D01*
X35787990Y47160743D01*
X35868118Y47120501D01*
X35868119Y47120501D01*
X35868123Y47120499D01*
X36041110Y47079500D01*
X36041113Y47079500D01*
X36174285Y47079500D01*
X36174292Y47079500D01*
X36306577Y47094962D01*
X36473635Y47155766D01*
X36622168Y47253457D01*
X36744167Y47382769D01*
X36833057Y47536731D01*
X36884045Y47707042D01*
X36889131Y47794372D01*
X36912680Y47860151D01*
X36968055Y47902759D01*
X37037674Y47908664D01*
X37056491Y47903253D01*
X37065976Y47899693D01*
X37121345Y47889645D01*
X37287450Y47859500D01*
X37287453Y47859500D01*
X37456148Y47859500D01*
X37456155Y47859500D01*
X37624188Y47874623D01*
X37748770Y47909006D01*
X37818627Y47907867D01*
X37876782Y47869139D01*
X37904766Y47805118D01*
X37905546Y47796698D01*
X37905616Y47795489D01*
X37936488Y47620404D01*
X38006904Y47457161D01*
X38080869Y47357810D01*
X38113067Y47314561D01*
X38249254Y47200286D01*
X38327990Y47160743D01*
X38408118Y47120501D01*
X38408119Y47120501D01*
X38408123Y47120499D01*
X38581110Y47079500D01*
X38581113Y47079500D01*
X38714285Y47079500D01*
X38714292Y47079500D01*
X38846577Y47094962D01*
X39013635Y47155766D01*
X39162168Y47253457D01*
X39284167Y47382769D01*
X39373057Y47536731D01*
X39424045Y47707042D01*
X39434382Y47884520D01*
X39403511Y48059599D01*
X39333096Y48222838D01*
X39226933Y48365439D01*
X39154112Y48426543D01*
X39090746Y48479714D01*
X39090744Y48479715D01*
X38931881Y48559500D01*
X38931877Y48559501D01*
X38758890Y48600500D01*
X38721860Y48600500D01*
X38654821Y48620185D01*
X38609066Y48672989D01*
X38599122Y48742147D01*
X38600969Y48752092D01*
X38618890Y48830613D01*
X38644191Y48941463D01*
X38654290Y49166330D01*
X38624075Y49389387D01*
X38602007Y49457303D01*
X38600013Y49527141D01*
X38636093Y49586974D01*
X38698793Y49617803D01*
X38712725Y49619409D01*
X38714284Y49619500D01*
X38714292Y49619500D01*
X38846577Y49634962D01*
X39013635Y49695766D01*
X39162168Y49793457D01*
X39284167Y49922769D01*
X39373057Y50076731D01*
X39424045Y50247042D01*
X39434382Y50424520D01*
X39403511Y50599599D01*
X39333096Y50762838D01*
X39226933Y50905439D01*
X39154112Y50966543D01*
X39090746Y51019714D01*
X39090744Y51019715D01*
X38931881Y51099500D01*
X38931877Y51099501D01*
X38758890Y51140500D01*
X38625708Y51140500D01*
X38509958Y51126971D01*
X38493422Y51125038D01*
X38493419Y51125037D01*
X38326367Y51064236D01*
X38258675Y51019714D01*
X38177832Y50966543D01*
X38177831Y50966543D01*
X38177831Y50966542D01*
X38055833Y50837233D01*
X37966944Y50683272D01*
X37915955Y50512959D01*
X37915954Y50512954D01*
X37910868Y50425630D01*
X37887318Y50359849D01*
X37831943Y50317242D01*
X37762323Y50311337D01*
X37743507Y50316748D01*
X37734022Y50320308D01*
X37512550Y50360500D01*
X37512547Y50360500D01*
X37343845Y50360500D01*
X37305399Y50357040D01*
X37175813Y50345378D01*
X37175807Y50345377D01*
X37051231Y50310995D01*
X36981370Y50312135D01*
X36923217Y50350863D01*
X36895233Y50414884D01*
X36894452Y50423317D01*
X36894381Y50424512D01*
X36894382Y50424520D01*
X36863511Y50599599D01*
X36793096Y50762838D01*
X36686933Y50905439D01*
X36614112Y50966543D01*
X36550746Y51019714D01*
X36550744Y51019715D01*
X36391881Y51099500D01*
X36391877Y51099501D01*
X36218890Y51140500D01*
X36085708Y51140500D01*
X35969958Y51126971D01*
X35953422Y51125038D01*
X35953419Y51125037D01*
X35786367Y51064236D01*
X35718675Y51019714D01*
X35637832Y50966543D01*
X35637831Y50966543D01*
X35637831Y50966542D01*
X35515833Y50837233D01*
X35426944Y50683272D01*
X35375955Y50512959D01*
X35375954Y50512954D01*
X35365618Y50335481D01*
X35365618Y50335480D01*
X35382500Y50239734D01*
X35396489Y50160401D01*
X35398553Y50155617D01*
X35466904Y49997161D01*
X35523304Y49921404D01*
X35573067Y49854561D01*
X35709254Y49740286D01*
X35787990Y49700743D01*
X35868118Y49660501D01*
X35868119Y49660501D01*
X35868123Y49660499D01*
X36041110Y49619500D01*
X36041113Y49619500D01*
X36078140Y49619500D01*
X36145179Y49599815D01*
X36190934Y49547011D01*
X36200878Y49477853D01*
X36199031Y49467908D01*
X36155810Y49278543D01*
X36155808Y49278532D01*
X36150769Y49166326D01*
X36145710Y49053670D01*
X36175925Y48830613D01*
X36175926Y48830609D01*
X36197991Y48762700D01*
X36199986Y48692859D01*
X36163906Y48633026D01*
X36101205Y48602198D01*
X36087299Y48600594D01*
X36085737Y48600503D01*
X36085711Y48600500D01*
X36085708Y48600500D01*
X35997775Y48590222D01*
X35953422Y48585038D01*
X35953419Y48585037D01*
X35786367Y48524236D01*
X35718675Y48479714D01*
X35637832Y48426543D01*
X35637831Y48426543D01*
X35637831Y48426542D01*
X35515833Y48297233D01*
X35426944Y48143272D01*
X35375955Y47972959D01*
X35375954Y47972954D01*
X35365618Y47795481D01*
X35365618Y47795480D01*
X33508131Y47795480D01*
X33434925Y47805118D01*
X33400001Y47809716D01*
X33399999Y47809716D01*
X33242194Y47788940D01*
X33242190Y47788939D01*
X33095144Y47728032D01*
X32968866Y47631134D01*
X32871968Y47504856D01*
X32811061Y47357810D01*
X32811060Y47357806D01*
X32790284Y47200001D01*
X32790284Y47199998D01*
X32796555Y47152361D01*
X32785789Y47083326D01*
X32761297Y47048496D01*
X32368951Y46656149D01*
X32364963Y46652495D01*
X32332030Y46624859D01*
X32332025Y46624854D01*
X32310533Y46587628D01*
X32307627Y46583066D01*
X32282960Y46547837D01*
X32281794Y46545337D01*
X32272233Y46522257D01*
X32271281Y46519640D01*
X32263814Y46477296D01*
X32262643Y46472015D01*
X32251516Y46430489D01*
X32255264Y46387661D01*
X32255500Y46382254D01*
X32255500Y28874955D01*
X32235815Y28807916D01*
X32183011Y28762161D01*
X32147686Y28752016D01*
X32060478Y28740535D01*
X31913448Y28679634D01*
X31843978Y28672166D01*
X31781499Y28703442D01*
X31745847Y28763531D01*
X31748342Y28833356D01*
X31751435Y28841648D01*
X31765231Y28874955D01*
X31788940Y28932194D01*
X31809716Y29090000D01*
X31808832Y29096711D01*
X31795397Y29198760D01*
X31788940Y29247806D01*
X31743376Y29357810D01*
X31728031Y29394856D01*
X31728030Y29394857D01*
X31728030Y29394858D01*
X31631134Y29521134D01*
X31504858Y29618030D01*
X31504857Y29618031D01*
X31504855Y29618032D01*
X31357809Y29678939D01*
X31357807Y29678940D01*
X31357806Y29678940D01*
X31256511Y29692276D01*
X31200001Y29699716D01*
X31199999Y29699716D01*
X31042194Y29678940D01*
X31042190Y29678939D01*
X30895144Y29618032D01*
X30768866Y29521134D01*
X30671968Y29394856D01*
X30611061Y29247810D01*
X30611060Y29247806D01*
X30591168Y29096711D01*
X30590284Y29090000D01*
X30609405Y28944761D01*
X30611060Y28932195D01*
X30611061Y28932191D01*
X30671968Y28785145D01*
X30671969Y28785143D01*
X30671970Y28785142D01*
X30768866Y28658866D01*
X30796987Y28637288D01*
X30838188Y28580864D01*
X30845500Y28538914D01*
X30845500Y20852113D01*
X30825815Y20785074D01*
X30773011Y20739319D01*
X30703853Y20729375D01*
X30640297Y20758400D01*
X30633819Y20764432D01*
X30090819Y21307432D01*
X30057334Y21368755D01*
X30054500Y21395113D01*
X30054500Y29572179D01*
X30074185Y29639218D01*
X30103013Y29670555D01*
X30104855Y29671970D01*
X30104858Y29671970D01*
X30231134Y29768866D01*
X30328030Y29895142D01*
X30388940Y30042194D01*
X30409716Y30200000D01*
X30388940Y30357806D01*
X30348333Y30455841D01*
X30328031Y30504856D01*
X30328030Y30504857D01*
X30328030Y30504858D01*
X30231134Y30631134D01*
X30104858Y30728030D01*
X30104857Y30728031D01*
X30104855Y30728032D01*
X29957809Y30788939D01*
X29957807Y30788940D01*
X29957806Y30788940D01*
X29873791Y30800001D01*
X29800001Y30809716D01*
X29799999Y30809716D01*
X29642194Y30788940D01*
X29642193Y30788940D01*
X29620069Y30779776D01*
X29619404Y30779500D01*
X29618054Y30778941D01*
X29548584Y30771474D01*
X29486106Y30802749D01*
X29450454Y30862839D01*
X29446603Y30893503D01*
X29446603Y31827586D01*
X29466288Y31894625D01*
X29482917Y31915263D01*
X30632689Y33065035D01*
X30652539Y33081155D01*
X30661956Y33087306D01*
X30684159Y33115835D01*
X30689230Y33121575D01*
X30692113Y33124457D01*
X30705891Y33143756D01*
X30740158Y33187781D01*
X30740159Y33187787D01*
X30743956Y33194800D01*
X30747471Y33201992D01*
X30747475Y33201996D01*
X30758704Y33239715D01*
X30763391Y33255456D01*
X30773271Y33284236D01*
X30781500Y33308205D01*
X30781500Y33308208D01*
X30782815Y33316089D01*
X30783805Y33324026D01*
X30781500Y33379749D01*
X30781500Y37069631D01*
X30801185Y37136670D01*
X30825455Y37163050D01*
X30825387Y37163118D01*
X30827031Y37164763D01*
X30830021Y37168013D01*
X30831134Y37168866D01*
X30928030Y37295142D01*
X30988940Y37442194D01*
X31009716Y37600000D01*
X30988940Y37757806D01*
X30948333Y37855841D01*
X30928031Y37904856D01*
X30928030Y37904857D01*
X30928030Y37904858D01*
X30831134Y38031134D01*
X30831132Y38031136D01*
X30831131Y38031137D01*
X30830013Y38031995D01*
X30829306Y38032963D01*
X30825388Y38036881D01*
X30825999Y38037493D01*
X30788810Y38088423D01*
X30781500Y38130370D01*
X30781500Y39669631D01*
X30801185Y39736670D01*
X30825455Y39763050D01*
X30825387Y39763118D01*
X30827031Y39764763D01*
X30830021Y39768013D01*
X30831134Y39768866D01*
X30928030Y39895142D01*
X30988940Y40042194D01*
X31009716Y40200000D01*
X30988940Y40357806D01*
X30944582Y40464898D01*
X30928031Y40504856D01*
X30928030Y40504857D01*
X30928030Y40504858D01*
X30831134Y40631134D01*
X30831132Y40631136D01*
X30831131Y40631137D01*
X30830013Y40631995D01*
X30829306Y40632963D01*
X30825388Y40636881D01*
X30825999Y40637493D01*
X30788810Y40688423D01*
X30781500Y40730370D01*
X30781500Y41269631D01*
X30801185Y41336670D01*
X30825455Y41363050D01*
X30825387Y41363118D01*
X30827031Y41364763D01*
X30830021Y41368013D01*
X30831134Y41368866D01*
X30928030Y41495142D01*
X30988940Y41642194D01*
X31009716Y41800000D01*
X30988940Y41957806D01*
X30928030Y42104858D01*
X30831134Y42231134D01*
X30704858Y42328030D01*
X30704857Y42328031D01*
X30704855Y42328032D01*
X30557809Y42388939D01*
X30557807Y42388940D01*
X30557806Y42388940D01*
X30478903Y42399328D01*
X30400001Y42409716D01*
X30399999Y42409716D01*
X30242194Y42388940D01*
X30242190Y42388939D01*
X30095144Y42328032D01*
X29968866Y42231134D01*
X29871968Y42104856D01*
X29811061Y41957810D01*
X29811060Y41957806D01*
X29790284Y41800001D01*
X29790284Y41800000D01*
X29811060Y41642195D01*
X29811061Y41642191D01*
X29871968Y41495145D01*
X29871969Y41495143D01*
X29871970Y41495142D01*
X29968866Y41368866D01*
X29969977Y41368013D01*
X29970681Y41367050D01*
X29974613Y41363118D01*
X29974000Y41362506D01*
X30011185Y41311590D01*
X30018500Y41269631D01*
X30018500Y40730370D01*
X29998815Y40663331D01*
X29974544Y40636949D01*
X29974612Y40636881D01*
X29972987Y40635257D01*
X29969987Y40631995D01*
X29968868Y40631137D01*
X29871968Y40504856D01*
X29811061Y40357810D01*
X29811060Y40357806D01*
X29798779Y40264521D01*
X29790284Y40200000D01*
X29810230Y40048495D01*
X29811060Y40042195D01*
X29811061Y40042191D01*
X29871968Y39895145D01*
X29871969Y39895143D01*
X29871970Y39895142D01*
X29968866Y39768866D01*
X29969977Y39768013D01*
X29970681Y39767050D01*
X29974613Y39763118D01*
X29974000Y39762506D01*
X30011185Y39711590D01*
X30018500Y39669631D01*
X30018500Y38130370D01*
X29998815Y38063331D01*
X29974544Y38036949D01*
X29974612Y38036881D01*
X29972987Y38035257D01*
X29969987Y38031995D01*
X29968868Y38031137D01*
X29871968Y37904856D01*
X29811061Y37757810D01*
X29811060Y37757806D01*
X29790284Y37600001D01*
X29790284Y37600000D01*
X29811060Y37442195D01*
X29811061Y37442191D01*
X29871968Y37295145D01*
X29871969Y37295143D01*
X29871970Y37295142D01*
X29926699Y37223818D01*
X29936487Y37211062D01*
X29968866Y37168866D01*
X29969977Y37168013D01*
X29970681Y37167050D01*
X29974613Y37163118D01*
X29974000Y37162506D01*
X30011185Y37111590D01*
X30018500Y37069631D01*
X30018500Y33581252D01*
X29998815Y33514213D01*
X29982181Y33493571D01*
X29336999Y32848389D01*
X29275676Y32814904D01*
X29205984Y32819888D01*
X29150051Y32861760D01*
X29134757Y32888618D01*
X29128031Y32904856D01*
X29128030Y32904857D01*
X29128030Y32904858D01*
X29031134Y33031134D01*
X28904858Y33128030D01*
X28904857Y33128031D01*
X28904855Y33128032D01*
X28757809Y33188939D01*
X28757807Y33188940D01*
X28757806Y33188940D01*
X28658623Y33201998D01*
X28600001Y33209716D01*
X28599999Y33209716D01*
X28442194Y33188940D01*
X28442190Y33188939D01*
X28295144Y33128032D01*
X28168866Y33031134D01*
X28071968Y32904856D01*
X28011061Y32757810D01*
X28011060Y32757806D01*
X27990284Y32600001D01*
X27990284Y32599998D01*
X28003920Y32496413D01*
X27998264Y32439971D01*
X27983602Y32397259D01*
X27982381Y32389941D01*
X27981460Y32382559D01*
X27983603Y32330779D01*
X27983603Y25861653D01*
X27963918Y25794614D01*
X27911114Y25748859D01*
X27841956Y25738915D01*
X27812153Y25747091D01*
X27795912Y25753818D01*
X27795910Y25753819D01*
X27795909Y25753819D01*
X27717006Y25764207D01*
X27638104Y25774595D01*
X27638102Y25774595D01*
X27480297Y25753819D01*
X27480293Y25753818D01*
X27333247Y25692911D01*
X27206969Y25596013D01*
X27110071Y25469735D01*
X27049164Y25322689D01*
X27049163Y25322685D01*
X27028387Y25164879D01*
X27049163Y25007073D01*
X27069568Y24957810D01*
X27071061Y24954207D01*
X27080500Y24906754D01*
X27080500Y23740856D01*
X27060815Y23673817D01*
X27008011Y23628062D01*
X26938853Y23618118D01*
X26909048Y23626295D01*
X26757809Y23688939D01*
X26757807Y23688940D01*
X26757806Y23688940D01*
X26678903Y23699328D01*
X26600001Y23709716D01*
X26599999Y23709716D01*
X26442194Y23688940D01*
X26442190Y23688939D01*
X26295144Y23628032D01*
X26168866Y23531134D01*
X26071968Y23404856D01*
X26011061Y23257810D01*
X26011060Y23257806D01*
X25993475Y23124234D01*
X25990284Y23100000D01*
X24944500Y23100000D01*
X24944500Y28706551D01*
X24964185Y28773590D01*
X25016989Y28819345D01*
X25086147Y28829289D01*
X25143985Y28804928D01*
X25241546Y28730066D01*
X25388598Y28669156D01*
X25528044Y28650798D01*
X25546403Y28648380D01*
X25546404Y28648380D01*
X25546405Y28648380D01*
X25562850Y28650546D01*
X25704210Y28669156D01*
X25851262Y28730066D01*
X25977538Y28826962D01*
X26033125Y28899404D01*
X26089552Y28940606D01*
X26159298Y28944761D01*
X26220218Y28910549D01*
X26252971Y28848832D01*
X26255500Y28823917D01*
X26255500Y27558762D01*
X26235815Y27491723D01*
X26206988Y27460387D01*
X26168866Y27431135D01*
X26071970Y27304860D01*
X26071969Y27304857D01*
X26011061Y27157810D01*
X26011060Y27157806D01*
X25990284Y27000000D01*
X25999044Y26933459D01*
X26011060Y26842195D01*
X26011061Y26842191D01*
X26071968Y26695145D01*
X26071969Y26695143D01*
X26071970Y26695142D01*
X26168866Y26568866D01*
X26295142Y26471970D01*
X26442194Y26411060D01*
X26581640Y26392702D01*
X26599999Y26390284D01*
X26600000Y26390284D01*
X26600001Y26390284D01*
X26616446Y26392450D01*
X26757806Y26411060D01*
X26904858Y26471970D01*
X27031134Y26568866D01*
X27128030Y26695142D01*
X27188940Y26842194D01*
X27209716Y27000000D01*
X27188940Y27157806D01*
X27128030Y27304858D01*
X27128029Y27304859D01*
X27128029Y27304860D01*
X27031133Y27431135D01*
X26993012Y27460387D01*
X26951810Y27516816D01*
X26944500Y27558762D01*
X26944500Y39182258D01*
X26944736Y39187665D01*
X26948483Y39230489D01*
X26937353Y39272027D01*
X26936184Y39277298D01*
X26928718Y39319643D01*
X26928715Y39319648D01*
X26927759Y39322277D01*
X26918223Y39345297D01*
X26917038Y39347840D01*
X26892375Y39383063D01*
X26889467Y39387626D01*
X26874751Y39413116D01*
X26867973Y39424856D01*
X26835035Y39452495D01*
X26831063Y39456134D01*
X26315873Y39971324D01*
X26282388Y40032647D01*
X26280614Y40042828D01*
X26279571Y40050755D01*
X26279570Y40050756D01*
X26218662Y40197803D01*
X26218661Y40197804D01*
X26218661Y40197805D01*
X26121765Y40324081D01*
X25995489Y40420977D01*
X25995488Y40420978D01*
X25995486Y40420979D01*
X25848440Y40481886D01*
X25848438Y40481887D01*
X25848437Y40481887D01*
X25769534Y40492275D01*
X25690632Y40502663D01*
X25690630Y40502663D01*
X25532825Y40481887D01*
X25532821Y40481886D01*
X25385775Y40420979D01*
X25259497Y40324081D01*
X25162599Y40197803D01*
X25101692Y40050757D01*
X25101691Y40050753D01*
X25080915Y39892948D01*
X25080915Y39892947D01*
X25101691Y39735142D01*
X25101692Y39735138D01*
X25162599Y39588092D01*
X25162600Y39588090D01*
X25162601Y39588089D01*
X25259497Y39461813D01*
X25385773Y39364917D01*
X25385774Y39364917D01*
X25385775Y39364916D01*
X25419432Y39350975D01*
X25532825Y39304007D01*
X25672271Y39285649D01*
X25690630Y39283231D01*
X25690631Y39283231D01*
X25690632Y39283231D01*
X25707077Y39285397D01*
X25848437Y39304007D01*
X25885281Y39319269D01*
X25954748Y39326738D01*
X26017227Y39295464D01*
X26020414Y39292389D01*
X26219181Y39093622D01*
X26252666Y39032299D01*
X26255500Y39005941D01*
X26255500Y36104028D01*
X26235815Y36036989D01*
X26183011Y35991234D01*
X26113853Y35981290D01*
X26050297Y36010315D01*
X26033127Y36028537D01*
X26031134Y36031134D01*
X25968599Y36079119D01*
X25904858Y36128030D01*
X25904857Y36128031D01*
X25904855Y36128032D01*
X25757809Y36188939D01*
X25757807Y36188940D01*
X25757806Y36188940D01*
X25678903Y36199328D01*
X25600001Y36209716D01*
X25599999Y36209716D01*
X25442194Y36188940D01*
X25442190Y36188939D01*
X25295144Y36128032D01*
X25168865Y36031134D01*
X25166873Y36028537D01*
X25164631Y36026901D01*
X25163119Y36025388D01*
X25162883Y36025624D01*
X25110443Y35987337D01*
X25040697Y35983185D01*
X24979778Y36017400D01*
X24947028Y36079119D01*
X24944500Y36104028D01*
X24944500Y37074233D01*
X24964185Y37141272D01*
X25016989Y37187027D01*
X25052312Y37197172D01*
X25157806Y37211060D01*
X25304858Y37271970D01*
X25431134Y37368866D01*
X25528030Y37495142D01*
X25588940Y37642194D01*
X25609716Y37800000D01*
X25588940Y37957806D01*
X25542792Y38069220D01*
X25528031Y38104856D01*
X25528030Y38104857D01*
X25528030Y38104858D01*
X25431134Y38231134D01*
X25304858Y38328030D01*
X25304857Y38328031D01*
X25304855Y38328032D01*
X25157809Y38388939D01*
X25157807Y38388940D01*
X25157806Y38388940D01*
X25077589Y38399501D01*
X25000001Y38409716D01*
X24999999Y38409716D01*
X24842196Y38388941D01*
X24690690Y38326186D01*
X24621220Y38318718D01*
X24558741Y38349994D01*
X24532369Y38387978D01*
X24532094Y38387819D01*
X24530189Y38391118D01*
X24528676Y38393297D01*
X24528030Y38394858D01*
X24431134Y38521134D01*
X24304858Y38618030D01*
X24304857Y38618031D01*
X24304855Y38618032D01*
X24157809Y38678939D01*
X24157807Y38678940D01*
X24157806Y38678940D01*
X24078903Y38689328D01*
X24000001Y38699716D01*
X23999999Y38699716D01*
X23842194Y38678940D01*
X23842190Y38678939D01*
X23695144Y38618032D01*
X23568866Y38521134D01*
X23471968Y38394856D01*
X23411061Y38247810D01*
X23411060Y38247806D01*
X23390284Y38090001D01*
X23390284Y38090000D01*
X23411060Y37932195D01*
X23411061Y37932191D01*
X23471968Y37785145D01*
X23471969Y37785143D01*
X23471970Y37785142D01*
X23568866Y37658866D01*
X23695142Y37561970D01*
X23695144Y37561970D01*
X23701590Y37557023D01*
X23700487Y37555587D01*
X23741708Y37512367D01*
X23755500Y37455532D01*
X23755500Y31683385D01*
X23735815Y31616346D01*
X23683011Y31570591D01*
X23613853Y31560647D01*
X23550297Y31589672D01*
X23543819Y31595704D01*
X23042060Y32097463D01*
X23008575Y32158786D01*
X23013559Y32228478D01*
X23015180Y32232596D01*
X23041744Y32296729D01*
X23063054Y32348177D01*
X23083830Y32505983D01*
X23063054Y32663789D01*
X23002144Y32810841D01*
X22905248Y32937117D01*
X22778972Y33034013D01*
X22778971Y33034014D01*
X22778969Y33034015D01*
X22631923Y33094922D01*
X22631921Y33094923D01*
X22631920Y33094923D01*
X22553017Y33105311D01*
X22474115Y33115699D01*
X22474113Y33115699D01*
X22316308Y33094923D01*
X22316304Y33094922D01*
X22315948Y33094774D01*
X22315622Y33094740D01*
X22308457Y33092819D01*
X22308157Y33093937D01*
X22246478Y33087308D01*
X22184000Y33118586D01*
X22148351Y33178676D01*
X22144500Y33209337D01*
X22144500Y34168537D01*
X22164185Y34235576D01*
X22216989Y34281331D01*
X22221048Y34283098D01*
X22263693Y34300763D01*
X22304030Y34317470D01*
X22430306Y34414366D01*
X22527202Y34540642D01*
X22588112Y34687694D01*
X22608888Y34845500D01*
X22588112Y35003306D01*
X22539408Y35120889D01*
X22527203Y35150356D01*
X22527202Y35150357D01*
X22527202Y35150358D01*
X22430306Y35276634D01*
X22304030Y35373530D01*
X22304029Y35373531D01*
X22304027Y35373532D01*
X22156981Y35434439D01*
X22156979Y35434440D01*
X22156978Y35434440D01*
X22027238Y35451521D01*
X21999173Y35455216D01*
X21999171Y35455216D01*
X21841366Y35434440D01*
X21841362Y35434439D01*
X21825122Y35427712D01*
X21755653Y35420245D01*
X21693174Y35451521D01*
X21657523Y35511610D01*
X21653672Y35542274D01*
X21653672Y39273095D01*
X21653908Y39278502D01*
X21657654Y39321317D01*
X21646527Y39362844D01*
X21645356Y39368128D01*
X21637890Y39410471D01*
X21637886Y39410478D01*
X21636926Y39413116D01*
X21627396Y39436125D01*
X21626212Y39438663D01*
X21626211Y39438667D01*
X21601547Y39473890D01*
X21598639Y39478455D01*
X21577144Y39515685D01*
X21577145Y39515685D01*
X21555722Y39533660D01*
X21544207Y39543323D01*
X21540235Y39546962D01*
X21038702Y40048495D01*
X21005217Y40109818D01*
X21003444Y40152362D01*
X21003753Y40154705D01*
X21009716Y40200000D01*
X20988940Y40357806D01*
X20944582Y40464898D01*
X20928031Y40504856D01*
X20928030Y40504857D01*
X20928030Y40504858D01*
X20831134Y40631134D01*
X20704858Y40728030D01*
X20704857Y40728031D01*
X20704855Y40728032D01*
X20557809Y40788939D01*
X20557807Y40788940D01*
X20557806Y40788940D01*
X20478903Y40799328D01*
X20400001Y40809716D01*
X20399999Y40809716D01*
X20242194Y40788940D01*
X20242190Y40788939D01*
X20095144Y40728032D01*
X19968866Y40631134D01*
X19871968Y40504856D01*
X19811061Y40357810D01*
X19811060Y40357806D01*
X19798779Y40264521D01*
X19790284Y40200000D01*
X9630624Y40200000D01*
X9634382Y40264520D01*
X9603511Y40439599D01*
X9533096Y40602838D01*
X9512030Y40631134D01*
X9459183Y40702120D01*
X9426933Y40745439D01*
X9354112Y40806543D01*
X9290746Y40859714D01*
X9290744Y40859715D01*
X9131881Y40939500D01*
X9131877Y40939501D01*
X8958890Y40980500D01*
X8825708Y40980500D01*
X8709958Y40966971D01*
X8693422Y40965038D01*
X8693419Y40965037D01*
X8526367Y40904236D01*
X8458675Y40859714D01*
X8377832Y40806543D01*
X8377831Y40806543D01*
X8377831Y40806542D01*
X8255833Y40677233D01*
X8166944Y40523272D01*
X8166943Y40523270D01*
X8166943Y40523269D01*
X8160774Y40502663D01*
X8115955Y40352959D01*
X8115954Y40352954D01*
X8105618Y40175481D01*
X8105618Y40175480D01*
X7089196Y40175480D01*
X7094382Y40264520D01*
X7063511Y40439599D01*
X6993096Y40602838D01*
X6972030Y40631134D01*
X6919183Y40702120D01*
X6886933Y40745439D01*
X6814112Y40806543D01*
X6750746Y40859714D01*
X6750744Y40859715D01*
X6591881Y40939500D01*
X6591877Y40939501D01*
X6418890Y40980500D01*
X6285708Y40980500D01*
X6169958Y40966971D01*
X6153422Y40965038D01*
X6153419Y40965037D01*
X5986367Y40904236D01*
X5918675Y40859714D01*
X5837832Y40806543D01*
X5837831Y40806543D01*
X5837831Y40806542D01*
X5715833Y40677233D01*
X5626944Y40523272D01*
X5626943Y40523270D01*
X5626943Y40523269D01*
X5620774Y40502663D01*
X5575955Y40352959D01*
X5575954Y40352954D01*
X5565618Y40175481D01*
X5565618Y40175480D01*
X300500Y40175480D01*
X300500Y42715480D01*
X5565618Y42715480D01*
X5596488Y42540404D01*
X5666904Y42377161D01*
X5773067Y42234561D01*
X5909254Y42120286D01*
X5939974Y42104858D01*
X6068118Y42040501D01*
X6068119Y42040501D01*
X6068123Y42040499D01*
X6241110Y41999500D01*
X6241113Y41999500D01*
X6374285Y41999500D01*
X6374292Y41999500D01*
X6506577Y42014962D01*
X6673635Y42075766D01*
X6822168Y42173457D01*
X6944167Y42302769D01*
X7033057Y42456731D01*
X7084045Y42627042D01*
X7089196Y42715480D01*
X8105618Y42715480D01*
X8136488Y42540404D01*
X8206904Y42377161D01*
X8313067Y42234561D01*
X8449254Y42120286D01*
X8479974Y42104858D01*
X8608118Y42040501D01*
X8608119Y42040501D01*
X8608123Y42040499D01*
X8781110Y41999500D01*
X8781113Y41999500D01*
X8914285Y41999500D01*
X8914292Y41999500D01*
X9046577Y42014962D01*
X9213635Y42075766D01*
X9362168Y42173457D01*
X9484167Y42302769D01*
X9573057Y42456731D01*
X9624045Y42627042D01*
X9634382Y42804520D01*
X9603511Y42979599D01*
X9533096Y43142838D01*
X9426933Y43285439D01*
X9354112Y43346543D01*
X9290746Y43399714D01*
X9290744Y43399715D01*
X9131881Y43479500D01*
X9131877Y43479501D01*
X8958890Y43520500D01*
X8825708Y43520500D01*
X8709958Y43506971D01*
X8693422Y43505038D01*
X8693419Y43505037D01*
X8526367Y43444236D01*
X8458675Y43399714D01*
X8377832Y43346543D01*
X8377831Y43346543D01*
X8377831Y43346542D01*
X8255833Y43217233D01*
X8166944Y43063272D01*
X8115955Y42892959D01*
X8115954Y42892954D01*
X8105618Y42715481D01*
X8105618Y42715480D01*
X7089196Y42715480D01*
X7094382Y42804520D01*
X7063511Y42979599D01*
X6993096Y43142838D01*
X6886933Y43285439D01*
X6814112Y43346543D01*
X6750746Y43399714D01*
X6750744Y43399715D01*
X6591881Y43479500D01*
X6591877Y43479501D01*
X6418890Y43520500D01*
X6285708Y43520500D01*
X6169958Y43506971D01*
X6153422Y43505038D01*
X6153419Y43505037D01*
X5986367Y43444236D01*
X5918675Y43399714D01*
X5837832Y43346543D01*
X5837831Y43346543D01*
X5837831Y43346542D01*
X5715833Y43217233D01*
X5626944Y43063272D01*
X5575955Y42892959D01*
X5575954Y42892954D01*
X5565618Y42715481D01*
X5565618Y42715480D01*
X300500Y42715480D01*
X300500Y45255480D01*
X5565618Y45255480D01*
X5596488Y45080404D01*
X5666904Y44917161D01*
X5746520Y44810219D01*
X5773067Y44774561D01*
X5909254Y44660286D01*
X5983250Y44623124D01*
X6068118Y44580501D01*
X6068119Y44580501D01*
X6068123Y44580499D01*
X6241110Y44539500D01*
X6241113Y44539500D01*
X6374285Y44539500D01*
X6374292Y44539500D01*
X6506577Y44554962D01*
X6673635Y44615766D01*
X6822168Y44713457D01*
X6944167Y44842769D01*
X7033057Y44996731D01*
X7084045Y45167042D01*
X7089196Y45255480D01*
X8105618Y45255480D01*
X8136488Y45080404D01*
X8206904Y44917161D01*
X8286520Y44810219D01*
X8313067Y44774561D01*
X8449254Y44660286D01*
X8523250Y44623124D01*
X8608118Y44580501D01*
X8608119Y44580501D01*
X8608123Y44580499D01*
X8781110Y44539500D01*
X8781113Y44539500D01*
X8914285Y44539500D01*
X8914292Y44539500D01*
X9046577Y44554962D01*
X9170318Y44600000D01*
X19610284Y44600000D01*
X19627142Y44471950D01*
X19631060Y44442195D01*
X19631061Y44442191D01*
X19691968Y44295145D01*
X19691969Y44295143D01*
X19691970Y44295142D01*
X19788866Y44168866D01*
X19915142Y44071970D01*
X20062194Y44011060D01*
X20201640Y43992702D01*
X20219999Y43990284D01*
X20220000Y43990284D01*
X20220001Y43990284D01*
X20236446Y43992450D01*
X20377806Y44011060D01*
X20524858Y44071970D01*
X20651134Y44168866D01*
X20748030Y44295142D01*
X20796748Y44412761D01*
X20840588Y44467164D01*
X20906882Y44489229D01*
X20974582Y44471950D01*
X21022192Y44420814D01*
X21035309Y44365308D01*
X21035309Y44359386D01*
X21056085Y44201581D01*
X21056086Y44201577D01*
X21116993Y44054531D01*
X21116994Y44054529D01*
X21116995Y44054528D01*
X21213891Y43928252D01*
X21340167Y43831356D01*
X21340168Y43831356D01*
X21340169Y43831355D01*
X21371062Y43818559D01*
X21487219Y43770446D01*
X21645025Y43749670D01*
X21680166Y43754297D01*
X21749200Y43743532D01*
X21784033Y43719039D01*
X22009181Y43493891D01*
X22042666Y43432568D01*
X22045500Y43406210D01*
X22045500Y41701456D01*
X22042861Y41676012D01*
X22040905Y41666684D01*
X22040905Y41666680D01*
X22045023Y41633640D01*
X22045500Y41625964D01*
X22045500Y41622452D01*
X22049128Y41600707D01*
X22055539Y41549274D01*
X22057655Y41542167D01*
X22060070Y41535134D01*
X22060071Y41535131D01*
X22084739Y41489548D01*
X22087081Y41484758D01*
X22107501Y41442989D01*
X22111784Y41436991D01*
X22111827Y41436936D01*
X22111876Y41436867D01*
X22116380Y41431080D01*
X22154509Y41395981D01*
X22454753Y41095737D01*
X22488238Y41034414D01*
X22490011Y40991872D01*
X22485385Y40956731D01*
X22485385Y40956728D01*
X22506161Y40798923D01*
X22506162Y40798919D01*
X22567069Y40651873D01*
X22567070Y40651871D01*
X22567071Y40651870D01*
X22610291Y40595545D01*
X22635485Y40530379D01*
X22621447Y40461934D01*
X22572634Y40411943D01*
X22559368Y40405499D01*
X22492684Y40377878D01*
X22366407Y40280981D01*
X22269509Y40154703D01*
X22208602Y40007657D01*
X22208601Y40007653D01*
X22187825Y39849847D01*
X22198486Y39768867D01*
X22208601Y39692042D01*
X22208602Y39692038D01*
X22269509Y39544992D01*
X22269510Y39544990D01*
X22269511Y39544989D01*
X22366407Y39418713D01*
X22492683Y39321817D01*
X22492684Y39321817D01*
X22492685Y39321816D01*
X22498837Y39319268D01*
X22639735Y39260907D01*
X22779181Y39242549D01*
X22797540Y39240131D01*
X22797541Y39240131D01*
X22797542Y39240131D01*
X22813987Y39242297D01*
X22955347Y39260907D01*
X23102399Y39321817D01*
X23228675Y39418713D01*
X23325571Y39544989D01*
X23386481Y39692041D01*
X23395056Y39757176D01*
X23423321Y39821070D01*
X23430301Y39828658D01*
X24010681Y40409038D01*
X24030535Y40425160D01*
X24038517Y40430374D01*
X24058974Y40456659D01*
X24064052Y40462408D01*
X24066543Y40464898D01*
X24079357Y40482846D01*
X24111186Y40523739D01*
X24111188Y40523747D01*
X24114695Y40530227D01*
X24114730Y40530297D01*
X24114760Y40530354D01*
X24117985Y40536948D01*
X24132776Y40586628D01*
X24149600Y40635636D01*
X24150824Y40642973D01*
X24151743Y40650341D01*
X24149601Y40702120D01*
X24149601Y43725323D01*
X24152240Y43750770D01*
X24154196Y43760097D01*
X24152246Y43775738D01*
X24150078Y43793138D01*
X24149601Y43800814D01*
X24149601Y43804322D01*
X24149600Y43804331D01*
X24145970Y43826085D01*
X24139561Y43877500D01*
X24137441Y43884618D01*
X24137431Y43884647D01*
X24137421Y43884678D01*
X24135030Y43891642D01*
X24135030Y43891647D01*
X24110356Y43937239D01*
X24087600Y43983789D01*
X24087599Y43983790D01*
X24083310Y43989798D01*
X24083273Y43989845D01*
X24083239Y43989893D01*
X24078722Y43995696D01*
X24069317Y44004354D01*
X24033327Y44064242D01*
X24030362Y44111768D01*
X24034741Y44145025D01*
X24013965Y44302831D01*
X23956240Y44442194D01*
X23953056Y44449881D01*
X23953055Y44449882D01*
X23953055Y44449883D01*
X23856159Y44576159D01*
X23794952Y44623126D01*
X23753751Y44679552D01*
X23749596Y44749298D01*
X23783809Y44810219D01*
X23845526Y44842971D01*
X23870440Y44845500D01*
X24201799Y44845500D01*
X24268838Y44825815D01*
X24289480Y44809181D01*
X24559652Y44539009D01*
X24593137Y44477686D01*
X24594910Y44435144D01*
X24590284Y44400003D01*
X24590284Y44400000D01*
X24608239Y44263618D01*
X24611060Y44242195D01*
X24611061Y44242191D01*
X24671968Y44095145D01*
X24671969Y44095143D01*
X24671970Y44095142D01*
X24768866Y43968866D01*
X24895142Y43871970D01*
X25042194Y43811060D01*
X25178322Y43793138D01*
X25199999Y43790284D01*
X25200000Y43790284D01*
X25200001Y43790284D01*
X25216446Y43792450D01*
X25357806Y43811060D01*
X25504858Y43871970D01*
X25631134Y43968866D01*
X25728030Y44095142D01*
X25788940Y44242194D01*
X25809716Y44400000D01*
X25788940Y44557806D01*
X25741742Y44671753D01*
X25728031Y44704856D01*
X25728030Y44704857D01*
X25728030Y44704858D01*
X25631134Y44831134D01*
X25504858Y44928030D01*
X25504857Y44928031D01*
X25504855Y44928032D01*
X25357809Y44988939D01*
X25357807Y44988940D01*
X25357806Y44988940D01*
X25278903Y44999328D01*
X25200001Y45009716D01*
X25199997Y45009716D01*
X25164856Y45005090D01*
X25095821Y45015856D01*
X25060991Y45040348D01*
X24685761Y45415578D01*
X24669633Y45435439D01*
X24664423Y45443413D01*
X24664420Y45443417D01*
X24638143Y45463869D01*
X24632379Y45468960D01*
X24629898Y45471441D01*
X24629899Y45471441D01*
X24623171Y45476245D01*
X24611949Y45484257D01*
X24571056Y45516085D01*
X24564511Y45519627D01*
X24557850Y45522884D01*
X24508168Y45537675D01*
X24459154Y45554501D01*
X24451834Y45555723D01*
X24444454Y45556643D01*
X24392675Y45554500D01*
X20869627Y45554500D01*
X20844183Y45557139D01*
X20834854Y45559095D01*
X20834850Y45559095D01*
X20801810Y45554977D01*
X20794133Y45554500D01*
X20790623Y45554500D01*
X20776125Y45552082D01*
X20768876Y45550872D01*
X20756087Y45549278D01*
X20717449Y45544461D01*
X20717447Y45544461D01*
X20717444Y45544460D01*
X20710349Y45542349D01*
X20703304Y45539930D01*
X20703302Y45539930D01*
X20703302Y45539929D01*
X20657718Y45515261D01*
X20636435Y45504856D01*
X20611159Y45492499D01*
X20605101Y45488175D01*
X20599250Y45483620D01*
X20564151Y45445491D01*
X20359007Y45240348D01*
X20297684Y45206863D01*
X20255141Y45205090D01*
X20220001Y45209716D01*
X20219999Y45209716D01*
X20062194Y45188940D01*
X20062190Y45188939D01*
X19915144Y45128032D01*
X19788866Y45031134D01*
X19691968Y44904856D01*
X19631061Y44757810D01*
X19631060Y44757806D01*
X19612360Y44615765D01*
X19610284Y44600000D01*
X9170318Y44600000D01*
X9213635Y44615766D01*
X9362168Y44713457D01*
X9484167Y44842769D01*
X9573057Y44996731D01*
X9624045Y45167042D01*
X9634382Y45344520D01*
X9603511Y45519599D01*
X9533096Y45682838D01*
X9488949Y45742137D01*
X9426932Y45825440D01*
X9290746Y45939714D01*
X9290744Y45939715D01*
X9131881Y46019500D01*
X9110561Y46024553D01*
X8958890Y46060500D01*
X8825708Y46060500D01*
X8709958Y46046971D01*
X8693422Y46045038D01*
X8693419Y46045037D01*
X8526367Y45984236D01*
X8458675Y45939714D01*
X8377832Y45886543D01*
X8377831Y45886543D01*
X8377831Y45886542D01*
X8255833Y45757233D01*
X8166944Y45603272D01*
X8166943Y45603270D01*
X8166943Y45603269D01*
X8164552Y45595283D01*
X8115955Y45432959D01*
X8115954Y45432954D01*
X8105618Y45255481D01*
X8105618Y45255480D01*
X7089196Y45255480D01*
X7094382Y45344520D01*
X7063511Y45519599D01*
X6993096Y45682838D01*
X6948949Y45742137D01*
X6886932Y45825440D01*
X6750746Y45939714D01*
X6750744Y45939715D01*
X6591881Y46019500D01*
X6570561Y46024553D01*
X6418890Y46060500D01*
X6285708Y46060500D01*
X6169958Y46046971D01*
X6153422Y46045038D01*
X6153419Y46045037D01*
X5986367Y45984236D01*
X5918675Y45939714D01*
X5837832Y45886543D01*
X5837831Y45886543D01*
X5837831Y45886542D01*
X5715833Y45757233D01*
X5626944Y45603272D01*
X5626943Y45603270D01*
X5626943Y45603269D01*
X5624552Y45595283D01*
X5575955Y45432959D01*
X5575954Y45432954D01*
X5565618Y45255481D01*
X5565618Y45255480D01*
X300500Y45255480D01*
X300500Y47795480D01*
X5565618Y47795480D01*
X5596488Y47620404D01*
X5666904Y47457161D01*
X5740869Y47357810D01*
X5773067Y47314561D01*
X5909254Y47200286D01*
X5987990Y47160743D01*
X6068118Y47120501D01*
X6068119Y47120501D01*
X6068123Y47120499D01*
X6241110Y47079500D01*
X6241113Y47079500D01*
X6374285Y47079500D01*
X6374292Y47079500D01*
X6506577Y47094962D01*
X6673635Y47155766D01*
X6822168Y47253457D01*
X6944167Y47382769D01*
X7033057Y47536731D01*
X7084045Y47707042D01*
X7089131Y47794372D01*
X7112680Y47860151D01*
X7168055Y47902759D01*
X7237674Y47908664D01*
X7256491Y47903253D01*
X7265976Y47899693D01*
X7321345Y47889645D01*
X7487450Y47859500D01*
X7487453Y47859500D01*
X7656148Y47859500D01*
X7656155Y47859500D01*
X7824188Y47874623D01*
X7948770Y47909006D01*
X8018627Y47907867D01*
X8076782Y47869139D01*
X8104766Y47805118D01*
X8105546Y47796698D01*
X8105616Y47795489D01*
X8136488Y47620404D01*
X8206904Y47457161D01*
X8280869Y47357810D01*
X8313067Y47314561D01*
X8449254Y47200286D01*
X8527990Y47160743D01*
X8608118Y47120501D01*
X8608119Y47120501D01*
X8608123Y47120499D01*
X8781110Y47079500D01*
X8781113Y47079500D01*
X8914285Y47079500D01*
X8914292Y47079500D01*
X9046577Y47094962D01*
X9213635Y47155766D01*
X9362168Y47253457D01*
X9484167Y47382769D01*
X9573057Y47536731D01*
X9624045Y47707042D01*
X9634382Y47884520D01*
X9603511Y48059599D01*
X9533096Y48222838D01*
X9426933Y48365439D01*
X9354112Y48426543D01*
X9290746Y48479714D01*
X9290744Y48479715D01*
X9131881Y48559500D01*
X9131877Y48559501D01*
X8958890Y48600500D01*
X8921860Y48600500D01*
X8854821Y48620185D01*
X8809066Y48672989D01*
X8799122Y48742147D01*
X8800969Y48752092D01*
X8818890Y48830613D01*
X8844191Y48941463D01*
X8854290Y49166330D01*
X8824075Y49389387D01*
X8802007Y49457303D01*
X8800013Y49527141D01*
X8836093Y49586974D01*
X8898793Y49617803D01*
X8912725Y49619409D01*
X8914284Y49619500D01*
X8914292Y49619500D01*
X9046577Y49634962D01*
X9213635Y49695766D01*
X9362168Y49793457D01*
X9484167Y49922769D01*
X9573057Y50076731D01*
X9624045Y50247042D01*
X9634382Y50424520D01*
X9603511Y50599599D01*
X9533096Y50762838D01*
X9426933Y50905439D01*
X9354112Y50966543D01*
X9290746Y51019714D01*
X9290744Y51019715D01*
X9131881Y51099500D01*
X9131877Y51099501D01*
X8958890Y51140500D01*
X8825708Y51140500D01*
X8709958Y51126971D01*
X8693422Y51125038D01*
X8693419Y51125037D01*
X8526367Y51064236D01*
X8458675Y51019714D01*
X8377832Y50966543D01*
X8377831Y50966543D01*
X8377831Y50966542D01*
X8255833Y50837233D01*
X8166944Y50683272D01*
X8115955Y50512959D01*
X8115954Y50512954D01*
X8110868Y50425630D01*
X8087318Y50359849D01*
X8031943Y50317242D01*
X7962323Y50311337D01*
X7943507Y50316748D01*
X7934022Y50320308D01*
X7712550Y50360500D01*
X7712547Y50360500D01*
X7543845Y50360500D01*
X7505399Y50357040D01*
X7375813Y50345378D01*
X7375807Y50345377D01*
X7251231Y50310995D01*
X7181370Y50312135D01*
X7123217Y50350863D01*
X7095233Y50414884D01*
X7094452Y50423317D01*
X7094381Y50424512D01*
X7094382Y50424520D01*
X7063511Y50599599D01*
X6993096Y50762838D01*
X6886933Y50905439D01*
X6814112Y50966543D01*
X6750746Y51019714D01*
X6750744Y51019715D01*
X6591881Y51099500D01*
X6591877Y51099501D01*
X6418890Y51140500D01*
X6285708Y51140500D01*
X6169958Y51126971D01*
X6153422Y51125038D01*
X6153419Y51125037D01*
X5986367Y51064236D01*
X5918675Y51019714D01*
X5837832Y50966543D01*
X5837831Y50966543D01*
X5837831Y50966542D01*
X5715833Y50837233D01*
X5626944Y50683272D01*
X5575955Y50512959D01*
X5575954Y50512954D01*
X5565618Y50335481D01*
X5565618Y50335480D01*
X5582500Y50239734D01*
X5596489Y50160401D01*
X5598553Y50155617D01*
X5666904Y49997161D01*
X5723304Y49921404D01*
X5773067Y49854561D01*
X5909254Y49740286D01*
X5987990Y49700743D01*
X6068118Y49660501D01*
X6068119Y49660501D01*
X6068123Y49660499D01*
X6241110Y49619500D01*
X6241113Y49619500D01*
X6278140Y49619500D01*
X6345179Y49599815D01*
X6390934Y49547011D01*
X6400878Y49477853D01*
X6399031Y49467908D01*
X6355810Y49278543D01*
X6355808Y49278532D01*
X6350769Y49166326D01*
X6345710Y49053670D01*
X6375925Y48830613D01*
X6375926Y48830609D01*
X6397991Y48762700D01*
X6399986Y48692859D01*
X6363906Y48633026D01*
X6301205Y48602198D01*
X6287299Y48600594D01*
X6285737Y48600503D01*
X6285711Y48600500D01*
X6285708Y48600500D01*
X6197775Y48590222D01*
X6153422Y48585038D01*
X6153419Y48585037D01*
X5986367Y48524236D01*
X5918675Y48479714D01*
X5837832Y48426543D01*
X5837831Y48426543D01*
X5837831Y48426542D01*
X5715833Y48297233D01*
X5626944Y48143272D01*
X5575955Y47972959D01*
X5575954Y47972954D01*
X5565618Y47795481D01*
X5565618Y47795480D01*
X300500Y47795480D01*
X300500Y50497787D01*
X300658Y50502211D01*
X313607Y50683269D01*
X317165Y50733023D01*
X319683Y50750530D01*
X367459Y50970149D01*
X372436Y50987100D01*
X450985Y51197701D01*
X458325Y51213773D01*
X566044Y51411044D01*
X575600Y51425914D01*
X710294Y51605844D01*
X721868Y51619201D01*
X880799Y51778132D01*
X894156Y51789706D01*
X1074086Y51924400D01*
X1088956Y51933956D01*
X1286227Y52041675D01*
X1302299Y52049015D01*
X1512900Y52127564D01*
X1529851Y52132541D01*
X1749472Y52180318D01*
X1766977Y52182835D01*
X1997791Y52199343D01*
X2002214Y52199500D01*
X2047595Y52199500D01*
X16389715Y52199500D01*
X16456754Y52179815D01*
G37*
G04 #@! TD.AperFunction*
M02*
